<svg width="82" height="62" viewBox="0 0 82 62" fill="none" xmlns="http://www.w3.org/2000/svg">
<path d="M52.1521 16.7444C55.3989 16.7521 58.6418 16.7675 61.8886 16.7636C63.0452 16.7636 64.0173 17.1517 64.8165 17.9932C65.1316 18.3275 65.4543 18.6541 65.7848 18.973C66.6685 19.826 67.3678 20.7751 68.9009 20.7751C70.3495 20.7751 71.36 21.9739 72.3244 23.0421C74.5031 25.455 76.77 27.7835 78.8756 30.2618C79.5942 31.1033 79.9016 32.1523 79.9131 33.2089C79.9553 37.8044 79.9169 42.4037 79.9131 46.9991C79.037 46.4189 78.2532 45.7427 77.6576 44.8705C77.6576 44.4132 77.6922 43.956 77.6576 43.5026C77.6384 43.2567 77.8651 42.7764 77.4117 42.811C76.9506 42.8455 76.3435 42.3998 76.0131 43.103C75.5674 43.0453 75.3829 42.6457 75.0909 42.3921C74.7105 42.0655 74.3763 41.6775 73.8268 41.6429C73.8422 40.859 74.261 40.4979 75.0218 40.494C75.8479 40.4863 76.674 40.4786 77.5001 40.471C77.6115 40.4979 77.6538 40.4517 77.6384 40.3442C77.6461 37.9926 77.6576 35.6411 77.6615 33.2896C77.6615 32.6825 77.4809 32.0869 77.0966 31.6528C75.8594 30.2618 74.553 28.9285 73.2889 27.5607C72.4243 26.627 71.6098 25.6472 70.7299 24.7327C70.0805 24.0564 69.531 23.2534 68.5244 22.9883C67.825 22.8038 67.1296 22.8576 66.4341 22.8538C62.5956 22.8307 58.7571 22.823 54.9186 22.8077C54.8379 22.239 54.2961 22.0277 53.9964 21.6319C53.7467 21.3015 53.2702 21.1247 53.2933 20.6098H63.9212C63.099 19.3611 62.1384 18.9653 60.8089 19.0191C58.0847 19.1267 55.3528 19.046 52.6209 19.0614C52.3481 19.0614 52.0215 18.9154 51.8024 19.2266C51.2568 19.1113 51.034 18.6041 50.6536 18.2891C50.3731 18.0547 50.1694 17.7012 49.7237 17.7665C49.7122 17.6589 49.6891 17.5513 49.6891 17.4437C49.6891 14.9308 49.6968 12.4179 49.6853 9.90889C49.6776 8.51028 49.1205 7.97235 47.7526 7.96466C46.1311 7.95698 44.5135 7.94161 42.892 7.93008C42.869 7.29609 42.2772 7.08476 41.9506 6.67747C41.7201 6.3893 41.3589 6.18181 41.4281 5.73226C43.8065 5.72457 46.1926 5.60162 48.5633 5.73994C50.6497 5.86289 51.9177 7.32299 51.9561 9.80899C51.9907 12.0798 51.9869 14.3545 51.9984 16.6253C51.9869 16.7444 52.0483 16.7752 52.1521 16.7521V16.7444Z" fill="#4760CA"/>
<path d="M21.7938 58.7069C20.7986 60.1669 19.3655 61.0353 17.7363 61.5848C16.3569 62.0497 14.9467 62.0689 13.5328 61.627C10.5665 60.7049 8.56076 58.5032 7.96904 55.7944C7.85761 55.2795 7.66549 55.0989 7.1314 55.1104C5.15644 55.1411 3.18147 55.1296 1.2065 55.1181C0.411132 55.1143 0.00384235 54.7416 0 53.9692C0 48.3978 0.0115271 42.8264 0.0230541 37.255C0.476452 37.3126 0.649357 37.7353 0.960588 37.9774C1.39862 38.3193 1.64837 38.888 2.24393 39.0417C2.25162 39.96 2.28236 40.8783 2.26315 41.7967C2.25546 42.1847 2.37457 42.3039 2.76265 42.2962C3.68097 42.277 4.5993 42.3039 5.51762 42.3154C5.66363 42.8994 6.21692 43.1453 6.55505 43.568C6.79712 43.8639 7.20057 44.0598 7.13909 44.5363C5.70589 44.5439 4.2727 44.5747 2.8395 44.5516C2.38226 44.5439 2.24009 44.6746 2.25546 45.1357C2.29004 46.2154 2.30157 47.3028 2.25546 48.3825C2.22856 48.9857 2.45526 49.0894 2.99703 49.0779C4.6454 49.0433 6.30146 49.0088 7.94598 49.0894C8.96421 49.1394 9.78647 48.9588 10.3782 48.0789C10.5319 47.8484 10.7893 47.7446 11.0429 47.6486C11.5962 48.175 12.3339 48.5438 12.5069 49.3891C11.4848 49.8963 10.9123 50.8339 10.4781 51.7906C9.86332 53.1431 9.871 54.5763 10.4089 55.9942C11.2389 58.1766 12.941 59.3831 15.1235 59.6098C16.9332 59.7942 18.6392 59.1257 19.8188 57.5618C19.8188 57.5234 19.8188 57.4888 19.8188 57.4504C19.8765 57.435 19.938 57.4197 19.9956 57.4043C20.3222 57.3543 20.5297 57.5465 20.7449 57.754C21.0868 58.0767 21.3635 58.4763 21.79 58.7069H21.7938ZM7.63475 52.8204C7.74618 52.8473 7.78845 52.8012 7.76924 52.6897C7.82687 52.5437 7.88835 52.3977 7.9383 52.2517C8.14579 51.6549 7.92421 51.3564 7.27357 51.3564C6.02865 51.3564 4.78757 51.3564 3.54265 51.3564C2.66659 51.3564 2.25034 51.8009 2.29388 52.6897C2.27467 52.8012 2.31694 52.8473 2.42837 52.8204C4.16127 52.8204 5.89801 52.8204 7.63091 52.8204H7.63475Z" fill="#4760CA"/>
<path d="M41.428 5.72076C41.3589 6.17031 41.72 6.3778 41.9506 6.66598C42.2772 7.07327 42.8689 7.2846 42.892 7.91858C42.5769 7.94548 42.258 7.96853 41.8199 8.00311C42.0005 8.29898 42.1196 8.52952 42.2657 8.737C42.9611 9.71296 43.5759 10.735 44.0447 11.8416C44.913 13.8781 45.4433 16.0106 45.6162 18.2046C45.7122 19.3957 45.839 20.6252 45.4587 21.8125C44.9169 21.7434 44.6056 21.3322 44.2522 20.9864C44.0101 20.752 43.8026 20.4562 43.3992 20.5138C43.257 19.3342 43.2493 18.1508 43.061 16.9596C42.8458 15.6033 42.4578 14.3353 42.0466 13.0673C41.4472 11.2268 40.3137 9.67454 39.0073 8.25671C38.9074 8.14528 38.8037 7.94164 38.6231 8.03385C38.4079 8.14528 38.527 8.32587 38.5847 8.5103C38.7269 8.95986 38.8344 9.42478 38.9459 9.88587C39.4876 12.1567 38.2427 14.0164 36.0679 14.1893C35.4724 13.0596 34.4119 12.3642 33.5474 11.4804C33.4744 11.4074 33.2938 11.4343 33.167 11.4151C33.117 11.2 33.2131 10.881 32.8135 10.9079C32.7981 10.5429 32.4753 10.3931 32.2832 10.151C32.0104 9.80902 31.5455 9.60922 31.4994 9.09818C32.533 8.34893 34.1698 8.46035 34.8999 9.35178C35.384 9.9435 35.434 10.6659 35.4109 11.3921C35.3917 11.9838 35.5531 12.1874 36.1602 11.8839C36.529 11.6995 36.6635 11.4535 36.7096 11.0847C36.7788 10.5391 36.5828 10.028 36.4829 9.51316C36.2485 8.34893 35.8028 7.20006 36.2754 6.00509C36.3907 5.71307 36.214 5.58243 36.0564 5.48253C35.1304 4.91002 34.2505 4.25682 33.24 3.84185C30.9691 2.912 28.6253 2.30491 26.1547 2.29338C26.097 1.8323 25.7628 1.55181 25.4823 1.22905C25.1518 0.852498 24.6485 0.618115 24.5332 0.0686584C27.1998 -0.181094 29.7703 0.272303 32.3063 1.07535C35.0497 1.94757 37.4051 3.45377 39.5068 5.37879C40.1024 5.92825 40.8094 5.5248 41.4319 5.72076H41.428Z" fill="#4760CA"/>
<path d="M66.9376 61.1045C65.1855 61.9805 63.3565 62.2111 61.4968 61.5809C58.6458 60.6127 56.7438 58.7184 56.056 55.7214C55.96 55.3102 55.8024 55.0912 55.3145 55.1066C54.1541 55.1373 52.9937 55.0989 51.8333 55.0912C51.8679 54.4841 51.3107 54.2805 51.011 53.9001C50.7613 53.5812 50.3117 53.3852 50.3693 52.8703C52.156 52.8511 53.9466 52.8319 55.7333 52.8127C55.8409 52.8357 55.8831 52.7935 55.8639 52.6859C55.91 52.5629 55.9561 52.44 56.0022 52.317C56.3596 51.3411 56.3596 51.3449 55.2952 51.3411C53.1128 51.3295 50.9303 51.3142 48.7479 51.3026C48.7901 50.8838 48.4328 50.7148 48.2215 50.4458C47.8641 49.9924 47.2609 49.7388 47.1226 49.1048C47.7681 49.0933 48.4174 49.0472 49.0591 49.0741C49.5509 49.0971 49.7161 48.9434 49.7046 48.4401C49.6816 47.3104 49.7161 46.177 49.7277 45.0435C50.1811 44.9781 50.3809 45.3508 50.6691 45.5775C51.0763 45.9003 51.2915 46.4959 51.9332 46.5074C51.9447 47.176 51.9793 47.8484 51.9601 48.5169C51.9486 48.9319 52.083 49.0818 52.5095 49.0741C53.4202 49.0587 54.3308 49.0933 55.2453 49.1048C55.9023 50.5303 57.1204 51.4256 58.3076 52.3554C57.6352 54.7185 58.3307 56.705 60.1251 58.2573C61.7312 59.6482 63.6101 60.0248 65.6465 59.2102C65.708 59.6521 66.1115 59.8288 66.3574 60.1247C66.5994 60.4205 67.0067 60.6127 66.9453 61.093L66.9376 61.1045Z" fill="#4760CA"/>
<path d="M77.9845 55.0874C76.0634 55.0989 74.146 55.1181 72.2249 55.1104C71.6869 55.1104 71.2873 55.1219 71.2989 55.8597C71.3027 56.267 71.0184 56.6742 70.8647 57.0815C70.6226 56.8741 70.3844 56.6627 70.1423 56.4552C69.808 56.1671 69.5852 55.706 69.0319 55.7636C69.2931 54.7646 69.3815 53.7195 69.1433 52.7474C68.2826 49.2739 64.763 47.7523 61.7391 48.7552C61.7237 48.4362 61.4701 48.248 61.328 47.9982C61.082 47.5679 60.5095 47.3834 60.4365 46.8186C63.3452 45.5814 66.2001 45.8542 68.5477 47.8561C69.8195 48.9396 71.0145 49.1432 72.4708 49.0741C72.6859 49.0626 72.9011 49.0971 73.1163 49.1087C73.051 49.5582 73.4121 49.7619 73.6427 50.05C73.9654 50.4573 74.5572 50.6687 74.5764 51.3026C73.6081 51.318 72.636 51.3257 71.6677 51.3487C71.4987 51.3526 71.2835 51.2642 71.1836 51.5101C70.9953 51.9751 71.5678 52.8357 72.0789 52.8396C73.562 52.855 75.0451 52.8588 76.5244 52.8703C76.4668 53.3852 76.9164 53.5773 77.1661 53.9001C77.462 54.2805 78.0191 54.4803 77.9884 55.0912L77.9845 55.0874Z" fill="#4760CA"/>
<path d="M77.9843 55.0873C78.0189 54.4802 77.4617 54.2766 77.162 53.8962C76.9123 53.5773 76.4627 53.3813 76.5204 52.8664C77.4963 52.8472 78.4723 52.828 79.4482 52.8088C79.5558 52.8319 79.5943 52.7896 79.5789 52.682C79.5904 52.5475 79.5866 52.413 79.6096 52.2824C79.7556 51.5101 79.4598 51.2834 78.6721 51.318C77.3081 51.3795 75.9363 51.3103 74.5685 51.2988C74.5492 50.6648 73.9575 50.4534 73.6348 50.0462C73.4042 49.758 73.043 49.5543 73.1084 49.1048C74.4263 49.0933 75.7481 49.0625 77.066 49.074C77.5079 49.0779 77.7269 48.9741 77.6692 48.4938C77.6423 48.2825 77.6423 48.0597 77.6692 47.8483C77.7346 47.3527 77.5501 47.1798 77.0468 47.2105C76.3744 47.2528 75.6981 47.2412 75.0257 47.2105C74.1227 47.1759 73.8077 46.8877 73.7961 45.9886C73.7731 44.5362 73.8115 43.08 73.823 41.6276C74.3725 41.6621 74.7068 42.0502 75.0872 42.3768C75.383 42.6304 75.5636 43.0339 76.0093 43.0877C76.017 43.5411 76.0324 43.9945 76.0324 44.4479C76.0324 44.736 76.067 45.0204 76.4243 45.0242C76.8354 45.0242 77.2773 45.1625 77.6539 44.859C78.2533 45.7312 79.0371 46.4075 79.9093 46.9876C79.9285 47.637 79.9477 48.2902 79.967 48.9396C79.9439 49.0471 79.99 49.0894 80.0938 49.0702C81.6538 49.1586 81.8843 49.4083 81.8843 51.0375C81.8843 51.9289 81.8958 52.8242 81.8843 53.7156C81.8689 54.6685 81.4539 55.0912 80.501 55.1027C79.6634 55.1104 78.8258 55.0873 77.9843 55.0796V55.0873Z" fill="#4760CA"/>
<path d="M31.6801 55.0873C28.9712 55.0873 26.2662 55.0911 23.5574 55.095C23.4959 54.3688 22.0512 52.7857 21.3672 52.7127C21.2904 52.705 21.1982 52.8126 21.1136 52.8664C20.8408 52.6205 20.9023 52.2478 20.787 51.9442C20.203 50.4457 19.0733 49.5159 17.7055 48.805C17.6786 48.3324 17.3443 48.0481 17.0638 47.7215C16.6296 47.2181 15.9918 46.8915 15.7612 46.2153C17.8284 46.1384 19.5921 46.8762 21.0368 48.3209C21.567 48.8511 22.0781 49.1239 22.8542 49.0932C24.2797 49.0356 25.7091 49.1009 27.1346 49.1124C27.1922 49.6235 27.6533 49.8309 27.9492 50.1614C28.2527 50.5034 28.6024 50.8031 28.5947 51.3102C27.1461 51.3256 25.6976 51.341 24.249 51.3487C23.0156 51.3564 23.0156 51.3487 23.419 52.5206C23.3768 52.7703 23.4728 52.8741 23.7264 52.8165C25.8935 52.8357 28.0568 52.851 30.2238 52.8702C30.1662 53.3851 30.6158 53.5772 30.8655 53.9C31.1614 54.2804 31.7185 54.4802 31.6878 55.0911L31.6801 55.0873Z" fill="#4760CA"/>
<path d="M24.5293 0.0687256C24.6446 0.618182 25.1518 0.852565 25.4784 1.22912C25.7627 1.55187 26.0932 1.83237 26.1508 2.29345C24.1758 2.28576 22.2393 2.53936 20.3757 3.17335C20.7177 4.59502 21.8589 5.00999 23.0808 5.40575C25.1979 6.08969 25.8626 7.20397 25.4899 9.275C25.367 9.42869 24.9866 9.5017 25.3247 9.8014C25.8357 10.8081 26.1662 11.8225 25.5091 12.8983C25.2517 12.664 25.0058 12.4219 24.7368 12.2029C24.3756 11.9109 24.1758 11.3806 23.588 11.4152C23.246 10.6121 22.5774 9.8552 23.0731 8.90613C23.4765 8.12998 23.1384 7.89175 22.4391 7.66121C21.0482 7.20397 19.6572 6.69678 18.8542 5.32506C18.6275 4.93699 18.5391 4.35295 18.1395 4.21462C17.7053 4.06477 17.3595 4.65649 16.8907 4.7295C16.5872 4.01098 15.9609 3.596 15.3999 3.11955C17.1597 1.77089 19.1961 1.04468 21.3171 0.552862C22.3661 0.306951 23.4573 0.226262 24.5255 0.0725679L24.5293 0.0687256Z" fill="#4760CA"/>
<path d="M3.57324 5.72463C6.06309 5.6401 8.55677 5.65163 11.0466 5.72079C11.0428 6.06276 11.3117 6.22414 11.5077 6.43547C11.9995 6.95803 12.499 7.47674 12.9908 7.99546C11.8305 9.28649 10.9429 10.762 10.0822 12.2566C9.575 11.6611 9.14081 10.9771 8.31086 10.7696C8.83726 9.85516 9.36367 8.94452 9.95155 7.92246H5.19856C5.24082 7.50364 4.87964 7.33458 4.67215 7.06945C4.31482 6.61606 3.71157 6.36246 3.57708 5.72847L3.57324 5.72463Z" fill="#4760CA"/>
<path d="M0.0273438 31.2416C0.0273438 28.479 0.0273438 25.7163 0.0273438 22.9575C0.480741 23.0152 0.653647 23.4378 0.964878 23.6799C1.40291 24.0219 1.65266 24.5905 2.24822 24.7442C2.24822 27.4531 2.24822 30.1581 2.24822 32.8669C1.65266 32.7094 1.39522 32.1484 0.964878 31.7949C0.680544 31.5605 0.484584 31.184 0.0311861 31.2416H0.0273438Z" fill="#4760CA"/>
<path d="M31.6799 55.0873C31.7145 54.4802 31.1574 54.2766 30.8577 53.8962C30.6079 53.5773 30.1584 53.3813 30.216 52.8665C32.8173 52.8665 35.4147 52.8665 38.016 52.8665C37.9583 53.3813 38.4079 53.5735 38.6576 53.8962C38.9535 54.2766 39.5106 54.4764 39.4799 55.0873C36.8786 55.0873 34.2812 55.0873 31.6799 55.0873Z" fill="#4760CA"/>
<path d="M2.24822 24.7404C1.6565 24.5829 1.40291 24.0181 0.964878 23.6761C0.653647 23.434 0.480741 23.0114 0.0273438 22.9537C0.0273438 20.5715 0.0273438 18.1892 0.0273438 15.8031C0.407737 15.7493 0.603697 16.0298 0.849607 16.2373C1.31837 16.6292 1.61039 17.2363 2.24822 17.4284C2.24822 19.8645 2.24822 22.3044 2.24822 24.7404Z" fill="#4760CA"/>
<path d="M2.24822 17.4283C1.61039 17.2362 1.31837 16.633 0.849607 16.2372C0.603697 16.0297 0.407737 15.7492 0.0273438 15.803C0.0273438 13.5821 0.0273438 11.3613 0.0273438 9.14038C0.384682 9.20186 0.634435 9.4593 0.911085 9.6591C1.37985 9.99722 1.6296 10.6005 2.24438 10.7657C2.24438 12.9866 2.24438 15.2075 2.24438 17.4283H2.24822Z" fill="#4760CA"/>
<path d="M39.4802 55.0873C39.5148 54.4802 38.9577 54.2766 38.658 53.8962C38.4082 53.5773 37.9586 53.3813 38.0163 52.8665C40.1296 52.8665 42.239 52.8665 44.3523 52.8665C44.4945 53.4543 45.0324 53.7195 45.3974 54.1152C45.6626 54.4034 45.8777 54.6724 45.8124 55.0835C43.6991 55.0835 41.5897 55.0835 39.4764 55.0835L39.4802 55.0873Z" fill="#4760CA"/>
<path d="M0.0267916 31.2416C0.484031 31.1801 0.676149 31.5605 0.960483 31.7949C1.39083 32.1484 1.65211 32.7094 2.24383 32.8669C2.24383 34.9264 2.24383 36.9821 2.24383 39.0416C1.65211 38.8841 1.39851 38.3192 0.960483 37.9773C0.649253 37.7352 0.476347 37.3125 0.0229492 37.2549C0.0229492 35.2492 0.0229492 33.2473 0.0229492 31.2416H0.0267916Z" fill="#4760CA"/>
<path d="M45.8161 55.0873C45.8814 54.6761 45.6624 54.4072 45.4011 54.119C45.0361 53.7194 44.4981 53.4543 44.356 52.8702C46.3617 52.8702 48.3635 52.8702 50.3692 52.8702C50.3116 53.3851 50.7612 53.5772 51.0109 53.9C51.3068 54.2804 51.8639 54.484 51.8332 55.0911C49.8275 55.0911 47.8256 55.0911 45.8199 55.0911L45.8161 55.0873Z" fill="#4760CA"/>
<path d="M2.2475 10.7696C1.63273 10.6044 1.38298 10.0011 0.914208 9.66302C0.637559 9.46321 0.387806 9.20962 0.0304673 9.1443C-0.0463798 7.26539 1.56741 5.70924 3.57312 5.72845C3.7076 6.36244 4.31085 6.61603 4.66819 7.06943C4.87567 7.33455 5.23685 7.50361 5.19459 7.92243C4.63361 7.9378 4.07646 7.9378 3.51548 7.97622C2.98139 8.01465 2.36662 8.2913 2.37814 8.76775C2.39736 9.45169 2.12455 10.0972 2.24366 10.7696H2.2475Z" fill="#4760CA"/>
<path d="M69.0276 55.7674C69.577 55.7059 69.8037 56.1708 70.138 56.459C70.3801 56.6665 70.6183 56.8778 70.8604 57.0853C70.138 58.9988 68.7855 60.2937 66.9335 61.1044C66.9911 60.6241 66.5877 60.432 66.3456 60.1361C66.0997 59.8364 65.6962 59.6597 65.6348 59.2217C67.31 58.603 68.3744 57.3888 69.0276 55.7674Z" fill="#4760CA"/>
<path d="M12.9947 7.99545C12.499 7.47673 12.0034 6.95802 11.5115 6.43546C11.3156 6.22797 11.0428 6.06275 11.0505 5.72078C12.3914 5.86679 12.9908 4.70256 13.8976 4.09546C14.3971 3.76118 14.8352 3.33852 15.4077 3.11951C15.9687 3.59596 16.595 4.01477 16.8985 4.72945C15.5076 5.71309 14.1166 6.68905 12.9947 7.99545Z" fill="#4760CA"/>
<path d="M21.1138 52.8664C21.1983 52.8126 21.2905 52.705 21.3674 52.7127C22.0513 52.7857 23.4961 54.3687 23.5575 55.0949C23.0888 56.0786 22.9389 57.1929 22.2972 58.115C22.1435 58.334 22.0283 58.5607 21.7939 58.7029C21.3674 58.4724 21.0907 58.0728 20.7488 57.75C20.5336 57.5425 20.3261 57.3504 19.9995 57.4003C21.0254 56.0478 21.256 54.5032 21.1138 52.8664Z" fill="#4760CA"/>
<path d="M52.1526 16.7445C52.045 16.7675 51.9835 16.7368 51.9989 16.6177C52.0489 16.6599 52.1027 16.7022 52.1526 16.7445Z" fill="#4760CA"/>
<path d="M80.0938 49.0817C79.9863 49.1009 79.944 49.0586 79.967 48.951C80.0093 48.9933 80.0516 49.0394 80.0938 49.0817Z" fill="#4760CA"/>
<path d="M54.9147 22.8C54.1347 22.8154 53.3547 22.8615 52.5785 22.8307C52.0636 22.8115 51.9484 22.9998 51.9522 23.4801C51.9676 25.2015 51.9368 26.919 51.9253 28.6404C51.2836 28.6365 51.0723 28.0371 50.665 27.7144C50.3768 27.4838 50.177 27.115 49.7236 27.1803C49.7236 24.0372 49.7236 20.898 49.7236 17.755C50.1693 17.6897 50.373 18.0432 50.6535 18.2775C51.0339 18.5926 51.2606 19.0998 51.8023 19.2151C51.8485 20.0835 52.3185 20.5407 53.2125 20.5868C53.2394 20.5868 53.2663 20.5945 53.2893 20.5983C53.2663 21.117 53.7427 21.29 53.9925 21.6204C54.2922 22.0162 54.834 22.2275 54.9147 22.7962V22.8Z" fill="#4760CA"/>
<path d="M77.4961 40.4633L77.6344 40.3365C77.6498 40.448 77.6037 40.4902 77.4961 40.4633Z" fill="#4760CA"/>
<path d="M13.1601 44.5361C11.1544 44.5361 9.15257 44.5361 7.14686 44.5361C7.20834 44.0596 6.80105 43.8637 6.56283 43.5678C6.22086 43.1451 5.6714 42.8992 5.52539 42.3152C7.5311 42.3152 9.53296 42.3152 11.5387 42.3152C11.6962 42.9108 12.2572 43.1682 12.6107 43.5985C12.8451 43.8829 13.2216 44.0788 13.164 44.5361H13.1601Z" fill="#4760CA"/>
<path d="M17.7018 48.805C16.5145 48.5514 15.3426 48.2824 14.1092 48.6052C13.5059 48.7627 13.0833 49.22 12.5069 49.3929C12.334 48.5475 11.5924 48.1787 11.043 47.6523C12.3916 46.4343 14.0016 46.0846 15.7575 46.2191C15.9881 46.8953 16.6221 47.2258 17.0601 47.7253C17.3444 48.0519 17.6787 48.3324 17.7018 48.8088V48.805Z" fill="#4760CA"/>
<path d="M19.8192 57.5578C19.7769 57.5309 19.7346 57.5079 19.6924 57.481C19.7346 57.4695 19.7769 57.4579 19.8192 57.4464C19.8192 57.4848 19.8192 57.5194 19.8192 57.5578Z" fill="#4760CA"/>
<path d="M29.7705 16.487C29.4631 14.8847 28.6639 13.3055 29.271 11.6418C29.6745 10.5467 30.3968 9.62839 31.4996 9.09814C31.5457 9.60918 32.0106 9.81282 32.2834 10.1509C32.4755 10.393 32.7983 10.5429 32.8137 10.9079C31.5342 11.6149 31.2268 12.3603 31.5188 13.8012C31.7954 15.1575 32.1451 16.5062 31.976 17.9125C31.392 17.7703 31.1307 17.2324 30.7273 16.8712C30.4429 16.6176 30.1893 16.364 29.7667 16.4831L29.7705 16.487Z" fill="#4760CA"/>
<path d="M41.601 27.5069C42.5578 25.2707 43.2148 22.9537 43.4031 20.5177C43.8065 20.46 44.014 20.7559 44.2561 20.9903C44.6096 21.3361 44.917 21.7472 45.4626 21.8164C45.3204 24.3101 44.6211 26.6385 43.3877 28.8056C43.0227 28.8056 42.869 28.4905 42.6269 28.2984C42.2888 28.0295 42.1005 27.5645 41.5972 27.5031L41.601 27.5069Z" fill="#4760CA"/>
<path d="M36.072 14.1893C34.5005 14.781 33.0904 13.8704 33.1518 12.1413C33.1595 11.8992 33.1634 11.6572 33.1711 11.4189C33.3017 11.4382 33.4784 11.4113 33.5514 11.4843C34.4121 12.3642 35.4765 13.0596 36.072 14.1931V14.1893Z" fill="#4760CA"/>
<path d="M49.7238 45.0511C49.7161 44.2672 49.0821 44.6822 48.7401 44.5362C48.6786 44.175 48.4212 43.9291 48.2252 43.6486C47.891 43.176 47.2839 42.9301 47.1187 42.3153C47.6835 42.3076 48.2521 42.25 48.8093 42.2999C49.4855 42.3614 49.743 42.1962 49.7122 41.4431C49.6508 39.9945 49.7122 38.5421 49.7276 37.0897C50.3385 37.2242 50.5998 37.7813 51.011 38.1541C51.2838 38.4 51.5412 38.6113 51.9331 38.5537C51.9331 41.2087 51.9331 43.8599 51.9331 46.515C51.2914 46.5073 51.0801 45.9118 50.669 45.5852C50.3808 45.3546 50.181 44.9858 49.7276 45.0511H49.7238Z" fill="#4760CA"/>
<path d="M48.7398 51.3065C46.5189 51.3757 44.2981 51.3757 42.0772 51.3065C42.058 50.6725 41.4662 50.4612 41.1396 50.0539C40.9091 49.7657 40.5479 49.5621 40.6132 49.1125C42.7803 49.0433 44.9474 49.051 47.1107 49.1125C47.249 49.7465 47.8522 50.0001 48.2096 50.4535C48.4209 50.7186 48.7744 50.8915 48.736 51.3103L48.7398 51.3065Z" fill="#4760CA"/>
<path d="M61.7391 48.7589C59.9908 49.3852 58.9188 50.657 58.3001 52.3592C57.1167 51.4293 55.8987 50.534 55.2378 49.1085C56.8977 49.4044 58.1272 48.6513 59.2338 47.5178C59.5528 47.1912 59.9447 46.8953 60.4327 46.8185C60.5057 47.3833 61.082 47.5677 61.3241 47.9981C61.4662 48.2478 61.7237 48.4361 61.7352 48.755L61.7391 48.7589Z" fill="#4760CA"/>
<path d="M55.7295 52.8126C55.7718 52.7703 55.814 52.7281 55.8601 52.6858C55.8793 52.7895 55.8371 52.8356 55.7295 52.8126Z" fill="#4760CA"/>
<path d="M79.4482 52.8126C79.4905 52.7703 79.5328 52.7281 79.5789 52.6858C79.5981 52.7895 79.5558 52.8356 79.4482 52.8126Z" fill="#4760CA"/>
<path d="M35.415 51.3064C33.1403 51.3717 30.8656 51.3755 28.591 51.3064C28.5986 50.7992 28.249 50.4956 27.9454 50.1575C27.6534 49.8271 27.1923 49.6196 27.1309 49.1085C29.4055 49.0394 31.6802 49.0432 33.9549 49.1085C34.0778 49.7233 34.6427 49.9769 35.0077 50.3919C35.2497 50.6647 35.4803 50.9106 35.415 51.3064Z" fill="#4760CA"/>
<path d="M25.5129 12.8982C24.7099 14.1124 24.4332 15.4688 24.3526 16.8981C24.3372 17.2017 24.0413 17.4937 23.8761 17.7895C23.8261 17.7665 23.78 17.7665 23.7301 17.7819C23.342 17.1709 22.7503 16.7521 22.2393 16.2564C22.2431 15.8261 22.2777 15.3919 22.2469 14.9616C22.1893 14.1431 22.466 13.4669 23 12.8598C23.3535 12.4564 23.6033 11.9837 23.5918 11.4151C24.1758 11.3805 24.3794 11.9069 24.7406 12.2028C25.0096 12.4218 25.2555 12.6638 25.5129 12.8982Z" fill="#4760CA"/>
<path d="M10.082 12.2566C9.88216 12.8214 9.68235 13.3862 9.45181 14.0433C10.1012 13.7743 10.3663 13.1672 10.8773 12.8598C11.0579 13.6245 11.8802 13.8819 12.1991 14.5351C12.226 14.7157 12.1261 14.8271 12.007 14.9501C11.1194 15.8914 10.1473 16.6676 8.7525 16.6176C8.36058 16.5946 8.20689 16.2411 7.94561 16.0336C7.56138 15.7339 7.35005 15.2113 6.78906 15.1422C7.0196 13.586 7.70354 12.1913 8.31448 10.7657C9.14827 10.9732 9.58245 11.6572 10.0858 12.2527L10.082 12.2566Z" fill="#4760CA"/>
<path d="M15.2927 29.7854C15.0852 30.4809 14.4089 30.6192 13.8864 30.9227C13.3984 31.2071 13.1025 31.3877 13.6136 31.9832C14.5741 33.1129 15.7806 33.9044 16.9987 34.6921C17.4136 34.9611 17.867 35.3722 18.2935 35.3607C18.72 35.3491 18.7047 34.5499 19.1658 34.3194C19.7114 34.8189 20.3799 35.207 20.6412 35.9639C20.549 36.79 21.2291 36.4903 21.6095 36.6325C21.5519 37.0782 21.9207 37.2703 22.1513 37.547C22.6354 38.1233 23.3808 38.496 23.5576 39.3183C22.0898 39.3106 20.7219 38.8226 19.3617 38.3654C16.5606 37.424 14.1169 35.8256 12.0574 33.7507C9.11032 30.7767 7.15072 27.2302 6.48984 23.0306C6.3592 22.1929 6.22087 21.363 6.20166 20.5138C6.76264 20.4639 6.95476 20.9711 7.30826 21.2362C7.72323 21.5512 7.93072 22.1583 8.58392 22.1353C8.77219 22.9383 8.96047 23.7414 9.16027 24.5406C9.16027 24.5406 9.29475 25.1976 9.45229 24.5713C9.66746 24.6674 9.93258 24.7097 10.094 24.8634C10.9201 25.6549 11.727 26.4695 12.53 27.2879C12.7144 27.4762 12.8297 27.7259 12.8259 28.0102C11.8691 27.6606 10.9931 27.1764 10.2361 26.4887C10.19 26.2735 10.1401 26.0084 9.85189 26.1313C9.67515 26.2082 9.76352 26.4041 9.90953 26.5194C9.89032 26.8345 10.1055 27.065 10.2438 27.3071C11.6309 29.7547 10.8893 29.4895 13.4637 28.6212C13.8633 28.5712 14.0939 28.844 14.3513 29.0823C14.6395 29.3474 14.8316 29.747 15.2965 29.7777L15.2927 29.7854ZM9.56756 25.6779C9.60983 25.6587 9.66746 25.6472 9.68667 25.6126C9.70204 25.5857 9.66746 25.5319 9.65594 25.4897C9.61367 25.5127 9.55988 25.5242 9.54066 25.5588C9.52529 25.5819 9.55988 25.6357 9.5714 25.6779H9.56756Z" fill="#4760CA"/>
<path d="M26.4819 29.6394C27.6692 29.6932 28.7758 29.9238 29.3483 31.1303C29.5096 31.4722 29.5942 31.4031 29.8516 31.2186C30.7354 30.5846 31.4347 29.7201 32.4414 29.236C33.0331 28.9516 33.6171 28.7557 34.2742 28.7941C34.8351 29.8738 35.8265 30.5654 36.6526 31.4031C37.5555 32.3176 38.3701 33.3319 39.4498 34.062C38.0397 35.3453 36.568 36.5326 34.7814 37.2627C34.2127 36.767 33.5556 36.3559 33.2867 35.5912C34.2665 35.0072 35.3078 34.5346 36.203 33.8045C37.0983 33.0745 37.1098 33.0899 36.422 32.1946C35.2616 30.6884 33.9322 30.6308 32.5297 31.9487C31.7766 32.6557 30.9889 33.3319 30.0514 33.8045C30.0975 33.4626 29.8747 33.2589 29.6633 33.0476C28.8987 32.2868 28.1226 31.5337 27.3771 30.7499C27.0505 30.4079 26.5779 30.1735 26.478 29.6433L26.4819 29.6394Z" fill="#4760CA"/>
<path d="M51.9252 38.5537C51.5333 38.6113 51.2797 38.4 51.0031 38.1541C50.5919 37.7852 50.3268 37.2242 49.7197 37.0897C49.7197 33.7853 49.7197 30.4809 49.7197 27.1803C50.1731 27.115 50.3729 27.4877 50.6611 27.7144C51.0684 28.0371 51.2797 28.6365 51.9214 28.6404C51.9214 31.9448 51.9214 35.2492 51.9214 38.5537H51.9252Z" fill="#4760CA"/>
<path d="M39.4535 34.058C38.3699 33.3318 37.5592 32.3136 36.6562 31.3991C35.8301 30.5653 34.8388 29.8699 34.2778 28.7902C35.4843 28.5789 36.4526 29.0899 37.3363 29.8161C37.7552 30.1581 38.0933 30.5807 38.3815 31.038C38.5966 31.3799 38.7772 31.4107 39.1038 31.0841C40.1566 30.0389 40.8329 28.7402 41.6052 27.5068C42.1047 27.5683 42.293 28.0332 42.6349 28.3022C42.8732 28.4943 43.0307 28.8056 43.3957 28.8094C43.3765 29.086 43.2536 29.3089 43.0538 29.4972C42.9462 29.4703 42.9116 29.5087 42.9347 29.6163C42.001 31.2762 40.8982 32.8016 39.4573 34.0619L39.4535 34.058Z" fill="#4760CA"/>
<path d="M13.16 44.5361C13.2215 44.0788 12.8411 43.8867 12.6067 43.5985C12.2532 43.1682 11.6922 42.9069 11.5347 42.3152C14.2973 42.3152 17.06 42.3152 19.8188 42.3152C19.8418 42.6841 20.1531 42.8493 20.3682 43.076C20.7909 43.5178 21.2635 43.9174 21.4441 44.5361C18.6814 44.5361 15.9188 44.5361 13.16 44.5361Z" fill="#4760CA"/>
<path d="M21.4447 44.5361C21.2641 43.9174 20.7915 43.5178 20.3688 43.076C20.1536 42.8493 19.8424 42.6841 19.8193 42.3152C22.3092 42.3152 24.8029 42.3152 27.2927 42.3152C27.2389 42.6956 27.5194 42.8915 27.7269 43.1374C28.1188 43.6062 28.7259 43.8944 28.9142 44.5361C26.4243 44.5361 23.9307 44.5361 21.4408 44.5361H21.4447Z" fill="#4760CA"/>
<path d="M47.1147 42.3152C47.2799 42.93 47.887 43.1798 48.2213 43.6485C48.4211 43.9252 48.6786 44.1749 48.7362 44.5361C46.4077 44.5361 44.0793 44.5361 41.7508 44.5361C41.8084 44.1288 41.4934 43.9367 41.2782 43.6754C40.8978 43.2182 40.3061 42.9377 40.1255 42.3114C42.454 42.3114 44.7824 42.3114 47.1109 42.3114L47.1147 42.3152Z" fill="#4760CA"/>
<path d="M28.9177 44.5361C28.7256 43.8944 28.1224 43.6062 27.7305 43.1374C27.523 42.8915 27.2425 42.6956 27.2963 42.3152C29.5172 42.3152 31.738 42.3152 33.9589 42.3152C33.9051 42.6956 34.1856 42.8915 34.3931 43.1374C34.785 43.6062 35.3921 43.8944 35.5804 44.5361C33.3595 44.5361 31.1386 44.5361 28.9177 44.5361Z" fill="#4760CA"/>
<path d="M23.5576 39.322C23.3809 38.4998 22.6355 38.1309 22.1513 37.5507C21.9208 37.2741 21.5519 37.0819 21.6095 36.6362C22.9813 37.032 24.3914 37.1665 25.8092 37.2548C26.7506 37.3163 27.6574 37.0205 28.5911 37.0666C28.7448 37.5161 29.0829 37.8235 29.4057 38.1424C29.6477 38.3845 29.9551 38.5958 29.8937 39.0108C28.545 39.5449 27.1233 39.3643 25.7285 39.4219C25.0062 39.4527 24.28 39.3566 23.5576 39.322Z" fill="#4760CA"/>
<path d="M35.5803 44.5361C35.3882 43.8944 34.785 43.6062 34.3931 43.1374C34.1856 42.8915 33.9051 42.6956 33.9589 42.3152C36.0184 42.3152 38.074 42.3152 40.1335 42.3152C40.3141 42.9376 40.9058 43.222 41.2862 43.6792C41.5014 43.9367 41.8165 44.1326 41.7588 44.5399C39.6993 44.5399 37.6437 44.5399 35.5842 44.5399L35.5803 44.5361Z" fill="#4760CA"/>
<path d="M8.57982 22.1429C7.92662 22.1621 7.71913 21.555 7.30415 21.2438C6.95066 20.9787 6.75854 20.4677 6.19756 20.5214C6.09766 18.6963 6.25135 16.902 6.78544 15.146C7.34642 15.2152 7.55775 15.7377 7.94199 16.0374C8.20327 16.2411 8.3608 16.5946 8.74888 16.6215C8.61055 17.4783 8.46839 18.3313 8.42612 19.2035C8.38001 20.1948 8.59134 21.1631 8.57597 22.1468L8.57982 22.1429Z" fill="#4760CA"/>
<path d="M29.8939 39.011C29.9515 38.596 29.648 38.3847 29.4059 38.1426C29.0831 37.8237 28.745 37.5163 28.5913 37.0668C30.1936 36.6787 31.7651 36.2022 33.2943 35.5836C33.5595 36.3482 34.2204 36.7632 34.789 37.255C33.2482 38.0888 31.6767 38.8342 29.8977 39.0072L29.8939 39.011Z" fill="#4760CA"/>
<path d="M42.9306 29.6125C42.9037 29.5087 42.9422 29.4665 43.0497 29.4934C43.0113 29.5318 42.9729 29.5702 42.9306 29.6125Z" fill="#4760CA"/>
<path d="M67.9133 35.1378C63.8865 35.1494 59.8597 35.1609 55.8291 35.1686C55.0914 35.1686 54.7609 34.719 54.7571 34.0466C54.7455 30.9919 54.7571 27.9373 54.7571 24.8788C54.7571 24.1103 55.3142 23.9335 55.8983 23.9297C57.8425 23.9105 59.7906 23.9374 61.7348 23.9489C61.8808 24.5483 62.4495 24.8019 62.7991 25.2323C63.0297 25.5166 63.4139 25.7049 63.3601 26.1583C61.4697 26.1698 59.5831 26.1967 57.6926 26.1775C57.1816 26.1736 56.9972 26.2851 57.0087 26.8345C57.0471 28.5866 57.0625 30.3464 57.0049 32.0985C56.9818 32.8132 57.2239 32.9208 57.8655 32.917C60.7242 32.8939 63.5868 32.9285 66.4455 32.9439C66.384 33.3396 66.6146 33.5817 66.8528 33.8545C67.2178 34.2695 67.7826 34.5231 67.9056 35.1378H67.9133Z" fill="#4760CA"/>
<path d="M63.3602 26.1582C63.414 25.7009 63.0297 25.5165 62.7992 25.2322C62.4495 24.798 61.8809 24.5482 61.7349 23.9488C63.8443 23.9373 65.9538 23.9104 68.0632 23.9258C68.9316 23.9335 69.4157 24.6251 69.8845 25.2053C70.3264 25.7509 70.8758 26.1928 71.287 26.7307C72.6933 28.5712 74.8488 29.8853 75.3176 32.402C75.4328 33.0245 75.4059 33.6469 75.356 34.2579C75.306 34.8765 74.8296 35.1723 74.234 35.1723C72.1246 35.1723 70.0151 35.1531 67.9057 35.1416C67.7827 34.5268 67.2179 34.2732 66.8529 33.8582C66.6108 33.5854 66.3803 33.3395 66.4456 32.9476C68.6319 32.9476 70.8182 32.9476 73.0122 32.9476C72.9891 32.4058 72.9123 31.9601 72.5933 31.6143C71.0372 29.9352 69.4695 28.2715 67.9134 26.5924C67.6367 26.2965 67.3409 26.1735 66.9259 26.1812C65.7386 26.2043 64.5475 26.1697 63.3602 26.162V26.1582Z" fill="#4760CA"/>
<path d="M57.5468 39.3568C56.9551 39.3568 56.3595 39.3491 55.7678 39.3568C55.1568 39.3683 54.8418 39.0724 54.7611 38.473C54.6689 37.7737 54.8456 37.1628 55.6102 37.1205C56.982 37.0437 58.3614 37.0475 59.7331 37.1205C60.4362 37.1551 60.6476 37.6854 60.6168 38.3885C60.5822 39.1224 60.1135 39.2953 59.5679 39.3453C58.8993 39.4029 58.2192 39.3606 57.5468 39.3606C57.5468 39.3606 57.5468 39.3606 57.5468 39.3568Z" fill="#4760CA"/>
<path d="M35.4152 51.3064C35.4805 50.9106 35.25 50.6647 35.0079 50.3919C34.6429 49.9769 34.0742 49.7233 33.9551 49.1085C36.176 49.0394 38.3968 49.0432 40.6177 49.1085C40.5524 49.5581 40.9136 49.7617 41.1441 50.0499C41.4707 50.4572 42.0586 50.6685 42.0817 51.3025C39.8608 51.3679 37.6399 51.3717 35.419 51.3025L35.4152 51.3064Z" fill="#4760CA"/>
<path d="M18.3548 56.4168C17.2252 57.535 15.8765 58.0767 14.3549 57.4888C12.9332 56.9394 12.0226 55.7636 11.8958 54.2459C11.7959 53.0087 12.2493 51.8483 13.3136 51.0414C13.2714 51.4026 13.4827 51.6331 13.7132 51.8675C14.0283 52.1864 14.3242 52.5322 14.6239 52.8665C14.4356 53.3506 13.9361 53.7195 14.2473 54.3765C14.7891 55.5293 15.3501 55.6868 16.7141 54.9567C17.2597 55.4447 17.8053 55.9327 18.351 56.4207L18.3548 56.4168Z" fill="#4760CA"/>
<path d="M18.3548 56.4168C17.8091 55.9288 17.2635 55.4409 16.7179 54.9529C17.0714 54.2536 17.2635 53.5158 16.5834 52.9433C16.0032 52.4554 15.2962 52.5975 14.6277 52.8626C14.3241 52.5284 14.0321 52.1826 13.717 51.8636C13.4865 51.6293 13.2752 51.3987 13.3174 51.0375C14.8505 49.8041 17.813 50.3536 18.7275 51.952C19.4037 53.1355 19.5382 55.2257 18.3586 56.413L18.3548 56.4168Z" fill="#4760CA"/>
<path d="M22.2433 16.2604C22.7543 16.756 23.3422 17.171 23.7341 17.7858C23.7303 17.8319 23.7379 17.8742 23.7648 17.9164C22.8196 18.9423 21.4441 18.9423 20.2491 19.365C20.0262 19.4418 19.7342 19.3919 19.6843 19.6839C19.6458 19.9221 19.8879 20.0874 20.0647 20.1527C20.8908 20.4524 21.3403 21.1978 21.9474 21.7434C22.7236 22.435 22.9656 22.4235 23.615 21.5628C23.9646 21.1017 24.2221 20.5677 24.6832 20.1949C25.467 20.3755 25.7052 21.2746 26.4353 21.5282C25.8167 22.4658 25.344 23.5186 24.3028 24.1103C23.7648 24.4138 23.2231 24.6674 22.5852 24.556C22.6698 24.0911 22.3778 23.8183 22.0934 23.5186C20.3298 21.6781 18.3817 20.0144 16.7295 18.0663C18.2587 17.39 19.8917 17.0673 21.5055 16.6754C21.8129 16.5985 22.0243 16.4448 22.251 16.2719L22.2433 16.2604Z" fill="#4760CA"/>
<path d="M12.8257 28.018C12.8257 27.7336 12.7143 27.4839 12.5299 27.2956C11.7307 26.4772 10.9238 25.6626 10.0938 24.8711C9.93244 24.7174 9.66732 24.6751 9.45215 24.5791C9.91323 23.5877 10.0093 22.581 9.77491 21.4975C9.64042 20.8827 9.80565 20.2334 10.2014 19.6877C10.9776 19.8837 11.2465 20.7751 11.9996 21.0018C12.138 21.8087 12.3954 22.6079 12.1917 23.4417C12.1418 23.6454 12.2148 23.9182 12.1072 24.068C11.4886 24.9326 12.1687 25.213 12.7412 25.5089C13.7671 26.0392 14.8891 26.4195 15.5192 27.5069C15.9304 28.2216 15.8573 29.1284 15.2964 29.7778C14.8353 29.7509 14.6393 29.3474 14.3511 29.0823C14.0937 28.8441 13.8632 28.5751 13.4636 28.6212C13.4059 28.2562 12.9986 28.2523 12.8257 28.0064V28.018Z" fill="#4760CA"/>
<path d="M16.722 18.0547C18.378 20.0028 20.3222 21.6665 22.0859 23.507C22.3741 23.8067 22.6622 24.0795 22.5777 24.5444C21.84 24.6597 21.3136 24.2217 20.7833 23.8297C20.5489 23.653 20.3491 23.4225 20.157 23.1958C19.5077 22.4311 18.9006 21.9009 17.7402 22.4657C16.5414 23.0497 14.8661 22.1737 14.4281 20.9595C14.1245 20.118 14.551 19.1882 15.5577 18.5811C15.9189 18.3621 16.33 18.2314 16.7181 18.0585L16.722 18.0547Z" fill="#4760CA"/>
<path d="M12.1992 14.5352C11.8803 13.882 11.058 13.6207 10.8774 12.8599C12.0186 11.2192 13.5978 10.7504 15.0771 11.5689C15.8571 12.0031 16.2414 12.7369 16.3605 13.5054C16.5833 14.9732 16.3797 16.3872 15.1348 17.4361C14.4047 17.171 13.9744 16.6023 13.6401 15.9415C13.9398 15.4074 14.2549 14.8887 14.1511 14.2278C14.1089 13.9627 14.1819 13.6399 13.8629 13.5515C13.5594 13.4708 13.2443 13.4708 12.983 13.7705C12.7448 14.0433 12.5642 14.3892 12.1992 14.5352Z" fill="#4760CA"/>
<path d="M26.4357 21.5205C25.7057 21.2669 25.4713 20.3678 24.6836 20.1872C25.8286 18.2084 26.8315 17.4822 28.818 18.1354C29.5557 18.3774 29.7517 18.1277 29.7363 17.4514C29.7286 17.1287 29.7593 16.8059 29.7747 16.4832C30.1974 16.3641 30.451 16.6177 30.7353 16.8712C31.1387 17.2324 31.3962 17.7704 31.9841 17.9125C31.7881 18.5849 31.7343 19.3611 31.1042 19.7914C30.3126 20.3332 29.4596 20.7712 28.4414 20.3563C27.7037 20.0566 27.1811 20.337 26.8007 20.9902C26.6931 21.1747 26.5587 21.3399 26.4357 21.5128V21.5205Z" fill="#4760CA"/>
<path d="M26.4813 29.6393C26.5812 30.1696 27.0538 30.404 27.3804 30.7459C28.1258 31.5298 28.9019 32.2829 29.6666 33.0437C29.8817 33.255 30.1008 33.4548 30.0546 33.8006C28.7713 34.2809 28.2718 34.035 27.5456 32.5787C27.1537 31.7911 26.7579 31.7104 25.1787 32.0523C24.5101 32.1983 25.0404 32.7401 24.829 33.0321C24.3065 32.9668 23.9991 32.5826 23.661 32.2445C23.3997 31.9832 23.1653 31.6681 22.7273 31.7257C22.6159 30.8343 23.684 30.0236 24.587 29.8468C25.2018 29.7277 25.8319 29.5164 26.4813 29.6432V29.6393Z" fill="#4760CA"/>
<path d="M22.7274 31.7219C23.1693 31.6642 23.3998 31.9793 23.6611 32.2406C23.9992 32.5787 24.3066 32.9629 24.8292 33.0283C25.1173 34.1502 24.2297 34.9494 23.1155 35.3145C22.3009 35.5834 21.3672 35.3836 20.641 35.9677C20.3797 35.2107 19.715 34.8226 19.1655 34.3231C19.7496 33.6238 20.4527 33.2665 21.4018 33.3357C22.3739 33.4048 22.5545 33.182 22.5852 32.2214C22.5929 32.0485 22.493 31.8333 22.7274 31.7219Z" fill="#4760CA"/>
<path d="M13.64 15.9452C13.9781 16.6061 14.4046 17.1747 15.1347 17.4399C14.8042 18.289 14.0665 18.7885 13.4095 19.3111C12.8062 19.7952 12.3682 20.3562 11.9955 21.0056C11.2424 20.7789 10.9734 19.8913 10.1973 19.6915C10.2587 19.3687 10.4316 19.1113 10.666 18.8807C11.6612 17.9048 12.6487 16.925 13.64 15.9452Z" fill="#4760CA"/>
<path d="M63.5949 50.4111C66.1078 50.2113 67.3912 52.1517 67.3835 53.9768C67.3758 56.1246 65.8273 57.6308 63.6372 57.6923C61.6315 57.7461 59.9831 56.1592 59.9408 53.9422C59.9101 52.2439 61.6276 50.0845 63.5949 50.4149V50.4111ZM63.5988 55.4484C64.2981 55.4522 65.1895 54.6646 65.128 54.0037C65.055 53.1852 64.6247 52.5858 63.7717 52.6627C62.7842 52.7549 62.2347 53.1315 62.2193 53.9614C62.2078 54.6953 62.8994 55.4407 63.5949 55.4484H63.5988Z" fill="#4760CA"/>
<path d="M10.2358 26.4964C10.1282 26.5079 10.0168 26.5195 9.90919 26.5272C9.76318 26.4119 9.67481 26.2159 9.85156 26.1391C10.1397 26.0123 10.1897 26.2812 10.2358 26.4964Z" fill="#4760CA"/>
<path d="M9.57123 25.6779C9.5597 25.6356 9.52512 25.5818 9.54049 25.5588C9.56355 25.5242 9.61734 25.5127 9.65576 25.4896C9.66729 25.5319 9.70187 25.5857 9.6865 25.6126C9.67113 25.6472 9.60965 25.6548 9.56739 25.6779H9.57123Z" fill="#4760CA"/>
</svg>
