<svg width="79" height="78" viewBox="0 0 79 78" fill="none" xmlns="http://www.w3.org/2000/svg">
<path d="M78.8432 55.3021C78.6964 56.0802 78.5716 56.8656 78.4028 57.6363C76.1346 67.9716 65.7479 74.3798 55.5301 71.7152C54.9649 71.5684 54.5171 71.6125 54.0033 71.862C46.4427 75.4735 38.5004 77.4701 30.0809 77.2646C22.0138 77.0664 14.4605 74.8716 7.31099 71.2308C5.23365 70.1738 3.25174 68.9406 1.22579 67.7881C0.60186 67.4358 0.227499 66.9073 0.168776 66.1879C-0.352393 60.2936 0.300903 54.5607 2.58377 49.0701C5.7328 41.4801 11.1427 36.1657 18.7987 33.1561C19.0042 33.0754 19.2098 32.9799 19.474 32.8698C19.2979 32.6203 19.1584 32.4147 19.0042 32.2165C15.4588 27.6214 13.6678 22.4538 13.866 16.6255C14.1082 9.56406 18.1381 3.56695 24.4582 1.32079C30.8223 -0.940054 36.9735 -0.404205 42.4788 3.75046C46.3399 6.6646 48.197 10.7972 48.6521 15.5318C49.2614 21.8152 47.3676 27.3719 43.5432 32.3193C43.4184 32.4808 43.3083 32.6496 43.1468 32.8625C43.8368 33.1488 44.5121 33.369 45.1214 33.7066C46.9785 34.7416 48.821 35.7987 50.634 36.8997C51.0745 37.164 51.3607 37.2521 51.8525 37.0025C63.3036 31.1962 77.1989 38.6614 78.7037 51.4043C78.7331 51.6246 78.7991 51.8448 78.8505 52.065V55.3021H78.8432ZM47.9474 39.5129C47.6245 39.2927 47.3382 39.0358 47.0005 38.8743C45.2315 38.0081 43.4478 37.1786 41.6787 36.3125C40.7172 35.8427 39.9317 35.8647 39.0582 36.6428C38.2875 37.3255 37.3259 37.8319 36.379 38.2797C33.0024 39.8873 29.5818 39.9093 26.2199 38.2724C25.0527 37.7072 24.0177 36.8777 22.8873 36.2171C22.601 36.0482 22.168 35.9381 21.8743 36.0262C18.2335 37.1126 14.9597 38.8963 12.185 41.4948C5.51993 47.7488 3.31781 55.6618 3.75823 64.5216C3.77291 64.8006 4.04451 65.1749 4.30142 65.3291C5.89429 66.2613 7.48715 67.2009 9.12406 68.0377C14.8202 70.9372 20.8173 72.8603 27.1961 73.4549C33.6483 74.0568 39.9317 73.176 46.061 71.1207C47.4556 70.6509 48.8136 70.093 50.2817 69.5351C39.7042 62.8407 38.5297 47.5286 47.9401 39.5056L47.9474 39.5129ZM17.4995 17.8587C17.727 23.8118 20.164 28.9354 24.8252 32.9873C26.4548 34.4113 28.2825 35.4904 30.4773 35.7326C33.0024 36.0115 35.1751 35.0646 37.091 33.5305C41.965 29.6474 44.7103 24.5825 45.0333 18.3432C45.2535 14.1298 44.0864 10.3054 40.952 7.29588C38.2655 4.71939 34.9109 3.77248 31.2994 3.7578C28.0476 3.74312 24.9867 4.54322 22.3955 6.6279C18.9015 9.44661 17.6096 13.2783 17.4921 17.8514L17.4995 17.8587ZM60.1619 68.6176C68.3978 68.6323 75.1143 61.9525 75.1436 53.7239C75.1656 45.466 68.4565 38.7128 60.2059 38.6981C51.992 38.6834 45.2682 45.3779 45.2388 53.6065C45.2168 61.8938 51.8819 68.6029 60.1619 68.6176Z" fill="white"/>
<path d="M58.1433 56.2563C61.0501 53.3422 63.8835 50.5161 66.7095 47.6827C66.9444 47.4478 67.1793 47.2056 67.4435 47.0074C68.1849 46.4642 69.2052 46.5523 69.8292 47.1909C70.4751 47.8516 70.5412 48.8352 69.9833 49.5839C69.8292 49.7894 69.6383 49.9656 69.4622 50.1491C66.2324 53.3789 63.0026 56.6086 59.7728 59.8384C58.613 60.9909 57.6955 60.9982 56.5357 59.8531C54.5758 57.9006 52.6013 55.948 50.6634 53.9661C49.5256 52.8137 49.9514 51.1327 51.4415 50.7583C52.1902 50.5675 52.7921 50.8685 53.3059 51.397C54.8915 53.0045 56.4843 54.5974 58.1286 56.2563H58.1433Z" fill="white"/>
</svg>
