<svg width="67" height="71" viewBox="0 0 67 71" fill="none" xmlns="http://www.w3.org/2000/svg">
<g clip-path="url(#clip0_59_26)">
<path d="M25.565 0C27.0373 0.270942 28.536 0.469192 29.9884 0.832651C33.5562 1.72478 36.7063 3.44295 39.4518 5.87481C39.8563 6.23166 40.1547 6.30436 40.6654 6.09289C51.979 1.48027 64.6589 8.4785 66.7279 20.4726C68.114 28.5084 64.1747 36.5441 56.8998 40.443C56.3759 40.7206 56.283 40.9651 56.4422 41.5004C56.8799 42.9806 57.2579 44.4807 57.669 45.9874C57.7818 46.0073 57.868 46.0337 57.9542 46.0337C59.4065 46.0337 60.1095 46.5624 60.4875 47.9765C61.6348 52.2323 62.7754 56.4881 63.936 60.7373C64.2742 61.9928 64.3737 63.2286 63.9692 64.4842C63.1999 66.883 60.9584 68.5351 58.4184 68.5615C55.9116 68.5813 53.5375 66.9557 52.8478 64.537C51.5414 59.9443 50.3278 55.325 49.1009 50.7124C48.7826 49.5031 49.2203 48.7497 50.6262 47.8906C50.162 46.1791 49.6977 44.4477 49.2203 42.6833C46.3952 42.8353 43.6894 42.4586 41.2092 41.5136C38.1652 45.7628 35.1677 49.9458 32.1569 54.1355C33.344 54.38 34.604 54.6113 35.8441 54.9153C38.2846 55.5034 40.6654 56.2766 42.761 57.704C43.5502 58.2459 44.3062 58.9001 44.9097 59.6403C46.2559 61.2924 46.2095 63.2352 44.9229 64.9335C44.0674 66.0636 42.9268 66.85 41.6867 67.5108C38.8881 68.9911 35.8707 69.7775 32.7737 70.2665C25.8634 71.3635 18.9665 71.2643 12.1226 69.7378C9.67548 69.1893 7.28144 68.4426 5.14603 67.0945C4.31707 66.5658 3.51464 65.938 2.85147 65.2111C1.16038 63.3475 1.2267 61.0941 2.93105 59.2239C4.25739 57.7701 5.94847 56.8582 7.75892 56.1709C8.98578 55.7017 10.2524 55.3052 11.5191 54.9682C12.7924 54.6311 14.0988 54.4065 15.4848 54.1157C15.3456 53.9174 15.2196 53.7192 15.0737 53.5342C11.1875 48.6109 7.49365 43.5556 4.50276 38.0244C2.67241 34.6409 1.09407 31.1451 0.391108 27.3387C-0.73628 21.2194 0.576795 15.556 4.04517 10.4544C8.20987 4.33507 14.0856 0.905343 21.4865 0.112342C21.6391 0.0925168 21.7916 0.0330417 21.9441 0C23.1511 0 24.358 0 25.565 0ZM32.462 34.8854C25.9231 39.6633 17.8258 38.1566 13.2765 33.1739C8.7802 28.244 8.34914 20.7766 12.3348 15.3578C14.3243 12.655 16.9637 10.8377 20.2199 10.0182C24.6631 8.90143 28.7482 9.80678 32.4487 12.4964C33.9541 10.461 35.7513 8.82213 37.8933 7.46742C37.6413 7.24935 37.4623 7.07753 37.2633 6.92554C32.0243 2.86141 26.1221 1.41418 19.6098 2.63012C6.8968 5.00251 -0.769438 18.2721 3.36874 29.9754C5.03992 34.6938 7.46712 39.0024 10.2193 43.1525C14.2182 49.1727 18.8338 54.7237 23.4893 60.235C23.5689 60.3341 23.6882 60.4002 23.8142 60.4994C29.2323 54.1025 34.5576 47.6858 38.9942 40.5289C36.3747 39.1082 34.2127 37.2578 32.462 34.8854ZM31.1821 32.9624C31.1423 32.8501 31.1157 32.7641 31.076 32.6848C28.032 26.7373 27.9988 20.7832 31.0163 14.8225C31.2218 14.4194 31.076 14.2542 30.7842 14.0427C28.9538 12.7343 26.9112 11.9809 24.6697 11.8091C19.1654 11.3928 14.059 14.8357 12.3878 20.0695C10.7034 25.3298 12.8985 31.079 17.6733 33.914C21.9176 36.4384 27.6474 36.0485 31.1887 32.969L31.1821 32.9624ZM25.2268 68.7994C26.7123 68.6474 29.6501 68.436 32.5548 68.0329C35.2672 67.6628 37.9265 66.9623 40.3603 65.6737C41.3087 65.1714 42.2106 64.5172 42.9798 63.7705C43.9414 62.8387 43.968 61.7417 43.0064 60.8298C42.1177 59.9839 41.0765 59.2305 39.9757 58.6887C37.1241 57.2745 34.0337 56.6665 30.8969 56.237C30.4725 56.1775 30.2271 56.2634 29.9618 56.5938C28.284 58.6292 26.5863 60.6447 24.8886 62.6669C24.0663 63.6449 23.4628 63.6449 22.6338 62.6603C20.956 60.6579 19.2715 58.6556 17.6004 56.6467C17.3285 56.3163 17.0831 56.1511 16.6122 56.2502C15.0471 56.5806 13.4622 56.7789 11.9104 57.1555C9.58927 57.7238 7.32123 58.4838 5.38477 59.9641C3.34884 61.5236 3.30242 63.1295 5.4113 64.5833C6.67132 65.449 8.0905 66.1561 9.53621 66.6715C14.1253 68.317 18.9267 68.7201 25.2202 68.806L25.2268 68.7994ZM47.8674 40.4893C57.1518 40.5025 64.7318 32.9888 64.7782 23.7372C64.818 14.4789 57.238 6.8925 47.9138 6.87267C38.6295 6.85285 31.0428 14.3731 31.0096 23.6248C30.9765 32.8963 38.5565 40.4827 47.8674 40.4893ZM51.3225 50.0912C51.3092 50.2234 51.296 50.2762 51.3026 50.3159C52.5162 54.836 53.7033 59.3627 54.9766 63.863C55.1556 64.504 55.6795 65.1252 56.1968 65.5679C57.3905 66.579 59.1081 66.5922 60.4013 65.7332C61.7475 64.8344 62.3046 63.2947 61.847 61.5897C60.713 57.334 59.5591 53.0848 58.4052 48.8356C58.3521 48.644 58.2792 48.4523 58.2128 48.2475C55.8851 48.8687 53.6104 49.4766 51.3159 50.0912H51.3225ZM51.4551 42.4123C51.9127 44.0975 52.3504 45.7297 52.8014 47.3884C53.7497 47.1373 54.6118 46.906 55.5403 46.6615C55.0893 44.9697 54.645 43.3441 54.2007 41.6854C53.2722 41.9299 52.4101 42.1612 51.4551 42.4123Z" fill="white"/>
<path d="M47.914 38.6192C39.631 38.6391 32.9264 31.9712 32.9131 23.7042C32.8998 15.4438 39.5912 8.74953 47.8742 8.74292C56.1638 8.73632 62.8618 15.3909 62.8751 23.6646C62.8884 31.9382 56.2235 38.606 47.914 38.6258V38.6192ZM47.8344 36.4054C54.811 36.4715 60.5739 30.828 60.6468 23.8562C60.7198 16.7721 55.0961 11.0162 48.0533 10.9501C40.9573 10.8906 35.2143 16.4813 35.1347 23.5324C35.0551 30.6165 40.6987 36.3327 47.8344 36.4054Z" fill="white"/>
<path d="M49.0016 22.5807C50.7325 22.5807 52.3307 22.5807 53.929 22.5807C54.8176 22.5807 55.3216 22.9838 55.3282 23.6711C55.3349 24.3518 54.8043 24.7945 53.9489 24.7945C51.9991 24.8011 50.056 24.8011 48.1063 24.7945C47.2442 24.7945 46.7999 24.4179 46.7933 23.6116C46.7667 21.5564 46.7734 19.5013 46.7933 17.4461C46.7999 16.7257 47.2774 16.2698 47.9007 16.2698C48.5241 16.2698 48.9486 16.7324 48.995 17.4593C49.0082 17.6443 48.995 17.8293 48.995 18.0144C48.995 19.2634 48.995 20.5057 48.995 21.7547C48.995 22.0058 48.995 22.2503 48.995 22.5807H49.0016Z" fill="white"/>
</g>
<defs>
<clipPath id="clip0_59_26">
<rect width="67" height="71" fill="white"/>
</clipPath>
</defs>
</svg>
