<svg width="85" height="87" viewBox="0 0 85 87" fill="none" xmlns="http://www.w3.org/2000/svg">
<path d="M13.3658 55.8035C14.0587 55.0953 14.7207 54.3947 15.3981 53.7173C22.1648 46.9738 32.0876 46.5427 39.4316 52.6473C39.7318 52.8936 40.2091 53.0399 40.6094 53.0399C45.9596 53.063 51.3021 53.063 56.6522 53.0553C57.8916 53.0553 59.0925 53.1246 60.2241 53.725C60.4089 53.8251 60.8708 53.6403 61.0632 53.4479C63.4189 51.1308 65.7437 48.7905 68.0762 46.458C70.7398 43.8022 73.896 44.0331 76.0514 46.9122C77.1677 46.6351 78.2069 46.1886 79.2615 46.1501C81.2323 46.0731 82.7642 46.9969 83.6418 48.7905C84.5193 50.5765 84.3115 52.3009 83.1491 53.9098C82.9258 54.2177 82.6564 54.4871 82.387 54.7566C77.9914 59.1599 73.565 63.5324 69.2001 67.9665C66.96 70.2451 64.3118 71.3152 61.1171 71.2998C52.7647 71.2613 44.4046 71.3306 36.0521 71.2536C33.9736 71.2382 32.4648 72.0234 31.0945 73.8555C31.4102 74.0865 31.8105 74.2943 32.1107 74.6023C32.7342 75.2566 32.765 75.9879 32.1338 76.6269C28.8621 79.9293 25.5827 83.2087 22.2802 86.4804C21.6336 87.1194 20.9331 87.0886 20.2479 86.4958C20.094 86.3649 19.9554 86.211 19.8091 86.0647C13.5044 79.7677 7.20735 73.4629 0.902611 67.1659C-0.298292 65.965 -0.298292 65.4415 0.887215 64.256C3.84328 61.2999 6.79166 58.3439 9.74772 55.3878C11.0949 54.0406 11.5337 54.0406 12.9116 55.3724C13.0348 55.4879 13.1657 55.5957 13.3735 55.7881L13.3658 55.8035ZM29.2778 71.5307C29.3394 71.4768 29.4856 71.3844 29.5934 71.2613C31.4025 69.1443 33.7042 68.4284 36.4524 68.4515C44.7202 68.5362 52.9879 68.4669 61.2557 68.49C63.5805 68.49 65.4973 67.7279 67.137 66.0651C71.5096 61.6387 75.9283 57.2584 80.3239 52.8551C80.5702 52.6088 80.8243 52.3548 81.0167 52.0699C81.4709 51.3771 81.494 50.6381 81.0783 49.9145C80.678 49.2216 80.0391 48.7751 79.2769 48.9214C78.638 49.0446 77.9298 49.3525 77.4679 49.8067C74.1269 53.0707 70.8167 56.3809 67.5373 59.7064C65.405 61.8696 62.8569 62.8934 59.8316 62.8781C53.8424 62.855 47.8533 62.8781 41.8642 62.8704C41.5717 62.8704 41.2791 62.8704 40.9943 62.8165C40.263 62.6702 39.855 62.1775 39.8627 61.4616C39.8704 60.7072 40.2938 60.1991 41.0867 60.1067C41.4023 60.0682 41.7256 60.0759 42.0489 60.0759C47.5377 60.0759 53.0341 60.0759 58.5229 60.0759C60.0317 60.0759 60.6783 59.0906 60.1395 57.6818C59.6776 56.4886 58.6845 55.8728 57.1372 55.8728C51.4714 55.8728 45.7979 55.8574 40.1321 55.8882C39.1929 55.8882 38.4847 55.6341 37.7765 55.0029C34.0583 51.7004 29.732 50.5611 24.8437 51.5311C20.8407 52.324 17.977 54.8412 15.4289 57.7203C20.0324 62.3238 24.6358 66.9272 29.2624 71.5538L29.2778 71.5307ZM24.02 80.6684C18.0848 74.7331 12.1726 68.821 6.40675 63.0628C5.52147 63.9481 4.55921 64.9027 3.75861 65.711C9.58607 71.5384 15.4905 77.4506 21.3565 83.3165C22.2186 82.462 23.1655 81.5228 24.0123 80.6761L24.02 80.6684ZM8.56992 60.6533C14.4821 66.5654 20.4096 72.5007 26.3063 78.4051C27.1916 77.5198 28.1385 76.573 28.9776 75.7339C23.0654 69.8217 17.1379 63.8865 11.2412 57.9821C10.3636 58.8596 9.41671 59.8065 8.56992 60.6533ZM63.3265 59.4062C63.8115 59.0675 64.4504 58.7519 64.9277 58.2823C67.8684 55.4032 70.7782 52.4856 73.6727 49.5603C73.8421 49.391 73.9037 48.9676 73.819 48.7367C73.3186 47.3587 71.548 46.9969 70.4241 48.09C67.853 50.5996 65.328 53.1477 62.7953 55.7034C62.6491 55.8497 62.5798 56.1653 62.6183 56.3655C62.8184 57.3508 63.0648 58.3285 63.3188 59.4062H63.3265Z" fill="white"/>
<path d="M33.6734 20.9927C33.6734 9.43017 43.119 0 54.7046 0C66.3365 0 75.7589 9.43787 75.7512 21.0697C75.7435 32.6168 66.3288 42.0547 54.8124 42.0701C43.1267 42.0855 33.6811 32.6707 33.6734 21.0004V20.9927ZM36.4755 21.0312C36.5063 31.1157 44.674 39.2757 54.7123 39.2526C64.8584 39.2295 72.9568 31.0541 72.9414 20.8464C72.926 10.9082 64.6737 2.77901 54.62 2.79441C44.6432 2.80981 36.4447 11.0468 36.4755 21.0235V21.0312Z" fill="white"/>
<path d="M54.6584 5.61209C63.2957 5.62748 70.1624 12.5327 70.1316 21.1776C70.1008 29.6071 63.134 36.4738 54.6276 36.4584C46.1905 36.443 39.2468 29.4608 39.2776 21.016C39.3161 12.5096 46.2136 5.59669 54.6507 5.61209H54.6584ZM67.3295 21.0622C67.3449 14.08 61.6945 8.42959 54.6969 8.41419C47.8225 8.4065 42.1182 14.0569 42.0951 20.9159C42.0643 27.9289 47.6916 33.6332 54.643 33.6486C61.6483 33.6639 67.3218 28.0366 67.3372 21.0622H67.3295Z" fill="white"/>
<path d="M50.2397 28.1519V27.0741C51.6793 26.3428 52.6954 24.9187 52.6954 23.3021C52.6954 22.7863 52.6723 22.3552 52.5876 21.7933H50.3706V20.4384H52.3721C52.2643 19.7917 52.1335 18.9527 52.1335 18.1136C52.1335 15.5732 53.8809 13.9104 56.2673 13.9104C57.3912 13.9104 58.1611 14.1721 58.6152 14.4493L58.2073 15.8734C57.8223 15.6579 57.1757 15.4423 56.2673 15.4423C54.5891 15.4423 53.9194 16.6047 53.9194 18.1367C53.9194 19.0604 54.0272 19.7533 54.1581 20.4384H57.2604V21.7933H54.3274C54.389 22.6093 54.4352 23.4329 54.2427 24.2028C54.0041 25.1265 53.4883 25.904 52.757 26.5276V26.5738H59.1772V28.1442H50.2397V28.1519Z" fill="white"/>
</svg>
