<svg width="83" height="83" viewBox="0 0 83 83" fill="none" xmlns="http://www.w3.org/2000/svg">
<path d="M35.1422 62.7147C35.9086 62.7147 36.5643 62.7147 37.2279 62.7147C38.1286 62.7226 38.3656 62.9359 38.3656 63.8444C38.3814 66.3014 38.3656 68.7664 38.3656 71.2234C38.3656 74.6206 38.3656 78.0256 38.3656 81.4228C38.3656 82.5684 38.1602 82.7738 37.0067 82.7738C29.3829 82.7738 21.7511 82.7738 14.1272 82.7738C12.9342 82.7738 12.7446 82.5763 12.7446 81.3754C12.7446 75.6002 12.7446 69.825 12.7446 64.0498C12.7446 62.8806 12.9105 62.7226 14.0956 62.7226C14.8935 62.7226 15.6994 62.7147 16.4973 62.7068C16.5447 62.7068 16.5921 62.6673 16.6632 62.6278C16.837 61.814 16.6948 61.1741 16.0154 60.5263C11.5596 56.3074 7.16694 52.0254 2.74271 47.775C1.52605 46.6058 0.88612 45.2232 0.783415 43.5325C0.570104 40.0563 0.246188 36.5881 0.0486782 33.1119C-0.227836 28.0951 0.720212 23.2127 1.71566 18.3381C1.94477 17.2321 2.12648 16.1102 2.35559 15.0042C2.5452 14.0719 2.93232 13.8665 3.83297 14.1746C8.15448 15.6678 10.9591 20.2974 10.177 24.9824C9.91627 26.5704 10.0111 28.024 10.493 29.5172C10.8406 30.5917 11.125 31.6898 11.3857 32.788C11.4964 33.2383 11.7018 33.42 12.1521 33.4753C13.2028 33.6017 14.0719 34.1152 14.8382 34.8342C16.9318 36.8014 19.0333 38.7686 21.1585 40.6963C21.443 40.957 21.9249 41.1545 22.3041 41.1387C25.2983 41.0202 27.7396 42.0709 29.6752 44.3778C30.5442 45.4128 31.516 46.3608 32.4245 47.3642C34.1705 49.2761 35.0948 51.5356 35.1185 54.1269C35.1422 56.9395 35.1185 59.7599 35.1185 62.7068L35.1422 62.7147ZM3.84087 15.9759C3.62756 17.082 3.42215 18.1327 3.20884 19.1914C2.4188 23.1495 1.53395 27.0997 1.66826 31.1605C1.80257 35.245 2.16598 39.3216 2.3951 43.3982C2.4741 44.7887 3.05873 45.8473 4.05418 46.7875C8.3678 50.9115 12.634 55.0829 16.9713 59.1832C17.9115 60.068 18.6225 60.9371 18.3697 62.3038C18.346 62.4223 18.4171 62.5567 18.4408 62.6594H33.499C33.499 59.7046 33.5306 56.8052 33.4911 53.9057C33.4674 51.7963 32.6378 49.995 31.2157 48.4545C30.3783 47.538 29.4777 46.669 28.7034 45.7051C26.9732 43.5404 24.769 42.5687 22.0197 42.8136C21.2928 42.8768 20.7714 42.6082 20.25 42.1104C18.0695 40.0326 15.8653 37.9785 13.6453 35.9481C12.2627 34.6841 10.3982 34.7236 9.19734 35.9955C8.02808 37.2359 8.09918 39.0767 9.37115 40.3802C10.2244 41.2493 11.0855 42.1025 11.9467 42.9637C13.9376 44.9625 15.9285 46.9534 17.9194 48.9522C18.3144 49.3472 18.5435 49.7817 18.1011 50.2478C17.7061 50.6587 17.2557 50.5797 16.8607 50.1846C13.8744 47.1904 10.8327 44.2514 7.93327 41.1782C5.79227 38.9108 6.57441 35.2924 9.36325 33.8861C9.55286 33.7913 9.74246 33.6886 9.93997 33.5859C9.52125 32.0532 9.17364 30.5443 8.69961 29.0827C8.27299 27.7791 8.26509 26.5309 8.5258 25.1878C9.29214 21.3008 7.30124 17.4059 3.83297 15.968L3.84087 15.9759ZM36.7065 81.1147V64.3896H14.4511V81.1147H36.7065Z" fill="white"/>
<path d="M66.2145 62.7147C67.1862 62.7147 68.1264 62.7305 69.0586 62.7147C69.7854 62.6989 70.1173 63.0386 70.1173 63.7654C70.1173 69.7381 70.1094 75.7029 70.1173 81.6756C70.1173 82.4498 69.7538 82.7817 69.0112 82.7817C61.2214 82.7817 53.4237 82.7817 45.6339 82.7817C44.757 82.7817 44.4963 82.5209 44.4963 81.6361C44.4963 75.7187 44.4963 69.8092 44.4963 63.8918C44.4963 62.9438 44.7254 62.7384 45.6813 62.7305C46.2581 62.7305 46.8427 62.7305 47.4194 62.7226C47.4747 62.7226 47.5221 62.6989 47.7117 62.6515C47.7117 62.3986 47.7117 62.1063 47.7117 61.814C47.7117 59.3017 47.7117 56.7815 47.7117 54.2691C47.7196 51.5119 48.723 49.1655 50.6112 47.1667C51.5434 46.187 52.4757 45.2074 53.3605 44.1803C55.1776 42.0709 57.4687 41.0676 60.2418 41.1861C60.9291 41.2177 61.4189 41.0123 61.9167 40.5303C63.8918 38.6342 65.9221 36.8014 67.9051 34.9211C68.711 34.1626 69.6195 33.6491 70.7177 33.4437C70.9863 33.3963 71.326 33.0803 71.405 32.8196C71.9186 31.1052 72.4558 29.3829 72.8192 27.629C72.9772 26.8864 72.7955 26.0489 72.6612 25.2668C71.8396 20.5344 74.5494 15.7547 78.9736 14.1825C79.9138 13.8507 80.3167 14.0482 80.4905 15.0437C81.2015 19.0334 82.0706 23.0152 82.5288 27.0365C82.8606 29.928 82.7184 32.8828 82.6236 35.8059C82.5446 38.3972 82.2207 40.9807 82.0548 43.572C81.9521 45.2627 81.2805 46.6373 80.0639 47.7987C75.6791 52.0096 71.326 56.2521 66.9097 60.4314C66.2224 61.0872 65.9617 61.7271 66.1908 62.7147H66.2145ZM72.9298 33.5622C73.0088 33.6333 73.0404 33.6886 73.0878 33.7044C76.2243 34.8263 77.2908 39.0767 74.4151 41.7944C71.6578 44.3857 69.0507 47.1351 66.3725 49.8133C66.1987 49.9871 66.0407 50.2636 65.8273 50.3031C65.4955 50.3742 64.9978 50.4295 64.8082 50.2399C64.6186 50.0582 64.6502 49.5605 64.7134 49.2287C64.7529 49.0233 65.0294 48.8574 65.2032 48.6836C67.9131 45.9658 70.6466 43.2639 73.3248 40.5145C73.8067 40.0247 74.2176 39.3611 74.3914 38.7054C74.739 37.4018 74.107 36.114 72.9772 35.4504C71.8159 34.771 70.4017 34.8737 69.3667 35.8217C67.2415 37.7573 65.1163 39.6929 63.0622 41.6996C62.2248 42.5212 61.3794 42.9005 60.2102 42.8215C57.9032 42.6556 56.0309 43.5562 54.5219 45.318C53.6054 46.3845 52.6258 47.3958 51.6698 48.4386C50.2083 50.0266 49.3866 51.8832 49.3629 54.0479C49.3392 56.7578 49.3471 59.4676 49.3471 62.1695C49.3471 62.3275 49.3787 62.4855 49.4024 62.6594H64.4764C64.4922 62.3986 64.5317 62.2011 64.5001 62.0194C64.3184 60.945 64.8161 60.2339 65.5745 59.515C70.062 55.2488 74.4941 50.9352 78.9578 46.6531C79.8348 45.8157 80.372 44.844 80.4431 43.6115C80.5379 41.984 80.6722 40.3565 80.8144 38.7369C81.2647 33.7992 81.478 28.8694 80.5537 23.9553C80.056 21.3087 79.5424 18.662 79.021 15.9443C78.6655 16.126 78.389 16.2524 78.1362 16.4104C75.1577 18.188 73.6171 21.6879 74.3361 25.2589C74.5968 26.5703 74.5889 27.7949 74.1702 29.0748C73.6803 30.56 73.3327 32.0927 72.9298 33.5859V33.5622ZM68.4503 64.3974H46.1554V81.0752H68.4503V64.3974Z" fill="white"/>
<path d="M59.4044 20.8584C59.4044 24.0106 59.3886 27.155 59.4202 30.3073C59.4202 31.0578 59.1832 31.5081 58.5196 31.8952C53.0999 35.0396 47.696 38.2077 42.3079 41.3915C41.6522 41.7786 41.1545 41.7865 40.4909 41.3915C35.0791 38.184 29.6436 35.008 24.2081 31.8478C23.5761 31.4844 23.3391 31.0499 23.347 30.3231C23.3707 23.9948 23.3707 17.6666 23.347 11.3384C23.347 10.6037 23.5919 10.1849 24.2239 9.82153C29.6436 6.67717 35.0475 3.50912 40.4356 0.317355C41.115 -0.0855648 41.6285 -0.117166 42.3237 0.293654C47.6881 3.47751 53.0683 6.62977 58.4643 9.75043C59.1832 10.1691 59.4439 10.659 59.4281 11.4727C59.3886 14.5934 59.4123 17.714 59.4123 20.8426L59.4044 20.8584ZM56.9948 10.817C51.8121 7.77533 46.7954 4.82848 41.7628 1.91324C41.5495 1.78683 41.1229 1.84213 40.8938 1.97644C36.0508 4.78898 31.2237 7.62522 26.3965 10.4536C26.2227 10.5563 26.0805 10.6906 25.8909 10.8328C26.0252 10.9355 26.0884 10.9987 26.1595 11.0382C31.0815 13.9297 36.0034 16.8213 40.9491 19.6812C41.194 19.8234 41.6917 19.7681 41.9603 19.618C46.187 17.1768 50.3901 14.6961 54.601 12.2233C55.3515 11.7808 56.1099 11.3384 57.0027 10.817H56.9948ZM42.1973 39.5033C42.5845 39.2979 42.8531 39.1636 43.1059 39.0135C47.775 36.28 52.4284 33.5385 57.1054 30.8208C57.6268 30.5206 57.8164 30.1888 57.8085 29.5883C57.7848 24.1213 57.7927 18.6542 57.7927 13.1792C57.7927 12.9185 57.769 12.6499 57.7532 12.3102C57.5557 12.3971 57.4293 12.4445 57.3187 12.5077C52.4363 15.3676 47.5696 18.2355 42.6714 21.0717C42.1657 21.364 42.1894 21.7432 42.1894 22.1778C42.1894 27.6448 42.1894 33.1119 42.1894 38.5869V39.5033H42.1973ZM40.5304 39.5191C40.5541 39.2979 40.5778 39.1952 40.5778 39.0925C40.5778 33.3726 40.5936 27.6527 40.5541 21.9328C40.5541 21.6247 40.2301 21.1981 39.9378 21.0243C35.8375 18.5831 31.7135 16.1814 27.5895 13.7638C26.7679 13.2819 25.9383 12.8 24.9903 12.2391V13.195C24.9903 18.6621 24.9982 24.1371 24.9745 29.6041C24.9745 30.2046 25.1562 30.5364 25.6776 30.8366C29.928 33.3015 34.1626 35.7901 38.3972 38.2709C39.0767 38.6738 39.764 39.0688 40.5304 39.5112V39.5191Z" fill="white"/>
<path d="M30.7418 67.0599C31.2632 67.0599 31.7925 67.0441 32.3139 67.0599C32.8196 67.0836 33.1593 67.3285 33.1593 67.8737C33.1593 68.4188 32.8117 68.6716 32.306 68.6795C31.2316 68.6953 30.1492 68.7348 29.0827 68.6479C28.7904 68.6242 28.3795 68.2055 28.3005 67.8974C28.182 67.3996 28.5692 67.0836 29.0827 67.0599C29.6357 67.0362 30.1887 67.0599 30.7339 67.052L30.7418 67.0599Z" fill="white"/>
<path d="M52.1834 67.06C52.6812 67.06 53.1789 67.06 53.6687 67.06C54.2138 67.0679 54.5852 67.3128 54.5773 67.8974C54.5773 68.4347 54.2139 68.6875 53.7082 68.6875C52.6575 68.7033 51.6146 68.7033 50.5639 68.6875C50.0582 68.6875 49.7027 68.4426 49.6948 67.8974C49.6869 67.3049 50.0661 67.0758 50.6034 67.06C51.1248 67.0442 51.6541 67.06 52.1755 67.06H52.1834Z" fill="white"/>
</svg>
