<svg width="64" height="80" viewBox="0 0 64 80" fill="none" xmlns="http://www.w3.org/2000/svg">
<path d="M0.0412359 25.8126C0.0412359 21.4137 0.0672137 17.0061 0.0239173 12.6072C0.0065988 10.9446 0.708 10.0267 2.30131 9.50715C11.6533 6.42445 20.988 3.27248 30.3487 0.198437C31.102 -0.0526823 32.0805 -0.0700008 32.8252 0.172459C42.2379 3.25516 51.6245 6.41579 61.0285 9.51581C62.6305 10.044 63.2453 11.0312 63.2366 12.6764C63.202 21.431 63.3059 30.1855 63.1847 38.94C63.124 43.1484 61.5307 47.0451 59.8162 50.8205C54.1444 63.3419 44.7491 72.4427 33.1803 79.5087C32.1758 80.1235 31.206 80.1841 30.1842 79.5607C17.1346 71.5595 6.94268 61.0991 1.73845 46.387C0.595429 43.1744 -0.114631 39.9012 0.0152581 36.4462C0.145147 32.9045 0.0412359 29.3629 0.0412359 25.8212V25.8126ZM58.3614 27.0941C58.3614 23.0936 58.3181 19.093 58.3961 15.101C58.4134 14.036 58.0497 13.6117 57.0799 13.2913C49.0181 10.6502 40.9736 7.93117 32.9032 5.31607C32.1152 5.05629 31.0934 5.08227 30.3054 5.34204C22.2782 7.94849 14.2857 10.6588 6.26725 13.2739C5.21948 13.6117 4.88177 14.0706 4.89043 15.179C4.94238 22.5134 4.87311 29.8564 4.95104 37.1908C4.96836 38.94 5.13289 40.7498 5.61781 42.4211C9.7223 56.5097 18.9617 66.5544 31.0328 74.3045C31.3705 74.521 32.1238 74.4257 32.4962 74.1833C41.5971 68.3469 49.1739 61.0471 54.205 51.3574C56.9153 46.1359 58.8377 40.7238 58.4134 34.6797C58.2315 32.1598 58.3874 29.6226 58.3874 27.0941H58.3614Z" fill="white"/>
<path d="M26.8157 40.3254C28.1752 38.8879 29.3269 37.615 30.5391 36.4027C34.2453 32.6706 37.9688 28.9471 41.6923 25.2409C42.9912 23.9507 44.3593 23.8468 45.4331 24.8946C46.5068 25.9423 46.4462 27.3538 45.1733 28.6354C39.6833 34.16 34.1847 39.6759 28.6687 45.1832C27.4218 46.4302 26.0883 46.3955 24.824 45.1226C22.6073 42.9058 20.3991 40.6804 18.191 38.4463C16.8315 37.0695 16.719 35.684 17.8447 34.6016C18.9184 33.5625 20.2779 33.6751 21.5855 34.974C23.2654 36.6539 24.9106 38.3684 26.8243 40.334L26.8157 40.3254Z" fill="white"/>
</svg>
