<svg width="74" height="74" viewBox="0 0 74 74" fill="none" xmlns="http://www.w3.org/2000/svg">
<g clip-path="url(#clip0_57_5)">
<path d="M39.691 21.4572C39.6382 22.6075 39.1533 23.6619 38.9853 24.793C38.9085 25.3106 38.9517 25.4783 39.5278 25.6365C41.7075 26.2452 43.7288 27.175 45.1931 29.0106C45.0347 29.7103 45.4812 30.2184 45.7693 30.7695C46.1726 31.5316 46.8015 32.1882 46.912 33.094C45.7501 33.5493 45.27 33.3576 44.5114 32.1978C43.0758 29.9979 41.1218 28.5409 38.4331 28.0281C38.5436 28.6415 38.2795 29.1544 38.2651 29.7103C38.2507 30.3286 37.7562 30.573 37.2809 30.6976C36.7864 30.8222 36.287 30.736 35.999 30.1896C35.6869 29.5953 35.5717 28.9531 35.5621 28.2965C35.5621 27.9514 35.4804 27.8076 35.1108 27.8699C32.1629 28.354 29.9303 29.8877 28.3459 32.4038C28.2163 32.6099 28.1587 32.8927 27.8322 32.9646C27.1313 33.118 26.4687 33.1707 25.7245 33.0509C24.3658 32.8256 22.9639 32.816 21.7012 33.511C21.778 33.7362 21.9364 33.741 22.0997 33.7698C23.1991 33.9471 24.2026 34.3641 25.086 35.0542C26.6847 36.3051 28.0003 37.8484 29.4358 39.2671C31.9372 41.7305 34.3954 44.2323 36.8968 46.7485C37.9146 45.7277 38.8556 44.7452 39.8303 43.8058C42.4133 41.3184 44.7803 38.6105 47.5409 36.3051C47.7089 37.1678 48.4339 37.7526 48.674 38.5769C48.4963 38.7734 48.3283 38.9747 48.141 39.1616C45.6205 41.6826 43.0951 44.1988 40.5745 46.715C39.8207 47.4674 38.7788 48.1001 38.4043 49.0107C38.0202 49.9453 38.2747 51.1483 38.2699 52.2314C38.2555 57.2015 38.2507 62.1716 38.2411 67.1369C37.5881 66.9452 37.5785 66.2454 37.2137 65.8285C36.6615 65.191 36.5799 64.2133 35.7349 63.782C35.7253 59.1282 35.7109 54.4697 35.7205 49.8159C35.7205 49.351 35.5861 49.0347 35.2596 48.7088C31.5915 45.0711 27.9186 41.4334 24.2986 37.7526C23.2759 36.7125 22.0613 36.2668 20.6737 36.1182C20.5345 35.6342 20.2512 35.2268 20.0304 34.781C19.6175 33.9471 18.9453 33.2474 18.7437 32.3032C20.1696 31.2296 21.7444 30.4963 23.5448 30.4197C24.2698 30.3909 24.9899 30.1608 25.7389 30.3861C26.2526 30.5395 26.6703 30.3286 27.0352 29.8637C28.8741 27.4961 31.2458 25.948 34.2321 25.464C34.8947 25.3585 35.13 25.1476 34.9139 24.515C34.5202 23.3551 34.2033 22.1665 33.632 21.069C33.4592 20.7431 33.2431 20.5849 32.8878 20.6664C30.6121 21.208 28.2979 21.045 26.0702 20.5945C23.9241 20.1632 21.9412 19.1567 20.208 17.7333C17.3129 15.3513 16.0742 12.1114 15.4021 8.5839C15.1908 7.46719 15.5557 6.53739 17.2553 6.78662C18.2155 6.92561 19.1518 6.87289 20.1024 6.89206C21.6195 6.92561 23.1463 6.82975 24.6539 6.94478C27.2465 7.13649 29.5894 7.99439 31.5147 9.8396C33.2719 11.5219 34.549 13.4677 35.1348 15.8449C35.2356 16.2475 35.418 16.6741 35.3652 17.0623C35.1732 18.5049 35.7397 19.7222 36.3831 20.9348C36.5655 21.2799 36.6999 21.6489 36.8776 22.0467C37.3193 21.1169 37.3577 20.0961 37.8138 19.219C38.1883 19.2573 38.3035 19.5641 38.4956 19.8229C38.8941 20.3645 39.0189 21.1073 39.6814 21.4572H39.691ZM31.3275 18.1838C30.6841 17.5559 30.1416 16.8706 29.4406 16.3338C28.0771 15.289 26.5407 14.5988 24.9803 13.923C24.2506 13.6067 24.0057 12.9405 24.2602 12.2312C24.4618 11.6656 25.1388 11.3493 25.859 11.5937C27.2177 12.0586 28.5236 12.6529 29.7239 13.4629C30.5305 14.0093 31.3034 14.5892 32.1725 15.3369C32.062 14.5413 31.6587 14.1051 31.3707 13.6259C30.2472 11.7519 28.706 10.4243 26.5023 9.91149C23.9241 9.31719 21.3027 9.48014 18.6956 9.36512C18.1387 9.34115 18.2539 9.73895 18.3164 10.0121C18.5612 11.148 19.0845 12.1785 19.6751 13.1658C21.3603 15.9839 24.0585 17.2875 27.0976 18.1119C28.4996 18.4905 29.8919 18.1694 31.3227 18.179L31.3275 18.1838Z" fill="white"/>
<path d="M59.9279 26.7243C59.9183 21.5673 59.7694 16.4007 59.9471 11.2485C60.0527 8.16195 62.967 5.20962 66.2462 5.1521C67.8305 5.12335 69.3525 5.23358 70.7016 6.149C72.8477 7.60599 73.9616 9.6477 73.976 12.2358C74 16.5157 73.9808 20.8004 73.976 25.0803C73.976 31.7039 73.9376 38.3275 74 44.9511C74.0096 46.2403 73.7647 47.3235 72.8813 48.2533C72.6221 47.8315 72.3868 47.3954 72.1035 46.9928C71.8731 46.6717 71.9019 46.1445 71.3786 46.0486C71.393 45.9144 71.4122 45.785 71.4122 45.6508C71.4122 34.5029 71.4122 23.3597 71.3978 12.2118C71.3978 11.5648 71.3258 10.889 71.0137 10.3091C70.0439 8.51182 68.5795 7.65871 66.467 7.69226C64.561 7.72102 63.0534 9.25949 62.6021 10.8123C62.3188 11.7853 62.4629 12.8013 62.4581 13.7982C62.4389 19.1709 62.4293 24.5436 62.4196 29.9162C62.1412 29.9162 62.026 29.7197 61.9011 29.504C61.493 28.7756 61.0849 28.0471 60.648 27.3377C60.48 27.0693 60.3744 26.6811 59.9279 26.7195V26.7243Z" fill="white"/>
<path d="M27.5538 73.9712C23.2903 73.9808 19.0269 73.9951 14.7683 73.9903C13.9617 73.9903 13.5344 73.4344 13.5296 72.4039C13.52 70.2232 13.52 68.0425 13.5296 65.8618C13.5296 65.373 13.4288 64.9896 13.1071 64.563C8.85331 58.874 4.6331 53.1563 0.4177 47.4385C0.20645 47.151 0.0144043 46.8442 0.0144043 46.432C0.03841 40.7143 0.0432111 34.9966 0.0528134 29.2788C0.633752 29.4082 0.705769 29.9833 0.989036 30.3668C1.50756 31.0665 1.6852 32.0251 2.54941 32.4756C2.55901 36.4919 2.58782 40.5034 2.57341 44.5197C2.57341 45.5214 2.75586 46.3218 3.41841 47.1893C7.38896 52.4038 11.2395 57.7046 15.1572 62.9574C15.815 63.8393 16.1943 64.726 16.1078 65.8571C16.0118 67.1271 16.0886 68.4068 16.0886 69.6865C16.0886 70.8559 16.6616 71.4406 17.8074 71.4406C20.6833 71.4454 23.5592 71.4598 26.4351 71.4646C26.4159 71.7713 26.5599 72.0253 26.7184 72.2697C27.064 72.8017 27.3713 73.3529 27.5538 73.9664V73.9712Z" fill="white"/>
<path d="M59.9279 26.7243C60.3744 26.686 60.4848 27.0742 60.648 27.3426C61.0897 28.0519 61.4978 28.7804 61.9011 29.5089C62.0211 29.7246 62.1364 29.9163 62.4196 29.9211C62.4292 33.4246 62.4389 36.9329 62.4533 40.4364C62.4533 40.8246 62.2996 41.1553 62.0308 41.4237C59.8222 43.614 57.6137 45.7994 55.4052 47.9849C54.805 47.3763 54.4401 46.6238 54.1041 45.857C54.733 45.2099 55.3572 44.5629 55.9909 43.9207C56.8599 43.034 57.4265 42.0084 57.4793 40.7479C57.6377 36.952 53.8496 35.4136 50.9785 36.6597C50.0183 37.0766 49.4758 37.9633 48.6884 38.5672C48.4483 37.7428 47.7234 37.1533 47.5553 36.2954C48.6548 34.9247 50.0423 33.9997 51.9292 33.6786C51.7131 33.5492 51.6315 33.4869 51.5403 33.4485C50.0375 32.8734 48.4915 32.8399 46.9264 33.0939C46.8159 32.188 46.187 31.5362 45.7837 30.7694C45.4908 30.2182 45.0443 29.7102 45.2076 29.0105C45.3084 29.1207 45.4428 29.2213 45.51 29.3507C46.1774 30.6112 47.3345 30.4579 48.4771 30.4099C50.58 30.3189 52.5389 30.8077 54.2625 32.0251C55.0451 32.5763 55.8469 33.1418 56.3846 33.9853C57.052 35.0301 58.2475 35.5957 58.8908 36.6645C59.1933 37.1629 59.4621 37.6805 59.8942 38.1598C59.8942 37.5943 59.8942 37.0287 59.8942 36.468C60.0527 36.3673 60.0527 36.2667 59.8942 36.1612C59.9086 33.0172 59.923 29.8732 59.9375 26.7291L59.9279 26.7243ZM59.9855 38.548C59.9471 38.5289 59.9134 38.5049 59.875 38.5001C59.8606 38.5001 59.8222 38.5432 59.827 38.5528C59.8414 38.5912 59.8702 38.6199 59.8894 38.6535C59.923 38.6199 59.9519 38.5864 59.9855 38.548Z" fill="white"/>
<path d="M18.7533 32.2983C18.9549 33.2425 19.6223 33.9422 20.04 34.7762C20.2608 35.2171 20.5441 35.6293 20.6833 36.1134C20.376 36.1805 20.0688 36.2332 19.7663 36.3099C17.9371 36.7556 16.8856 38.0352 16.4391 39.7367C16.0598 41.1745 16.6216 42.4973 17.649 43.5469C19.9055 45.8426 22.2005 48.1 24.481 50.3718C25.1436 51.0332 25.1772 51.6898 24.5722 52.3128C23.9817 52.9215 23.3191 52.9167 22.6566 52.2601C19.1662 48.7854 15.6853 45.301 12.1997 41.8263C11.7436 41.3758 11.5275 40.8678 11.5275 40.2064C11.5515 36.353 11.5323 32.4948 11.5371 28.6367C11.5371 26.456 11.5563 24.2753 11.566 22.0994C11.8924 22.0994 11.9885 22.3582 12.1229 22.593C12.5022 23.2592 12.9007 23.911 13.2752 24.5772C13.4528 24.8935 13.6448 25.1619 14.0577 25.1332C14.0673 28.8523 14.0817 32.5715 14.0914 36.2859C14.0914 36.9473 14.0914 37.6135 14.0914 38.4762C15.2868 35.9983 16.5831 33.8176 18.7437 32.3031L18.7533 32.2983Z" fill="white"/>
<path d="M39.691 21.457C39.0285 21.1071 38.9037 20.3643 38.5052 19.8227C38.3179 19.5639 38.1979 19.2571 37.8234 19.2188C38.2315 17.7618 38.9757 16.4534 39.6382 15.1114C39.7439 14.8957 39.7823 14.7472 39.7583 14.4836C39.451 11.2868 40.1231 8.33925 42.106 5.75117C42.9414 4.65842 43.844 3.63757 45.1451 3.07202C45.5292 3.77176 46.0862 4.38044 46.2782 5.18083C44.4442 6.62824 43.1383 8.43031 42.4661 10.9225C42.8502 10.5631 43.0902 10.3618 43.3063 10.1365C44.5498 8.81373 46.0333 7.86956 47.7282 7.22733C48.2659 7.02124 48.8228 6.94456 49.3269 7.21295C49.7254 7.42384 50.0183 7.82163 49.9607 8.32008C49.9031 8.80894 49.7014 9.20194 49.1733 9.39365C47.9682 9.83938 46.7967 10.3905 45.8173 11.2341C44.9147 12.0057 43.9833 12.7725 43.4071 13.9803C45.7069 13.8797 47.7041 13.1512 49.639 12.2166C49.8311 13.0505 50.3448 13.7215 50.7625 14.4452C49.1157 15.4613 47.3297 16.0747 45.4188 16.3623C44.3625 16.5205 43.3111 16.5205 42.2549 16.4965C41.8083 16.4869 41.6211 16.6738 41.4675 17.0668C40.8961 18.5382 40.2864 19.9952 39.6958 21.457H39.691Z" fill="white"/>
<path d="M62.8085 61.8215C62.2036 62.6363 61.6227 63.475 60.9793 64.261C60.624 64.6924 60.4512 65.1237 60.456 65.6845C60.4752 67.8604 60.4656 70.0411 60.4608 72.217C60.4608 73.5398 60.0047 73.9999 58.7132 73.9999C53.1774 73.9951 47.6465 73.9807 42.1108 73.9759C42.1396 73.6644 41.962 73.4247 41.8468 73.1563C41.6019 72.5716 41.1074 72.1163 40.9874 71.4741C41.2802 71.4645 41.5731 71.4501 41.866 71.4501C46.6911 71.4501 51.5115 71.4501 56.3366 71.4501C57.3768 71.4501 57.897 70.9453 57.897 69.9356C57.897 68.2869 57.897 66.6382 57.897 64.9895C57.897 64.6444 57.8778 64.2898 58.0842 63.9878C59.1453 62.435 60.2927 60.9396 61.4642 59.4683C61.9107 60.2543 62.3572 61.0451 62.8037 61.8311L62.8085 61.8215Z" fill="white"/>
<path d="M50.7625 14.4453C50.3448 13.7264 49.8359 13.0506 49.639 12.2167C51.5691 11.1479 53.0574 9.65256 54.0705 7.68753C54.7618 6.34077 55.0115 4.88857 55.2323 3.42199C55.3188 2.84686 54.9539 2.89479 54.5986 2.97147C53.4271 3.22069 52.27 3.58974 51.0842 3.70476C49.3605 3.86771 47.757 4.29427 46.2782 5.18572C46.0862 4.38533 45.534 3.77665 45.1451 3.07691C46.3118 2.01771 47.7762 1.61992 49.2549 1.3659C51.5307 0.972896 53.8112 0.579891 56.0581 0.0431032C56.8695 -0.148607 57.7625 0.354632 57.7817 1.19336C57.873 4.80709 57.2728 8.26266 54.9011 11.1383C53.7728 12.5042 52.4669 13.7504 50.7625 14.4453Z" fill="white"/>
<path d="M2.54941 32.4805C1.6852 32.03 1.51236 31.0763 0.989038 30.3717C0.70097 29.9835 0.633754 29.4132 0.0528158 29.2838C0.0432135 24.8744 0.0288101 20.4651 0.0240089 16.0558C0.0240089 14.4358 -0.0528093 12.8063 0.0768215 11.1959C0.259265 8.94815 1.41634 7.24193 3.39921 6.11084C3.3704 6.39361 3.55285 6.59491 3.65367 6.82975C3.87933 7.35216 4.35944 7.75954 4.36904 8.37781C4.22501 8.53118 4.08577 8.68934 3.93694 8.83791C3.04393 9.72936 2.55901 10.755 2.56861 12.0682C2.61182 16.2379 2.58782 20.4124 2.58302 24.5821C2.58302 27.2133 2.56381 29.8397 2.54941 32.4709V32.4805Z" fill="white"/>
<path d="M4.36904 8.38257C4.35944 7.7643 3.87452 7.35692 3.65367 6.83451C3.55285 6.59487 3.3704 6.39837 3.39921 6.1156C3.93214 5.63153 4.6139 5.32479 5.27166 5.22894C9.49186 4.62985 13.1503 6.41754 13.9761 11.124C14.101 11.8381 14.101 12.5475 14.101 13.2616C14.0914 17.2204 14.0818 21.1744 14.0673 25.1332C13.6544 25.162 13.4624 24.8936 13.2848 24.5773C12.9103 23.9111 12.5118 23.2545 12.1325 22.5931C11.9981 22.363 11.902 22.1042 11.5756 22.0994C11.566 18.9889 11.5515 15.8736 11.5467 12.7631C11.5467 12.2311 11.5179 11.7087 11.3979 11.1863C10.985 9.39384 9.89996 8.18127 8.10913 7.78826C6.83203 7.51029 5.53092 7.68282 4.36424 8.38257H4.36904Z" fill="white"/>
<path d="M40.997 71.4695C41.117 72.1165 41.6115 72.5718 41.8564 73.1517C41.9668 73.4201 42.1492 73.6597 42.1204 73.9713C37.2665 73.9713 32.4125 73.9713 27.5538 73.9713C27.3713 73.3578 27.064 72.8066 26.7184 72.2746C26.5599 72.0254 26.4159 71.7762 26.4351 71.4695C29.287 71.4599 32.134 71.4311 34.9859 71.4599C35.5813 71.4647 35.7445 71.3209 35.7349 70.717C35.7061 68.4069 35.7349 66.092 35.7445 63.7771C36.5895 64.2037 36.6711 65.1862 37.2233 65.8236C37.5881 66.2454 37.5977 66.9403 38.2507 67.132C38.2603 68.3781 38.2891 69.6242 38.2699 70.8704C38.2603 71.3209 38.3899 71.4742 38.8508 71.4551C39.5662 71.4263 40.2864 71.4647 41.0018 71.4742L40.997 71.4695Z" fill="white"/>
<path d="M62.8085 61.8215C62.362 61.0355 61.9155 60.2447 61.469 59.4587C61.6995 58.9171 62.122 58.5145 62.4629 58.0544C65.4492 54.0621 68.4067 50.0505 71.3738 46.0486C71.8971 46.1444 71.8731 46.6668 72.0987 46.9928C72.382 47.3953 72.6221 47.8315 72.8765 48.2532C70.6968 51.2247 68.5267 54.201 66.3374 57.163C65.1803 58.7302 63.9848 60.2687 62.8085 61.8215Z" fill="white"/>
<path d="M59.8798 36.1565C60.0383 36.2571 60.0383 36.3578 59.8798 36.4632C59.6734 36.3626 59.6734 36.2619 59.8798 36.1565Z" fill="white"/>
<path d="M55.4004 47.9896C53.9792 49.4227 52.5677 50.8653 51.137 52.2887C50.6809 52.744 49.8455 52.744 49.4278 52.3271C48.8468 51.7472 48.8036 51.1289 49.3941 50.5154C50.5176 49.346 51.6795 48.2101 52.827 47.0694C53.2399 46.6573 53.672 46.2643 54.0945 45.8665C54.4305 46.6333 54.7954 47.3858 55.3956 47.9944L55.4004 47.9896Z" fill="white"/>
<path d="M59.9855 38.5529C59.9519 38.5865 59.9231 38.62 59.8894 38.6584C59.8654 38.6248 59.8366 38.5961 59.827 38.5577C59.827 38.5434 59.8606 38.5002 59.875 38.505C59.9135 38.5146 59.9519 38.5386 59.9855 38.5577V38.5529Z" fill="white"/>
</g>
<defs>
<clipPath id="clip0_57_5">
<rect width="74" height="74" fill="white"/>
</clipPath>
</defs>
</svg>
