<svg width="51" height="80" viewBox="0 0 51 80" fill="none" xmlns="http://www.w3.org/2000/svg">
<path d="M20.0873 0.1604C24.4291 1.53688 25.0624 7.66516 22.9501 10.5792C21.3283 12.8123 18.6193 13.0613 16.6864 11.0991C14.413 8.78905 14.1018 4.33378 16.1482 1.83341C16.7193 1.13419 17.6272 0.70953 18.3813 0.1604C18.9488 0.1604 19.5162 0.1604 20.0836 0.1604H20.0873ZM21.8408 7.0538C21.7164 5.34418 21.4748 4.16904 20.6328 3.2099C19.7468 2.20682 18.7108 2.2654 17.9127 3.34169C16.7193 4.95247 16.9829 8.12643 18.4216 9.51756C19.2416 10.312 20.2484 10.3266 20.8634 9.36747C21.3832 8.55475 21.6322 7.56632 21.8408 7.0538Z" fill="#4760CA"/>
<path d="M36.6928 58.8037C37.6592 55.8055 38.5818 52.9354 39.5373 49.9737C40.1669 50.1128 40.8808 50.2666 41.6752 50.4423C40.6428 55.2673 38.893 59.7446 36.5976 64.1925C36.3743 63.68 36.1766 63.2883 36.0228 62.8746C34.7122 59.3931 32.2778 56.7719 29.3967 54.5791C25.9701 51.9725 22.4264 49.5234 18.9376 46.9974C15.8588 44.768 12.8899 42.4104 10.5469 39.3719C6.60416 34.265 6.25271 28.748 8.92148 23.0188C9.89527 20.9321 11.2351 19.0101 12.4286 17.0296C12.5457 16.8356 12.791 16.6526 13.0107 16.5903C16.8582 15.503 20.7827 14.8844 24.7767 15.2395C33.1088 15.9826 38.5488 20.4928 41.2652 28.3161C42.7918 32.7091 43.1762 37.2669 42.8833 41.8905C42.854 42.3518 42.8284 42.8131 42.7918 43.3951C42.034 43.3402 41.3055 43.289 40.5953 43.2414C40.5953 42.1797 40.5843 41.184 40.5953 40.1882C40.6538 36.1649 40.2475 32.2039 38.8051 28.4186C36.5171 22.4184 32.318 18.6843 25.8639 17.7179C22.6863 17.242 19.538 17.5421 16.4153 18.1865C16.375 18.1938 16.3457 18.256 16.2688 18.3366C16.9058 18.893 17.5428 19.4385 18.1725 19.9986C21.5807 23.0298 24.59 26.4197 27.2148 30.1465C27.5992 30.692 28.0165 30.9336 28.6608 30.9519C30.0007 30.9921 31.3406 31.08 32.6805 31.1496C32.9587 31.1642 33.2369 31.1825 33.5115 31.1972V33.5328C32.1277 33.4669 30.8244 33.4083 29.3894 33.3388C32.4169 38.2516 34.7342 43.3842 36.2132 48.9706C35.4554 49.1756 34.7489 49.366 34.046 49.5564C33.1454 46.9864 32.2595 44.4531 31.3735 41.9198C31.2967 41.9198 31.2198 41.9271 31.1429 41.9271C30.7695 42.7215 30.3924 43.5123 29.9788 44.3909C29.2832 44.0761 28.6206 43.7722 27.8555 43.4244C28.4046 42.2347 28.8988 41.0595 29.4882 39.932C29.836 39.2657 29.7957 38.7495 29.4369 38.0869C27.2697 34.0783 24.7071 30.3478 21.7162 26.9103C21.5844 26.7602 21.4856 26.5771 21.2732 26.266C20.574 28.6419 19.9443 30.7762 19.2964 32.9837C18.5495 32.764 17.8467 32.559 17.0559 32.3284C17.4842 30.8494 17.8943 29.4253 18.3043 28.0012C18.6045 26.9615 18.923 25.9292 19.1939 24.8858C19.2561 24.6515 19.2524 24.2671 19.1097 24.1354C17.3634 22.4989 15.5842 20.8955 13.7245 19.2005C10.8764 23.6448 8.5554 28.0305 10.0271 33.3717C10.8727 36.4358 12.8716 38.7678 15.1303 40.8948C18.2603 43.8418 21.8626 46.1737 25.3587 48.6412C28.6682 50.9768 31.9886 53.3051 34.7049 56.3583C35.3529 57.0868 35.935 57.8702 36.6928 58.8074V58.8037Z" fill="#4760CA"/>
<path d="M12.1721 46.4081C16.1844 49.011 20.1967 51.6138 24.2895 54.268C23.7001 55.0294 23.2462 55.6115 22.7922 56.1972C20.6287 54.7182 18.4907 53.2576 16.2503 51.7273C16.4699 53.5102 16.7115 55.11 16.847 56.7171C17.0813 59.4407 17.2241 62.1718 17.4474 64.8954C17.6524 67.4141 17.9599 69.9145 18.9739 72.2757C20.2296 75.2044 22.5323 76.6431 25.6111 76.9763C26.5226 77.0751 27.4452 77.1007 28.5947 77.174C28.0968 76.537 27.7234 76.094 27.3903 75.6254C26.7789 74.7651 26.1566 73.9048 25.6074 73.0042C25.3365 72.5576 25.0363 72.4331 24.5421 72.4881C23.6489 72.5906 22.752 72.6382 21.7379 72.7187C21.683 71.9353 21.6354 71.2068 21.5805 70.405C22.3676 70.3282 23.0997 70.2549 23.799 70.1854C22.8215 67.5862 21.8514 65.0126 20.852 62.3511C21.7891 62.1388 22.5067 61.9741 23.2645 61.802C23.6196 62.9552 23.9674 64.0754 24.3517 65.3201C25.007 64.8112 25.5672 64.3756 26.1895 63.8887C26.6727 64.4781 27.1413 65.0419 27.6612 65.6752C26.8777 66.3195 26.1309 66.9345 25.3329 67.5935C26.7423 70.6796 28.4958 73.5314 30.8681 76.116C31.0145 75.8853 31.139 75.7133 31.2378 75.5266C32.9328 72.2208 32.7681 68.926 31.1463 65.6532C29.8211 62.9771 27.8698 60.7879 25.7063 58.7708C25.3292 58.4194 24.9448 58.0789 24.4982 57.6726C25.007 57.0722 25.4976 56.4938 26.0101 55.8897C29.1511 58.6317 31.9554 61.564 33.6137 65.4006C35.6748 70.1598 34.9573 74.604 32.0066 78.7664C31.8895 78.9348 31.6698 79.0996 31.4758 79.1289C28.624 79.5718 25.7722 79.6743 22.9716 78.814C19.1423 77.6389 16.9861 74.853 16.1075 71.1226C15.5218 68.6295 15.2399 66.0523 14.9982 63.4933C14.6102 59.3675 14.6651 55.1905 13.5669 51.1526C13.2154 49.8639 12.7139 48.6192 12.2819 47.3526C12.1904 47.0927 12.0988 46.8291 12.0073 46.5692C12.0586 46.5142 12.1135 46.4593 12.1647 46.4044L12.1721 46.4081Z" fill="#4760CA"/>
<path d="M7.49383 15.8399C4.53219 15.7849 2.00986 13.6397 1.22278 10.6854C0.776151 9.01601 0.845707 7.37228 1.59984 5.79079C2.90677 3.05613 5.916 2.01644 8.63602 3.34899C12.4872 5.23434 13.8381 10.6268 11.2718 13.9033C10.2541 15.1992 8.90692 15.8472 7.49749 15.8399H7.49383ZM10.2358 9.98247C10.1846 8.18865 9.52927 6.72797 8.06493 5.71757C6.24914 4.46922 4.17709 5.20505 3.50715 7.30272C2.90311 9.19173 3.68288 11.5859 5.28267 12.7684C7.2815 14.2437 9.62445 13.3688 10.1443 10.9416C10.2139 10.6158 10.2102 10.2753 10.2358 9.98247Z" fill="#4760CA"/>
<path d="M35.4257 6.81581C35.4257 8.62793 34.9864 10.0813 33.9906 11.3406C32.1566 13.658 29.0924 13.5847 27.3572 11.1942C25.6146 8.79267 25.8782 4.81332 27.9209 2.67537C29.7843 0.727794 32.5007 0.855924 34.1517 2.99387C35.0669 4.17999 35.444 5.54915 35.422 6.81947L35.4257 6.81581ZM33.1523 6.60348C32.951 6.1056 32.7093 5.14645 32.2041 4.35571C31.6184 3.43683 30.5421 3.44415 29.7404 4.19097C28.32 5.5162 28.1442 8.54007 29.4036 10.0117C30.1358 10.8684 31.062 10.927 31.8893 10.1509C32.7716 9.31984 33.0095 8.22524 33.1523 6.60348Z" fill="#4760CA"/>
<path d="M39.724 18.2634C37.7325 18.278 36.2315 16.9491 35.8325 14.888C35.3199 12.2595 37.3847 9.19906 39.9985 8.71217C42.455 8.25456 44.505 9.9715 44.6588 12.622C44.8126 15.2285 42.6783 17.8607 40.101 18.2341C39.9473 18.256 39.7935 18.256 39.724 18.2597V18.2634ZM42.2609 12.7867C42.3232 12.7464 42.3891 12.7062 42.4513 12.6622C42.1365 12.1717 41.9132 11.575 41.4885 11.2162C40.9394 10.7476 40.2621 10.9929 39.6837 11.3333C38.6111 11.9594 37.9814 13.3322 38.1791 14.5732C38.3365 15.5726 39.0906 16.0705 40.0827 15.8289C41.2945 15.5324 42.2646 14.1815 42.2573 12.7904L42.2609 12.7867Z" fill="#4760CA"/>
<path d="M46.2033 25.4351C43.9995 25.4351 42.3887 23.5314 42.7914 21.3495C43.1941 19.1713 44.4644 17.7363 46.617 17.1798C48.9197 16.5831 50.9515 18.1683 50.999 20.5368C51.0466 23.0482 48.711 25.4314 46.1997 25.4351H46.2033ZM48.6048 20.6284C48.6158 19.801 48.1509 19.3397 47.3858 19.4093C46.2033 19.5228 45.1051 20.7565 45.127 21.9499C45.1417 22.759 45.6176 23.1726 46.423 23.0811C47.5359 22.9493 48.5902 21.7669 48.6048 20.6284Z" fill="#4760CA"/>
<path d="M25.3767 20.6538H27.6867V22.9785C27.0277 22.9785 26.3724 23.0004 25.7208 22.9602C25.6 22.9528 25.3986 22.7149 25.3913 22.5758C25.3547 21.9681 25.3767 21.353 25.3767 20.6575V20.6538Z" fill="#4760CA"/>
<path d="M30.063 25.2557V23.0116H32.3254V25.2557H30.063Z" fill="#4760CA"/>
<path d="M40.2591 45.4453C41.0462 45.5734 41.7674 45.6943 42.5655 45.8224C42.43 46.6205 42.3056 47.3416 42.1701 48.1287C41.394 48.0006 40.6728 47.8798 39.8711 47.7443C40.0029 46.9609 40.1237 46.2397 40.2591 45.4453Z" fill="#4760CA"/>
</svg>
