<svg width="351" height="320" viewBox="0 0 351 320" fill="none" xmlns="http://www.w3.org/2000/svg">
<path d="M84 199.5C43.47 199.5 10.5 166.53 10.5 126C10.5 85.47 43.47 52.5 84 52.5C124.53 52.5 157.5 85.47 157.5 126C157.5 166.53 124.53 199.5 84 199.5ZM84 63C49.245 63 21 91.245 21 126C21 160.755 49.245 189 84 189C118.755 189 147 160.755 147 126C147 91.245 118.755 63 84 63Z" fill="#4760CA"/>
<path d="M105 152.25C104.055 152.25 103.11 152.04 102.27 151.515L76.0201 135.765C75.2461 135.294 74.6073 134.63 74.1657 133.839C73.7241 133.048 73.4948 132.156 73.5001 131.25V89.25C73.5001 86.31 75.8101 84 78.7501 84C81.6901 84 84.0001 86.31 84.0001 89.25V128.31L107.73 142.485C108.708 143.084 109.463 143.985 109.882 145.053C110.301 146.12 110.361 147.294 110.052 148.398C109.743 149.502 109.083 150.476 108.172 151.171C107.26 151.866 106.146 152.245 105 152.25Z" fill="#4760CA"/>
<path d="M219.697 210.914L149.069 205.538V6.65864L219.697 1.42432V210.914Z" fill="#97A6B7"/>
<path d="M155.911 79.1802V163.7H154.528V185.331H219.697V79.1802H155.911Z" fill="#D8DEE8"/>
<mask id="mask0_409_309" style="mask-type:luminance" maskUnits="userSpaceOnUse" x="154" y="10" width="66" height="192">
<path d="M154.528 196.846V15.3627L219.697 10.9795V201.36L154.528 196.846Z" fill="white"/>
</mask>
<g mask="url(#mask0_409_309)">
<path d="M240.838 -13.0703C240.838 -13.0703 240.906 32.681 251.159 53.6833C261.412 74.6857 265.269 95.1332 257.554 107.105C249.839 119.078 219.697 100.809 219.697 100.809C219.697 100.809 205.475 110.849 199.046 132.334C192.617 153.819 150.826 171.722 141.824 165.666C132.823 159.61 136.68 -2.53309 136.68 -2.53309L240.838 -13.0703Z" fill="white"/>
<path d="M139.896 177.994C139.896 177.994 165.219 189.811 184.383 178.892C203.547 167.973 219.697 148.35 219.697 148.35C219.697 148.35 239.187 160.301 249.657 159.633C260.126 158.966 267.871 125.352 267.871 125.352C267.871 125.352 285.201 116.734 292.916 99.2482C300.631 81.7621 324.314 62.7188 337.279 58.7295C350.244 54.7403 357.853 62.1877 357.853 62.1877L354.638 214.602L154.527 225.088L139.895 177.994H139.896Z" fill="white"/>
</g>
<path d="M267.87 199.487H350.244V13.1284H267.87V199.487Z" fill="#97A6B7"/>
<path d="M343.566 190.973V21.5122H267.871L245.156 85.5032L267.871 190.973H343.566Z" fill="#D8DEE8"/>
<mask id="mask1_409_309" style="mask-type:luminance" maskUnits="userSpaceOnUse" x="267" y="21" width="77" height="170">
<path d="M343.566 190.973V21.5122L267.871 21.5122V190.973H343.566Z" fill="white"/>
</mask>
<g mask="url(#mask1_409_309)">
<path d="M139.896 177.994C139.896 177.994 165.219 189.811 184.383 178.892C203.547 167.973 219.697 148.35 219.697 148.35C219.697 148.35 239.187 160.3 249.657 159.633C260.126 158.966 267.871 125.352 267.871 125.352C267.871 125.352 285.201 116.734 292.916 99.248C300.631 81.7619 324.314 62.7185 337.279 58.7293C350.244 54.74 357.853 62.1875 357.853 62.1875L354.638 214.602L154.527 225.088L139.895 177.994H139.896Z" fill="white"/>
<path d="M253.941 -7.38086C253.941 -7.38086 247.114 23.9679 253.941 32.2771C260.769 40.5862 265.971 64.3688 267.871 70.813C269.77 77.2581 284.558 91.3643 292.274 78.5207C299.989 65.6772 311.562 56.3085 317.348 51.986C323.134 47.6635 359.782 43.224 361.711 39.9751C363.64 36.7262 364.925 -0.138276 364.925 -0.138276L253.941 -7.38086Z" fill="white"/>
</g>
<path d="M267.871 199.487L219.698 210.914V1.42432L267.871 13.1283V21.5122L258.853 39.423L256.099 187.43L267.871 190.973V199.487Z" fill="#97A6B7"/>
<path d="M267.871 162.585V23.6893L250.908 17.8781L242.495 16.0185L241.043 15.8479V100.589H219.698V162.585H267.871Z" fill="#97A6B7"/>
<mask id="mask2_409_309" style="mask-type:luminance" maskUnits="userSpaceOnUse" x="219" y="10" width="49" height="192">
<path d="M219.698 201.36V10.9795L267.871 21.5123V190.987L219.698 201.36Z" fill="white"/>
</mask>
<g mask="url(#mask2_409_309)">
<path d="M240.838 -13.0703C240.838 -13.0703 240.907 32.681 251.159 53.6833C261.412 74.6857 265.27 95.1332 257.555 107.105C249.84 119.078 219.697 100.809 219.697 100.809C219.697 100.809 205.476 110.849 199.046 132.334C192.617 153.819 150.826 171.722 141.824 165.666C132.823 159.61 136.681 -2.53309 136.681 -2.53309L240.838 -13.0703Z" fill="#D8DEE8"/>
<path d="M139.896 177.994C139.896 177.994 165.219 189.811 184.383 178.892C203.547 167.973 219.697 148.35 219.697 148.35C219.697 148.35 239.187 160.301 249.657 159.633C260.126 158.966 267.871 125.352 267.871 125.352C267.871 125.352 285.201 116.734 292.916 99.2482C300.631 81.7621 324.314 62.7188 337.279 58.7295C350.244 54.7403 357.853 62.1877 357.853 62.1877L354.638 214.602L154.527 225.088L139.895 177.994H139.896Z" fill="#D8DEE8"/>
<path d="M253.941 -7.38062C253.941 -7.38062 247.114 23.9682 253.941 32.2773C260.769 40.5864 265.971 64.3691 267.871 70.8133C269.77 77.2583 284.558 91.3645 292.274 78.521C299.989 65.6774 311.562 56.3088 317.348 51.9862C323.134 47.6637 359.782 43.2243 361.711 39.9753C363.64 36.7264 364.925 -0.138031 364.925 -0.138031L253.941 -7.38062Z" fill="#D8DEE8"/>
</g>
<path opacity="0.53" d="M306.361 21.5122H305.076V199.487H306.361V21.5122Z" fill="url(#paint0_linear_409_309)"/>
<path opacity="0.53" d="M187.756 13.1707H186.47V199.486H187.756V13.1707Z" fill="url(#paint1_linear_409_309)"/>
<path opacity="0.53" d="M343.566 81.0736H267.796L267.723 81.056L219.649 69.6228L154.582 75.1218L154.474 73.8398L219.746 68.3232L219.846 68.347L267.947 79.7872H343.566V81.0736Z" fill="url(#paint2_linear_409_309)"/>
<path d="M168.812 113.599C168.392 113.599 167.977 113.407 167.708 113.043C167.257 112.434 167.385 111.574 167.994 111.122C167.996 111.12 168.522 110.73 169.448 110.031C170.053 109.573 170.914 109.694 171.371 110.3C171.828 110.905 171.706 111.766 171.102 112.224C170.162 112.933 169.629 113.329 169.629 113.329C169.383 113.511 169.097 113.599 168.813 113.599H168.812Z" fill="url(#paint3_linear_409_309)"/>
<path opacity="0.75" d="M296.79 119.43C296.547 119.43 296.289 119.42 296.024 119.4C295.268 119.344 294.701 118.686 294.758 117.928C294.814 117.171 295.47 116.603 296.229 116.661C296.793 116.703 297.273 116.685 297.629 116.607C298.178 116.486 298.725 116.337 299.253 116.161C299.972 115.923 300.75 116.312 300.988 117.033C301.227 117.753 300.836 118.53 300.117 118.768C299.498 118.973 298.859 119.149 298.216 119.29C297.793 119.383 297.312 119.429 296.789 119.429L296.79 119.43ZM292.559 118.721C292.439 118.721 292.317 118.705 292.195 118.671C291.124 118.378 289.924 117.993 288.628 117.526C287.914 117.269 287.544 116.482 287.801 115.769C288.058 115.055 288.844 114.685 289.557 114.942C290.786 115.384 291.918 115.747 292.92 116.022C293.651 116.223 294.082 116.978 293.882 117.71C293.715 118.32 293.162 118.721 292.558 118.721H292.559ZM302.99 117.344C302.518 117.344 302.059 117.1 301.803 116.662C301.421 116.007 301.642 115.166 302.297 114.783C303.244 114.23 304.161 113.566 305.022 112.809C305.592 112.309 306.459 112.365 306.959 112.935C307.46 113.505 307.403 114.373 306.834 114.874C305.841 115.746 304.78 116.515 303.681 117.156C303.464 117.284 303.225 117.344 302.99 117.344ZM285.696 116.293C285.522 116.293 285.345 116.26 285.175 116.19C284.11 115.752 282.971 115.263 281.791 114.738C281.098 114.429 280.787 113.617 281.096 112.924C281.405 112.231 282.217 111.92 282.908 112.228C284.064 112.743 285.177 113.222 286.217 113.649C286.918 113.937 287.253 114.739 286.965 115.441C286.747 115.972 286.235 116.293 285.695 116.293H285.696ZM279.041 113.335C278.845 113.335 278.645 113.293 278.456 113.203C277.395 112.702 276.286 112.166 275.157 111.609C274.477 111.274 274.198 110.45 274.533 109.77C274.867 109.089 275.691 108.81 276.371 109.145C277.486 109.694 278.582 110.223 279.629 110.718C280.314 111.042 280.608 111.861 280.284 112.547C280.049 113.043 279.556 113.334 279.041 113.334V113.335ZM308.441 112.594C308.136 112.594 307.829 112.493 307.575 112.285C306.987 111.806 306.899 110.941 307.378 110.353C308.082 109.487 308.745 108.539 309.347 107.535C309.737 106.884 310.58 106.674 311.23 107.063C311.88 107.454 312.091 108.297 311.701 108.948C311.032 110.063 310.293 111.119 309.507 112.087C309.235 112.42 308.84 112.593 308.442 112.593L308.441 112.594ZM173.167 110.3C172.755 110.3 172.347 110.115 172.077 109.763C171.616 109.161 171.729 108.299 172.33 107.837C173.192 107.175 174.157 106.429 175.2 105.616C175.798 105.15 176.66 105.256 177.127 105.855C177.593 106.454 177.486 107.317 176.888 107.783C175.839 108.602 174.869 109.352 174.001 110.018C173.752 110.209 173.458 110.302 173.167 110.302V110.3ZM272.508 110.118C272.298 110.118 272.085 110.07 271.885 109.968C270.829 109.429 269.737 108.863 268.638 108.286C267.967 107.934 267.708 107.104 268.06 106.432C268.412 105.76 269.241 105.501 269.913 105.853C271.003 106.425 272.086 106.986 273.133 107.521C273.809 107.865 274.077 108.693 273.732 109.368C273.49 109.844 273.008 110.118 272.508 110.118ZM266.059 106.736C265.84 106.736 265.618 106.683 265.411 106.573C264.338 105.996 263.266 105.414 262.2 104.829C261.535 104.464 261.292 103.63 261.656 102.964C262.021 102.299 262.855 102.056 263.52 102.42C264.58 103.001 265.644 103.58 266.71 104.152C267.377 104.511 267.628 105.343 267.269 106.012C267.022 106.473 266.548 106.735 266.058 106.735L266.059 106.736ZM178.905 105.824C178.5 105.824 178.099 105.645 177.828 105.302C177.358 104.707 177.458 103.843 178.052 103.373C178.965 102.65 179.914 101.893 180.887 101.11C181.477 100.634 182.341 100.728 182.817 101.319C183.292 101.91 183.198 102.775 182.607 103.25C181.629 104.038 180.674 104.799 179.756 105.526C179.504 105.726 179.203 105.823 178.905 105.823L178.905 105.824ZM259.674 103.234C259.447 103.234 259.218 103.178 259.006 103.06C257.933 102.46 256.871 101.862 255.824 101.267C255.165 100.893 254.934 100.054 255.308 99.3943C255.683 98.7348 256.52 98.5035 257.18 98.8781C258.22 99.4699 259.277 100.065 260.343 100.661C261.005 101.031 261.242 101.868 260.873 102.53C260.622 102.98 260.154 103.234 259.673 103.234H259.674ZM184.572 101.259C184.175 101.259 183.781 101.088 183.51 100.756C183.029 100.169 183.115 99.3037 183.701 98.8236C184.623 98.0674 185.556 97.2954 186.491 96.5138C187.073 96.0266 187.939 96.104 188.424 96.6861C188.911 97.2682 188.834 98.1343 188.252 98.6205C187.31 99.4092 186.37 100.186 185.441 100.949C185.186 101.158 184.878 101.26 184.572 101.26V101.259ZM253.341 99.6361C253.108 99.6361 252.873 99.5771 252.657 99.4523C251.579 98.8306 250.525 98.2169 249.5 97.6164C248.846 97.233 248.627 96.3915 249.01 95.7374C249.394 95.0823 250.235 94.8634 250.888 95.2467C251.907 95.8446 252.955 96.4548 254.027 97.073C254.685 97.4519 254.91 98.2916 254.531 98.9493C254.277 99.3899 253.815 99.6369 253.34 99.6369L253.341 99.6361ZM190.149 96.5885C189.763 96.5885 189.378 96.4258 189.106 96.1084C188.613 95.5325 188.68 94.6655 189.256 94.1714C190.195 93.366 191.114 92.5676 191.987 91.7973C192.555 91.2953 193.422 91.3498 193.924 91.9195C194.426 92.4884 194.371 93.3563 193.802 93.8583C192.92 94.6365 191.991 95.4437 191.042 96.2579C190.783 96.4795 190.466 96.5885 190.149 96.5885ZM247.057 95.9528C246.818 95.9528 246.576 95.8903 246.356 95.7593C245.263 95.1087 244.216 94.48 243.225 93.8794C242.576 93.4873 242.368 92.6423 242.76 91.9934C243.153 91.3436 243.997 91.1361 244.645 91.5291C245.63 92.1262 246.673 92.7513 247.76 93.3985C248.411 93.7862 248.625 94.6295 248.238 95.281C247.981 95.7127 247.525 95.9528 247.057 95.9528ZM240.823 92.1798C240.577 92.1798 240.328 92.1139 240.104 91.9758C238.978 91.2812 237.933 90.6288 236.999 90.037C236.358 89.6308 236.169 88.7823 236.574 88.1413C236.98 87.5003 237.828 87.3095 238.468 87.7157C239.393 88.3022 240.428 88.9485 241.544 89.6369C242.19 90.0353 242.391 90.8811 241.994 91.5265C241.734 91.9477 241.284 92.1798 240.824 92.1798H240.823ZM195.601 91.7709C195.229 91.7709 194.858 91.6206 194.588 91.3243C194.076 90.7642 194.115 89.8955 194.674 89.3837C195.603 88.5335 196.489 87.7043 197.305 86.92C197.852 86.3942 198.721 86.4126 199.247 86.9596C199.771 87.5065 199.754 88.3761 199.207 88.9019C198.375 89.7011 197.472 90.5452 196.527 91.4113C196.263 91.6522 195.932 91.7709 195.601 91.7709ZM234.679 88.26C234.416 88.26 234.149 88.1844 233.914 88.0261C233.156 87.5153 232.379 86.9815 231.585 86.4373L230.902 85.9686C230.276 85.5395 230.117 84.6849 230.545 84.0588C230.974 83.4328 231.828 83.2736 232.453 83.7018L233.138 84.1714C233.924 84.7113 234.695 85.2406 235.446 85.747C236.075 86.1708 236.242 87.0246 235.818 87.6533C235.553 88.0472 235.119 88.26 234.678 88.26H234.679ZM200.84 86.723C200.494 86.723 200.149 86.5938 199.883 86.3335C199.34 85.8042 199.327 84.9346 199.856 84.3912C200.759 83.4636 201.572 82.5834 202.275 81.7754C202.773 81.203 203.64 81.1432 204.212 81.6417C204.784 82.1394 204.844 83.0072 204.346 83.5796C203.609 84.4255 202.761 85.3434 201.824 86.3071C201.555 86.5841 201.197 86.723 200.84 86.723ZM228.663 84.1731C228.404 84.1731 228.142 84.1002 227.909 83.9463C226.8 83.2147 225.81 82.5896 224.884 82.0339C224.234 81.6435 224.023 80.8002 224.412 80.1496C224.803 79.4989 225.644 79.287 226.296 79.6774C227.255 80.2533 228.277 80.8987 229.419 81.6523C230.052 82.0699 230.228 82.9211 229.81 83.555C229.547 83.956 229.109 84.1731 228.663 84.1731ZM205.655 81.2724C205.312 81.2724 204.969 81.1449 204.703 80.8882C204.157 80.3624 204.141 79.4928 204.666 78.9459C205.653 77.9206 206.733 77.0906 207.875 76.4795C208.544 76.1225 209.375 76.3749 209.733 77.044C210.09 77.7131 209.837 78.5449 209.169 78.9028C208.28 79.3776 207.43 80.0335 206.643 80.8512C206.374 81.1309 206.014 81.2724 205.655 81.2724ZM222.412 80.4652C222.203 80.4652 221.993 80.4178 221.795 80.3175C220.681 79.7548 219.61 79.2852 218.616 78.9221C217.903 78.6618 217.537 77.8731 217.797 77.1609C218.057 76.4487 218.844 76.0812 219.557 76.3414C220.653 76.7415 221.821 77.2541 223.031 77.8652C223.708 78.2073 223.98 79.0329 223.638 79.7099C223.397 80.1891 222.913 80.4652 222.412 80.4652ZM215.584 78.0604C215.51 78.0604 215.437 78.0543 215.362 78.042C214.22 77.8555 213.139 77.8265 212.141 77.9558C211.388 78.0543 210.7 77.5223 210.604 76.7696C210.506 76.017 211.037 75.3285 211.789 75.2318C213.052 75.0683 214.4 75.1017 215.805 75.3312C216.553 75.4534 217.06 76.1594 216.938 76.9077C216.828 77.5812 216.246 78.0604 215.585 78.0604H215.584Z" fill="#2E2E2E"/>
<path d="M312.112 106.534C311.929 106.534 311.743 106.497 311.565 106.419C310.869 106.115 310.551 105.307 310.855 104.611C311.268 103.662 311.459 103.052 311.461 103.046C311.687 102.322 312.456 101.917 313.178 102.142C313.901 102.366 314.306 103.134 314.083 103.857C314.073 103.887 313.851 104.606 313.37 105.708C313.145 106.225 312.641 106.533 312.111 106.533L312.112 106.534Z" fill="url(#paint4_linear_409_309)"/>
<path d="M205.891 37.1045C205.891 52.9596 183.693 81.8921 173.647 94.1738C171.147 97.2301 166.474 97.2301 163.974 94.1738C153.928 81.8921 131.73 52.9596 131.73 37.1045C131.73 16.6121 148.331 0 168.81 0C189.289 0 205.891 16.6121 205.891 37.1045Z" fill="#4760CA"/>
<path d="M183.434 51.7374C191.51 43.656 191.51 30.5535 183.434 22.4721C175.358 14.3907 162.264 14.3907 154.188 22.4721C146.111 30.5535 146.111 43.656 154.188 51.7374C162.264 59.8188 175.358 59.8188 183.434 51.7374Z" fill="white"/>
<g style="mix-blend-mode:multiply" opacity="0.3">
<path d="M168.647 78.9396C170.999 63.4371 181.23 58.4744 179.474 43.8363C177.449 26.9542 162.511 22.4585 162.15 7.43344C162.092 5.01456 162.421 2.68184 163.041 0.448486C145.303 3.22172 131.731 18.5765 131.731 37.1054C131.731 52.9605 153.928 81.893 163.975 94.1747C165.446 95.9737 167.67 96.7123 169.761 96.394C167.963 89.6043 167.909 83.8055 168.647 78.9404V78.9396Z" fill="url(#paint5_linear_409_309)"/>
</g>
<path d="M168.811 119.809C172.997 119.809 176.39 116.414 176.39 112.225C176.39 108.037 172.997 104.642 168.811 104.642C164.625 104.642 161.232 108.037 161.232 112.225C161.232 116.414 164.625 119.809 168.811 119.809Z" fill="#4760CA"/>
<path d="M332.22 62.8875C332.22 71.2037 320.577 86.3782 315.308 92.8198C313.997 94.4227 311.546 94.4227 310.234 92.8198C304.966 86.3782 293.323 71.2037 293.323 62.8875C293.323 52.1401 302.03 43.4265 312.771 43.4265C323.512 43.4265 332.22 52.1392 332.22 62.8875Z" fill="#F20C1E"/>
<path d="M323.378 65.1373C324.622 59.2734 320.879 53.5112 315.019 52.2669C309.159 51.0227 303.401 54.7676 302.157 60.6314C300.914 66.4952 304.656 72.2574 310.516 73.5017C316.376 74.746 322.135 71.0011 323.378 65.1373Z" fill="white"/>
<g style="mix-blend-mode:multiply" opacity="0.3">
<path d="M312.686 84.8288C313.92 76.6981 319.286 74.0955 318.365 66.4176C317.303 57.5633 309.468 55.2051 309.279 47.3251C309.249 46.0563 309.422 44.8332 309.747 43.6611C300.443 45.1155 293.325 53.1687 293.325 62.8865C293.325 71.2026 304.967 86.3772 310.236 92.8187C311.008 93.7622 312.175 94.1499 313.271 93.9829C312.328 90.4218 312.299 87.3804 312.687 84.8288H312.686Z" fill="url(#paint6_linear_409_309)"/>
</g>
<path d="M315.219 105.429C316.949 104.077 317.257 101.578 315.906 99.8461C314.555 98.1144 312.057 97.8066 310.326 99.1585C308.596 100.51 308.288 103.01 309.639 104.742C310.99 106.474 313.488 106.781 315.219 105.429Z" fill="#F20C1E"/>
<path d="M350.065 312.503C350.065 316.466 346.853 319.677 342.89 319.677H52.1744C48.2112 319.677 45 316.466 45 312.503C45 308.539 48.2112 305.328 52.1744 305.328H342.896C346.859 305.328 350.07 308.539 350.07 312.503H350.065Z" fill="#8DB8D4"/>
<path d="M77.6884 270.197C77.7324 270.933 77.1725 272.76 76.4369 272.81H56.5384C55.8028 272.854 55.1716 272.288 55.1277 271.553L55.1167 271.421C55.0728 270.686 55.6327 270.054 56.3682 270.01L76.2667 268.814C77.0023 268.77 77.6335 269.33 77.6775 270.065L77.6884 270.197Z" fill="#0F1111"/>
<path d="M52.4818 276.773H64.5966C65.3322 276.773 65.9305 277.372 65.9305 278.107V281.796C65.9305 282.531 65.3322 283.13 64.5966 283.13H52.4818C51.7463 283.13 51.1479 282.531 51.1479 281.796V278.107C51.1479 277.372 51.7463 276.773 52.4818 276.773Z" fill="#0F1111"/>
<path d="M73.4069 277.668C73.4069 278.162 73.0062 278.557 72.5122 278.557H53.3767C52.8826 278.557 52.4819 278.156 52.4819 277.668C52.4819 277.174 52.8826 276.773 53.3767 276.773H72.5122C73.0062 276.773 73.4069 277.174 73.4069 277.668Z" fill="#0F1111"/>
<path d="M174.552 261.184H165.154C157.321 261.184 150.964 271.74 150.964 284.755C150.964 297.77 157.315 308.325 165.154 308.325H174.552C182.39 308.325 188.741 297.77 188.741 284.755C188.741 271.74 182.39 261.184 174.552 261.184Z" fill="#0F1111"/>
<path d="M265.931 261.184H256.534C248.695 261.184 242.344 271.74 242.344 284.755C242.344 297.77 248.695 308.325 256.534 308.325H265.931C273.77 308.325 280.121 297.77 280.121 284.755C280.121 271.74 273.77 261.184 265.931 261.184Z" fill="#0F1111"/>
<path d="M312.041 261.184H302.643C294.805 261.184 288.454 271.74 288.454 284.755C288.454 297.77 294.805 308.325 302.643 308.325H312.041C319.88 308.325 326.231 297.77 326.231 284.755C326.231 271.74 319.88 261.184 312.041 261.184Z" fill="#0F1111"/>
<path d="M150.602 261.184H141.205C133.371 261.184 127.015 271.74 127.015 284.755C127.015 297.77 133.366 308.325 141.205 308.325H150.602C158.441 308.325 164.792 297.77 164.792 284.755C164.792 271.74 158.441 261.184 150.602 261.184Z" fill="#0F1111"/>
<path d="M258.91 281.313C258.91 282.048 258.312 282.647 257.576 282.647L73.308 281.982C72.5724 281.982 71.9741 281.384 71.9741 280.648V264.505C71.9741 263.769 72.5724 263.171 73.308 263.171L258.246 246.368C258.982 246.368 259.58 246.966 259.58 247.702L258.916 281.313H258.91Z" fill="#242829"/>
<path opacity="0.8" d="M258.91 271.037C258.91 271.772 258.312 272.371 257.576 272.371L73.308 271.701C72.5724 271.701 71.9741 271.103 71.9741 270.367V280.643C71.9741 281.379 72.5724 281.977 73.308 281.977L257.576 282.641C258.312 282.641 258.91 282.043 258.91 281.307L259.574 247.697C259.574 247.45 259.503 247.219 259.382 247.021L258.905 271.037H258.91Z" fill="#0F1111"/>
<path d="M333.29 187.315H341.716C341.963 187.315 342.16 187.513 342.16 187.76V209.755C342.16 210.002 341.963 210.2 341.716 210.2H333.29C333.043 210.2 332.845 210.002 332.845 209.755V187.76C332.845 187.513 333.043 187.315 333.29 187.315Z" fill="#242829"/>
<path d="M196.481 259.971L53.5798 270.817V196.301L196.481 157.937V259.971Z" fill="#D8D8D8"/>
<path d="M284.628 259.971H196.481V157.937L284.628 161.548V259.971Z" fill="#BBC1C1"/>
<path d="M280.302 254.97H200.802V162.937L280.302 166.198V254.97Z" fill="#A8AAA9"/>
<path d="M56.7415 198.354V266.953L58.0479 266.816V197.997L56.7415 198.354Z" fill="#A8AAA9"/>
<path d="M60.2109 197.415V266.591L61.5174 266.453V197.064L60.2109 197.415Z" fill="#A8AAA9"/>
<path d="M64.5361 196.246V266.141L65.8426 266.003V195.895L64.5361 196.246Z" fill="#A8AAA9"/>
<path d="M68.8618 195.077V265.685L70.1683 265.548V194.726L68.8618 195.077Z" fill="#A8AAA9"/>
<path d="M73.1875 193.907V265.235L74.4939 265.097V193.556L73.1875 193.907Z" fill="#A8AAA9"/>
<path d="M77.5129 192.738V264.779L78.8194 264.642V192.387L77.5129 192.738Z" fill="#A8AAA9"/>
<path d="M81.8384 191.569V264.329L83.1393 264.192V191.218L81.8384 191.569Z" fill="#A8AAA9"/>
<path d="M86.1641 190.4V263.873L87.465 263.736V190.049L86.1641 190.4Z" fill="#A8AAA9"/>
<path d="M90.4897 189.236V263.423L91.7907 263.286V188.879L90.4897 189.236Z" fill="#A8AAA9"/>
<path d="M94.8096 188.067V262.968L96.116 262.83V187.71L94.8096 188.067Z" fill="#A8AAA9"/>
<path d="M99.135 186.898V262.517L100.441 262.38V186.541L99.135 186.898Z" fill="#A8AAA9"/>
<path d="M103.46 185.729V262.062L104.767 261.93V185.372L103.46 185.729Z" fill="#A8AAA9"/>
<path d="M107.698 184.581L107.77 261.612L109.076 261.48L109.005 184.23L107.698 184.581Z" fill="#A8AAA9"/>
<path d="M112.024 183.412L112.095 261.162L113.402 261.025L113.33 183.061L112.024 183.412Z" fill="#A8AAA9"/>
<path d="M116.349 182.243L116.42 260.706L117.727 260.574L117.656 181.892L116.349 182.243Z" fill="#A8AAA9"/>
<path d="M120.675 181.074L120.746 260.256L122.053 260.119L121.981 180.722L120.675 181.074Z" fill="#A8AAA9"/>
<path d="M125 179.905L125.072 259.8L126.378 259.669L126.307 179.553L125 179.905Z" fill="#A8AAA9"/>
<path d="M129.326 178.735L129.397 259.35L130.704 259.213L130.632 178.384L129.326 178.735Z" fill="#A8AAA9"/>
<path d="M133.651 177.571L133.723 258.9L135.029 258.763L134.952 177.215L133.651 177.571Z" fill="#A8AAA9"/>
<path d="M137.977 176.402L138.048 258.444L139.355 258.307L139.278 176.045L137.977 176.402Z" fill="#A8AAA9"/>
<path d="M142.302 175.233L142.374 257.994L143.68 257.857L143.603 174.876L142.302 175.233Z" fill="#A8AAA9"/>
<path d="M146.628 174.064L146.699 257.539L148.006 257.402L147.929 173.713L146.628 174.064Z" fill="#A8AAA9"/>
<path d="M150.948 172.895L151.025 257.089L152.331 256.951L152.254 172.543L150.948 172.895Z" fill="#A8AAA9"/>
<path d="M155.274 171.725L155.351 256.633L156.657 256.496L156.58 171.374L155.274 171.725Z" fill="#A8AAA9"/>
<path d="M159.599 170.556L159.676 256.183L160.982 256.046L160.906 170.205L159.599 170.556Z" fill="#A8AAA9"/>
<path d="M163.925 169.387L164.001 255.727L165.308 255.59L165.231 169.036L163.925 169.387Z" fill="#A8AAA9"/>
<path d="M168.25 168.218L168.327 255.277L169.633 255.14L169.556 167.867L168.25 168.218Z" fill="#A8AAA9"/>
<path d="M172.576 167.049L172.653 254.822L173.959 254.685L173.882 166.698L172.576 167.049Z" fill="#A8AAA9"/>
<path d="M176.901 165.879L176.978 254.371L178.284 254.234L178.208 165.528L176.901 165.879Z" fill="#A8AAA9"/>
<path d="M181.227 164.71L181.303 253.916L182.61 253.784L182.528 164.359L181.227 164.71Z" fill="#A8AAA9"/>
<path d="M185.552 163.541L185.629 253.466L186.936 253.329L186.853 163.19L185.552 163.541Z" fill="#A8AAA9"/>
<path d="M191.179 162.021L189.878 162.377L189.955 253.016L191.261 252.878L191.179 162.021Z" fill="#A8AAA9"/>
<path d="M205.961 163.19H204.935V254.965H205.961V163.19Z" fill="#D9D8D3"/>
<path d="M209.386 163.289V254.97H210.413V163.332L209.386 163.289Z" fill="#D9D8D3"/>
<path d="M213.833 163.475V254.97H214.864V163.514L213.833 163.475Z" fill="#D9D8D3"/>
<path d="M218.284 163.656V254.97H219.311V163.7L218.284 163.656Z" fill="#D9D8D3"/>
<path d="M222.73 163.838V254.97H223.762V163.882L222.73 163.838Z" fill="#D9D8D3"/>
<path d="M227.182 164.019V254.97H228.209V164.062L227.182 164.019Z" fill="#D9D8D3"/>
<path d="M231.628 164.205V254.97H232.655V164.244L231.628 164.205Z" fill="#D9D8D3"/>
<path d="M236.075 164.386V254.97H237.107V164.43L236.075 164.386Z" fill="#D9D8D3"/>
<path d="M240.527 164.568V254.97H241.553V164.612L240.527 164.568Z" fill="#D9D8D3"/>
<path d="M244.979 164.749V254.97H246.005V164.793L244.979 164.749Z" fill="#D9D8D3"/>
<path d="M249.425 164.935V254.97H250.451V164.974L249.425 164.935Z" fill="#D9D8D3"/>
<path d="M253.871 165.116V254.97H254.903V165.155L253.871 165.116Z" fill="#D9D8D3"/>
<path d="M258.323 165.298V254.97H259.349V165.342L258.323 165.298Z" fill="#D9D8D3"/>
<path d="M262.769 165.479V254.97H263.801V165.523L262.769 165.479Z" fill="#D9D8D3"/>
<path d="M267.221 165.66V254.97H268.247V165.704L267.221 165.66Z" fill="#D9D8D3"/>
<path d="M271.667 165.847V254.97H272.699V165.885L271.667 165.847Z" fill="#D9D8D3"/>
<path d="M276.119 166.028V254.97H277.145V166.072L276.119 166.028Z" fill="#D9D8D3"/>
<path d="M226.315 162.728C222.725 163.958 219.135 192.969 219.135 248.41C219.135 248.41 237.481 237.014 254.728 270.817L340.755 276.872V228.248C340.755 207.79 325.308 168.135 319.407 164.803C309.922 159.44 255.754 152.65 226.315 162.728Z" fill="#4760CA"/>
<path d="M226.315 162.729C222.725 163.958 219.135 192.969 219.135 248.41C219.135 248.41 237.481 237.014 254.728 270.817L268.089 276.872C266.936 231.042 254.464 166.236 251.308 162.729C247.839 158.875 226.315 162.729 226.315 162.729Z" fill="#374FB7"/>
<path d="M273.424 252.604C273.111 252.604 272.787 252.5 272.513 252.297C272.178 252.05 271.958 251.687 271.898 251.276L268.736 230.279C268.676 229.868 268.774 229.456 269.021 229.121C269.268 228.786 269.631 228.567 270.042 228.506C270.163 228.49 270.278 228.572 270.295 228.693C270.311 228.814 270.229 228.929 270.108 228.945C269.812 228.989 269.554 229.143 269.378 229.385C269.203 229.626 269.131 229.917 269.175 230.208L272.337 251.204C272.381 251.501 272.535 251.759 272.776 251.934C273.018 252.11 273.303 252.181 273.605 252.137L278.084 252.148C278.205 252.148 278.304 252.247 278.304 252.373C278.304 252.494 278.205 252.593 278.079 252.593L273.632 252.577C273.561 252.588 273.49 252.593 273.418 252.593L273.424 252.604Z" fill="white"/>
<path d="M278.864 260.19C278.743 260.19 278.644 260.091 278.644 259.971C278.425 241.532 272.03 220.602 271.964 220.393C271.925 220.278 271.991 220.152 272.112 220.113C272.227 220.075 272.354 220.141 272.392 220.261C272.458 220.47 278.869 241.461 279.089 259.965C279.089 260.086 278.99 260.19 278.869 260.19H278.864Z" fill="white"/>
<path d="M336.764 252.95C336.687 252.95 336.605 252.95 336.528 252.933L332.115 252.95C331.994 252.95 331.895 252.851 331.89 252.73C331.89 252.61 331.988 252.505 332.109 252.505L336.556 252.489C336.885 252.533 337.176 252.461 337.417 252.286C337.659 252.11 337.813 251.852 337.856 251.556L339.086 230.576C339.135 230.263 339.059 229.967 338.883 229.73C338.707 229.489 338.449 229.335 338.153 229.291C338.032 229.275 337.95 229.16 337.966 229.039C337.983 228.918 338.098 228.836 338.219 228.852C338.63 228.913 338.993 229.132 339.24 229.467C339.487 229.802 339.586 230.214 339.525 230.625L338.296 251.605C338.23 252.039 338.016 252.401 337.681 252.643C337.412 252.846 337.088 252.95 336.759 252.95H336.764Z" fill="white"/>
<path d="M331.341 260.531C331.341 260.531 331.324 260.531 331.313 260.531C331.193 260.514 331.105 260.404 331.116 260.284C333.943 235.9 332.631 220.234 332.62 220.08C332.609 219.96 332.702 219.85 332.823 219.839C332.949 219.822 333.053 219.916 333.064 220.042C333.081 220.196 334.393 235.906 331.56 260.333C331.544 260.448 331.451 260.531 331.341 260.531Z" fill="white"/>
<path d="M306.37 231.509C292.658 231.509 274.505 228.693 274.324 228.666C274.203 228.649 274.121 228.534 274.138 228.413C274.16 228.292 274.275 228.21 274.39 228.226C274.571 228.254 292.691 231.064 306.365 231.064C320.039 231.064 332.949 227.441 333.081 227.403C333.202 227.37 333.323 227.436 333.356 227.557C333.388 227.672 333.323 227.798 333.202 227.831C333.076 227.87 320.094 231.509 306.365 231.509H306.37Z" fill="white"/>
<path d="M245.791 238.069C245.742 238.069 245.692 238.052 245.654 238.019C236.465 230.691 223.417 227.864 223.291 227.837C223.17 227.809 223.093 227.694 223.121 227.573C223.148 227.452 223.269 227.376 223.384 227.403C223.516 227.43 236.663 230.279 245.934 237.673C246.033 237.75 246.049 237.887 245.967 237.986C245.923 238.041 245.857 238.069 245.791 238.069Z" fill="white"/>
<path d="M254.777 218.258H254.332V260.531H254.777V218.258Z" fill="white"/>
<path d="M223.335 211.336H222.89V243.519H223.335V211.336Z" fill="white"/>
<path d="M329.343 237.849H282.536C281.799 237.849 281.202 238.446 281.202 239.183V242.185C281.202 242.922 281.799 243.519 282.536 243.519H329.343C330.079 243.519 330.677 242.922 330.677 242.185V239.183C330.677 238.446 330.079 237.849 329.343 237.849Z" fill="#242829"/>
<path d="M326.949 237.849H284.924V243.519H326.949V237.849Z" fill="#414141"/>
<path d="M329.343 247.032H282.536C281.799 247.032 281.202 247.63 281.202 248.366V251.369C281.202 252.106 281.799 252.703 282.536 252.703H329.343C330.079 252.703 330.677 252.106 330.677 251.369V248.366C330.677 247.63 330.079 247.032 329.343 247.032Z" fill="#242829"/>
<path d="M326.949 247.032H284.924V252.703H326.949V247.032Z" fill="#414141"/>
<path d="M239.896 257.484H229.225C220.327 257.484 213.119 269.467 213.119 284.244C213.119 299.021 220.332 311.004 229.225 311.004H239.896C248.794 311.004 256.001 299.021 256.001 284.244C256.001 269.467 248.788 257.484 239.896 257.484Z" fill="#242829"/>
<path d="M245.336 284.244C245.336 299.021 238.123 311.004 229.23 311.004C220.338 311.004 213.125 299.021 213.125 284.244C213.125 269.467 220.338 257.484 229.23 257.484C238.123 257.484 245.336 269.467 245.336 284.244Z" fill="#414141"/>
<path d="M241.46 284.244C241.46 295.464 235.982 304.56 229.23 304.56C222.478 304.56 217 295.464 217 284.244C217 273.024 222.473 263.928 229.23 263.928C235.987 263.928 241.46 273.024 241.46 284.244Z" fill="#BEBEBE"/>
<path d="M236.542 284.244C236.542 292.544 232.88 299.268 228.363 299.268C223.845 299.268 220.184 292.538 220.184 284.244C220.184 275.95 223.845 269.22 228.363 269.22C232.88 269.22 236.542 275.944 236.542 284.244Z" fill="#91908E"/>
<path d="M198.007 263.863H188.61C180.777 263.863 174.42 274.418 174.42 287.433C174.42 300.448 180.771 311.004 188.61 311.004H198.007C205.846 311.004 212.197 300.448 212.197 287.433C212.197 274.418 205.846 263.863 198.007 263.863Z" fill="#242829"/>
<path d="M188.61 311.004C196.447 311.004 202.8 300.451 202.8 287.433C202.8 274.416 196.447 263.863 188.61 263.863C180.773 263.863 174.42 274.416 174.42 287.433C174.42 300.451 180.773 311.004 188.61 311.004Z" fill="#414141"/>
<path d="M188.61 305.334C194.561 305.334 199.385 297.32 199.385 287.433C199.385 277.547 194.561 269.533 188.61 269.533C182.659 269.533 177.834 277.547 177.834 287.433C177.834 297.32 182.659 305.334 188.61 305.334Z" fill="#BEBEBE"/>
<path d="M195.054 287.433C195.054 294.745 191.826 300.668 187.847 300.668C183.867 300.668 180.645 294.739 180.645 287.433C180.645 280.127 183.872 274.199 187.847 274.199C191.821 274.199 195.054 280.122 195.054 287.433Z" fill="#91908E"/>
<path d="M93.2396 263.863H83.842C76.0089 263.863 69.6523 274.418 69.6523 287.433C69.6523 300.448 76.0034 311.004 83.842 311.004H93.2396C101.078 311.004 107.429 300.448 107.429 287.433C107.429 274.418 101.078 263.863 93.2396 263.863Z" fill="#242829"/>
<path d="M98.0317 287.433C98.0317 300.454 91.6807 311.004 83.842 311.004C76.0034 311.004 69.6523 300.448 69.6523 287.433C69.6523 274.418 76.0034 263.863 83.842 263.863C91.6807 263.863 98.0317 274.418 98.0317 287.433Z" fill="#414141"/>
<path d="M94.6174 287.433C94.6174 297.32 89.7924 305.334 83.842 305.334C77.8917 305.334 73.0667 297.32 73.0667 287.433C73.0667 277.547 77.8917 269.533 83.842 269.533C89.7924 269.533 94.6174 277.547 94.6174 287.433Z" fill="#BEBEBE"/>
<path d="M90.2865 287.433C90.2865 294.745 87.0588 300.668 83.0791 300.668C79.0994 300.668 75.8772 294.739 75.8772 287.433C75.8772 280.127 79.1049 274.199 83.0791 274.199C87.0533 274.199 90.2865 280.122 90.2865 287.433Z" fill="#91908E"/>
<path d="M118.682 263.863H109.285C101.452 263.863 95.095 274.418 95.095 287.433C95.095 300.448 101.446 311.004 109.285 311.004H118.682C126.521 311.004 132.872 300.448 132.872 287.433C132.872 274.418 126.521 263.863 118.682 263.863Z" fill="#242829"/>
<path d="M123.474 287.433C123.474 300.454 117.123 311.004 109.285 311.004C101.446 311.004 95.095 300.448 95.095 287.433C95.095 274.418 101.446 263.863 109.285 263.863C117.123 263.863 123.474 274.418 123.474 287.433Z" fill="#414141"/>
<path d="M120.06 287.433C120.06 297.32 115.235 305.334 109.285 305.334C103.334 305.334 98.5093 297.32 98.5093 287.433C98.5093 277.547 103.334 269.533 109.285 269.533C115.235 269.533 120.06 277.547 120.06 287.433Z" fill="#BEBEBE"/>
<path d="M115.729 287.433C115.729 294.745 112.501 300.668 108.522 300.668C104.542 300.668 101.32 294.739 101.32 287.433C101.32 280.127 104.548 274.199 108.522 274.199C112.496 274.199 115.729 280.122 115.729 287.433Z" fill="#91908E"/>
<path d="M222.22 190.982V213.63C222.22 214.349 234.368 214.47 254.821 221.535C257.417 222.43 254.892 194.917 251.791 187.32C250.923 185.201 222.22 189.829 222.22 190.982Z" fill="#80B5D4"/>
<path d="M236.223 213.504L234.999 189.714C242.091 188.61 250.111 187.76 252.186 188.402C252.054 188.007 251.923 187.644 251.791 187.315C250.923 185.196 222.22 189.824 222.22 190.976V213.625C222.22 213.625 222.231 213.663 222.248 213.68C222.248 213.68 222.259 213.691 222.264 213.696C222.281 213.713 222.303 213.729 222.33 213.74C222.33 213.74 222.335 213.74 222.341 213.746C222.374 213.762 222.418 213.779 222.467 213.795C222.484 213.795 222.5 213.806 222.517 213.812C222.555 213.823 222.604 213.839 222.648 213.85C222.67 213.85 222.687 213.861 222.709 213.866C222.775 213.883 222.84 213.899 222.917 213.916C222.956 213.921 222.994 213.932 223.033 213.938C223.055 213.938 223.077 213.949 223.098 213.954C224.218 214.168 226.387 214.437 229.493 214.97C229.719 215.008 229.949 215.047 230.185 215.091C230.229 215.096 230.273 215.107 230.317 215.112C231.052 215.244 231.832 215.387 232.661 215.546C232.941 215.601 233.226 215.656 233.517 215.716C233.534 215.716 233.545 215.716 233.555 215.722C234.428 215.897 235.345 216.084 236.306 216.298C241.306 217.391 247.526 219.021 254.804 221.535C255.359 221.727 255.683 220.613 255.814 218.67C248.047 216.166 241.455 214.569 236.207 213.51L236.223 213.504ZM223.109 211.336V192.393C223.109 192.019 226.101 191.284 230.185 190.532L229.581 212.307C226.43 211.808 224.24 211.544 223.109 211.336Z" fill="#242829"/>
<path d="M240.395 187.315H248.821C249.068 187.315 249.266 187.513 249.266 187.76V209.755C249.266 210.002 249.068 210.2 248.821 210.2H240.395C240.148 210.2 239.95 210.002 239.95 209.755V187.76C239.95 187.513 240.148 187.315 240.395 187.315Z" fill="#414141"/>
<path d="M258.092 216.875L249.266 209.107V187.76C249.266 187.721 249.255 187.688 249.244 187.65L256.017 183.407C256.226 183.275 256.286 183 256.16 182.792C256.028 182.583 255.754 182.523 255.545 182.649L248.107 187.309H247.372V207.504C247.372 207.751 247.174 207.949 246.927 207.949H239.95V209.75C239.95 209.997 240.148 210.194 240.395 210.194H248.821C248.914 210.194 248.997 210.161 249.068 210.112L257.505 217.533C257.587 217.61 257.692 217.643 257.801 217.643C257.922 217.643 258.048 217.594 258.136 217.489C258.295 217.303 258.279 217.023 258.098 216.864L258.092 216.875Z" fill="#242829"/>
<path d="M257.165 173.745C256.292 175.063 263.851 216.951 264.861 218.944C265.876 220.937 319.874 224.17 337.972 218.944C339.866 218.395 329.063 180.431 324.606 174.964C320.149 169.497 259.02 170.951 257.165 173.751V173.745Z" fill="#80B5D4"/>
<path d="M299.723 171.374L262.346 207.307C263.527 213.531 264.531 218.307 264.861 218.944C264.948 219.114 265.431 219.295 266.238 219.476L315.241 172.368C310.926 171.852 305.508 171.533 299.723 171.374Z" fill="#5A98C1"/>
<path d="M331.912 193.051L302.05 221.76C304.69 221.776 307.347 221.771 309.971 221.727L333.707 198.908C333.136 196.96 332.532 194.989 331.912 193.051Z" fill="#5A98C1"/>
<path d="M327.004 179.438L283.573 221.189C285.961 221.321 288.492 221.436 291.104 221.529L329.161 184.938C328.415 182.885 327.685 181.013 326.999 179.438H327.004Z" fill="#5A98C1"/>
<path d="M324.606 174.964C320.148 169.497 259.02 170.951 257.165 173.751C256.885 174.168 257.461 178.691 258.405 184.729L329.255 185.202C327.493 180.327 325.813 176.452 324.606 174.964Z" fill="#242829"/>
<path d="M263.746 214.377C264.273 216.897 264.674 218.582 264.86 218.944C265.876 220.937 319.874 224.17 337.972 218.944C338.317 218.845 338.235 217.484 337.851 215.299L263.746 214.377Z" fill="#242829"/>
<path d="M273.512 270.109C271.503 270 252.724 270.109 252.724 270.109C252.724 270.109 248.739 261.025 239.901 256.732C228.231 251.062 221.485 258.851 221.485 258.851C221.485 258.851 215.864 255.782 215.694 252.198C215.524 248.613 219.536 239.112 221.485 238.722C225.756 237.871 246.565 243.327 250.32 250.491C254.069 257.654 255.606 264.477 255.606 264.477H273.517V270.104L273.512 270.109Z" fill="#414141"/>
<path d="M241.246 251.484C251.725 256.221 254.003 267.573 254.003 267.573H273.512V264.483H255.6C255.6 264.483 254.063 257.66 250.314 250.496C246.559 243.333 225.755 237.876 221.479 238.727C219.525 239.117 215.512 248.624 215.688 252.203C215.71 252.604 215.798 252.999 215.94 253.383C217.675 252.181 228.17 245.567 241.246 251.484Z" fill="#91908E"/>
<path d="M254.816 258.758H343.593C344.373 258.758 345.004 259.389 345.004 260.168V280.572C345.004 281.346 344.373 281.977 343.599 281.977H254.821C254.047 281.977 253.416 281.346 253.416 280.572V260.163C253.416 259.389 254.047 258.758 254.821 258.758H254.816Z" fill="#414141"/>
<path d="M259.179 261.568H344.998V260.163C344.998 259.383 344.367 258.758 343.593 258.758H254.815C254.036 258.758 253.405 259.389 253.405 260.163V280.572C253.405 281.351 254.036 281.977 254.815 281.977H257.768V262.979C257.768 262.199 258.4 261.568 259.174 261.568H259.179Z" fill="#666666"/>
<path d="M331.555 262.979C330.776 262.979 330.15 263.61 330.15 264.384V271.278C330.15 272.052 330.781 272.684 331.555 272.684H344.998V262.594L331.555 262.973V262.979Z" fill="#242829"/>
<path d="M285.467 271.278C285.467 272.052 284.836 272.684 284.062 272.684H259.179C258.4 272.684 257.774 272.052 257.774 271.278V263.681C257.774 262.907 258.405 262.276 259.179 262.276L284.062 262.979C284.842 262.979 285.467 263.61 285.467 264.384V271.278Z" fill="#242829"/>
<path d="M278.32 264.395L257.769 263.813V271.278C257.769 272.052 258.4 272.684 259.174 272.684H280.862C280.818 272.448 279.967 267.633 279.726 265.8C279.621 265.026 279.094 264.389 278.315 264.389L278.32 264.395Z" fill="#91908E"/>
<path d="M337.291 264.395C336.512 264.395 335.985 265.031 335.886 265.805C335.645 267.639 334.794 272.453 334.75 272.689H344.998V264.181L337.291 264.4V264.395Z" fill="#91908E"/>
<path d="M288.997 263.292H323.826C323.826 263.292 322.948 271.696 320.796 271.734C318.178 271.778 296.287 272.288 293.569 272.288C289.441 272.288 288.997 263.292 288.997 263.292Z" fill="#91908E"/>
<path d="M296.375 266.14C296.051 265.191 295.562 264.109 294.832 263.292H288.953C288.953 263.292 289.398 272.288 293.526 272.288C294.02 272.288 295.139 272.272 296.666 272.244C297.05 270.159 297.116 268.182 296.375 266.14Z" fill="#242829"/>
<path d="M316.372 263.292C315.971 264.269 315.845 265.41 315.686 266.426C315.4 268.248 315.241 270.049 315.422 271.844C318.063 271.783 320.072 271.74 320.758 271.729C322.915 271.696 323.788 263.286 323.788 263.286H316.372V263.292Z" fill="#242829"/>
<path d="M314.862 271.202L297.873 271.619V264.439H314.862V271.202Z" fill="#BEBEBE"/>
<path d="M307.232 280.577H326.702C326.702 280.577 325.061 278.113 323.656 278.113H287.987C286.581 278.113 284.94 280.577 284.94 280.577H307.238H307.232Z" fill="#242829"/>
<defs>
<linearGradient id="paint0_linear_409_309" x1="305.076" y1="110.499" x2="306.361" y2="110.499" gradientUnits="userSpaceOnUse">
<stop stop-color="#311944"/>
<stop offset="1" stop-color="#A03976"/>
</linearGradient>
<linearGradient id="paint1_linear_409_309" x1="186.47" y1="106.329" x2="187.756" y2="106.329" gradientUnits="userSpaceOnUse">
<stop stop-color="#311944"/>
<stop offset="1" stop-color="#A03976"/>
</linearGradient>
<linearGradient id="paint2_linear_409_309" x1="154.474" y1="74.698" x2="343.566" y2="74.698" gradientUnits="userSpaceOnUse">
<stop stop-color="#311944"/>
<stop offset="1" stop-color="#A03976"/>
</linearGradient>
<linearGradient id="paint3_linear_409_309" x1="167.438" y1="111.677" x2="314.15" y2="111.677" gradientUnits="userSpaceOnUse">
<stop stop-color="#AA80F9"/>
<stop offset="1" stop-color="#6165D7"/>
</linearGradient>
<linearGradient id="paint4_linear_409_309" x1="167.416" y1="104.307" x2="314.144" y2="104.307" gradientUnits="userSpaceOnUse">
<stop stop-color="#AA80F9"/>
<stop offset="1" stop-color="#6165D7"/>
</linearGradient>
<linearGradient id="paint5_linear_409_309" x1="150.656" y1="28.8279" x2="188.041" y2="125.059" gradientUnits="userSpaceOnUse">
<stop stop-color="#AA80F9"/>
<stop offset="1" stop-color="#6165D7"/>
</linearGradient>
<linearGradient id="paint6_linear_409_309" x1="303.25" y1="58.5464" x2="322.858" y2="109.018" gradientUnits="userSpaceOnUse">
<stop stop-color="#FF9085"/>
<stop offset="1" stop-color="#FB6FBB"/>
</linearGradient>
</defs>
</svg>
