<svg width="72" height="65" viewBox="0 0 72 65" fill="none" xmlns="http://www.w3.org/2000/svg">
<path d="M71.4436 48.7773C71.1252 50.0937 70.9413 51.4627 70.4719 52.7233C67.9998 59.3285 63.2692 63.2811 56.2733 64.3218C51.4376 65.0407 47.0747 63.7112 43.145 60.7369C43.0597 60.8715 42.971 60.9929 42.9054 61.1243C41.7761 63.3172 39.9934 64.4859 37.5149 64.4925C31.9602 64.5089 26.4055 64.4991 20.8542 64.4958C17.499 64.4958 14.1439 64.5286 10.7888 64.463C8.1001 64.4104 5.70359 62.2437 5.37858 59.5714C4.77124 54.5486 4.22628 49.5159 3.67476 44.4865C3.55985 43.4426 4.0884 42.763 4.96165 42.7105C5.76924 42.6645 6.34047 43.2948 6.45209 44.2896C6.88871 48.1929 7.34175 52.0963 7.78823 55.9996C7.89984 56.9648 8.01146 57.9267 8.10995 58.8952C8.27409 60.5235 9.52816 61.6988 11.1762 61.702C19.9711 61.7086 28.7627 61.7086 37.5575 61.702C39.2548 61.702 40.6369 60.3002 40.6402 58.5964C40.6402 58.4126 40.5483 58.1926 40.4334 58.0449C38.0467 55.0345 36.7335 51.6268 36.5661 47.7826C36.5661 47.7202 36.5333 47.6578 36.4906 47.5068C34.6981 48.472 32.7514 48.147 30.6897 48.229C31.0935 48.6328 31.4087 48.9447 31.7173 49.2631C32.3443 49.9197 32.387 50.7306 31.8354 51.3084C31.297 51.873 30.4139 51.8862 29.7869 51.2854C28.6018 50.1495 27.4298 48.9939 26.2775 47.8252C25.6636 47.2015 25.657 46.4136 26.2775 45.7866C27.4298 44.6178 28.6084 43.4688 29.7968 42.3362C30.3713 41.7913 31.2084 41.811 31.7402 42.3198C32.2983 42.8549 32.3213 43.6888 31.7567 44.3093C31.4546 44.6408 31.1066 44.9297 30.7784 45.2383C30.8112 45.3105 30.844 45.3795 30.8801 45.4517C32.0685 45.3992 33.2865 45.4878 34.4421 45.2646C36.6252 44.8444 37.7217 42.2213 36.6186 40.1991C35.6797 38.4755 34.6555 36.7947 33.6968 35.081C33.513 34.7495 33.3489 34.3489 33.3521 33.9845C33.362 33.3148 33.7855 32.8651 34.4388 32.7174C35.1052 32.5696 35.6239 32.8585 35.9588 33.433C36.7893 34.8479 37.6002 36.2727 38.4242 37.6942C38.5391 37.8912 38.6639 38.0783 38.7853 38.272C39.5929 37.2412 40.3414 36.2005 41.1851 35.2386C41.7761 34.5656 42.5114 34.0207 43.1417 33.3739C43.3781 33.131 43.6112 32.783 43.6506 32.4613C44.2645 27.2283 44.8423 21.9921 45.4299 16.7559C45.4332 16.7132 45.4168 16.6673 45.4037 16.5885H3.32349C3.4548 17.8327 3.58283 19.0605 3.72072 20.285C4.11795 23.7977 4.51846 27.3104 4.91897 30.8231C4.95837 31.1678 5.02403 31.5092 5.04044 31.8539C5.07655 32.6451 4.54144 33.2886 3.81264 33.3575C3.02146 33.4363 2.39443 33.003 2.28609 32.1888C2.03002 30.288 1.8232 28.3806 1.60325 26.4766C1.19945 22.9639 0.736563 19.4577 0.431254 15.9352C0.280241 14.1723 0.23428 12.3535 0.490346 10.6103C0.887577 7.90193 3.21843 6.07008 5.96293 6.0274C7.97535 5.99785 9.99105 6.0077 12.0035 6.0274C12.4237 6.03068 12.6732 5.90265 12.8898 5.53825C13.4545 4.58292 14.0487 3.6473 14.6593 2.71824C15.7919 0.991435 17.3841 0.0361119 19.4622 0.0196974C22.7024 -0.00656579 25.9426 -0.00656579 29.1829 0.0196974C31.2051 0.0361119 32.7744 0.95204 33.9102 2.60662C34.5668 3.55866 35.2004 4.52711 35.8045 5.5087C36.0376 5.88623 36.2936 6.03725 36.7499 6.03068C38.6704 6.00442 40.5909 6.01098 42.5114 6.02083C45.9618 6.03725 48.3156 8.41735 48.4141 11.8513C48.5027 14.9667 48.1022 18.033 47.7444 21.109C47.5474 22.7833 47.3537 24.4609 47.1666 26.1351C46.9827 27.7832 46.8087 29.4345 46.6183 31.1678C47.3668 30.8986 48.0431 30.6327 48.7325 30.4128C58.7683 27.2086 69.3557 33.6333 71.1777 44.0302C71.2532 44.457 71.3517 44.8805 71.4403 45.304V48.7773H71.4436ZM39.3533 47.0078C39.35 54.9852 46.0011 61.6889 53.9392 61.702C62.0545 61.7152 68.6728 55.1264 68.6663 47.0439C68.6597 39.0172 62.0644 32.3989 54.0639 32.3891C46.0241 32.3792 39.3566 39.0041 39.35 47.0078H39.3533ZM45.6006 13.7028C45.6006 12.8722 45.6761 12.0811 45.5842 11.3096C45.3971 9.74364 44.1693 8.83099 42.3506 8.83099C30.3614 8.82771 18.3756 8.83099 6.38643 8.83099C6.11067 8.83099 5.83162 8.85725 5.55586 8.89337C4.40028 9.05751 3.46465 9.83556 3.25455 10.9879C3.09697 11.8611 3.12651 12.7672 3.0707 13.7028H45.6006ZM15.897 5.97487H32.817C32.213 5.13117 31.7796 4.2809 31.1198 3.68341C30.6142 3.22709 29.8296 2.8594 29.1599 2.83971C25.9492 2.75435 22.732 2.79703 19.518 2.80359C18.6382 2.80359 17.87 3.13845 17.3316 3.82457C16.8228 4.4713 16.4124 5.19354 15.9003 5.97487H15.897Z" fill="#4760CA"/>
<path d="M11.3467 36.8997C10.6836 37.0671 10.1977 37.2017 9.70527 37.3068C8.95677 37.4677 8.25423 37.0343 8.04413 36.299C7.84715 35.6194 8.21812 34.8479 8.94036 34.6411C10.6245 34.1585 12.3217 33.712 14.0223 33.2853C14.6953 33.1145 15.4044 33.5216 15.5948 34.2242C16.0445 35.8952 16.4648 37.576 16.839 39.2634C17.0031 39.9988 16.4877 40.6915 15.8049 40.8425C15.0597 41.0066 14.3637 40.6061 14.1241 39.851C13.9895 39.421 13.8942 38.9778 13.7826 38.5412C13.7071 38.5182 13.6316 38.4952 13.5561 38.4689C13.1293 39.4702 12.4826 40.4387 12.3217 41.4794C11.9869 43.692 13.6644 45.3827 16.015 45.4156C17.8666 45.4385 19.7181 45.4156 21.5697 45.4221C22.676 45.4221 23.2603 45.9113 23.2571 46.8042C23.2571 47.6873 22.6399 48.2093 21.5697 48.2126C19.6492 48.2159 17.7287 48.229 15.8082 48.2126C10.897 48.1666 7.91281 42.9567 10.3356 38.6758C10.6409 38.1341 10.9528 37.5957 11.35 36.9063L11.3467 36.8997Z" fill="#4760CA"/>
<path d="M30.7879 24.415C30.9455 23.8044 31.0341 23.3481 31.1818 22.9147C31.4281 22.2023 32.1437 21.8314 32.843 22.0119C33.5291 22.1892 34.0117 22.8885 33.8541 23.6074C33.4832 25.2981 33.0892 26.9822 32.6624 28.6565C32.4753 29.3886 31.799 29.8055 31.0538 29.6315C29.3927 29.2441 27.7414 28.8207 26.0966 28.361C25.3416 28.1509 24.9706 27.4386 25.1446 26.7491C25.3481 25.9547 25.985 25.5509 26.8287 25.7085C27.3212 25.8004 27.807 25.9284 28.329 26.0466C27.5739 23.7683 25.8997 22.6619 23.884 23.0789C22.8499 23.2923 22.0948 23.893 21.5728 24.8024C20.6175 26.4635 19.6457 28.1148 18.697 29.7825C18.3687 30.3603 17.9124 30.705 17.246 30.6591C16.2709 30.5901 15.6505 29.5363 16.1363 28.6598C17.2558 26.6408 18.3162 24.5693 19.6457 22.6915C22.1834 19.1066 27.7217 19.4316 30.0427 23.1971C30.2725 23.568 30.4957 23.9423 30.7846 24.4183L30.7879 24.415Z" fill="#4760CA"/>
<path d="M4.3117 39.4703C3.52053 39.4637 2.93617 38.8432 2.95915 38.0356C2.97885 37.2838 3.58618 36.7093 4.36095 36.7061C5.09632 36.7061 5.73976 37.3429 5.73648 38.0717C5.7332 38.8301 5.07334 39.4768 4.31499 39.4703H4.3117Z" fill="#4760CA"/>
<path d="M53.3354 47.0898C53.3354 48.3143 53.4765 49.5585 53.3058 50.7568C52.9414 53.3437 50.6959 55.1887 48.2009 55.1263C45.591 55.0606 43.4112 53.1467 43.2372 50.4613C43.0829 48.0943 43.1091 45.6978 43.2798 43.3308C43.4637 40.8063 45.9259 38.8366 48.4274 38.9679C51.1358 39.109 53.3025 41.2265 53.3747 43.8266C53.4043 44.9132 53.3813 45.9998 53.3813 47.0865C53.3649 47.0865 53.3518 47.0865 53.3354 47.0865V47.0898ZM45.9948 47.0668C45.9948 48.0352 45.9817 49.007 45.9948 49.9754C46.0178 51.2951 46.914 52.2406 48.1615 52.2899C49.4582 52.3424 50.5219 51.4724 50.5679 50.1429C50.6401 48.091 50.6368 46.0327 50.5679 43.9809C50.5252 42.6185 49.455 41.7485 48.1155 41.8076C46.891 41.8634 46.0079 42.8286 45.9882 44.1614C45.9751 45.1299 45.9882 46.1016 45.9882 47.0701L45.9948 47.0668Z" fill="#4760CA"/>
<path d="M63.312 42.0998C64.4709 42.2541 65.1209 43.3079 64.6416 44.2633C64.4348 44.6736 64.1558 45.0479 63.903 45.432C62.1827 48.032 60.4658 50.6321 58.739 53.2289C58.1743 54.0791 57.3109 54.2695 56.6117 53.7279C55.9682 53.2289 55.8763 52.4902 56.4015 51.6957C57.8592 49.4765 59.3299 47.2671 60.7941 45.0512C61.2668 44.3388 61.6969 43.5968 62.2254 42.9271C62.5012 42.5791 62.9444 42.369 63.312 42.0966V42.0998Z" fill="#4760CA"/>
<path d="M63.3808 51.2526C64.1654 51.2427 64.7629 51.8008 64.7859 52.5657C64.8089 53.3668 64.2147 54.0168 63.4432 54.0332C62.6947 54.0496 62.0119 53.3733 62.0151 52.6248C62.0217 51.8698 62.6225 51.2657 63.3808 51.2559V51.2526Z" fill="#4760CA"/>
<path d="M57.4256 42.2509C58.22 42.2476 58.8438 42.8582 58.8372 43.6428C58.8307 44.4012 58.2332 45.0085 57.4781 45.0184C56.7099 45.0315 56.0435 44.3782 56.0533 43.6198C56.0599 42.8746 56.6804 42.2574 57.4256 42.2509Z" fill="#4760CA"/>
</svg>
