<svg width="418" height="264" viewBox="0 0 418 264" fill="none" xmlns="http://www.w3.org/2000/svg">
<g clip-path="url(#clip0_280_1141)">
<path d="M0 240.527C0 246.593 4.90738 251.505 10.9675 251.505H122.619C128.679 251.505 133.603 246.593 133.603 240.527C133.603 234.462 128.695 229.533 122.619 229.533H10.9675C4.90738 229.533 0 234.445 0 240.527Z" fill="#4760CA"/>
<path d="M353.315 217.368C353.315 222.923 348.819 227.407 343.286 227.407H44.5286C38.979 227.407 34.4998 222.907 34.4998 217.368C34.4998 211.813 38.9954 207.33 44.5286 207.33H343.286C348.836 207.33 353.315 211.83 353.315 217.368Z" fill="#4760CA"/>
<path d="M416.353 257.769C416.353 261.214 413.554 264.016 410.112 264.016H243.524C240.083 264.016 237.283 261.214 237.283 257.769C237.283 254.324 240.083 251.522 243.524 251.522H410.112C413.554 251.522 416.353 254.324 416.353 257.769Z" fill="#4760CA"/>
<path d="M317.119 3.47803H90.9841V105.214H317.119V3.47803Z" fill="#B41F1C"/>
<path d="M90.9678 3.47803H44.677V105.214H90.9678V3.47803Z" fill="#8B1A11"/>
<g style="mix-blend-mode:multiply">
<path d="M317.119 52.6155H90.9841V105.231H317.119V52.6155Z" fill="#E2D3DC"/>
</g>
<g style="mix-blend-mode:multiply">
<path d="M317.119 82.6648H90.9841V105.231H317.119V82.6648Z" fill="#E2D3DC"/>
</g>
<path d="M96.4185 0H90.9841V105.231H96.4185V0Z" fill="#E41519"/>
<path d="M83.1785 0H77.7441V105.231H83.1785V0Z" fill="#8B1A11"/>
<path d="M66.6778 0H61.2434V105.231H66.6778V0Z" fill="#8B1A11"/>
<path d="M50.1113 0H44.677V105.231H50.1113V0Z" fill="#8B1A11"/>
<path d="M118.946 0H113.512V105.231H118.946V0Z" fill="#E41519"/>
<path d="M141.491 0H136.056V105.231H141.491V0Z" fill="#E41519"/>
<path d="M164.019 0H158.584V105.231H164.019V0Z" fill="#E41519"/>
<path d="M186.563 0H181.128V105.231H186.563V0Z" fill="#E41519"/>
<path d="M209.091 0H203.656V105.231H209.091V0Z" fill="#E41519"/>
<path d="M231.635 0H226.201V105.231H231.635V0Z" fill="#E41519"/>
<path d="M254.163 0H248.729V105.231H254.163V0Z" fill="#E41519"/>
<path d="M276.707 0H271.273V105.231H276.707V0Z" fill="#E41519"/>
<path d="M299.235 0H293.801V105.231H299.235V0Z" fill="#E41519"/>
<path d="M321.779 0H316.345V105.231H321.779V0Z" fill="#E41519"/>
<path d="M332.977 105.066H83.9688V217.088H332.977V105.066Z" fill="#0472A4"/>
<path d="M83.9853 105.066H33.0012V217.088H83.9853V105.066Z" fill="#00507B"/>
<g style="mix-blend-mode:multiply">
<path d="M332.977 159.165H83.9688V217.104H332.977V159.165Z" fill="#BECDD7"/>
</g>
<g style="mix-blend-mode:multiply">
<path d="M332.977 192.247H83.9688V217.104H332.977V192.247Z" fill="#BECDD7"/>
</g>
<path d="M89.9465 101.225H83.9688V217.088H89.9465V101.225Z" fill="#017CA8"/>
<path d="M75.389 101.225H69.3948V217.088H75.389V101.225Z" fill="#00507B"/>
<path d="M57.2252 101.225H51.231V217.088H57.2252V101.225Z" fill="#00507B"/>
<path d="M38.9955 101.225H33.0012V217.088H38.9955V101.225Z" fill="#00507B"/>
<path d="M114.763 101.225H108.786V217.088H114.763V101.225Z" fill="#017CA8"/>
<path d="M139.58 101.225H133.603V217.088H139.58V101.225Z" fill="#017CA8"/>
<path d="M164.397 101.225H158.419V217.088H164.397V101.225Z" fill="#017CA8"/>
<path d="M189.214 101.225H183.22V217.088H189.214V101.225Z" fill="#017CA8"/>
<path d="M214.031 101.225H208.053V217.088H214.031V101.225Z" fill="#017CA8"/>
<path d="M238.848 101.225H232.854V217.088H238.848V101.225Z" fill="#017CA8"/>
<path d="M263.648 101.225H257.67V217.088H263.648V101.225Z" fill="#017CA8"/>
<path d="M288.465 101.225H282.487V217.088H288.465V101.225Z" fill="#017CA8"/>
<path d="M313.282 101.225H307.304V217.088H313.282V101.225Z" fill="#017CA8"/>
<path d="M338.115 101.225H332.121V217.088H338.115V101.225Z" fill="#017CA8"/>
<path d="M66.4145 77.3242H48.8105V112.566H66.4145V77.3242Z" fill="#D7803D"/>
<g style="mix-blend-mode:multiply">
<path d="M59.8275 77.3242H54.2778V87.8902H59.8275V77.3242Z" fill="#EBDED2"/>
</g>
<path d="M48.8105 77.3242H16.3362V112.566H48.8105V77.3242Z" fill="#F6A654"/>
<g style="mix-blend-mode:soft-light" opacity="0.5">
<path d="M17.6042 111.181V78.7087H47.5261L17.6042 111.181Z" fill="#FCDCC9"/>
</g>
<path d="M60.2885 77.3242H54.9365V87.511H60.2885V77.3242Z" fill="#EDEDED"/>
<path d="M46.4721 101.588H34.4836V103.253H46.4721V101.588Z" fill="#70441C"/>
<path d="M46.4556 104.769H38.3535V106.434H46.4556V104.769Z" fill="#70441C"/>
<path d="M46.0605 107.44H43.1951V110.028H46.0605V107.44Z" stroke="#70441C" stroke-width="0.48" stroke-linecap="round" stroke-linejoin="round"/>
<path d="M41.6471 107.44H38.7817V110.028H41.6471V107.44Z" stroke="#70441C" stroke-width="0.48" stroke-linecap="round" stroke-linejoin="round"/>
<path d="M116.493 77.3242H98.8887V112.566H116.493V77.3242Z" fill="#D7803D"/>
<g style="mix-blend-mode:multiply">
<path d="M109.889 77.3242H104.356V87.8902H109.889V77.3242Z" fill="#EBDED2"/>
</g>
<path d="M98.8886 77.3242H66.4143V112.566H98.8886V77.3242Z" fill="#F6A654"/>
<g style="mix-blend-mode:soft-light" opacity="0.5">
<path d="M67.6824 111.181V78.7087H97.6042L67.6824 111.181Z" fill="#FCDCC9"/>
</g>
<path d="M110.367 77.3242H105.015V87.511H110.367V77.3242Z" fill="#EDEDED"/>
<path d="M96.5503 101.588H84.5618V103.253H96.5503V101.588Z" fill="#70441C"/>
<path d="M96.5338 104.769H88.4316V106.434H96.5338V104.769Z" fill="#70441C"/>
<path d="M96.1386 107.44H93.2732V110.028H96.1386V107.44Z" stroke="#70441C" stroke-width="0.48" stroke-linecap="round" stroke-linejoin="round"/>
<path d="M91.7252 107.44H88.8599V110.028H91.7252V107.44Z" stroke="#70441C" stroke-width="0.48" stroke-linecap="round" stroke-linejoin="round"/>
<path d="M66.4145 147.808H48.8105V183.049H66.4145V147.808Z" fill="#D7803D"/>
<g style="mix-blend-mode:multiply">
<path d="M59.8275 147.808H54.2778V158.374H59.8275V147.808Z" fill="#EBDED2"/>
</g>
<path d="M48.8105 147.808H16.3362V183.049H48.8105V147.808Z" fill="#F6A654"/>
<g style="mix-blend-mode:soft-light" opacity="0.5">
<path d="M17.6042 181.665V149.192H47.5261L17.6042 181.665Z" fill="#FCDCC9"/>
</g>
<path d="M60.2885 147.808H54.9365V157.994H60.2885V147.808Z" fill="#EDEDED"/>
<path d="M46.4721 172.071H34.4836V173.736H46.4721V172.071Z" fill="#70441C"/>
<path d="M46.4556 175.253H38.3535V176.918H46.4556V175.253Z" fill="#70441C"/>
<path d="M46.0605 177.923H43.1951V180.511H46.0605V177.923Z" stroke="#70441C" stroke-width="0.48" stroke-linecap="round" stroke-linejoin="round"/>
<path d="M41.6471 177.923H38.7817V180.511H41.6471V177.923Z" stroke="#70441C" stroke-width="0.48" stroke-linecap="round" stroke-linejoin="round"/>
<path d="M116.493 147.808H98.8887V183.049H116.493V147.808Z" fill="#D7803D"/>
<g style="mix-blend-mode:multiply">
<path d="M109.889 147.808H104.356V158.374H109.889V147.808Z" fill="#EBDED2"/>
</g>
<path d="M98.8886 147.808H66.4143V183.049H98.8886V147.808Z" fill="#F6A654"/>
<g style="mix-blend-mode:soft-light" opacity="0.5">
<path d="M67.6824 181.665V149.192H97.6042L67.6824 181.665Z" fill="#FCDCC9"/>
</g>
<path d="M110.367 147.808H105.015V157.994H110.367V147.808Z" fill="#EDEDED"/>
<path d="M96.5503 172.071H84.5618V173.736H96.5503V172.071Z" fill="#70441C"/>
<path d="M96.5338 175.253H88.4316V176.918H96.5338V175.253Z" fill="#70441C"/>
<path d="M96.1386 177.923H93.2732V180.511H96.1386V177.923Z" stroke="#70441C" stroke-width="0.48" stroke-linecap="round" stroke-linejoin="round"/>
<path d="M91.7252 177.923H88.8599V180.511H91.7252V177.923Z" stroke="#70441C" stroke-width="0.48" stroke-linecap="round" stroke-linejoin="round"/>
<path d="M66.4145 112.566H48.8105V147.808H66.4145V112.566Z" fill="#CC7335"/>
<g style="mix-blend-mode:multiply">
<path d="M59.8275 112.566H54.2778V123.132H59.8275V112.566Z" fill="#EBDED2"/>
</g>
<path d="M48.8105 112.566H16.3362V147.808H48.8105V112.566Z" fill="#E89848"/>
<g style="mix-blend-mode:soft-light" opacity="0.5">
<path d="M17.6042 146.423V113.95H47.5261L17.6042 146.423Z" fill="#FCDCC9"/>
</g>
<path d="M60.2885 112.566H54.9365V122.753H60.2885V112.566Z" fill="#EDEDED"/>
<path d="M46.4721 136.83H34.4836V138.494H46.4721V136.83Z" fill="#70441C"/>
<path d="M46.4556 140.011H38.3535V141.676H46.4556V140.011Z" fill="#70441C"/>
<path d="M46.0605 142.681H43.1951V145.269H46.0605V142.681Z" stroke="#70441C" stroke-width="0.48" stroke-linecap="round" stroke-linejoin="round"/>
<path d="M41.6471 142.681H38.7817V145.269H41.6471V142.681Z" stroke="#70441C" stroke-width="0.48" stroke-linecap="round" stroke-linejoin="round"/>
<path d="M116.493 112.566H98.8887V147.808H116.493V112.566Z" fill="#CC7335"/>
<g style="mix-blend-mode:multiply">
<path d="M109.889 112.566H104.356V123.132H109.889V112.566Z" fill="#EBDED2"/>
</g>
<path d="M98.8886 112.566H66.4143V147.808H98.8886V112.566Z" fill="#E89848"/>
<g style="mix-blend-mode:soft-light" opacity="0.5">
<path d="M67.6824 146.423V113.95H97.6042L67.6824 146.423Z" fill="#FCDCC9"/>
</g>
<path d="M110.367 112.566H105.015V122.753H110.367V112.566Z" fill="#EDEDED"/>
<path d="M96.5503 136.83H84.5618V138.494H96.5503V136.83Z" fill="#70441C"/>
<path d="M96.5338 140.011H88.4316V141.676H96.5338V140.011Z" fill="#70441C"/>
<path d="M96.1386 142.681H93.2732V145.269H96.1386V142.681Z" stroke="#70441C" stroke-width="0.48" stroke-linecap="round" stroke-linejoin="round"/>
<path d="M91.7252 142.681H88.8599V145.269H91.7252V142.681Z" stroke="#70441C" stroke-width="0.48" stroke-linecap="round" stroke-linejoin="round"/>
<path d="M66.4145 183.05H48.8105V218.291H66.4145V183.05Z" fill="#CC7335"/>
<g style="mix-blend-mode:multiply">
<path d="M59.8275 183.05H54.2778V193.615H59.8275V183.05Z" fill="#EBDED2"/>
</g>
<path d="M48.8105 183.05H16.3362V218.291H48.8105V183.05Z" fill="#E89848"/>
<g style="mix-blend-mode:soft-light" opacity="0.5">
<path d="M17.6042 216.923V184.434H47.5261L17.6042 216.923Z" fill="#FCDCC9"/>
</g>
<path d="M60.2885 183.05H54.9365V193.236H60.2885V183.05Z" fill="#EDEDED"/>
<path d="M46.4721 207.313H34.4836V208.978H46.4721V207.313Z" fill="#70441C"/>
<path d="M46.4556 210.495H38.3535V212.176H46.4556V210.495Z" fill="#70441C"/>
<path d="M46.0605 213.165H43.1951V215.753H46.0605V213.165Z" stroke="#70441C" stroke-width="0.48" stroke-linecap="round" stroke-linejoin="round"/>
<path d="M41.6471 213.165H38.7817V215.753H41.6471V213.165Z" stroke="#70441C" stroke-width="0.48" stroke-linecap="round" stroke-linejoin="round"/>
<path d="M116.493 183.05H98.8887V218.291H116.493V183.05Z" fill="#CC7335"/>
<g style="mix-blend-mode:multiply">
<path d="M109.889 183.05H104.356V193.615H109.889V183.05Z" fill="#EBDED2"/>
</g>
<path d="M98.8886 183.05H66.4143V218.291H98.8886V183.05Z" fill="#E89848"/>
<g style="mix-blend-mode:soft-light" opacity="0.5">
<path d="M67.6824 216.923V184.434H97.6042L67.6824 216.923Z" fill="#FCDCC9"/>
</g>
<path d="M110.367 183.05H105.015V193.236H110.367V183.05Z" fill="#EDEDED"/>
<path d="M96.5503 207.313H84.5618V208.978H96.5503V207.313Z" fill="#70441C"/>
<path d="M96.5338 210.495H88.4316V212.176H96.5338V210.495Z" fill="#70441C"/>
<path d="M96.1386 213.165H93.2732V215.753H96.1386V213.165Z" stroke="#70441C" stroke-width="0.48" stroke-linecap="round" stroke-linejoin="round"/>
<path d="M91.7252 213.165H88.8599V215.753H91.7252V213.165Z" stroke="#70441C" stroke-width="0.48" stroke-linecap="round" stroke-linejoin="round"/>
<path d="M120.906 218.308H12.4167V223.929H120.906V218.308Z" fill="#482A28"/>
<path d="M120.906 222.099H12.4167V223.912H120.906V222.099Z" fill="#301B16"/>
<path d="M120.906 229.55H12.4167V234.247H120.906V229.55Z" fill="#482A28"/>
<path d="M120.906 232.731H12.4167V234.247H120.906V232.731Z" fill="#301B16"/>
<path d="M19.2839 223.912H15.6445V229.533H19.2839V223.912Z" fill="#482A28"/>
<path d="M19.2839 223.912H15.6445V225.791H19.2839V223.912Z" fill="#25130D"/>
<path d="M39.0451 223.912H35.4058V229.533H39.0451V223.912Z" fill="#482A28"/>
<path d="M39.0451 223.912H35.4058V225.791H39.0451V223.912Z" fill="#25130D"/>
<path d="M58.8062 223.912H55.1504V229.533H58.8062V223.912Z" fill="#482A28"/>
<path d="M58.8062 223.912H55.1504V225.791H58.8062V223.912Z" fill="#25130D"/>
<path d="M78.5511 223.912H74.8953V229.533H78.5511V223.912Z" fill="#482A28"/>
<path d="M78.5511 223.912H74.8953V225.791H78.5511V223.912Z" fill="#25130D"/>
<path d="M98.2959 223.912H94.6565V229.533H98.2959V223.912Z" fill="#482A28"/>
<path d="M98.2959 223.912H94.6565V225.791H98.2959V223.912Z" fill="#25130D"/>
<path d="M118.041 223.912H114.401V229.533H118.041V223.912Z" fill="#482A28"/>
<path d="M118.041 223.912H114.401V225.791H118.041V223.912Z" fill="#25130D"/>
<path d="M289.074 186.791H282.915V230.555H289.074V186.791Z" fill="#5A5A59"/>
<path d="M292.812 103.896H286.67V216.214H292.812V103.896Z" fill="#818080"/>
<path d="M298.197 105.989H296.649V216.214H298.197V105.989Z" fill="#818080"/>
<path d="M293.817 215.654H285.682V236.967H293.817V215.654Z" fill="#9F9F9F"/>
<path d="M288.07 228.808C293.142 228.808 294.179 236.95 288.07 236.95H225.855V228.808H288.07Z" fill="#ACACAC"/>
<path d="M298.576 103.896H285.682V109.269H298.576V103.896Z" fill="#ACACAC"/>
<path d="M418 209.522C418 212.225 416.617 214.417 414.921 214.417C413.224 214.417 411.825 212.225 411.825 209.522C411.825 206.819 413.208 204.626 414.921 204.626C416.633 204.626 418 206.819 418 209.522Z" fill="#F39200"/>
<path d="M414.921 203.258H409.338V215.654H414.921V203.258Z" fill="#2C252B"/>
<path d="M313.693 179.967C311.898 171.593 304.356 173.077 304.356 173.077L302.709 210.61L321.466 215.654C321.466 215.654 315.505 188.407 313.71 179.967H313.693Z" fill="#2C252B"/>
<path d="M326.308 172.978C328.086 169.896 324.76 162.462 323.195 164.291C321.631 166.121 309.873 179.835 309.873 179.835L311.899 198.082C311.899 198.082 324.546 176.06 326.324 172.978H326.308Z" fill="#2C252B"/>
<path d="M369.387 143.571C370.161 140.11 377.555 135.016 377.555 139.286C377.555 141.692 376.139 168.659 376.139 168.659L363.064 171.841C363.064 171.841 368.613 147.049 369.387 143.588V143.571Z" fill="#181316"/>
<path d="M345.872 170.522C342.38 171.181 337.061 178.417 341.326 178.549C343.731 178.632 370.705 178.088 370.705 178.088L374.295 165.115C374.295 165.115 349.363 169.862 345.872 170.522Z" fill="#181316"/>
<path d="M347.88 172.006C344.373 172.566 338.873 179.654 343.121 179.918C343.632 179.951 326.11 208.104 329.996 208.253C344.208 208.78 394.863 181.797 394.863 181.797L390.071 165.346C390.071 165.346 351.388 171.445 347.88 172.022V172.006Z" fill="#2C252B"/>
<path d="M333.768 215.654H396.575V176.703H352.129C346.761 176.703 333.768 202.599 333.768 202.599V215.654Z" fill="#878787"/>
<path d="M364.282 205.549H301.475V215.654H364.282V205.549Z" fill="#878787"/>
<path d="M400.676 160.005C398.881 151.632 389.33 153.231 389.33 153.231L395.9 195.692H408.449C408.449 195.692 402.488 168.445 400.676 160.005Z" fill="#301B16"/>
<path d="M380.553 117.824C381.491 122.571 393.513 198.692 393.513 198.692L400.693 197.176C400.693 197.176 386.711 115.302 385.625 110.192C384.521 105.082 382.446 103.879 379.499 103.879H332.895C326.028 103.879 321.845 107.473 320.281 113.934C318.716 120.396 298.593 187.896 298.593 187.896V212.703L305.773 213.115V190.055C305.773 190.055 323.064 127.302 324.414 121.286C325.764 115.269 329.354 111.94 335.266 111.94H375.316C377.852 111.94 379.647 113.06 380.586 117.808L380.553 117.824Z" fill="#ACACAC"/>
<path d="M413.817 229.978H332.862V236.967H413.817V229.978Z" fill="#2C252B"/>
<path d="M405.764 191.489H379.778C370.227 191.489 362.158 202.253 362.158 202.253H355.291C349.313 202.253 340.058 210.626 340.058 210.626H298.576C298.576 210.626 292.829 212.11 292.829 217.187V231.363C292.829 231.363 297.687 217.187 313.792 217.78C329.898 218.373 332.878 229.895 332.878 229.895H413.834C413.834 229.895 411.446 206.423 411.446 200.341C411.446 194.258 409.947 191.472 405.764 191.472V191.489Z" fill="#4760CA"/>
<path d="M328.992 236.951C328.992 245.357 322.175 252.181 313.776 252.181C305.377 252.181 298.56 245.374 298.56 236.951C298.56 228.527 305.377 221.72 313.776 221.72C322.175 221.72 328.992 228.544 328.992 236.951Z" fill="#181316"/>
<path d="M323.195 236.951C323.195 242.159 318.98 246.379 313.776 246.379C308.572 246.379 304.356 242.159 304.356 236.951C304.356 231.742 308.572 227.522 313.776 227.522C318.98 227.522 323.195 231.742 323.195 236.951Z" fill="#DADADA"/>
<path d="M315.653 236.95C315.653 237.989 314.813 238.83 313.776 238.83C312.739 238.83 311.899 237.989 311.899 236.95C311.899 235.912 312.739 235.071 313.776 235.071C314.813 235.071 315.653 235.912 315.653 236.95Z" fill="#ACACAC"/>
<g style="mix-blend-mode:multiply">
<path d="M320.083 229.978C321.219 231.527 321.895 233.44 321.895 235.516C321.895 240.725 317.679 244.945 312.475 244.945C310.038 244.945 307.848 244.022 306.168 242.505C307.881 244.863 310.647 246.396 313.776 246.396C318.98 246.396 323.196 242.176 323.196 236.967C323.196 234.198 321.993 231.709 320.083 229.978Z" fill="#DADADA"/>
</g>
<path d="M313.545 215.654C301.656 215.654 292.022 225.297 292.022 237.198H295.744C295.744 227.357 303.714 219.379 313.562 219.379C323.409 219.379 331.38 227.357 331.38 237.198H335.085C335.085 225.297 325.451 215.654 313.562 215.654H313.545Z" fill="#3248A4"/>
<path d="M386.925 215.654C375.036 215.654 365.402 225.297 365.402 237.198H408.449C408.449 225.297 398.815 215.654 386.925 215.654Z" fill="#3248A4"/>
<path d="M328.523 161.533L322.611 168.314L325.105 170.493L331.017 163.712L328.523 161.533Z" fill="#2C252B"/>
<path d="M335.974 167.637C335.464 168.214 334.575 168.28 333.998 167.769L324.151 159.165C323.558 158.654 323.508 157.764 324.019 157.187C324.529 156.61 325.419 156.544 325.995 157.055L335.843 165.676C336.419 166.187 336.485 167.077 335.974 167.654V167.637Z" fill="#2C252B"/>
<path d="M402.372 236.951C402.372 245.357 395.555 252.181 387.156 252.181C378.758 252.181 371.94 245.374 371.94 236.951C371.94 228.527 378.758 221.72 387.156 221.72C395.555 221.72 402.372 228.544 402.372 236.951Z" fill="#181316"/>
<path d="M396.576 236.951C396.576 242.159 392.36 246.379 387.156 246.379C381.952 246.379 377.737 242.159 377.737 236.951C377.737 231.742 381.952 227.522 387.156 227.522C392.36 227.522 396.576 231.742 396.576 236.951Z" fill="#DADADA"/>
<path d="M389.033 236.95C389.033 237.989 388.193 238.83 387.14 238.83C386.086 238.83 385.262 237.989 385.262 236.95C385.262 235.912 386.102 235.071 387.14 235.071C388.177 235.071 389.033 235.912 389.033 236.95Z" fill="#ACACAC"/>
<g style="mix-blend-mode:multiply">
<path d="M393.463 229.978C394.583 231.527 395.275 233.44 395.275 235.516C395.275 240.725 391.059 244.945 385.855 244.945C383.418 244.945 381.211 244.022 379.548 242.505C381.261 244.863 384.027 246.396 387.156 246.396C392.36 246.396 396.576 242.176 396.576 236.967C396.576 234.198 395.374 231.709 393.463 229.978Z" fill="#DADADA"/>
</g>
<path d="M290.211 232.929C290.211 234.016 289.338 234.907 288.251 234.907C287.164 234.907 286.275 234.016 286.275 232.929C286.275 231.841 287.164 230.967 288.251 230.967C289.338 230.967 290.211 231.841 290.211 232.929Z" fill="#858584"/>
<path d="M281.829 89.8186H263.5V124.549H281.829V89.8186Z" fill="#D7803D"/>
<g style="mix-blend-mode:multiply">
<path d="M274.978 89.8186H269.214V100.236H274.978V89.8186Z" fill="#EBDED2"/>
</g>
<path d="M263.5 89.8186H229.708V124.549H263.5V89.8186Z" fill="#F6A654"/>
<g style="mix-blend-mode:soft-light" opacity="0.5">
<path d="M231.042 123.198V91.1868H262.183L231.042 123.198Z" fill="#FCDCC9"/>
</g>
<path d="M275.455 89.8186H269.889V99.8571H275.455V89.8186Z" fill="#EDEDED"/>
<path d="M261.063 113.736H248.597V115.384H261.063V113.736Z" fill="#70441C"/>
<path d="M261.079 116.868H252.631V118.517H261.079V116.868Z" fill="#70441C"/>
<path d="M260.651 119.505H257.67V122.06H260.651V119.505Z" stroke="#70441C" stroke-width="0.48" stroke-linecap="round" stroke-linejoin="round"/>
<path d="M256.057 119.505H253.076V122.06H256.057V119.505Z" stroke="#70441C" stroke-width="0.48" stroke-linecap="round" stroke-linejoin="round"/>
<path d="M281.829 159.297H263.5V194.027H281.829V159.297Z" fill="#D7803D"/>
<g style="mix-blend-mode:multiply">
<path d="M274.978 159.297H269.214V169.714H274.978V159.297Z" fill="#EBDED2"/>
</g>
<path d="M263.5 159.297H229.708V194.027H263.5V159.297Z" fill="#F6A654"/>
<g style="mix-blend-mode:soft-light" opacity="0.5">
<path d="M231.042 192.676V160.665H262.183L231.042 192.676Z" fill="#FCDCC9"/>
</g>
<path d="M275.455 159.297H269.889V169.335H275.455V159.297Z" fill="#EDEDED"/>
<path d="M261.063 183.214H248.597V184.862H261.063V183.214Z" fill="#70441C"/>
<path d="M261.079 186.346H252.631V187.995H261.079V186.346Z" fill="#70441C"/>
<path d="M260.651 188.983H257.67V191.538H260.651V188.983Z" stroke="#70441C" stroke-width="0.48" stroke-linecap="round" stroke-linejoin="round"/>
<path d="M256.057 188.983H253.076V191.538H256.057V188.983Z" stroke="#70441C" stroke-width="0.48" stroke-linecap="round" stroke-linejoin="round"/>
<path d="M281.829 124.566H263.5V159.297H281.829V124.566Z" fill="#CC7335"/>
<g style="mix-blend-mode:multiply">
<path d="M274.978 124.566H269.214V134.983H274.978V124.566Z" fill="#EBDED2"/>
</g>
<path d="M263.5 124.566H229.708V159.297H263.5V124.566Z" fill="#E89848"/>
<g style="mix-blend-mode:soft-light" opacity="0.5">
<path d="M231.042 157.945V125.917H262.183L231.042 157.945Z" fill="#FCDCC9"/>
</g>
<path d="M275.455 124.566H269.889V134.604H275.455V124.566Z" fill="#EDEDED"/>
<path d="M261.063 148.467H248.597V150.115H261.063V148.467Z" fill="#70441C"/>
<path d="M261.079 151.599H252.631V153.247H261.079V151.599Z" fill="#70441C"/>
<path d="M260.651 154.236H257.67V156.791H260.651V154.236Z" stroke="#70441C" stroke-width="0.48" stroke-linecap="round" stroke-linejoin="round"/>
<path d="M256.057 154.236H253.076V156.791H256.057V154.236Z" stroke="#70441C" stroke-width="0.48" stroke-linecap="round" stroke-linejoin="round"/>
<path d="M281.829 194.027H263.5V228.758H281.829V194.027Z" fill="#CC7335"/>
<g style="mix-blend-mode:multiply">
<path d="M274.978 194.027H269.214V204.445H274.978V194.027Z" fill="#EBDED2"/>
</g>
<path d="M263.5 194.027H229.708V228.758H263.5V194.027Z" fill="#E89848"/>
<g style="mix-blend-mode:soft-light" opacity="0.5">
<path d="M231.042 227.407V195.396H262.183L231.042 227.407Z" fill="#FCDCC9"/>
</g>
<path d="M275.455 194.027H269.889V204.066H275.455V194.027Z" fill="#EDEDED"/>
<path d="M261.063 217.945H248.597V219.593H261.063V217.945Z" fill="#70441C"/>
<path d="M261.079 221.077H252.631V222.725H261.079V221.077Z" fill="#70441C"/>
<path d="M260.651 223.714H257.67V226.253H260.651V223.714Z" stroke="#70441C" stroke-width="0.48" stroke-linecap="round" stroke-linejoin="round"/>
<path d="M256.057 223.714H253.076V226.253H256.057V223.714Z" stroke="#70441C" stroke-width="0.48" stroke-linecap="round" stroke-linejoin="round"/>
</g>
<defs>
<clipPath id="clip0_280_1141">
<rect width="418" height="264" fill="white"/>
</clipPath>
</defs>
</svg>
