<svg width="210" height="90" viewBox="0 0 210 90" fill="none" xmlns="http://www.w3.org/2000/svg">
<path d="M30.5234 49.7163C30.0877 49.3206 29.6099 49.1251 29.0525 49.1623C28.2561 49.1623 27.6612 49.5161 27.2209 50.1912V50.2703C27.1787 50.2703 27.1787 50.3122 27.1787 50.3122L16.7513 71.629C16.5499 72.0666 16.1939 72.2622 15.6786 72.3041C15.2008 72.3041 14.8401 72.0666 14.6059 71.629L3.90208 50.2703L3.85992 50.2284C3.42428 49.5161 2.82468 49.1204 2.07049 49.1204C1.47089 49.1204 0.993087 49.3159 0.5996 49.7117C0.201428 50.1074 0 50.6194 0 51.1734V77.951C0 78.5422 0.201428 79.0171 0.5996 79.4128C0.997772 79.8085 1.47558 80.004 2.07049 80.004C2.62793 80.004 3.14321 79.8038 3.54139 79.4128C3.93956 79.0171 4.14099 78.5422 4.14099 77.951V63.7103C4.14099 63.0772 4.42205 62.7234 5.05444 62.5651C5.64935 62.4068 6.08969 62.6442 6.40822 63.1982L13.6503 77.5972C14.0484 78.4305 14.6855 78.8216 15.5615 78.8216C16.2782 78.8216 16.8356 78.505 17.276 77.8719C17.3134 77.83 17.3556 77.7927 17.3556 77.7508L24.6773 62.9189C24.9583 62.323 25.4315 62.1275 26.0311 62.2857C26.6681 62.4068 26.9867 62.7978 26.9867 63.431V77.9463C26.9867 78.5376 27.1834 79.0124 27.5816 79.4081C27.9798 79.8038 28.4576 79.9994 29.0525 79.9994C29.6099 79.9994 30.0877 79.7992 30.4859 79.4081C30.8841 79.0124 31.123 78.5376 31.123 77.9463V51.1688C31.123 50.6148 30.9216 50.1027 30.5281 49.707L30.5234 49.7163Z" fill="#4760CA"/>
<path d="M56.5638 60.121C56.5638 59.4087 56.1282 58.892 55.3271 58.5801C55.0086 58.459 54.6901 58.3799 54.3715 58.3799C53.6548 58.3799 53.1348 58.7756 52.821 59.5251L46.4128 73.8822L39.1286 59.4832C38.7304 58.771 38.173 58.3752 37.4563 58.3752C37.1377 58.3752 36.8988 58.4544 36.6599 58.5335C36.3039 58.6918 36.0228 58.9292 35.8214 59.2086C35.5825 59.5251 35.5029 59.8417 35.5029 60.1582C35.5029 60.4748 35.5403 60.7541 35.6996 60.9869L44.6561 77.8765L40.6744 86.7775C40.5151 87.0941 40.4355 87.4107 40.4355 87.7272C40.4355 88.4395 40.8337 88.9516 41.63 89.2681C41.986 89.4264 42.3046 89.5056 42.5856 89.5056C43.3023 89.5056 43.8223 89.1099 44.1362 88.2812L56.3155 61.0707C56.4748 60.7122 56.5544 60.3957 56.5544 60.121H56.5638Z" fill="#4760CA"/>
<path d="M77.8215 51.1036C75.4746 49.7955 72.8092 49.1251 69.8206 49.1251H62.616C62.0164 49.1251 61.5011 49.3253 61.1451 49.721C60.7469 50.1167 60.5502 50.5915 60.5502 51.1828V77.9603C60.5502 78.5516 60.7469 79.0264 61.1451 79.4221C61.5433 79.8178 62.0211 80.0133 62.616 80.0133H69.8206C72.8092 80.0133 75.4746 79.3802 77.8215 78.0348C80.1309 76.7313 81.9625 74.9111 83.2741 72.5368C84.5482 70.2045 85.2228 67.5556 85.2228 64.5483C85.2228 61.5409 84.5482 58.9339 83.2741 56.5969C81.9625 54.2646 80.1309 52.4444 77.8215 51.099V51.1036ZM75.7135 74.8738C73.9616 75.9027 72.0129 76.3775 69.8206 76.3775H65.881C65.525 76.3775 65.2439 76.2984 65.005 76.0609C64.7661 75.8235 64.6865 75.5489 64.6865 75.1904V53.9946C64.6865 53.6408 64.7661 53.3615 65.005 53.124C65.2439 52.8866 65.5203 52.7702 65.881 52.7702H69.8206C72.0082 52.7702 73.9616 53.2823 75.7135 54.2739C77.4655 55.3027 78.8193 56.6854 79.7749 58.4684C80.7305 60.2886 81.2458 62.3044 81.2458 64.5576C81.2458 66.8108 80.7258 68.8684 79.7749 70.6887C78.8193 72.5089 77.4655 73.8915 75.7135 74.8831V74.8738Z" fill="#4760CA"/>
<path d="M110.35 70.1253C110.668 69.8088 110.865 69.3758 110.865 68.8591C110.865 66.8014 110.467 64.9439 109.671 63.3239C108.874 61.7411 107.722 60.4795 106.246 59.567C104.733 58.6965 102.981 58.2216 100.953 58.2216C98.9246 58.2216 97.0134 58.6965 95.3832 59.6462C93.753 60.5958 92.4789 61.8993 91.5608 63.5613C90.6473 65.2233 90.207 67.1226 90.207 69.2176C90.207 71.3125 90.6848 73.2118 91.6404 74.8738C92.596 76.5358 93.9451 77.8393 95.6971 78.7889C97.4115 79.7386 99.3602 80.1716 101.548 80.1716C102.742 80.1716 104.016 79.9761 105.37 79.5012C106.724 79.0683 107.839 78.4724 108.752 77.7601C109.151 77.4436 109.389 77.0478 109.389 76.573C109.389 76.0982 109.151 75.6233 108.673 75.2276C108.354 74.9902 107.956 74.8319 107.478 74.8319C106.958 74.8319 106.523 74.9902 106.167 75.2649C105.609 75.7025 104.892 76.0563 104.017 76.3356C103.141 76.6521 102.344 76.7685 101.548 76.7685C99.5195 76.7685 97.805 76.2145 96.4138 75.0647C95.0225 73.9567 94.184 72.453 93.9076 70.5955H109.033C109.549 70.5955 109.989 70.4373 110.35 70.1207V70.1253ZM96.2217 63.2028C97.4162 62.174 99.0089 61.62 100.958 61.62C102.71 61.62 104.101 62.174 105.216 63.2028C106.288 64.2689 106.963 65.6935 107.207 67.4346H93.9545C94.273 65.6935 95.0319 64.2689 96.2264 63.2028H96.2217Z" fill="#4760CA"/>
<path d="M115.802 49.6744C115.404 50.0701 115.245 50.545 115.245 51.099V72.6951C115.245 74.1197 115.484 75.3859 115.999 76.4939C116.477 77.6019 117.194 78.4724 118.107 79.1055C119.021 79.7387 120.056 80.0133 121.213 80.0133H121.292C122.089 80.0133 122.726 79.8551 123.241 79.4593C123.719 79.1055 124 78.6307 124 78.0348C124 77.4808 123.799 77.006 123.485 76.6103C123.166 76.2565 122.731 76.0563 122.211 76.0563H121.218C120.623 76.0563 120.145 75.7397 119.784 75.1066C119.386 74.4735 119.227 73.6821 119.227 72.6905V51.0943C119.227 50.5403 119.025 50.0655 118.669 49.6698C118.271 49.316 117.793 49.1158 117.236 49.1158C116.636 49.1158 116.163 49.316 115.802 49.6698V49.6744Z" fill="#4760CA"/>
<path d="M145.871 70.1253C146.19 69.8088 146.387 69.3758 146.387 68.8591C146.387 66.8014 145.989 64.9439 145.192 63.3239C144.396 61.7411 143.243 60.4795 141.768 59.567C140.255 58.6965 138.503 58.2216 136.475 58.2216C134.446 58.2216 132.535 58.6965 130.905 59.6462C129.275 60.5958 128.001 61.8993 127.082 63.5613C126.169 65.2233 125.729 67.1226 125.729 69.2176C125.729 71.3125 126.206 73.2118 127.162 74.8738C128.118 76.5358 129.467 77.8393 131.219 78.7889C132.933 79.7386 134.882 80.1716 137.069 80.1716C138.259 80.1716 139.538 79.9761 140.892 79.5012C142.246 79.0683 143.361 78.4724 144.274 77.7601C144.672 77.4436 144.911 77.0478 144.911 76.573C144.911 76.0982 144.672 75.6233 144.194 75.2276C143.876 74.9902 143.478 74.8319 143 74.8319C142.48 74.8319 142.044 74.9902 141.684 75.2649C141.126 75.7025 140.409 76.0563 139.538 76.3356C138.662 76.6521 137.866 76.7685 137.069 76.7685C135.041 76.7685 133.327 76.2145 131.935 75.0647C130.539 73.9567 129.706 72.453 129.429 70.5955H144.555C145.07 70.5955 145.511 70.4373 145.867 70.1207L145.871 70.1253ZM131.743 63.2028C132.938 62.174 134.526 61.62 136.479 61.62C138.231 61.62 139.622 62.174 140.737 63.2028C141.81 64.2689 142.485 65.6935 142.728 67.4346H129.476C129.795 65.6935 130.549 64.2689 131.743 63.2028Z" fill="#4760CA"/>
<path d="M168.338 59.3296C168.136 59.0503 167.86 58.8175 167.541 58.6546C167.26 58.5382 166.946 58.4544 166.628 58.4544C166.272 58.4544 165.949 58.5754 165.635 58.7337C165.316 58.892 165.119 59.1294 164.956 59.446L158.112 74.2779L151.188 59.446C151.029 59.1294 150.79 58.892 150.509 58.7337C150.19 58.5754 149.909 58.4544 149.595 58.4544C149.282 58.4544 148.996 58.5335 148.757 58.6546C148.003 59.0503 147.642 59.5624 147.642 60.2746C147.642 60.554 147.684 60.7914 147.801 60.9869L156.238 78.6679C156.477 79.1428 156.716 79.4966 157.034 79.6968C157.315 79.8969 157.671 79.9761 158.149 79.9761C158.945 79.9761 159.583 79.5431 159.981 78.6726L168.417 60.9916C168.539 60.7541 168.619 60.4748 168.619 60.2421C168.619 59.9255 168.502 59.6089 168.338 59.3343V59.3296Z" fill="#4760CA"/>
<path d="M186.602 58.7756C185.806 58.3799 184.691 58.1425 183.3 58.1425C181.908 58.1425 180.714 58.4218 179.557 58.9339C178.362 59.4879 177.407 60.2001 176.61 61.1079V60.3584C176.61 59.0503 175.931 58.3799 174.619 58.3799C173.982 58.3799 173.462 58.5801 173.148 58.892C172.792 59.2458 172.633 59.7253 172.633 60.3538V78.0348C172.633 78.7051 172.792 79.2219 173.148 79.5384C173.467 79.855 173.987 80.0133 174.619 80.0133C175.252 80.0133 175.772 79.855 176.09 79.5012C176.409 79.1846 176.606 78.6679 176.606 78.0394V66.4895C176.606 65.0277 177.163 63.8406 178.357 62.9701C179.51 62.0995 181.065 61.6666 182.976 61.6666C183.613 61.6666 184.489 61.7829 185.562 61.9459C185.801 62.025 186.002 62.025 186.162 62.025C186.958 62.025 187.515 61.6293 187.754 60.7588C187.754 60.6796 187.797 60.5586 187.797 60.3631C187.797 59.7299 187.398 59.2178 186.602 58.7802V58.7756Z" fill="#4760CA"/>
<path d="M209.855 60.121C209.855 59.4087 209.42 58.892 208.619 58.5801C208.3 58.459 207.982 58.3799 207.663 58.3799C206.946 58.3799 206.426 58.7756 206.112 59.5251L199.704 73.8822L192.42 59.4832C192.022 58.771 191.464 58.3752 190.748 58.3752C190.429 58.3752 190.19 58.4544 189.951 58.5335C189.595 58.6918 189.314 58.9292 189.113 59.2086C188.874 59.5251 188.794 59.8417 188.794 60.1582C188.794 60.4748 188.832 60.7541 188.996 60.9869L197.952 77.8765L193.971 86.7775C193.811 87.0941 193.732 87.4107 193.732 87.7272C193.732 88.4395 194.13 88.9516 194.926 89.2681C195.282 89.4264 195.601 89.5056 195.882 89.5056C196.598 89.5056 197.118 89.1099 197.432 88.2812L209.612 61.0707C209.771 60.7122 209.851 60.3957 209.851 60.121H209.855Z" fill="#4760CA"/>
<path d="M120.22 0.00648166C120.121 0.00648166 120 0.00648167 119.948 0.011137C119.897 0.011137 119.747 0.0204477 119.62 0.0297584C119.494 0.0390691 119.288 0.0576905 119.161 0.0763119C119.035 0.0902779 118.838 0.11821 118.716 0.141487C118.599 0.160108 118.393 0.202006 118.257 0.234594C118.121 0.267181 117.929 0.313735 117.831 0.346322C117.728 0.374254 117.564 0.425463 117.47 0.458051C117.372 0.490638 117.226 0.546502 117.142 0.574434C117.063 0.607022 116.899 0.672197 116.786 0.723405C116.669 0.769959 116.463 0.867721 116.327 0.937551C116.191 1.00738 115.99 1.1098 115.882 1.17497C115.774 1.23549 115.578 1.35653 115.446 1.44033C115.315 1.52878 115.109 1.66844 114.987 1.76155C114.866 1.85 114.683 1.99897 114.575 2.08277C114.472 2.17122 114.228 2.39933 114.036 2.5902C113.844 2.78107 113.61 3.03246 113.512 3.14884C113.413 3.26523 113.268 3.45144 113.184 3.55851C113.104 3.67024 112.968 3.86111 112.879 3.99146C112.795 4.12181 112.673 4.31268 112.612 4.42441C112.551 4.53148 112.444 4.73166 112.373 4.86667C112.303 5.00167 112.205 5.21116 112.158 5.32289C112.111 5.43927 112.055 5.57428 112.032 5.62549C112.013 5.6767 111.971 5.79308 111.938 5.88153C111.905 5.96998 111.853 6.13292 111.821 6.23999C111.788 6.35172 111.736 6.53328 111.708 6.64501C111.68 6.75674 111.638 6.94295 111.615 7.05468C111.591 7.17106 111.558 7.35262 111.544 7.4597C111.526 7.57142 111.502 7.75298 111.493 7.86937C111.479 7.98575 111.46 8.22783 111.451 8.40473C111.441 8.58629 111.441 8.84699 111.446 9.00062C111.451 9.14959 111.465 9.38701 111.479 9.52667C111.488 9.66633 111.512 9.8572 111.521 9.94565C111.53 10.0341 111.554 10.1877 111.572 10.2855C111.591 10.3833 111.629 10.5788 111.661 10.7278C111.694 10.8721 111.755 11.1095 111.802 11.2585C111.844 11.4074 111.933 11.6728 111.999 11.859C112.064 12.0406 112.167 12.3199 112.233 12.4828C112.294 12.6411 112.411 12.9297 112.491 13.1253C112.57 13.3161 112.697 13.6001 112.762 13.7584C112.833 13.912 112.968 14.21 113.071 14.4194C113.17 14.6289 113.343 14.9688 113.451 15.1736C113.559 15.3831 113.732 15.695 113.83 15.8719C113.929 16.0488 114.111 16.3561 114.228 16.5562C114.35 16.7564 114.524 17.0404 114.622 17.1847C114.72 17.3337 114.856 17.5478 114.931 17.6549C115.006 17.762 115.133 17.9482 115.212 18.0646C115.297 18.181 115.437 18.3765 115.521 18.4975C115.61 18.6186 115.765 18.8281 115.868 18.9584C115.971 19.0934 116.14 19.3122 116.252 19.4472C116.36 19.5822 116.538 19.7964 116.646 19.9221C116.753 20.0478 116.931 20.2572 117.048 20.3876C117.161 20.5179 117.367 20.7414 117.498 20.8857C117.634 21.03 117.962 21.3699 118.229 21.6352C118.496 21.9006 118.843 22.2358 118.997 22.3754C119.152 22.5151 119.334 22.6687 119.4 22.7106C119.47 22.7525 119.578 22.813 119.648 22.841C119.714 22.8689 119.822 22.9061 119.887 22.9201C119.967 22.9387 120.07 22.9527 120.21 22.9574C120.36 22.962 120.454 22.9574 120.552 22.9387C120.627 22.9248 120.74 22.8968 120.805 22.8782C120.871 22.8596 120.974 22.813 121.035 22.7804C121.096 22.7479 121.185 22.692 121.232 22.6594C121.274 22.6268 121.428 22.4918 121.569 22.3661C121.709 22.2358 121.986 21.9751 122.178 21.7842C122.375 21.5933 122.67 21.2954 122.838 21.1185C123.007 20.9416 123.204 20.7274 123.283 20.6436C123.358 20.5598 123.489 20.4109 123.569 20.3224C123.649 20.2293 123.803 20.0478 123.911 19.9221C124.019 19.7964 124.197 19.5776 124.305 19.4472C124.412 19.3122 124.595 19.0794 124.707 18.9258C124.82 18.7768 125.021 18.5115 125.148 18.3299C125.274 18.153 125.508 17.8132 125.663 17.5804C125.818 17.3477 126.019 17.0404 126.103 16.9054C126.188 16.7657 126.333 16.5283 126.427 16.37C126.52 16.2118 126.661 15.965 126.745 15.8207C126.825 15.6764 126.956 15.439 127.036 15.2946C127.115 15.1457 127.228 14.9222 127.298 14.7872C127.363 14.6569 127.481 14.4194 127.551 14.2658C127.621 14.1122 127.724 13.8934 127.771 13.7863C127.818 13.6746 127.902 13.4884 127.954 13.3673C128.005 13.2463 128.108 12.9996 128.183 12.818C128.258 12.6364 128.366 12.3571 128.427 12.1942C128.488 12.0312 128.591 11.7426 128.656 11.5517C128.717 11.3609 128.802 11.0862 128.839 10.9372C128.877 10.7883 128.928 10.5462 128.956 10.4019C128.984 10.2529 129.022 10.0294 129.036 9.89444C129.055 9.76409 129.073 9.5546 129.083 9.43822C129.092 9.32184 129.101 9.02389 129.101 8.77716C129.101 8.53043 129.092 8.23248 129.083 8.1161C129.073 7.99972 129.055 7.82281 129.04 7.7204C129.026 7.61798 128.998 7.43642 128.98 7.31538C128.961 7.19434 128.919 6.9895 128.891 6.86381C128.862 6.73812 128.802 6.51 128.759 6.35638C128.717 6.20275 128.656 6.01188 128.624 5.92809C128.595 5.84429 128.525 5.65342 128.469 5.51376C128.413 5.36944 128.291 5.10409 128.197 4.91787C128.108 4.73632 127.972 4.48493 127.902 4.36389C127.832 4.24285 127.705 4.04732 127.626 3.92163C127.546 3.80059 127.415 3.61903 127.345 3.52127C127.27 3.42816 127.181 3.31178 127.143 3.26523C127.11 3.22333 127.003 3.09763 126.904 2.98591C126.811 2.87883 126.6 2.66469 126.445 2.51106C126.291 2.35743 126.061 2.14794 125.939 2.04552C125.818 1.94776 125.64 1.80345 125.541 1.73362C125.443 1.65913 125.27 1.53809 125.148 1.45895C125.031 1.37981 124.834 1.25877 124.712 1.18894C124.59 1.11911 124.337 0.98876 124.155 0.895653C123.972 0.807202 123.7 0.686163 123.555 0.630298C123.41 0.574434 123.222 0.499949 123.138 0.472017C123.054 0.444084 122.857 0.383565 122.707 0.341667C122.557 0.299769 122.309 0.239249 122.159 0.202006C122.009 0.169419 121.78 0.127521 121.644 0.108899C121.513 0.0902779 121.302 0.0623459 121.185 0.0483798C121.068 0.0390691 120.843 0.0204477 120.684 0.011137C120.524 0.00182632 120.318 -0.00282903 120.22 0.00182632V0.00648166ZM120.243 3.32575C120.393 3.32575 120.595 3.32575 120.693 3.33971C120.791 3.34902 120.96 3.36764 121.077 3.38161C121.189 3.40023 121.372 3.43282 121.485 3.4561C121.597 3.47937 121.77 3.52593 121.878 3.55851C121.986 3.5911 122.164 3.65162 122.281 3.69817C122.393 3.74007 122.595 3.83318 122.731 3.90301C122.866 3.97284 123.059 4.07991 123.166 4.14509C123.269 4.21026 123.4 4.29871 123.461 4.34061C123.518 4.38251 123.625 4.46631 123.7 4.52217C123.775 4.58269 123.902 4.68976 123.986 4.76425C124.07 4.83873 124.202 4.97374 124.281 5.05754C124.361 5.14133 124.473 5.27168 124.534 5.35082C124.595 5.42996 124.703 5.56497 124.768 5.65808C124.834 5.75118 124.928 5.8955 124.974 5.97464C125.021 6.05378 125.106 6.20275 125.157 6.30517C125.209 6.40759 125.274 6.54259 125.302 6.60777C125.33 6.67294 125.382 6.80329 125.419 6.90105C125.457 6.99882 125.513 7.17106 125.541 7.27814C125.574 7.38986 125.621 7.58074 125.644 7.70643C125.668 7.82747 125.701 8.02765 125.715 8.14403C125.733 8.30231 125.743 8.4606 125.743 8.75854C125.743 9.05648 125.733 9.21942 125.715 9.37304C125.701 9.48943 125.672 9.68495 125.644 9.80599C125.621 9.92703 125.583 10.0946 125.56 10.1784C125.537 10.2669 125.499 10.3972 125.471 10.4717C125.443 10.5462 125.387 10.6998 125.344 10.8115C125.302 10.9186 125.213 11.1095 125.148 11.2305C125.087 11.3516 124.988 11.5238 124.932 11.6123C124.876 11.7007 124.782 11.8404 124.726 11.9195C124.67 11.9987 124.553 12.143 124.473 12.2407C124.389 12.3385 124.22 12.5201 124.094 12.6411C123.972 12.7621 123.799 12.9158 123.719 12.9763C123.639 13.0415 123.513 13.1346 123.447 13.1811C123.377 13.2323 123.246 13.3161 123.157 13.372C123.068 13.4279 122.895 13.5256 122.773 13.5861C122.651 13.6467 122.459 13.7351 122.351 13.7817C122.239 13.8236 122.07 13.8887 121.967 13.9213C121.864 13.9539 121.705 14.0005 121.606 14.0237C121.508 14.047 121.335 14.0843 121.213 14.1029C121.096 14.1215 120.927 14.1448 120.838 14.1587C120.744 14.1681 120.506 14.1774 120.276 14.1774C119.986 14.1774 119.822 14.1681 119.667 14.1494C119.555 14.1355 119.386 14.1075 119.297 14.0936C119.208 14.0749 119.053 14.0424 118.96 14.0191C118.861 13.9958 118.697 13.9493 118.599 13.9167C118.496 13.8841 118.332 13.8236 118.229 13.7817C118.126 13.7398 117.957 13.6653 117.859 13.6141C117.756 13.5629 117.615 13.4884 117.54 13.4465C117.465 13.4046 117.339 13.3254 117.25 13.2649C117.166 13.2091 117.044 13.1206 116.978 13.074C116.913 13.0275 116.796 12.9297 116.711 12.8599C116.632 12.7901 116.482 12.6504 116.383 12.548C116.285 12.4502 116.144 12.2966 116.074 12.2082C116.004 12.1244 115.891 11.9754 115.826 11.8869C115.76 11.7938 115.657 11.6355 115.596 11.5378C115.535 11.4354 115.446 11.2771 115.4 11.184C115.353 11.0909 115.292 10.9605 115.264 10.8953C115.236 10.8302 115.184 10.7091 115.151 10.6253C115.119 10.5415 115.067 10.3693 115.03 10.2436C114.997 10.1226 114.945 9.91772 114.922 9.79668C114.898 9.67564 114.866 9.48012 114.851 9.36373C114.833 9.2008 114.828 9.04717 114.828 8.73061C114.828 8.38611 114.833 8.26973 114.861 8.07886C114.88 7.94851 114.908 7.75764 114.931 7.65522C114.95 7.5528 114.992 7.3759 115.025 7.26417C115.058 7.15244 115.114 6.97088 115.156 6.85916C115.198 6.74743 115.287 6.53794 115.362 6.39362C115.432 6.2493 115.54 6.04912 115.596 5.95136C115.657 5.8536 115.746 5.71394 115.798 5.64411C115.849 5.56962 115.938 5.45324 115.994 5.37875C116.051 5.30427 116.168 5.16926 116.257 5.07616C116.341 4.98305 116.491 4.83408 116.585 4.75028C116.678 4.66649 116.81 4.55476 116.875 4.50355C116.941 4.45234 117.072 4.35923 117.161 4.2894C117.255 4.22423 117.4 4.13112 117.489 4.07991C117.573 4.0287 117.76 3.93094 117.91 3.86111C118.056 3.79128 118.266 3.69817 118.379 3.65628C118.491 3.61438 118.674 3.55386 118.786 3.52593C118.899 3.49334 119.072 3.45144 119.175 3.43282C119.274 3.4142 119.433 3.38627 119.527 3.3723C119.62 3.35833 119.761 3.34437 119.84 3.33506C119.915 3.3304 120.103 3.32109 120.253 3.32109L120.243 3.32575ZM94.4323 5.7698C94.1185 5.7698 93.814 5.7698 93.7578 5.7698C93.7016 5.7698 93.547 5.78377 93.4111 5.79308C93.2753 5.80239 93.0692 5.81636 92.9521 5.83032C92.8349 5.83963 92.6569 5.86291 92.5539 5.87222C92.4508 5.88619 92.2494 5.91412 92.1089 5.9374C91.9636 5.96067 91.7294 6.00257 91.5889 6.0305C91.4437 6.05843 91.2095 6.10964 91.0642 6.14689C90.9237 6.18413 90.6801 6.24465 90.5255 6.2912C90.371 6.3331 90.118 6.4169 89.9587 6.46811C89.8042 6.51931 89.5465 6.61242 89.3919 6.67294C89.2373 6.73346 88.9844 6.83588 88.8345 6.90105C88.6846 6.96623 88.4176 7.09658 88.2349 7.18503C88.0569 7.27348 87.8086 7.40383 87.6821 7.47832C87.5557 7.54815 87.3542 7.66919 87.2371 7.73902C87.12 7.8135 86.9233 7.9392 86.8062 8.01834C86.6844 8.09748 86.5251 8.20921 86.4501 8.26042C86.3752 8.31162 86.2487 8.40939 86.1644 8.46991C86.0848 8.53043 85.9489 8.63284 85.8693 8.69802C85.7896 8.76319 85.6351 8.88889 85.532 8.97734C85.4243 9.06579 85.2884 9.18683 85.2228 9.24735C85.1573 9.30787 84.9699 9.48477 84.8106 9.64305C84.6467 9.80134 84.4312 10.0248 84.3234 10.1412C84.2157 10.2576 84.0377 10.4624 83.9206 10.5974C83.8082 10.7324 83.6161 10.9698 83.499 11.1328C83.3772 11.291 83.1805 11.5704 83.0587 11.7473C82.9369 11.9288 82.7823 12.1709 82.712 12.2873C82.6417 12.4037 82.5387 12.5852 82.4778 12.6923C82.4169 12.7947 82.2951 13.0368 82.1967 13.2277C82.103 13.4185 81.9859 13.6653 81.9344 13.777C81.8829 13.8887 81.822 14.0377 81.7939 14.1075C81.7658 14.1774 81.7096 14.3124 81.6721 14.4101C81.6346 14.5079 81.5784 14.6615 81.5456 14.7546C81.5128 14.8477 81.4472 15.0526 81.3957 15.2109C81.3442 15.3645 81.2645 15.6624 81.213 15.8626C81.1615 16.0628 81.0959 16.3468 81.0678 16.4864C81.0397 16.6261 80.9975 16.8402 80.9788 16.9613C80.9601 17.0823 80.9273 17.3151 80.9038 17.478C80.8851 17.6409 80.857 17.8877 80.8429 18.0273C80.8289 18.167 80.8148 18.451 80.8055 18.6605C80.7961 18.8839 80.7914 19.1912 80.7961 19.4239C80.8008 19.6381 80.8148 19.9453 80.8289 20.1083C80.8383 20.2712 80.8617 20.5226 80.8804 20.6716C80.8992 20.8205 80.9319 21.0673 80.9554 21.2209C80.9788 21.3745 81.0256 21.6399 81.0584 21.8075C81.0912 21.9751 81.1474 22.2311 81.1849 22.3801C81.2224 22.5244 81.2833 22.7572 81.3254 22.8968C81.3676 23.0365 81.4519 23.3018 81.5175 23.4927C81.5831 23.6836 81.6861 23.9815 81.7517 24.1631C81.8173 24.3446 81.9297 24.6379 81.9953 24.8148C82.0656 24.9917 82.1827 25.2897 82.2623 25.4806C82.3373 25.6668 82.4684 25.974 82.5481 26.1649C82.6277 26.3558 82.7729 26.6816 82.8713 26.9004C82.9697 27.1146 83.1196 27.4405 83.2086 27.6267C83.2976 27.8129 83.4896 28.2039 83.6348 28.4926C83.78 28.7858 83.9815 29.1676 84.0798 29.3445C84.1735 29.5214 84.3094 29.7635 84.3703 29.8799C84.4359 29.9962 84.5811 30.2523 84.6935 30.4432C84.8059 30.6387 84.9886 30.9459 85.101 31.1321C85.2135 31.3137 85.3868 31.5977 85.4852 31.756C85.5835 31.9142 85.7381 32.1517 85.8178 32.2774C85.9021 32.4077 86.0801 32.6777 86.2159 32.8779C86.3518 33.0781 86.5672 33.3946 86.6984 33.5762C86.8249 33.7578 87.0544 34.0697 87.2043 34.2745C87.3495 34.4747 87.5791 34.7773 87.7056 34.9402C87.832 35.1078 88.0662 35.4011 88.2208 35.6013C88.3754 35.7968 88.6424 36.118 88.8111 36.3182C88.9797 36.5184 89.228 36.8117 89.3685 36.9653C89.509 37.1236 89.7105 37.3563 89.8276 37.4774C89.94 37.6031 90.1602 37.8405 90.3147 38.0034C90.4693 38.171 90.8207 38.5295 91.1017 38.8088C91.3781 39.0881 91.7716 39.4699 91.973 39.6607C92.1791 39.8516 92.4321 40.089 92.5398 40.1915C92.6476 40.2939 92.7787 40.4056 92.8303 40.4522C92.8818 40.494 92.9661 40.5546 93.0223 40.5965C93.0785 40.6337 93.1863 40.6989 93.2659 40.7361C93.3455 40.778 93.4767 40.8292 93.561 40.8572C93.6453 40.8851 93.7671 40.9177 93.8327 40.9317C93.8983 40.9456 94.0248 40.9596 94.1185 40.9689C94.2262 40.9782 94.348 40.9782 94.4604 40.9689C94.5541 40.9596 94.6853 40.9456 94.7555 40.9317C94.8258 40.9177 94.9382 40.8898 95.0132 40.8618C95.0881 40.8385 95.2146 40.7873 95.2989 40.7501C95.3832 40.7129 95.5097 40.6384 95.5847 40.5872C95.6596 40.5359 95.8329 40.3963 95.9735 40.2659C96.114 40.1402 96.3576 39.9168 96.5122 39.7725C96.6668 39.6282 97.0462 39.2604 97.3554 38.9531C97.6645 38.6459 98.0861 38.2176 98.2876 37.9988C98.4937 37.78 98.7747 37.4727 98.9153 37.3144C99.0558 37.1608 99.2713 36.9141 99.3931 36.7698C99.5149 36.6301 99.7163 36.3927 99.8428 36.2437C99.9692 36.0947 100.213 35.7922 100.391 35.578C100.564 35.3592 100.822 35.0333 100.962 34.8518C101.103 34.6702 101.323 34.3769 101.45 34.2C101.581 34.0231 101.791 33.7298 101.918 33.5483C102.044 33.3667 102.269 33.0408 102.414 32.8267C102.56 32.6125 102.794 32.2541 102.934 32.0353C103.075 31.8118 103.3 31.4534 103.426 31.2439C103.557 31.0297 103.768 30.6713 103.899 30.4432C104.031 30.2197 104.218 29.8892 104.312 29.7076C104.41 29.5307 104.565 29.2467 104.654 29.0745C104.743 28.9022 104.907 28.5903 105.01 28.3762C105.117 28.162 105.295 27.7989 105.403 27.5755C105.511 27.3473 105.679 26.9842 105.778 26.7608C105.876 26.542 106.021 26.2114 106.096 26.0252C106.176 25.8437 106.303 25.5318 106.382 25.3316C106.462 25.1314 106.574 24.8567 106.626 24.7171C106.682 24.5774 106.785 24.2934 106.865 24.0839C106.94 23.8791 107.047 23.5812 107.099 23.4229C107.15 23.2693 107.23 23.0225 107.267 22.8829C107.31 22.7432 107.366 22.5337 107.394 22.422C107.422 22.3103 107.469 22.1054 107.497 21.9704C107.525 21.8354 107.567 21.6073 107.595 21.4723C107.619 21.3326 107.652 21.1231 107.67 21.0068C107.689 20.8904 107.708 20.6995 107.722 20.5831C107.736 20.4667 107.75 20.2805 107.759 20.1735C107.769 20.0617 107.778 19.7871 107.787 19.5543C107.797 19.3122 107.797 18.9677 107.787 18.7396C107.778 18.5208 107.764 18.2229 107.75 18.0739C107.736 17.9249 107.713 17.6922 107.698 17.5618C107.68 17.4268 107.647 17.194 107.624 17.0404C107.6 16.8868 107.553 16.6307 107.52 16.4725C107.488 16.3142 107.427 16.0535 107.389 15.8952C107.347 15.7323 107.277 15.4716 107.23 15.3179C107.183 15.1596 107.104 14.9176 107.057 14.7826C107.01 14.6429 106.921 14.4055 106.86 14.2519C106.799 14.0982 106.71 13.8887 106.663 13.7817C106.616 13.6792 106.509 13.4465 106.42 13.2696C106.331 13.0927 106.209 12.8552 106.148 12.7435C106.087 12.6318 105.965 12.4223 105.881 12.2826C105.797 12.143 105.647 11.9056 105.548 11.7612C105.45 11.6123 105.295 11.3935 105.206 11.2724C105.117 11.1514 104.967 10.9559 104.874 10.8395C104.78 10.7231 104.63 10.5369 104.537 10.4298C104.443 10.3227 104.279 10.1365 104.162 10.0155C104.049 9.89444 103.853 9.69426 103.726 9.57322C103.6 9.44287 103.426 9.27994 103.342 9.21011C103.262 9.13562 103.127 9.01924 103.047 8.94941C102.967 8.87958 102.817 8.75854 102.714 8.6794C102.611 8.60026 102.438 8.46525 102.33 8.38611C102.218 8.30697 102.007 8.158 101.857 8.05558C101.707 7.95316 101.478 7.80419 101.346 7.72971C101.215 7.65057 101.004 7.52487 100.873 7.45504C100.742 7.38055 100.499 7.25486 100.33 7.16641C100.161 7.08261 99.9271 6.97088 99.81 6.91967C99.6929 6.86847 99.4961 6.78467 99.365 6.73346C99.2338 6.68225 99.0136 6.5938 98.8637 6.54259C98.7185 6.49138 98.4562 6.40293 98.2829 6.34707C98.1096 6.29586 97.8144 6.21206 97.6271 6.16551C97.4397 6.11895 97.168 6.05378 97.0275 6.0305C96.8869 6.00257 96.6714 5.96067 96.5496 5.94205C96.4279 5.92343 96.1983 5.89084 96.0391 5.86757C95.8798 5.84894 95.6784 5.82567 95.5894 5.81636C95.5004 5.80705 95.3317 5.79308 95.2193 5.78377C95.1069 5.77446 94.7555 5.76515 94.4417 5.76515L94.4323 5.7698ZM94.4464 10.4857C94.5869 10.4857 94.8024 10.4996 94.9195 10.5043C95.0366 10.5136 95.2193 10.5322 95.327 10.5415C95.4301 10.5555 95.6175 10.5788 95.7393 10.6021C95.861 10.6207 96.0672 10.6626 96.1983 10.6905C96.3295 10.7184 96.559 10.779 96.7089 10.8209C96.8588 10.8628 97.0649 10.9279 97.168 10.9652C97.271 11.0024 97.435 11.0629 97.538 11.1048C97.6411 11.1467 97.8144 11.2166 97.9222 11.2678C98.0346 11.319 98.2032 11.4028 98.3063 11.454C98.4093 11.5052 98.5592 11.5936 98.6436 11.6402C98.7326 11.6914 98.9153 11.8031 99.0558 11.8962C99.1963 11.9894 99.4024 12.129 99.5055 12.2082C99.6132 12.2873 99.7866 12.4223 99.8896 12.5107C99.9927 12.5992 100.213 12.7947 100.367 12.9484C100.522 13.102 100.723 13.3068 100.808 13.3999C100.892 13.493 101.028 13.656 101.108 13.7537C101.187 13.8561 101.318 14.0237 101.393 14.1308C101.468 14.2379 101.59 14.4148 101.656 14.5219C101.726 14.6336 101.829 14.8058 101.885 14.9036C101.941 15.006 102.026 15.1596 102.068 15.2481C102.11 15.3365 102.185 15.4855 102.227 15.5786C102.269 15.6717 102.335 15.83 102.377 15.9324C102.419 16.0348 102.485 16.2118 102.527 16.3281C102.569 16.4445 102.63 16.6447 102.667 16.7704C102.7 16.8961 102.756 17.1009 102.785 17.2266C102.813 17.3523 102.855 17.5758 102.883 17.7247C102.906 17.8737 102.934 18.0925 102.949 18.2089C102.958 18.3253 102.977 18.558 102.986 18.721C102.995 18.9025 103 19.1446 102.995 19.3308C102.991 19.5031 102.977 19.7498 102.963 19.8802C102.949 20.0105 102.925 20.234 102.902 20.3736C102.883 20.5133 102.845 20.7274 102.817 20.8438C102.794 20.9649 102.756 21.1278 102.738 21.2069C102.719 21.2861 102.677 21.4444 102.644 21.5561C102.611 21.6678 102.555 21.8494 102.513 21.9611C102.471 22.0728 102.41 22.2451 102.368 22.3475C102.325 22.4499 102.251 22.6175 102.204 22.7292C102.152 22.8363 102.068 23.0086 102.016 23.111C101.965 23.2134 101.871 23.3717 101.815 23.4694C101.759 23.5672 101.66 23.7301 101.59 23.8326C101.524 23.935 101.412 24.0933 101.346 24.1864C101.276 24.2795 101.159 24.4331 101.084 24.5262C101.009 24.6193 100.864 24.7869 100.766 24.8986C100.667 25.0104 100.485 25.1966 100.372 25.3083C100.255 25.42 100.082 25.583 99.988 25.6621C99.8943 25.7413 99.7444 25.8623 99.6648 25.9275C99.5804 25.9926 99.4305 26.1044 99.3275 26.1789C99.2244 26.2487 99.0511 26.3651 98.9434 26.4349C98.8356 26.5047 98.667 26.6025 98.5733 26.6584C98.4796 26.7096 98.3063 26.8027 98.1798 26.8632C98.058 26.9237 97.8566 27.0168 97.7348 27.068C97.613 27.1192 97.3928 27.2077 97.2476 27.2589C97.1024 27.3101 96.8682 27.3892 96.7277 27.4311C96.5871 27.473 96.367 27.5289 96.2405 27.5568C96.114 27.5848 95.8892 27.6267 95.7439 27.6499C95.5987 27.6732 95.3973 27.7012 95.2942 27.7151C95.1912 27.7244 94.9944 27.743 94.8492 27.7524C94.6853 27.7617 94.4183 27.7663 94.1325 27.7617C93.8749 27.757 93.5798 27.7431 93.4626 27.7291C93.3455 27.7151 93.2003 27.6965 93.1394 27.6918C93.0785 27.6825 92.9661 27.6639 92.8865 27.6546C92.8068 27.6453 92.6522 27.6127 92.5305 27.5894C92.4133 27.5661 92.226 27.5196 92.1182 27.4963C92.0105 27.4684 91.8512 27.4218 91.7716 27.3986C91.692 27.3753 91.5186 27.3194 91.3968 27.2729C91.2704 27.231 91.0689 27.1518 90.9471 27.1006C90.8253 27.0494 90.638 26.9656 90.5349 26.9144C90.4319 26.8632 90.2492 26.7701 90.1321 26.7096C90.0196 26.649 89.851 26.5513 89.7667 26.5001C89.6777 26.4442 89.5371 26.3558 89.4575 26.2999C89.3732 26.244 89.2139 26.1323 89.1015 26.0485C88.9844 25.9647 88.8157 25.8297 88.7174 25.7459C88.619 25.6668 88.4504 25.5131 88.3426 25.4154C88.2349 25.313 88.0663 25.1454 87.9679 25.0429C87.8742 24.9405 87.7243 24.7729 87.6353 24.6705C87.5463 24.5681 87.4198 24.4052 87.3449 24.3074C87.2746 24.2143 87.1341 24.0188 87.0451 23.8838C86.9514 23.7441 86.8155 23.53 86.7406 23.3996C86.6656 23.2693 86.5532 23.0598 86.4876 22.9294C86.4267 22.7991 86.333 22.6035 86.2862 22.4965C86.2393 22.3847 86.1738 22.2218 86.141 22.1287C86.1035 22.0356 86.0473 21.8633 86.0098 21.7516C85.9723 21.6352 85.9161 21.4397 85.8833 21.3187C85.8505 21.1976 85.8037 20.9975 85.7803 20.8764C85.7569 20.7554 85.7194 20.5505 85.7006 20.4202C85.6819 20.2898 85.6538 20.0803 85.6397 19.9593C85.6257 19.8336 85.6116 19.5357 85.607 19.2936C85.6023 19.0236 85.607 18.7536 85.6163 18.5999C85.6257 18.4649 85.6444 18.2601 85.6585 18.153C85.6678 18.046 85.696 17.8504 85.7194 17.7294C85.7381 17.6037 85.7803 17.3989 85.8084 17.2732C85.8365 17.1475 85.8833 16.9566 85.9114 16.8542C85.9395 16.7518 85.9958 16.5609 86.0379 16.4399C86.0801 16.3142 86.155 16.1047 86.2066 15.9743C86.2581 15.844 86.3377 15.6531 86.3892 15.5414C86.4408 15.4343 86.5251 15.2574 86.5813 15.1503C86.6375 15.0479 86.7218 14.8943 86.7687 14.8151C86.8155 14.736 86.9045 14.587 86.9701 14.4846C87.0357 14.3822 87.1434 14.2239 87.2137 14.1262C87.284 14.0284 87.4058 13.8655 87.4807 13.7723C87.5603 13.6792 87.6634 13.5489 87.7149 13.4884C87.7664 13.4279 87.8882 13.2975 87.9819 13.1951C88.0756 13.0927 88.2443 12.9251 88.3567 12.8227C88.4691 12.7202 88.6377 12.5713 88.7267 12.4968C88.8157 12.4176 88.9797 12.2966 89.0828 12.2175C89.1858 12.1383 89.3779 12.008 89.5044 11.9242C89.6308 11.8404 89.8323 11.7147 89.954 11.6449C90.0758 11.575 90.2726 11.468 90.3944 11.4074C90.5162 11.3469 90.7035 11.2585 90.8113 11.2119C90.9143 11.1654 91.1111 11.0862 91.2423 11.0397C91.3734 10.9885 91.5655 10.9233 91.6685 10.8907C91.7716 10.8581 91.959 10.8022 92.0808 10.7696C92.2026 10.7371 92.3946 10.6905 92.507 10.6672C92.6195 10.644 92.7975 10.6114 92.9005 10.5927C93.0036 10.5741 93.1675 10.5508 93.2706 10.5415C93.3736 10.5276 93.5563 10.5136 93.6781 10.5043C93.7999 10.495 93.9639 10.4857 94.0482 10.4857C94.1278 10.4857 94.3105 10.4857 94.4557 10.4857H94.4464ZM120.318 25.6621C120.206 25.6575 120.164 25.6621 120.089 25.69C120.042 25.7087 119.976 25.7413 119.939 25.7645C119.906 25.7878 119.85 25.839 119.817 25.8763C119.784 25.9135 119.742 25.9787 119.728 26.0252C119.709 26.0764 119.7 26.137 119.7 26.2068C119.7 26.2766 119.714 26.3744 119.751 26.5047C119.779 26.6118 119.812 26.7701 119.826 26.8585C119.84 26.9516 119.85 27.1192 119.85 27.2635C119.85 27.3986 119.845 27.5661 119.831 27.6453C119.822 27.7244 119.798 27.8594 119.775 27.9525C119.756 28.0456 119.714 28.1946 119.681 28.2924C119.648 28.3855 119.583 28.5438 119.536 28.6462C119.489 28.7486 119.414 28.8836 119.372 28.9534C119.33 29.0233 119.231 29.1629 119.161 29.256C119.086 29.3538 118.941 29.5214 118.833 29.6285C118.73 29.7355 118.58 29.8752 118.51 29.9404C118.435 30.0009 118.299 30.1126 118.206 30.1825C118.112 30.2523 117.943 30.364 117.835 30.4338C117.728 30.5037 117.55 30.6061 117.442 30.6666C117.334 30.7271 117.137 30.8202 117.006 30.8808C116.875 30.9413 116.66 31.0344 116.529 31.0856C116.397 31.1368 116.172 31.2206 116.027 31.2672C115.882 31.3184 115.638 31.3928 115.489 31.4347C115.339 31.4766 115.123 31.5372 115.011 31.5651C114.898 31.593 114.575 31.6675 114.294 31.728C114.013 31.7885 113.601 31.8863 113.381 31.9422C113.156 31.998 112.842 32.0818 112.687 32.1237C112.528 32.1656 112.28 32.2401 112.13 32.2867C111.985 32.3332 111.736 32.417 111.577 32.4729C111.418 32.5287 111.184 32.6219 111.052 32.6777C110.921 32.7336 110.734 32.8174 110.631 32.8639C110.528 32.9105 110.369 32.9943 110.275 33.0455C110.181 33.0967 110.055 33.1665 109.994 33.2038C109.933 33.241 109.811 33.3155 109.727 33.3714C109.642 33.4272 109.507 33.525 109.422 33.5855C109.343 33.646 109.197 33.7624 109.104 33.8462C109.01 33.93 108.874 34.0557 108.809 34.1255C108.738 34.1954 108.635 34.3164 108.57 34.3862C108.509 34.4607 108.429 34.5585 108.392 34.605C108.354 34.6562 108.279 34.7633 108.218 34.8471C108.162 34.9356 108.073 35.0752 108.022 35.1637C107.97 35.2521 107.881 35.4151 107.83 35.5314C107.773 35.6432 107.694 35.8247 107.652 35.9318C107.609 36.0342 107.535 36.2391 107.488 36.3787C107.441 36.5184 107.375 36.7558 107.338 36.9001C107.3 37.0444 107.253 37.2493 107.23 37.347C107.211 37.4495 107.16 37.7148 107.127 37.9336C107.089 38.1571 107.038 38.4504 107.01 38.5947C106.982 38.7343 106.93 38.9718 106.893 39.1161C106.86 39.2604 106.799 39.4699 106.766 39.5769C106.733 39.6887 106.677 39.8609 106.64 39.968C106.602 40.0704 106.537 40.2427 106.499 40.3404C106.457 40.4428 106.373 40.6291 106.312 40.7594C106.251 40.8898 106.148 41.0853 106.082 41.1924C106.021 41.3041 105.909 41.4763 105.834 41.5834C105.759 41.6905 105.633 41.8627 105.548 41.9651C105.464 42.0676 105.323 42.2258 105.239 42.3189C105.155 42.4121 105.01 42.5471 104.925 42.6215C104.836 42.696 104.715 42.8031 104.649 42.8543C104.583 42.9055 104.429 43.0126 104.302 43.0964C104.176 43.1802 104.012 43.278 103.937 43.3199C103.862 43.3617 103.712 43.4409 103.604 43.4874C103.497 43.5387 103.323 43.6178 103.22 43.655C103.117 43.6969 102.925 43.7668 102.794 43.8087C102.663 43.8506 102.447 43.9111 102.316 43.9483C102.185 43.9809 102.002 44.0228 101.904 44.0414C101.806 44.06 101.613 44.0973 101.478 44.1159C101.342 44.1392 101.108 44.1671 100.962 44.1811C100.812 44.1997 100.574 44.2183 100.428 44.223C100.283 44.2323 99.9224 44.2416 99.632 44.2416C99.3415 44.2416 98.9715 44.2323 98.8169 44.2276C98.6623 44.2183 98.4515 44.2044 98.3531 44.1951C98.2501 44.1857 98.1002 44.1718 98.0159 44.1671C97.9315 44.1578 97.7723 44.1392 97.6598 44.1299C97.5521 44.1206 97.3319 44.0926 97.182 44.0694C97.0275 44.0507 96.7558 44.0088 96.5824 43.9809C96.4091 43.953 96.1327 43.9064 95.9735 43.8785C95.8142 43.8506 95.5378 43.7947 95.3551 43.7575C95.1724 43.7249 94.8726 43.6597 94.69 43.6178C94.4089 43.5573 94.3386 43.5433 94.2449 43.548C94.1606 43.5526 94.1138 43.5666 94.0529 43.5945C94.0107 43.6178 93.9405 43.6643 93.903 43.7062C93.8655 43.7481 93.814 43.818 93.7952 43.8599C93.7765 43.9018 93.7531 43.9809 93.7437 44.0368C93.7297 44.1066 93.7297 44.1578 93.7437 44.2276C93.7531 44.2789 93.7765 44.3533 93.7952 44.3952C93.814 44.4325 93.8561 44.493 93.8889 44.5256C93.9264 44.5582 93.9779 44.6001 94.0154 44.6187C94.0482 44.6373 94.0997 44.6559 94.1231 44.6652C94.1513 44.6746 94.2824 44.7025 94.4183 44.7351C94.5588 44.7677 94.8258 44.8235 95.0179 44.8654C95.2099 44.9073 95.5331 44.9678 95.7346 45.0051C95.936 45.0423 96.2545 45.0935 96.4372 45.1215C96.6199 45.1494 96.901 45.1913 97.0602 45.2099C97.2195 45.2285 97.4772 45.2611 97.6364 45.2751C97.7957 45.2937 98.0627 45.317 98.2267 45.3263C98.3953 45.3356 98.7513 45.3542 99.023 45.3635C99.379 45.3729 99.6367 45.3729 99.9458 45.3635C100.185 45.3542 100.466 45.3403 100.578 45.331C100.691 45.3216 100.897 45.303 101.042 45.2844C101.192 45.2658 101.45 45.2332 101.618 45.2053C101.787 45.1773 102.007 45.1354 102.105 45.1168C102.204 45.0935 102.372 45.0563 102.485 45.0284C102.597 45.0004 102.794 44.9446 102.93 44.9073C103.061 44.8654 103.267 44.8003 103.384 44.7537C103.501 44.7118 103.693 44.6327 103.81 44.5814C103.928 44.5302 104.096 44.4511 104.18 44.4092C104.265 44.3673 104.429 44.2789 104.537 44.2183C104.644 44.1578 104.822 44.0507 104.925 43.9809C105.028 43.9111 105.183 43.804 105.267 43.7435C105.347 43.683 105.497 43.5619 105.59 43.4828C105.689 43.4036 105.867 43.2361 105.989 43.115C106.11 42.994 106.279 42.8124 106.363 42.71C106.448 42.6076 106.57 42.454 106.64 42.3655C106.705 42.2771 106.818 42.1188 106.888 42.0117C106.958 41.9093 107.071 41.7277 107.136 41.6113C107.207 41.495 107.31 41.2948 107.375 41.1644C107.436 41.0341 107.535 40.8246 107.586 40.6989C107.638 40.5685 107.717 40.3637 107.764 40.238C107.806 40.1123 107.881 39.8889 107.928 39.7352C107.97 39.5863 108.031 39.3628 108.059 39.2511C108.087 39.1347 108.139 38.9066 108.172 38.7436C108.204 38.5807 108.251 38.3247 108.275 38.1664C108.298 38.0128 108.34 37.7846 108.364 37.6589C108.387 37.5379 108.434 37.3284 108.467 37.2027C108.499 37.077 108.56 36.8629 108.607 36.7325C108.649 36.6022 108.734 36.388 108.79 36.253C108.846 36.1227 108.935 35.9365 108.991 35.8387C109.043 35.7409 109.137 35.5873 109.197 35.4942C109.258 35.4011 109.361 35.2614 109.422 35.1823C109.488 35.1032 109.6 34.9728 109.675 34.8983C109.75 34.8192 109.877 34.6981 109.956 34.633C110.036 34.5631 110.153 34.47 110.219 34.4235C110.284 34.3723 110.397 34.2931 110.472 34.2466C110.542 34.1954 110.682 34.1116 110.781 34.0557C110.879 33.9998 111.052 33.9114 111.165 33.8555C111.277 33.8043 111.437 33.7298 111.521 33.6972C111.601 33.6647 111.783 33.5948 111.928 33.539C112.069 33.4878 112.322 33.404 112.491 33.3527C112.659 33.3015 112.893 33.2317 113.015 33.1991C113.137 33.1665 113.395 33.1014 113.591 33.0548C113.788 33.0083 114.205 32.9105 114.524 32.8407C114.842 32.7708 115.231 32.6824 115.39 32.6405C115.549 32.5986 115.788 32.5334 115.929 32.4915C116.069 32.4496 116.308 32.3751 116.463 32.3239C116.618 32.2727 116.856 32.1843 116.988 32.133C117.123 32.0818 117.358 31.9794 117.512 31.9096C117.667 31.8398 117.901 31.7234 118.037 31.6489C118.173 31.5744 118.379 31.458 118.491 31.3882C118.608 31.3184 118.782 31.1973 118.885 31.1228C118.988 31.0483 119.142 30.932 119.231 30.8575C119.316 30.7876 119.498 30.6201 119.63 30.4897C119.761 30.3594 119.925 30.1825 119.995 30.0893C120.065 30.0009 120.168 29.8612 120.224 29.7821C120.281 29.703 120.36 29.5773 120.402 29.5074C120.445 29.4376 120.524 29.2933 120.576 29.1862C120.627 29.0791 120.693 28.9302 120.721 28.8557C120.749 28.7812 120.796 28.6462 120.824 28.5531C120.852 28.46 120.894 28.311 120.913 28.2179C120.932 28.1248 120.96 27.9805 120.974 27.8967C120.983 27.8129 121.002 27.636 121.011 27.501C121.021 27.366 121.025 27.1844 121.021 27.0913C121.016 26.9982 121.007 26.8585 120.997 26.7747C120.988 26.6956 120.969 26.5513 120.955 26.4582C120.936 26.3651 120.913 26.2347 120.894 26.1742C120.876 26.109 120.843 26.0159 120.819 25.9647C120.796 25.9088 120.749 25.8437 120.707 25.8018C120.665 25.7645 120.604 25.7133 120.562 25.6994C120.501 25.6714 120.459 25.6621 120.346 25.6575L120.318 25.6621Z" fill="#F20C1E"/>
</svg>
