<svg width="405" height="257" viewBox="0 0 405 257" fill="none" xmlns="http://www.w3.org/2000/svg">
<g clip-path="url(#clip0_274_308)">
<path d="M251.628 3.16807L258.856 174.047L380.26 172.609L385.757 0L251.628 3.16807Z" fill="#90B7FC"/>
<path d="M55.7568 85.6456H8.53417L5.99805 10.8792L57.0249 12.1464L55.7568 85.6456Z" stroke="#90B7FC" stroke-width="5" stroke-miterlimit="10"/>
<path d="M196.543 50.6511L174.923 50.0175L173.655 15.2067L198.445 14.5731L196.543 50.6511Z" fill="#E8EFFC"/>
<path d="M14.7792 159.721C14.7792 159.721 13.2004 138.388 10.0366 125.189C10.0366 125.189 14.5129 143.564 15.8317 159.721C15.8317 159.721 15.1279 143.038 16.8842 137.754C16.8842 137.754 16.0029 152.536 16.8842 159.721H21.9754C21.9754 159.721 23.8205 138.603 20.6566 127.515C20.6566 127.515 22.5904 143.247 21.1829 157.295" fill="#90B7FC"/>
<path d="M7.18345 257L1.16016 175.346H52.523L49.4226 257H46.4934L44.4328 180.415L8.45151 179.477L8.61002 257H7.18345Z" fill="#90B7FC"/>
<path d="M0.634031 175.879H53.3664L53.8926 171.969L0 172.812L0.634031 175.879Z" fill="#90B7FC"/>
<path d="M10.8862 155.812L12.8961 172.609L23.4654 172.444L24.6257 155.812C24.6257 155.812 18.3932 155.387 10.8862 155.812Z" fill="white"/>
<path d="M1.20459 175.878L1.28701 177.038L52.4787 176.455V175.878H1.20459Z" fill="#72A5ED"/>
<path d="M46.4175 190.553H7.26611V191.82H46.4175V190.553Z" fill="#90B7FC"/>
<path d="M157.975 80.1204L96.8674 80.564L95.9797 33.1L159.307 33.987L157.975 80.1204ZM99.0928 78.3463L155.756 77.9028L157.088 36.211L98.1988 35.324L99.0865 78.3463H99.0928Z" fill="#7994FE"/>
<path d="M158.933 79.4868L97.8247 79.9304L96.937 32.4664L160.264 33.3534L158.933 79.4868Z" fill="#D6E4FC"/>
<path d="M321.08 86.5643L379.791 85.4364L382.397 3.16806L321.213 4.39093L321.08 86.5643Z" fill="#E8EFFC"/>
<path d="M315.925 86.6593L314.517 4.52399L255.755 5.70251L258.615 87.7555L315.925 86.6593Z" fill="#E8EFFC"/>
<path d="M316.02 92.2731L258.856 94.7062L261.487 170.271H317.358L316.02 92.2731Z" fill="#E8EFFC"/>
<path d="M321.067 92.0577L320.947 170.271H377.109L379.664 89.5676L321.067 92.0577Z" fill="#E8EFFC"/>
<path d="M287.622 170.271H317.358L316.02 92.2731L299.079 92.9955L287.622 170.271Z" fill="white"/>
<path d="M321.213 4.39094L321.08 86.5643L334.109 86.3108L350.315 3.80801L321.213 4.39094Z" fill="white"/>
<path d="M367.129 3.4722L360.282 3.61159L349.199 86.0257L355.863 85.899L367.129 3.4722Z" fill="white"/>
<path d="M299.973 86.9635L315.925 86.6593L314.517 4.52399L312.19 4.57468L299.973 86.9635Z" fill="white"/>
<path d="M333.082 91.5508L321.067 92.0577L320.972 153.17L333.082 91.5508Z" fill="white"/>
<path d="M344.336 170.271L355.222 90.6068L348.54 90.8919L337.863 170.271H344.336Z" fill="white"/>
<path d="M108.071 42.7753L109.123 67.9107L147.856 66.6435L149.701 45.5188L108.071 42.7753Z" fill="#B3CCFF"/>
<g style="mix-blend-mode:overlay" opacity="0.4">
<path d="M121.037 79.7656L136.71 79.6516L147.856 33.1823L129.178 32.9225L121.037 79.7656Z" fill="#E5EDF9"/>
</g>
<path d="M158.933 79.4868L97.8247 79.9304L96.937 32.4664L160.264 33.3534L158.933 79.4868ZM100.05 77.7127L156.713 77.2692L158.045 35.5774L99.1625 34.6904L100.05 77.7127Z" fill="white"/>
<path d="M106.149 32.9226L127.497 12.1464L148.42 34.2151" stroke="white" stroke-linecap="round" stroke-linejoin="round"/>
<g style="mix-blend-mode:multiply">
<path d="M261.373 205.538V205.265H258.013V204.67L252.306 204.885V205.322L230.902 205.538L226.755 206.153L226.793 206.754L227.211 213.23C220.389 203.422 215.279 195.533 215.279 195.533C214.29 174.149 212.737 148.247 212.318 141.385L230.762 138.806L230.337 128.725C230.648 127.445 230.921 126.171 231.098 125.31C231.707 124.676 238.998 116.946 240.577 108.62C240.577 108.62 239.936 106.701 236.925 104.109C235.403 102.639 232.48 100.903 229.101 99.1732L228.942 95.4285L222.894 96.2142C222.621 96.0938 222.348 95.9671 222.082 95.8467C222.209 95.7137 222.336 95.5869 222.463 95.4729C216.186 92.6787 210.017 90.8539 209.972 90.8412C209.687 90.7461 209.395 90.6511 209.091 90.5624C209.078 90.5624 209.065 90.5561 209.053 90.5497C209.142 90.3343 209.192 90.2076 209.192 90.2076L206.257 89.2128C206.2 89.3902 206.149 89.5676 206.092 89.7514C203.391 89.0924 200.588 88.5475 198.997 88.256C198.807 88.218 198.629 88.1863 198.477 88.161C198.477 88.0026 198.477 87.8442 198.477 87.6858L193.601 86.9064V83.4089C195.865 82.243 197.951 80.4056 198.858 78.0105C202.376 78.264 203.689 73.4358 202.262 72.1306C201.876 71.7821 201.489 71.649 201.127 71.649C201.127 71.649 203.606 65.9655 203.549 65.2052C203.499 64.4448 202.833 63.7415 202.833 63.7415C202.833 63.7415 204.583 64.882 204.177 64.0773C203.778 63.279 202.833 62.8165 202.833 62.8165C202.833 62.8165 204.418 62.8165 204.152 62.4363C203.879 62.0561 202.833 62.1638 202.833 62.1638C203.581 59.7751 196.486 56.3029 196.486 56.3029C196.486 56.3029 195.345 51.4177 190.564 51.5762C185.784 51.7409 184.858 56.9492 184.858 56.9492C184.858 56.9492 183.444 54.345 182.683 55.1054C181.923 55.8657 183.761 57.0569 183.761 57.0569C183.761 57.0569 175.836 58.7423 178.499 63.355C179.025 64.2674 179.919 64.7046 181.016 64.8567C180.851 65.484 180.68 66.3837 180.54 67.1947C180.154 66.7385 179.577 66.4154 178.74 66.6625C176.895 67.2074 176.013 72.1686 179.329 73.4738C178.974 78.0612 182.829 82.7246 185.885 84.2706V87.0332L181.301 87.5274C181.238 87.7301 181.181 87.9456 181.13 88.161C180.021 88.3511 178.068 88.6996 176.109 89.1621C176.128 88.8706 176.14 88.7122 176.14 88.7122C174.46 89.0354 173.503 89.3649 173.503 89.3649C173.503 89.5296 173.503 89.7007 173.503 89.8654C173.154 89.9731 172.824 90.0809 172.514 90.1949C172.514 90.1949 172.457 90.2139 172.38 90.2456C172.209 90.3089 172.051 90.3723 171.892 90.442C170.466 91.0186 166.96 92.5393 165.761 93.9396C165.729 93.9776 165.685 94.0346 165.641 94.098C165.634 94.1106 165.628 94.1233 165.615 94.136C165.26 94.6619 164.595 95.8974 163.758 97.5892L158.318 95.9988L157.62 97.3294L163.187 98.755C161.038 103.241 158.089 110.021 156.213 115.666C156.213 115.666 140.863 127.534 130.173 134.098C129.907 134.003 129.298 133.788 128.683 133.616C128.163 133.35 127.764 133.306 127.459 133.35L127.25 132.685C130.769 131.823 133.235 128.516 132.912 124.797C132.76 123.079 132.037 121.552 130.947 120.38C130.382 119.772 129.717 119.259 128.981 118.866C128.975 118.866 128.968 118.86 128.962 118.853C128.74 118.733 128.512 118.631 128.277 118.536C128.22 118.511 128.169 118.492 128.112 118.473C127.922 118.403 127.732 118.34 127.535 118.283C127.459 118.258 127.377 118.239 127.301 118.22C127.123 118.175 126.939 118.137 126.749 118.106C126.66 118.093 126.572 118.074 126.483 118.061C126.293 118.036 126.103 118.023 125.906 118.011C125.824 118.011 125.741 117.998 125.659 117.992C125.386 117.985 125.107 117.992 124.828 118.017C123.471 118.137 122.235 118.612 121.195 119.341L121.22 119.316L75.0947 148.728C74.8094 144.293 74.5685 141.049 74.4227 139.211C74.391 138.818 74.3656 138.495 74.3466 138.235C75.1328 138.267 75.957 138.331 76.832 138.438C76.832 138.438 76.1599 135.067 75.3357 130.518L89.5824 128.452L90.5841 122.23C91.6113 121.552 96.7786 117.757 94.1093 111.624C94.0966 111.592 94.084 111.567 94.0713 111.535C93.7416 110.692 93.2914 109.767 92.7525 108.791L94.3503 98.8691L93.9635 98.6029L85.6387 98.5142C82.9884 95.1561 80.3635 92.1528 78.7087 90.3786C78.8102 90.1949 78.9053 90.0111 79.0067 89.8211C79.0067 89.8211 77.3456 87.7238 74.2451 86.6593C74.2451 86.6593 70.2824 85.2274 65.9964 83.9855C66.865 81.8312 68.8368 76.6482 70.0732 71.0154C71.6456 69.7862 71.7661 67.1947 70.9165 66.0859C72.0831 56.1445 69.3948 47.1092 53.0051 52.8751C53.0051 52.8751 47.8948 52.9384 45.9483 56.7338C43.9955 60.5291 46.4619 75.1973 39.6904 79.6072C39.6904 79.6072 41.7574 81.2103 45.1178 82.826C44.1477 83.0097 43.2664 83.2188 42.5182 83.4533C42.5182 83.4533 36.1209 84.7902 33.6672 86.6593C33.6672 86.6593 33.7623 86.767 33.9144 86.9508C28.7344 89.9161 19.4775 95.6123 18.8816 96.9112C18.8816 96.9112 18.406 97.3801 17.9495 98.1151C17.7466 98.3875 17.5818 98.6917 17.4613 99.0401C17.0175 100.092 16.8463 101.404 17.7276 102.645C19.7248 108.025 34.4153 109.096 42.1822 109.286C42.2836 109.9 42.3978 110.528 42.5182 111.187C42.5182 111.187 40.9268 128.142 35.7658 139.211C35.7658 139.211 36.6154 139.566 38.0673 140.016C38.0483 140.2 38.0229 140.383 37.9976 140.586C36.6027 152.124 32.2723 182.449 31.8348 184.641C31.372 186.948 18.6913 228.646 18.6913 228.646C18.8308 228.849 18.964 229.039 19.1035 229.222C18.8118 230.192 18.647 230.743 18.647 230.743L18.8879 231.174C18.8308 231.206 18.7674 231.244 18.6977 231.282L18.3933 230.946L12.7378 234.146L19.0718 245.487L23.2944 247.92L24.6576 247.667C22.1215 240.729 22.6667 235.641 22.6667 235.641L22.5526 235.514C22.7999 235.014 23.1296 234.361 23.5227 233.575C24.2264 234.025 24.6639 234.184 24.6639 234.184C24.6639 234.184 44.471 193.411 46.6268 189.989C48.7825 186.568 56.9551 156.636 56.9551 156.636L57.3165 158.03C63.0672 181.004 66.5924 247.521 66.5924 247.521C67.2328 247.629 67.8224 247.718 68.393 247.787C68.4628 249.086 68.5135 249.973 68.5325 250.385H68.4374L67.5371 256.829H84.9032L85.5309 255.593C78.4741 253.388 74.765 249.859 74.765 249.859C74.7904 249.207 74.8094 248.56 74.8348 247.908C76.0141 247.743 76.534 247.515 76.534 247.515C76.9398 236.11 77.111 225.085 77.1236 214.7C77.1236 214.237 77.1236 213.775 77.1236 213.312C77.1236 213.122 77.1236 212.932 77.1236 212.742L82.2656 212.723L82.1008 213.053L86.9955 256.74L106.568 256.544L111.139 256.499L131.086 256.303L134.852 213.059L134.618 212.451L122.882 212.337L123.376 197.973L125.259 151.478H75.2913C75.2913 151.402 75.285 151.32 75.2786 151.244L95.9607 149.52V148.259L75.2342 150.534C75.2025 150.065 75.1772 149.609 75.1455 149.159L119.496 121.001L119.534 120.963C118.469 122.382 117.898 124.176 118.063 126.083C118.082 126.324 118.12 126.564 118.164 126.799C118.177 126.862 118.19 126.919 118.203 126.983L116.827 127.901L115.584 128.37L116.903 128.757C117.068 129.916 117.613 131.963 119.407 132.919L122.894 133.578L123.18 134.149C123.04 134.212 122.951 134.25 122.951 134.25L123.313 134.972C122.533 135.112 121.924 135.289 121.924 135.289C121.557 135.397 121.322 135.536 121.36 135.745C121.525 136.658 122.457 137.779 122.457 137.779C122.457 137.779 121.918 138.812 122.254 139.858C122.59 140.903 124.074 141.226 124.074 141.226C124.074 141.226 124.219 142.043 124.575 142.702C124.923 143.361 126.762 143.083 126.762 143.083C126.762 143.083 126.787 143.152 126.838 143.247C126.997 143.571 127.371 144.229 127.7 144.058C127.789 144.065 127.998 143.938 128.284 143.735C128.715 143.716 129.526 143.571 130.332 142.766L130.179 142.297C130.236 142.24 130.281 142.202 130.281 142.202L130.249 142.094C131.397 141.074 132.608 139.94 133.172 139.401C137.078 138.134 157.931 131.164 163.58 124.689C165.14 123.276 166.788 121.109 168.468 117.935L168.494 117.89C168.513 117.846 168.538 117.808 168.557 117.763C168.608 117.662 168.665 117.561 168.716 117.459C168.437 120.551 167.853 128.421 167.334 135.562C166.877 135.745 166.566 135.872 166.566 135.872L164.988 151.725C164.988 151.725 150.861 190.166 149.72 194.887C148.579 199.614 147.165 247.394 147.165 247.394C147.482 247.477 147.799 247.559 148.122 247.629C148.122 248.129 148.122 248.63 148.135 249.112C148.135 249.112 143.259 253.883 136.938 254.567L137.991 256.804H155.801L154.919 249.112C154.919 249.112 154.97 248.883 155.052 248.465C155.889 248.491 156.403 248.478 156.403 248.478C156.403 248.478 166.186 198.898 168.792 194.399C170.878 190.794 180.712 174.459 184.541 168.11L186.05 165.601L186.069 165.57C186.069 165.57 197.64 202.218 198.946 205.475C199.853 207.743 217.745 223.748 228.53 233.259L230.033 256.512H233.152V256.449V256.506L253.099 256.702L257.683 256.747L277.237 256.943L280.825 206.089L280.521 205.481H261.386L261.373 205.538ZM36.0321 99.1035L36.216 99.0338C37.3255 98.603 38.416 98.1784 39.4178 97.7856L41.0536 97.3104C41.0536 97.3104 41.0536 97.3231 41.0536 97.3421C41.0536 97.3547 41.0536 97.3674 41.0536 97.3928C41.0536 97.4118 41.0536 97.4308 41.0536 97.4498C41.0536 97.5005 41.0536 97.5702 41.0536 97.6589C41.0536 97.6779 41.0536 97.6969 41.0536 97.7159C41.0536 98.2988 41.0663 99.509 41.1931 101.27C39.0311 100.535 37.1036 99.8955 35.3854 99.3506C35.601 99.2682 35.8165 99.1795 36.0384 99.0972L36.0321 99.1035ZM229.614 111.503L229.583 110.724L229.836 110.756C229.767 111.003 229.691 111.256 229.614 111.503ZM200.481 71.7948H200.487C200.487 71.7948 200.487 71.7948 200.481 71.7948ZM185.892 87.9582C185.48 88.0343 185.055 88.1103 184.611 88.1927L185.885 87.9392V87.9012C185.885 87.9012 185.885 87.9456 185.885 87.9646L185.892 87.9582Z" fill="#E4ECF9"/>
<path d="M96.9119 149.324V150.851L125.234 151.503L125.405 150.889L96.9119 149.324Z" fill="#E4ECF9"/>
<path d="M231.225 72.3333L227.782 95.0737L228.936 95.4412L232.614 72.7579L231.225 72.3333Z" fill="#E4ECF9"/>
<path d="M373.001 244.423C373.001 244.245 372.994 244.068 372.982 243.891C372.975 243.751 372.963 243.612 372.95 243.472C372.944 243.403 372.937 243.339 372.931 243.27C372.842 242.345 372.684 241.451 372.455 240.602L391.99 231.193L391.787 230.863L391.128 229.805L380.901 230.09L386.74 226.213L388.382 167.483L366.432 166.919L366.514 165.696L372.335 160.52L365.716 102.139L364.961 102.227C364.822 101.638 364.606 101.188 364.34 101.163C363.503 101.068 362.951 102.462 362.951 102.462L363.439 102.386V102.405L362.932 102.462C362.729 101.733 362.438 101.175 362.108 101.156C361.423 101.112 360.948 101.898 360.713 102.392C360.371 101.739 359.978 101.277 359.661 101.321C359.337 101.366 359.103 101.594 358.925 101.866C358.817 101.714 358.697 101.613 358.57 101.6C357.581 101.499 356.953 103.152 356.953 103.152L357.53 103.057V103.083L351.076 103.83C347.411 97.2407 341.882 89.3205 340.018 87.7682C338.915 86.8494 337.52 86.1905 336.233 85.7343C335.942 85.5885 335.219 85.3794 334.236 85.1323C334.223 85.1323 334.204 85.126 334.192 85.1197C329.715 84.0045 319.939 82.1417 319.92 82.1353C320.458 81.8819 320.953 81.6158 321.371 81.337C321.53 81.2356 321.676 81.1279 321.815 81.0202C321.866 80.9822 321.917 80.9378 321.967 80.8998C322.05 80.8301 322.132 80.7604 322.215 80.6907C322.272 80.64 322.329 80.583 322.386 80.526C322.443 80.4689 322.506 80.4119 322.563 80.3485C322.627 80.2852 322.684 80.2218 322.741 80.1521C322.785 80.1078 322.823 80.0571 322.861 80.0127C322.925 79.9367 322.988 79.8607 323.045 79.7783C323.058 79.7593 323.071 79.7403 323.083 79.7213C325.784 76.0146 322.931 70.8697 322.899 70.819C322.899 70.7113 322.899 70.6099 322.887 70.5022C325.715 69.2603 325.36 64.8504 323.698 64.1407C323.115 63.8936 322.633 63.957 322.246 64.1597L322.145 63.222C322.595 63.0319 322.912 62.7404 323.007 62.3096C323.172 61.6063 323.115 60.9473 322.906 60.339L327.071 60.5925L327.541 60.1616C327.541 60.1616 324.745 57.5194 320.89 56.9239C320.852 56.8288 320.795 56.7021 320.725 56.55C320.725 56.55 320.725 56.5373 320.718 56.531C320.661 56.4106 320.598 56.2712 320.522 56.1255C320.522 56.1255 320.522 56.1128 320.516 56.1065C319.755 54.6048 317.992 51.8549 314.892 50.9932C314.575 50.9045 314.245 50.8412 313.915 50.7841C313.814 50.7651 313.719 50.7588 313.617 50.7461C313.376 50.7144 313.135 50.6891 312.888 50.6764C312.787 50.6764 312.685 50.6637 312.584 50.6637C312.292 50.6511 312.007 50.6574 311.715 50.6637C311.671 50.6637 311.626 50.6637 311.588 50.6637C311.24 50.6828 310.891 50.7144 310.549 50.7651C310.504 50.7651 310.46 50.7778 310.415 50.7841C310.111 50.8285 309.813 50.8792 309.515 50.9425C309.458 50.9552 309.401 50.9679 309.344 50.9806C309.021 51.0503 308.71 51.1326 308.399 51.2277C308.399 51.2277 308.387 51.2277 308.38 51.2277C307.695 51.4304 307.042 51.6775 306.44 51.9563C306.028 52.1464 305.628 52.3492 305.267 52.5646C305.223 52.5899 305.178 52.6216 305.134 52.647C304.944 52.761 304.766 52.8751 304.595 52.9954C304.532 53.0398 304.475 53.0842 304.411 53.1222C304.259 53.2299 304.119 53.3439 303.986 53.458C303.936 53.5023 303.885 53.5404 303.834 53.5847C303.663 53.7368 303.504 53.8888 303.365 54.0409C301.495 56.1318 301.52 61.2007 301.913 63.2663V63.279C301.913 63.317 301.9 64.7046 302.091 66.4534C301.59 66.1873 300.975 66.1049 300.296 66.5801C298.87 67.5812 299.352 71.7061 302.116 72.5551C301.926 77.5987 303.638 80.5957 306.167 82.205L306.034 82.1227C306.034 82.1227 294.114 83.7574 289.607 84.7838C289.568 84.7838 284.934 85.4365 282.163 87.7492C279.38 90.0745 268.392 106.625 267.701 111.687C266.737 114.424 271.854 125.316 279.716 133.331C279.373 134.89 280.071 137.317 281.833 139.167C283.051 140.44 285.758 140.675 287.559 140.174C287.559 140.339 287.559 140.504 287.559 140.669C287.628 145.953 287.755 149.603 287.755 149.603C288.085 149.66 288.408 149.71 288.732 149.761C288.909 160.361 289.702 180.884 290.913 200.437C290.469 225.978 289.004 245.424 289.004 245.424L290.811 245.532C290.716 246.539 290.659 247.09 290.659 247.09L289.277 247.92L292.605 256.753H301.399L302.338 255.232C302.338 255.232 300.074 254.218 299.218 253.439C298.356 252.66 296.34 247.021 296.34 247.021C296.429 246.729 296.536 246.349 296.676 245.88L299.51 246.051C299.51 246.051 304.246 227.904 308.146 200.741L315.095 232.999C315.018 232.999 314.949 232.98 314.879 232.98H312.064C307.531 232.967 303.841 238.289 303.821 244.873C303.809 251.253 307.258 256.449 311.601 256.772L311.734 256.785C311.823 256.785 311.912 256.804 312.007 256.804C312.089 256.804 312.165 256.791 312.248 256.785L314.822 256.804C318.639 256.81 321.847 253.04 322.779 247.927H323.172C323.223 248.617 323.261 249.112 323.28 249.371L322.735 256.759H339.53L340.399 255.074C333.722 253.642 328.771 249.593 328.771 249.593C328.771 249.593 328.821 249.01 328.91 247.927H331.491C331.503 247.718 331.516 247.515 331.522 247.312H353.764L353.942 248.009H354.03C354.924 252.907 357.917 256.557 361.531 256.816L361.664 256.829C361.753 256.829 361.842 256.848 361.937 256.848C362.019 256.848 362.095 256.835 362.178 256.829L364.752 256.848C369.285 256.861 372.975 251.532 372.994 244.955C372.994 244.771 372.982 244.6 372.975 244.423H373.001ZM309.693 179.579L310.967 184.046L313.269 183.564L315.621 183.07L314.898 184.717L315.133 186.396L309.071 187.67C309.274 184.844 309.483 182.126 309.693 179.579ZM361.125 102.664L360.998 102.677L361.125 102.652C361.125 102.652 361.125 102.658 361.125 102.664ZM319.076 82.5345C319.076 82.5345 319.038 82.5282 319.013 82.5218C319.298 82.4078 319.571 82.2937 319.837 82.167L319.07 82.5345H319.076ZM287.546 103.83L287.565 103.805L288.11 102.994C288.326 106.663 288.522 109.438 288.522 109.438C287.812 115.381 287.584 123.751 287.546 131.316C287.546 131.316 287.54 131.316 287.533 131.316H287.54C287.54 131.316 284.236 118.08 280.255 112.701C282.423 110.667 284.858 107.797 287.54 103.843L287.546 103.83ZM287.172 137.209L287.565 137.241V137.253L287.178 137.228C287.178 137.228 287.178 137.222 287.178 137.215L287.172 137.209ZM309.585 190.236L315.564 189.463L317.276 201.825C318.119 213.826 318.854 226.061 319.355 234.912C319.146 234.716 318.93 234.532 318.702 234.361L309.585 190.236Z" fill="#E4ECF9"/>
</g>
<path d="M240.165 256.55H236.931L233.545 204.239L237.85 203.605L240.165 256.55Z" fill="#AA7D35"/>
<path d="M289.638 204.233L285.91 257L240.165 256.544L237.61 204.233H289.638Z" fill="#BC9146"/>
<path d="M266.921 256.81L268.246 233.132L267.143 234.12L266.268 233.113L265.507 234.532L264.499 233.094L263.402 234.089L261.988 232.593L261.018 234.063L259.598 233.322L260.86 256.753L266.921 256.81Z" fill="#EDCC98"/>
<path d="M289.638 204.233L289.327 203.599H265.982V204.233H289.638Z" fill="#BC9146"/>
<path d="M237.61 204.233L237.851 203.599L265.646 203.32V204.233H237.61Z" fill="#BC9146"/>
<path d="M269.476 203.32L268.69 227.657L268.011 227.1L267.054 229.235L266.433 225.009L264.797 227.436L262.996 226.308L262.039 227.55L261.303 226.644L260.061 228.677V202.927L265.982 202.699V203.32H269.476Z" fill="#EDCC98"/>
<path d="M92.0549 117.295C92.0549 117.295 98.9659 113.22 95.8972 106.168C92.8285 99.1162 91.4336 110.173 91.4336 110.331" fill="#FFD1B8"/>
<path d="M26.3315 96.8162C26.6041 96.7021 36.0131 92.9955 41.022 91.0756C41.1551 94.5859 41.5355 101.321 42.512 105.155C42.55 105.3 42.588 105.421 42.6197 105.528L42.3281 111.301L37.7757 137.336L37.6933 148.652C36.1907 158.986 33.5087 180.605 32.1329 183.875C29.7045 189.622 17.6009 229.786 17.6009 229.786L21.069 235.901C21.069 235.901 41.3136 195.356 45.0417 187.543C49.0298 179.18 57.4561 148.773 57.4561 148.773C66.0662 182.272 69.3758 250.455 69.3758 250.455H75.7986C78.2586 182.804 74.6446 134.586 74.6446 134.586H74.5305C74.1755 132.394 71.5569 115.584 72.6284 102.455C74.5939 100.529 77.6626 99.2429 77.6626 95.7834C77.6626 93.5594 72.6918 88.2941 74.67 80.2725C74.67 80.2725 65.4195 76.8257 59.7196 76.3885C54.0196 75.9513 53.4173 75.6281 53.4173 75.6281C53.4173 75.6281 44.6994 76.4582 44.078 76.7053C44.078 76.7053 38.9487 77.8268 36.7803 78.7709C34.6119 79.715 18.6534 89.1558 17.8481 90.9109C17.8481 90.9109 14.1961 94.5225 17.1507 97.4371C20.1053 100.358 23.6559 97.9123 26.3378 96.8162H26.3315Z" fill="#FFD1B8"/>
<path d="M75.8175 249.618C75.8175 249.618 79.666 253.281 86.9891 255.568L86.3361 256.848H68.3169L69.2489 250.17L75.8175 249.618Z" fill="#587DF4"/>
<path d="M21.76 234.862C21.76 234.862 21.1957 240.14 23.827 247.337L22.4131 247.597L18.0256 245.069L11.457 233.303L17.3282 229.983L21.76 234.855V234.862Z" fill="#587DF4"/>
<path d="M18.2792 229.989C18.2792 229.989 12.5475 232.916 19.2873 231.827L18.2792 229.989Z" fill="#FFD1B8"/>
<path d="M75.3231 132.977C75.3231 132.977 79.8754 184.597 77.65 247.185C77.65 247.185 74.7905 248.465 67.3343 247.185C67.3343 247.185 63.5237 175.232 57.3356 152.878C57.3356 152.878 48.8586 183.938 46.6205 187.486C44.3823 191.035 23.8271 233.341 23.8271 233.341C23.8271 233.341 20.7774 232.226 17.6453 227.594C17.6453 227.594 30.8014 184.325 31.2833 181.929C31.7651 179.534 36.7106 144.831 37.8772 134.51" fill="#4760CA"/>
<path d="M53.2523 45.2083C53.2523 45.2083 47.9518 45.2717 45.9292 49.2065C43.9067 53.1475 46.4618 68.3669 39.4304 72.9416C39.4304 72.9416 52.3266 82.9464 66.2753 78.5808C66.2753 78.5808 85.8161 33.7526 53.2523 45.202V45.2083Z" fill="#A7501A"/>
<path d="M59.079 135.828C59.079 135.828 60.0111 142.025 60.2774 146.891L57.3354 147.847" stroke="#587DF4" stroke-miterlimit="10" stroke-linecap="round"/>
<path d="M78.3094 82.5028C76.2234 80.7921 74.6574 80.2662 74.6574 80.2662L71.4048 90.7081C71.4048 90.7081 71.4555 90.7651 71.4809 90.7905L70.7644 93.1792C81.2259 104.28 88.4222 110.071 92.7209 110.933C94.3504 111.617 95.5233 111.358 96.2588 109.983C98.8456 105.129 80.3953 84.2199 78.303 82.5092L78.3094 82.5028Z" fill="#FFD1B8"/>
<path d="M75.6781 89.9478C75.6781 89.9478 78.1635 87.5591 80.2241 83.5483C80.2241 83.5483 78.4995 81.375 75.285 80.2662C75.285 80.2662 72.4635 84.0805 75.6717 89.9478H75.6781Z" fill="white"/>
<path d="M75.5386 80.3612C75.4562 80.3295 75.3801 80.2979 75.2913 80.2662C75.2913 80.2662 72.4699 84.0805 75.6781 89.9478C75.6781 89.9478 75.8239 89.8084 76.0712 89.5423C73.5414 84.7965 74.9426 81.4194 75.5322 80.3612H75.5386Z" fill="#E5E4E3"/>
<path d="M75.3231 132.977L37.8772 134.523C37.8201 135.029 37.7504 135.606 37.6743 136.227C40.4894 137.222 48.6304 139.68 56.8918 138.242C65.4322 136.753 69.5217 134.814 75.4752 134.801C75.3801 133.61 75.3231 132.983 75.3231 132.983V132.977Z" fill="#587DF4"/>
<path d="M33.1853 80.2662C33.1853 80.2662 36.6661 84.1186 39.1325 91.798L40.8634 91.2974C40.8634 91.2974 40.6732 96.6768 42.3724 105.712C42.3724 105.712 40.7239 123.308 35.3664 134.795C35.3664 134.795 45.4031 138.983 55.6173 137.196C65.8379 135.41 69.6865 132.983 77.9733 133.984C77.9733 133.984 73.1039 109.571 73.2878 102.778C73.2878 102.778 78.0557 99.3063 77.9733 95.7707C77.8908 92.2351 72.9517 89.1875 75.2976 80.2535C75.2976 80.2535 66.9792 77.2438 61.2031 76.0907C55.4334 74.9375 46.7219 75.5648 42.3724 76.927C42.3724 76.927 35.7341 78.3147 33.1853 80.2535V80.2662Z" fill="white"/>
<path d="M50.9191 59.8512C50.9191 59.8512 49.8666 57.5575 48.1294 58.5206C46.3858 59.49 46.7599 64.9201 50.9191 64.73" fill="#FFD1B8"/>
<path style="mix-blend-mode:multiply" d="M50.9191 59.8512C50.9191 59.8512 49.8666 57.5575 48.1294 58.5206C46.3858 59.49 46.7599 64.9201 50.9191 64.73" fill="url(#paint0_linear_274_308)"/>
<path style="mix-blend-mode:multiply" d="M50.3549 60.3454C50.3549 60.3454 49.6194 58.736 48.4021 59.414C47.1784 60.0919 47.4447 63.8999 50.3549 63.7669" fill="url(#paint1_linear_274_308)"/>
<path d="M50.9191 59.8512C50.9191 59.8512 49.8666 57.5575 48.1294 58.5206C46.3858 59.49 46.7599 64.9201 50.9191 64.73" fill="#FFD1B8"/>
<path style="mix-blend-mode:multiply" d="M50.9191 59.8512C50.9191 59.8512 49.8666 57.5575 48.1294 58.5206C46.3858 59.49 46.7599 64.9201 50.9191 64.73" fill="url(#paint2_linear_274_308)"/>
<path style="mix-blend-mode:multiply" d="M50.3549 60.3454C50.3549 60.3454 49.6194 58.736 48.4021 59.414C47.1784 60.0919 47.4447 63.8999 50.3549 63.7669" fill="url(#paint3_linear_274_308)"/>
<path d="M68.615 59.8512C68.615 59.8512 69.6675 57.5575 71.4047 58.5206C73.142 59.49 72.7679 64.9201 68.615 64.73" fill="#FFD1B8"/>
<path style="mix-blend-mode:multiply" d="M68.615 59.8512C68.615 59.8512 69.6675 57.5575 71.4047 58.5206C73.142 59.49 72.7679 64.9201 68.615 64.73" fill="url(#paint4_linear_274_308)"/>
<path style="mix-blend-mode:multiply" d="M69.2046 60.3707C69.2046 60.3707 69.9274 58.793 71.1257 59.4583C72.324 60.1236 72.0641 63.8619 69.2046 63.7289" fill="url(#paint5_linear_274_308)"/>
<path d="M53.189 76.4898C53.189 78.9103 54.9769 80.2725 57.1897 80.2725C59.4025 80.2725 61.1904 78.9103 61.1904 76.4898V68.4176C61.1904 65.9972 59.3961 64.0393 57.1897 64.0393C54.9769 64.0393 53.189 65.9972 53.189 68.4176V76.4898Z" fill="#FFD1B8"/>
<path style="mix-blend-mode:multiply" d="M60.7086 66.314C61.0193 66.935 61.2031 67.6509 61.2031 68.4113V72.3967C59.7639 73.9934 56.4035 76.8637 53.1953 73.5372V68.4176C53.1953 67.2708 53.6011 66.2316 54.2605 65.4523L60.7086 66.3203V66.314Z" fill="url(#paint6_linear_274_308)"/>
<path style="mix-blend-mode:multiply" d="M58.464 62.3096L55.6108 61.9738C55.6108 61.9738 56.9677 65.5473 58.464 62.3096Z" fill="url(#paint7_linear_274_308)"/>
<path d="M53.189 76.4898C53.189 78.9103 54.9769 80.2725 57.1897 80.2725C59.4025 80.2725 61.1904 78.9103 61.1904 76.4898V68.4176C61.1904 65.9972 59.3961 64.0393 57.1897 64.0393C54.9769 64.0393 53.189 65.9972 53.189 68.4176V76.4898Z" fill="#FFCEBB"/>
<path style="mix-blend-mode:multiply" d="M60.7086 66.314C61.0193 66.935 61.2031 67.6509 61.2031 68.4113V72.3967C59.7639 73.9934 56.4035 76.8637 53.1953 73.5372V68.4176C53.1953 67.2708 53.6011 66.2316 54.2605 65.4523L60.7086 66.3203V66.314Z" fill="url(#paint8_linear_274_308)"/>
<path d="M50.0188 63.6972C50.0188 69.0639 58.4768 73.4232 61.8245 73.4232C65.1087 73.4232 68.6149 68.3669 69.4835 63.6972V54.9343C69.4835 49.5613 65.1278 45.2083 59.7512 45.2083C54.3746 45.2083 50.0188 49.5613 50.0188 54.9343V63.6972Z" fill="#FFCEBB"/>
<path d="M50.0187 61.5112C50.0187 61.5112 53.7658 59.7751 56.3717 53.1729C56.3717 53.1729 61.3679 58.2228 69.4835 58.2861C69.4835 58.2861 72.8438 44.5621 59.7511 44.5621C46.6583 44.5621 50.0187 61.5112 50.0187 61.5112Z" fill="#A7501A"/>
<path d="M54.2288 58.6917C53.208 59.2239 51.8449 59.4203 50.1584 59.2746C50.1013 59.2746 50.0379 59.2049 50.0189 59.1289C49.9998 59.0528 50.0379 58.9895 50.0949 58.9958C53.1003 59.2492 55.034 58.4255 55.8393 56.5437C56.8664 54.155 55.6808 50.8475 55.6681 50.8158C55.6364 50.7398 55.6617 50.6701 55.7125 50.6574C55.7695 50.6448 55.8393 50.7018 55.8646 50.7778C55.8773 50.8095 57.1073 54.2437 56.0422 56.7338C55.6681 57.6082 55.0594 58.2608 54.2225 58.698L54.2288 58.6917Z" fill="#A7501A"/>
<path d="M47.9836 95.777C47.9836 95.777 49.4356 104.046 59.8083 101.175C59.8083 101.175 48.4845 109.761 47.9836 95.777Z" fill="#E5E4E3"/>
<path d="M41.1678 97.4371C42.4549 93.5404 42.9494 90.5751 42.9494 90.5751L40.8571 91.2974C40.8571 91.2974 40.7811 93.496 41.1678 97.4371Z" fill="#E5E4E3"/>
<path d="M49.5242 75.6978C49.5242 75.7612 52.7958 86.3045 62.116 89.6817C66.1992 85.107 63.8723 80.2155 63.568 76.6419C62.7501 76.4392 61.9512 76.2554 61.1967 76.1034C57.8236 75.4254 53.4488 75.362 49.5242 75.6978Z" fill="#FFCEBB"/>
<path d="M60.4804 62.9115C60.4804 63.2664 60.2839 63.5515 60.0366 63.5515C59.7893 63.5515 59.5928 63.2664 59.5928 62.9115C59.5928 62.5567 59.7893 62.2716 60.0366 62.2716C60.2839 62.2716 60.4804 62.5567 60.4804 62.9115Z" fill="#54443E"/>
<path d="M66.2754 62.7151C66.2754 63.0382 66.0916 63.298 65.8696 63.298C65.6477 63.298 65.4639 63.0382 65.4639 62.7151C65.4639 62.392 65.6477 62.1322 65.8696 62.1322C66.0916 62.1322 66.2754 62.392 66.2754 62.7151Z" fill="#54443E"/>
<path d="M58.9651 60.1173C58.9651 60.1173 59.8844 58.4826 61.0257 59.4773L58.9651 60.1173Z" fill="#A7501A"/>
<path d="M65.4639 59.6421C65.4639 59.6421 66.231 58.8057 66.9919 60.1236L65.4639 59.6421Z" fill="#A7501A"/>
<path d="M60.4802 67.068C60.4802 67.068 61.6532 67.841 63.1622 67.4165" stroke="#E08073" stroke-width="0.5" stroke-miterlimit="10" stroke-linecap="round"/>
<path d="M62.5347 65.1482C62.5347 65.1482 63.7076 64.9898 64.0754 64.5653C64.0754 64.5653 63.6252 63.2854 63.6252 62.4363" stroke="#F78A63" stroke-width="0.75" stroke-miterlimit="10" stroke-linecap="round"/>
<path d="M69.8704 92.3809V126.387L90.7997 123.358L95.7515 92.6597L69.8704 92.3809Z" fill="#EFAD1B"/>
<path d="M69.8704 126.387L70.2698 126.666L96.1509 92.9321L95.7515 92.6597L78.2396 100.719" fill="#EFAD1B"/>
<path d="M70.2698 92.6597V126.666L91.1991 123.631L96.1509 92.9321L70.2698 92.6597Z" fill="#FFD261"/>
<path d="M22.3876 89.9478C22.3876 89.9478 29.2668 91.044 50.006 98.5966L46.9753 103.761C46.9753 103.761 19.4774 104.496 16.6433 96.8542C14.0818 89.9478 22.3876 89.9478 22.3876 89.9478Z" fill="#FFD1B8"/>
<path d="M49.5242 93.1729L63.923 108.076L65.47 110.471L62.9149 108.766L48.6428 94.0093C48.6428 94.0093 48.3892 93.1222 49.5242 93.1792V93.1729Z" fill="#7994FE"/>
<path d="M50.006 98.5966C50.006 98.5966 53.9877 99.1542 55.5728 99.7815C57.1579 100.409 61.1016 103.704 61.4756 104.61C61.8497 105.516 55.5728 102.373 55.5728 102.373C55.5728 102.373 53.937 108.386 46.9753 103.754" fill="#FFD1B8"/>
<path style="mix-blend-mode:multiply" d="M34.9669 93.42L28.075 91.3417L35.8355 93.0842L34.9669 93.42Z" fill="url(#paint9_linear_274_308)"/>
<path d="M92.2389 117.174C92.2389 117.174 89.7155 118.955 88.3206 117.998C86.9194 117.041 91.9156 116.484 91.9156 116.484C91.9156 116.484 86.7609 115.368 86.9257 114.126C87.0843 112.891 91.9156 115.045 91.9156 115.045C91.9156 115.045 88.961 112.929 88.999 111.655C89.0371 110.375 92.2389 112.853 92.2389 112.853C92.2389 112.853 90.4763 110.078 90.8758 109.393C91.2752 108.703 93.1456 111.579 93.1456 111.579L93.247 110.933C93.247 110.933 95.1998 115.248 92.2389 117.187V117.174Z" fill="#FFD1B8"/>
<path d="M57.3354 152.885L62.2238 151.18L57.7476 154.456L57.3354 152.885Z" fill="#587DF4"/>
<path style="mix-blend-mode:multiply" d="M254.323 235.559C254.323 235.559 254.05 235.204 253.555 234.564C254.063 233.924 254.323 233.493 254.323 233.493C247.101 224.363 239.271 213.205 233.59 204.866L235.105 228.272C242.022 234.412 247.577 239.24 247.577 239.24C247.982 239.069 248.363 238.872 248.737 238.67C249.155 239.031 249.567 239.392 249.98 239.747C249.98 239.747 252.82 245.113 254.323 252.888L255.527 253.496C255.527 253.496 259.002 251.069 261.487 248.345C261.487 248.345 261.291 242.687 259.997 237.231L254.323 235.559Z" fill="url(#paint10_linear_274_308)"/>
<path d="M73.4779 213.186L78.2585 213.141C78.2902 186.504 77.3075 163.935 76.4705 149.602H70.4282L73.4779 213.186Z" fill="#587DF4"/>
<path d="M73.4653 147.531L76.5214 211.114L125.646 210.658L128.201 147.531H73.4653Z" fill="#BC9146"/>
<path d="M97.5395 210.924L96.2144 189.279L97.3176 190.268L98.1925 189.254L98.9534 190.68L99.9615 189.241L101.058 190.23L102.472 188.741L103.442 190.204L104.863 189.463L103.601 210.867L97.5395 210.924Z" fill="#EDCC98"/>
<path d="M73.4652 147.531L73.3511 146.878L97.7993 144.198V145.503L73.4652 147.531Z" fill="#BC9146"/>
<path d="M128.201 147.531L128.379 146.891L98.8137 145.269V146.853L128.201 147.531Z" fill="#BC9146"/>
<path style="mix-blend-mode:multiply" d="M76.5212 211.114L125.728 210.924L126.248 195.78L76.2549 205.582L76.5212 211.114Z" fill="url(#paint11_linear_274_308)"/>
<path d="M133.483 129.549C133.483 129.549 130.693 128.503 130.141 128.776C129.59 129.042 129.032 130.556 129.032 130.556C129.032 130.556 123.991 130.271 124.169 131.215C124.34 132.159 125.31 133.325 125.31 133.325C125.31 133.325 124.752 134.396 125.101 135.486C125.449 136.569 126.984 136.905 126.984 136.905C126.984 136.905 127.136 137.754 127.497 138.438C127.859 139.123 129.767 138.837 129.767 138.837C129.767 138.837 130.16 139.807 130.744 139.858C131.327 139.908 136.773 134.7 136.773 134.7" fill="#FFC3A9"/>
<path d="M119.8 124.043L118.164 123.561L119.451 123.079L119.8 124.043Z" fill="#A09A92"/>
<path d="M136.171 119.842C136.539 124.1 133.387 127.857 129.127 128.231C124.866 128.605 121.106 125.449 120.732 121.191C120.358 116.933 123.516 113.176 127.776 112.809C132.037 112.435 135.797 115.59 136.171 119.848V119.842Z" fill="#EDCC98"/>
<path d="M120.98 121.445C120.605 117.187 123.763 113.429 128.024 113.056C130.376 112.853 132.576 113.721 134.136 115.261C132.563 113.569 130.262 112.58 127.776 112.796C123.516 113.17 120.358 116.921 120.732 121.179C120.897 123.086 121.747 124.765 123.015 126.013C121.886 124.797 121.138 123.212 120.98 121.432V121.445Z" fill="#FCEAD0"/>
<path d="M134.472 120.101C134.757 123.358 132.348 126.229 129.089 126.514C125.83 126.799 122.958 124.385 122.672 121.134C122.387 117.877 124.796 115.007 128.055 114.722C131.314 114.437 134.186 116.845 134.465 120.101H134.472Z" fill="#A87A31"/>
<path d="M134.351 120C134.636 123.257 132.221 126.127 128.968 126.412C125.709 126.697 122.837 124.283 122.552 121.033C122.266 117.776 124.676 114.906 127.935 114.621C131.194 114.336 134.066 116.75 134.351 120Z" fill="#BC9146"/>
<path d="M133.527 120.076C133.768 122.877 131.701 125.341 128.898 125.589C126.096 125.836 123.63 123.764 123.382 120.963C123.135 118.163 125.208 115.698 128.011 115.451C130.813 115.21 133.28 117.282 133.527 120.076Z" fill="#B2AAA1"/>
<path d="M123.503 121.058C123.255 118.258 125.329 115.793 128.131 115.546C129.501 115.425 130.794 115.863 131.783 116.674C130.781 115.806 129.437 115.324 128.011 115.451C125.208 115.698 123.135 118.163 123.382 120.963C123.509 122.389 124.213 123.624 125.24 124.467C124.276 123.631 123.617 122.439 123.496 121.065L123.503 121.058Z" fill="#93877C"/>
<g style="mix-blend-mode:multiply">
<path d="M128.695 119.493L124.2 123.992L121.512 121.229L120.802 121.704C121.423 125.696 125.037 128.586 129.12 128.231C129.494 128.199 129.856 128.129 130.211 128.047L128.233 121.869L129.45 120.545L128.689 119.5L128.695 119.493Z" fill="#EAE2D6"/>
</g>
<path d="M119.451 123.079C119.451 123.079 119.451 126.856 122.127 128.288L125.741 128.972L130.991 139.509C130.991 139.509 132.233 139.737 133.457 138.514L128.264 122.313L129.482 120.989L128.721 119.943L124.226 124.442L121.537 121.679L119.439 123.086L119.451 123.079Z" fill="#EAE2D6"/>
<path d="M131.099 139.218L125.849 128.681L122.235 127.996C119.933 126.767 119.61 123.808 119.566 123.003L119.451 123.079C119.451 123.079 119.451 126.856 122.127 128.288L125.741 128.972L130.991 139.509C130.991 139.509 132.233 139.737 133.457 138.514L133.406 138.362C132.233 139.414 131.092 139.224 131.092 139.224L131.099 139.218Z" fill="#F9F8F7"/>
<path d="M125.804 129.669C125.804 129.669 128.448 128.554 129.983 127.046L133.413 137.925C133.413 137.925 132.468 138.97 130.553 139.135" fill="#DF4200"/>
<path d="M128.277 122.306L126.914 123.593L128.372 122.604L128.277 122.306Z" fill="#D3CABE"/>
<path d="M124.238 124.435L123.585 125.101L121.271 121.857L121.55 121.673L124.238 124.435Z" fill="#D3CABE"/>
<path d="M128.892 120.887C128.905 121.052 128.784 121.191 128.626 121.204C128.461 121.217 128.321 121.096 128.309 120.938C128.296 120.773 128.417 120.634 128.575 120.621C128.734 120.608 128.879 120.729 128.892 120.887Z" fill="#B2AAA1"/>
<path d="M124.042 114.152L73.072 146.65L73.4651 156.262L73.8772 156.154L73.4651 146.872L122.222 115.913" fill="#FCEAD0"/>
<path d="M129.983 127.046C129.526 127.489 128.974 127.901 128.423 128.262C128.841 128.953 129.253 129.713 129.64 130.537C131.434 134.351 131.973 137.874 130.851 138.4C130.661 138.489 130.439 138.483 130.192 138.4L130.56 139.135C132.468 138.97 133.419 137.925 133.419 137.925L129.989 127.046H129.983Z" fill="#BF3606"/>
<path d="M173.585 142.69C173.585 142.69 156.39 185.807 155.014 192.39C153.638 198.98 151.73 229.698 151.945 248.864H158.983C158.983 248.864 169.534 198.08 172.038 192.39C174.542 186.701 192.365 159.753 193.614 158.258C193.614 158.258 205.401 201.369 206.757 203.168C208.108 204.961 229.132 225.592 246.143 240.266L250.487 236.072C250.487 236.072 221.036 197.941 220.351 194.044C219.666 190.154 216.927 143.887 216.927 143.887" fill="white"/>
<path d="M216.135 84.5938C216.135 84.5938 241.762 94.3007 244.939 99.3569C248.115 104.407 243.645 109.913 217.967 99.7878" fill="#FFC3A9"/>
<path d="M177.25 83.9411C177.25 83.9411 171.816 85.9813 170.244 87.8315C168.671 89.6753 155.718 117.491 158.99 120.57C162.255 123.65 169.641 124.017 176.781 104.077" fill="#FFC3A9"/>
<path style="mix-blend-mode:multiply" d="M172.697 113.385L173.065 112.701C173.141 112.549 173.23 112.397 173.312 112.232L173.94 93.8825L172.64 113.487C172.659 113.448 172.678 113.417 172.697 113.385Z" fill="url(#paint12_linear_274_308)"/>
<path d="M177.25 83.9411C177.25 83.9411 171.816 85.9813 170.244 87.8315C169.635 88.5475 167.315 93.1665 164.893 98.7296C166.56 99.0465 171.645 100.231 175.443 103.456C175.969 103.906 176.419 103.925 176.787 103.621L177.25 83.9411Z" fill="#FFD261"/>
<path d="M160.353 110.369C160.353 110.369 144.344 122.75 133.242 129.549L135.759 135.232C135.759 135.232 170.428 124.385 169.42 116.262C168.411 108.139 163.225 108.316 160.359 110.369H160.353Z" fill="#FFC3A9"/>
<path style="mix-blend-mode:multiply" d="M129.025 130.556C129.025 130.556 130.306 134.104 131.828 134.237C133.349 134.37 132.753 131.69 132.753 131.69C132.753 131.69 132.931 133.864 131.91 133.952C130.889 134.041 129.178 130.189 129.178 130.189L129.032 130.556H129.025Z" fill="url(#paint13_linear_274_308)"/>
<path style="mix-blend-mode:multiply" d="M160.6 110.369C160.6 110.369 162.566 109.704 165.59 111.022L160.6 110.369Z" fill="url(#paint14_linear_274_308)"/>
<path d="M124.746 130.74C124.746 130.74 128.467 129.644 129.437 130.74C130.407 131.836 128.055 133.483 128.055 133.483C128.055 133.483 129.881 132.413 130.617 133.122C131.352 133.838 129.704 135.695 129.704 135.695C129.704 135.695 131.986 134.339 132.512 135.086C133.039 135.834 131.352 137.089 131.352 137.089C131.352 137.089 133.248 136.056 133.635 136.411C134.021 136.765 133.159 138.286 131.745 139.205C131.745 139.205 131.175 139.617 130.737 139.851C130.3 140.086 129.761 138.831 129.761 138.831L124.746 130.74Z" fill="#FFC3A9"/>
<path d="M131.878 130.499C131.878 130.499 133.197 129.999 132.696 132.926C132.189 135.847 129.482 131.994 129.241 131.234C129 130.474 129.672 129.264 129.672 129.264C129.672 129.264 130.23 128.199 131.79 128.997" fill="#FFC3A9"/>
<path d="M215.812 110.857L218.462 85.8673C216.331 83.7003 201.058 81.9706 196.188 81.0202V80.659C196.188 80.659 195.846 80.7224 195.231 80.8364C194.622 80.7224 194.273 80.659 194.273 80.659V81.0202C189.404 81.9706 177.865 83.7003 175.734 85.8673L174.295 110.857C174.295 110.857 175.069 127.692 174.536 144.413C185.454 145.611 185.372 144.477 195.706 144.483L195.77 145.49H195.884C207.366 145.49 217.118 144.413 217.118 144.413C216.585 127.692 215.818 110.857 215.818 110.857H215.812Z" fill="#FFC3A9"/>
<path d="M199.143 81.2736C199.143 83.523 197.348 85.3478 195.136 85.3478C192.923 85.3478 191.129 83.523 191.129 81.2736V74.3229C191.129 72.0736 192.923 70.2487 195.136 70.2487C197.348 70.2487 199.143 72.0736 199.143 74.3229V81.2736Z" fill="#FFC3A9"/>
<path style="mix-blend-mode:multiply" d="M191.623 72.365C191.313 72.9479 191.135 73.6132 191.135 74.3165V78.0232C192.574 79.5058 195.935 82.1797 199.149 79.0813V74.3165C199.149 73.2521 198.743 72.2826 198.084 71.554L191.623 72.3587V72.365Z" fill="url(#paint15_linear_274_308)"/>
<path style="mix-blend-mode:multiply" d="M191.623 72.365C191.313 72.9479 191.135 73.6132 191.135 74.3165V78.0232C192.574 79.5058 195.935 82.1797 199.149 79.0813V74.3165C199.149 73.2521 198.743 72.2826 198.084 71.554L191.623 72.3587V72.365Z" fill="url(#paint16_linear_274_308)"/>
<path d="M186.323 61.6189C186.323 61.6189 185.771 58.9134 183.717 59.5217C181.663 60.1299 180.756 66.0225 185.163 66.8272" fill="#FFD1B8"/>
<path style="mix-blend-mode:multiply" d="M186.323 61.6189C186.323 61.6189 185.771 58.9134 183.717 59.5217C181.663 60.1299 180.756 66.0225 185.163 66.8272" fill="url(#paint17_linear_274_308)"/>
<path style="mix-blend-mode:multiply" d="M185.581 62.0308C185.581 62.0308 185.207 60.1743 183.793 60.5861C182.379 61.0043 181.751 65.0531 184.782 65.6107" fill="url(#paint18_linear_274_308)"/>
<path d="M204.881 65.9211C204.881 65.9211 206.536 63.7288 208.133 65.1862C209.731 66.6435 208.032 72.3523 203.714 71.1294" fill="#FFD1B8"/>
<path style="mix-blend-mode:multiply" d="M204.881 65.9211C204.881 65.9211 206.536 63.7288 208.133 65.1862C209.731 66.6435 208.032 72.3523 203.714 71.1294" fill="url(#paint19_linear_274_308)"/>
<path style="mix-blend-mode:multiply" d="M205.35 66.5928C205.35 66.5928 206.504 65.0531 207.626 66.0796C208.742 67.0997 207.557 71.0978 204.532 70.2487" fill="url(#paint20_linear_274_308)"/>
<path d="M204.906 70.2487C203.613 75.983 195.884 79.075 192.365 78.2576C188.916 77.4593 183.203 71.2435 184.49 65.5093L186.589 56.1635C187.876 50.4293 193.487 46.8431 199.124 48.1546C204.76 49.4599 208.286 55.1687 206.998 60.9029L204.9 70.2487H204.906Z" fill="#FFC3A9"/>
<path style="mix-blend-mode:multiply" d="M192.802 89.0988C192.802 89.0988 192.986 91.3798 194.527 89.2318L192.802 89.0988Z" fill="url(#paint21_linear_274_308)"/>
<path d="M219.058 148.671C217.53 136.17 216.877 110.863 216.877 110.863L219.305 86.1398C217.352 84.0045 203.378 81.6664 203.378 81.6664C203.378 81.6664 200.309 90.3343 193.227 92.3809C188.333 87.9582 187.172 81.6664 187.172 81.6664C187.172 81.6664 176.039 83.3392 174.878 85.3414C174.067 86.7354 173.369 111.573 173.369 111.573C172.875 116.572 170.859 145.256 170.859 145.256C170.859 145.256 189.62 143.735 219.064 148.671H219.058Z" fill="#FFD261"/>
<path d="M181.022 109.02C181.022 109.02 195.275 109.159 207.709 111.719L181.022 109.02Z" fill="#EFB229"/>
<path d="M173.655 102.138L173.94 93.8825L173.407 101.974C173.49 102.031 173.572 102.081 173.655 102.138Z" fill="#EFB229"/>
<path d="M186.443 56.8351L187.166 57.1393C187.166 57.1393 185.581 60.6622 185.277 62.0244C185.277 62.0244 186.012 56.8795 186.437 56.8351H186.443Z" fill="#210F00"/>
<path d="M216.135 84.5938L217.967 99.7815C217.967 99.7815 221.746 101.53 223.483 102.132C223.794 100.542 225.969 92.1464 229.094 89.4029C222.557 86.4946 216.135 84.5938 216.135 84.5938Z" fill="#FFD261"/>
<path d="M217.967 99.7815L216.452 99.0591C216.452 99.0591 216.902 100.497 217.796 101.524" fill="#EFB229"/>
<path style="mix-blend-mode:multiply" d="M236.741 105.256C236.741 105.256 236.994 103.501 238.282 101.834C238.282 101.834 236.83 102.69 236.24 105.193" fill="url(#paint22_linear_274_308)"/>
<path d="M203.378 81.6728C203.378 81.6728 200.31 90.3406 193.227 92.3872C192.105 91.3734 191.179 90.2583 190.419 89.1431L187.616 94.307C187.616 94.307 187.914 95.5172 188.561 96.5817C188.561 96.5817 191.294 93.7051 193.227 92.742C193.227 92.742 197.799 94.6112 200.531 98.3495C200.531 98.3495 204.532 91.6269 204.748 81.9136C203.898 81.7552 203.378 81.6728 203.378 81.6728Z" fill="#EFB229"/>
<path d="M193.227 92.3872C193.227 92.3872 190.051 93.6481 187.217 96.1255C187.217 96.1255 184.731 86.3742 186.374 81.1722L191.129 80.659L191.141 81.5714L187.363 82.3317C187.363 82.3317 188.555 88.0913 193.227 92.3872Z" fill="white"/>
<path d="M193.227 92.3872C193.227 92.3872 197.501 93.8508 200.576 96.9302C200.576 96.9302 204.304 89.7577 204.202 81.3243L199.143 80.5196L199.086 81.5777L202.909 82.281C202.909 82.281 200.176 89.0987 193.221 92.3808L193.227 92.3872Z" fill="white"/>
<path d="M193.227 95.815C193.227 96.2459 192.936 96.6007 192.581 96.6007C192.225 96.6007 191.934 96.2459 191.934 95.815C191.934 95.3842 192.219 95.0294 192.581 95.0294C192.942 95.0294 193.227 95.3778 193.227 95.815Z" fill="white"/>
<path d="M193.417 100.738C193.417 101.175 193.126 101.524 192.771 101.524C192.416 101.524 192.124 101.169 192.124 100.738C192.124 100.307 192.416 99.9525 192.771 99.9525C193.126 99.9525 193.417 100.307 193.417 100.738Z" fill="white"/>
<path d="M195.041 66.2506C194.984 66.6308 195.148 66.9729 195.402 67.011C195.662 67.049 195.916 66.7765 195.979 66.3964C196.036 66.0162 195.871 65.674 195.611 65.636C195.351 65.598 195.098 65.8705 195.041 66.2506Z" fill="#54443E"/>
<path d="M188.941 65.0721C188.89 65.4206 189.036 65.7247 189.271 65.7628C189.505 65.8008 189.74 65.5473 189.791 65.2052C189.842 64.8567 189.696 64.5462 189.461 64.5082C189.227 64.4702 188.992 64.7236 188.941 65.0658V65.0721Z" fill="#54443E"/>
<path d="M197.101 63.7986C196.981 63.7986 196.867 63.7225 196.822 63.6021C196.733 63.3677 196.41 62.7278 195.947 62.5693C195.713 62.4933 195.465 62.5377 195.193 62.7214C195.06 62.8101 194.869 62.7721 194.781 62.6264C194.692 62.487 194.73 62.2969 194.869 62.2082C195.307 61.9294 195.732 61.8597 196.137 61.9928C196.962 62.2715 197.368 63.3424 197.38 63.3867C197.437 63.5451 197.361 63.7162 197.209 63.7796C197.171 63.7922 197.139 63.7986 197.101 63.7986Z" fill="#210F00"/>
<path d="M188.605 62.4616C188.542 62.4616 188.472 62.4426 188.421 62.3983C188.295 62.2969 188.276 62.1068 188.377 61.9737C188.789 61.4478 189.227 61.1944 189.658 61.2071C190.216 61.2324 190.533 61.7076 190.552 61.733C190.641 61.8724 190.603 62.0624 190.469 62.1511C190.336 62.2398 190.152 62.2082 190.057 62.0688C190.051 62.0624 189.88 61.8217 189.632 61.8153C189.392 61.8153 189.125 61.9927 188.846 62.3539C188.789 62.4299 188.7 62.4679 188.612 62.4679L188.605 62.4616Z" fill="#210F00"/>
<path d="M194.362 70.7239C194.362 70.7239 192.987 71.3639 191.465 70.6542C191.465 70.6542 192.467 73.9364 194.362 70.7239Z" fill="white"/>
<path d="M192.505 68.5443C192.505 68.5443 192.46 68.5443 192.441 68.5316C192.308 68.4936 191.135 68.1261 190.78 67.5495L190.71 67.4355L190.774 67.3214C190.774 67.3214 191.446 66.0415 191.572 65.1735C191.591 65.0468 191.699 64.9644 191.826 64.9834C191.947 65.0024 192.029 65.1165 192.016 65.2432C191.896 66.0225 191.414 67.0426 191.23 67.4038C191.534 67.727 192.283 68.0121 192.568 68.0944C192.688 68.1325 192.752 68.2529 192.72 68.3796C192.688 68.481 192.6 68.5443 192.505 68.5443Z" fill="#F78A63"/>
<path d="M151.946 248.864C151.946 248.864 146.886 253.813 140.33 254.523L141.427 256.848H159.903L158.99 248.864H151.952H151.946Z" fill="#587DF4"/>
<path d="M156.251 248.212C156.251 248.212 157.81 254.649 158.337 248.212H156.251Z" fill="white"/>
<path d="M246.144 240.273C246.144 240.273 248.984 245.633 250.487 253.414L251.691 254.016C251.691 254.016 255.166 251.589 257.651 248.864C257.651 248.864 257.455 243.206 256.161 237.751L250.487 236.078L246.144 240.273Z" fill="#587DF4"/>
<path d="M248.825 236.883C248.825 236.883 255.901 240.431 249.865 236.078L248.825 236.883Z" fill="white"/>
<path d="M180.991 115.951C180.452 98.4255 181.339 85.0309 181.504 82.7499C180.585 82.959 179.653 83.1935 178.79 83.4469C178.651 94.8646 179.894 115.958 179.894 115.958H180.991V115.951Z" fill="#EFB229"/>
<path d="M215.907 84.5177C214.981 84.2136 213.941 83.9284 212.87 83.6497C207.011 102.728 203.955 117.238 203.955 117.238L205.014 117.662C208.539 102.981 214.658 87.5844 215.9 84.5177H215.907Z" fill="#EFB229"/>
<path d="M205.293 68.5443C205.293 68.5443 204.202 65.2432 204.748 60.5228C204.748 60.5228 200.557 61.0994 199.599 57.1583C198.642 53.2109 186.24 60.8776 183.476 56.0875C180.712 51.2974 188.935 49.5549 188.935 49.5549C188.935 49.5549 187.027 48.313 187.819 47.5274C188.612 46.7353 190.076 49.4409 190.076 49.4409C190.076 49.4409 191.034 44.0298 195.998 43.8651C200.963 43.694 202.142 48.7692 202.142 48.7692C202.142 48.7692 209.503 52.3745 208.723 54.8519C208.723 54.8519 209.807 54.7379 210.086 55.1307C210.365 55.5236 208.723 55.5236 208.723 55.5236C208.723 55.5236 209.706 55.9988 210.118 56.8351C210.536 57.6652 208.723 56.4867 208.723 56.4867C208.723 56.4867 209.414 57.2153 209.465 58.0073C209.522 58.793 206.948 64.6919 206.948 64.6919L206.288 64.825C206.288 64.825 206.054 66.8526 205.293 68.5443Z" fill="#210F00"/>
<path d="M219.058 148.671C218.614 145.053 218.246 140.371 217.948 135.536C214.924 134.96 211.126 134.326 211.126 134.326C210.898 130.385 209.775 117.877 209.775 117.877C194.781 115.622 178.879 115.172 178.879 115.172C178.201 118.441 176.286 130.499 176.286 130.499C174.707 130.835 172.063 131.963 172.063 131.963L171.138 141.258C170.966 143.704 170.852 145.262 170.852 145.262C170.852 145.262 189.613 143.742 219.058 148.677V148.671Z" fill="#EFB229"/>
<path d="M171.074 131.361C171.074 131.361 173.718 130.233 175.297 129.897C175.297 129.897 177.212 117.839 177.89 114.57C177.89 114.57 193.792 115.02 208.786 117.276C208.786 117.276 209.915 129.783 210.137 133.724C210.137 133.724 215.387 134.599 218.455 135.232C218.455 135.232 220.44 167.401 221.638 193.22C221.638 193.22 237.109 217.108 250.487 234.012C250.487 234.012 248.134 237.903 243.734 239.759C243.734 239.759 206.016 206.97 204.665 203.586C203.315 200.209 191.306 162.173 191.306 162.173C191.306 162.173 176.083 187.423 173.376 192.093C170.669 196.762 160.524 248.205 160.524 248.205C160.524 248.205 155.56 248.32 150.938 247.078C150.938 247.078 152.402 197.497 153.588 192.593C154.773 187.689 169.432 147.803 169.432 147.803L171.074 131.348V131.361Z" fill="#4760CA"/>
<path d="M191.306 162.18L183.444 158.118L189.709 164.835L191.306 162.18Z" fill="#587DF4"/>
<path d="M180.819 119.728C180.819 119.728 178.873 130.651 178.283 138.261C178.283 138.261 188.941 139.275 205.768 141.385C205.768 141.385 205.515 127.527 204.925 121.438C204.925 121.438 192.156 119.785 180.826 119.728H180.819Z" fill="#587DF4"/>
<path d="M188.688 137.5C188.688 137.5 187.756 142.861 187.673 148.671C187.673 148.671 188.859 149.077 191.313 150.008" stroke="#587DF4" stroke-miterlimit="10" stroke-linecap="round"/>
<path d="M208.305 145.49C208.305 145.49 210.162 152.289 217.27 152.371" stroke="#587DF4" stroke-miterlimit="10" stroke-linecap="round"/>
<path d="M211.037 203.802C211.037 203.802 209.446 204.942 206.821 204.74L211.037 203.802Z" fill="#587DF4"/>
<path d="M179.386 115.951C179.386 115.951 178.118 94.4021 178.29 83.0794C178.29 83.0794 179.285 82.7436 181.029 82.4014C181.029 82.4014 179.9 96.6831 180.49 115.951H179.393H179.386Z" fill="#7994FE"/>
<path d="M203.15 117.218C203.15 117.218 206.276 102.341 212.286 82.9083L215.33 83.9411C215.33 83.9411 208.152 101.245 204.215 117.643" fill="#7994FE"/>
<g style="mix-blend-mode:multiply">
<path d="M218.462 135.232C218.291 135.194 218.107 135.162 217.923 135.124C217.2 123.358 216.877 110.87 216.877 110.87L218.487 94.4655L180.452 99.395V98.736L166.7 94.7126C166.509 95.1244 166.319 95.5426 166.123 95.9735L180.008 99.6548L190.831 143.761L218.741 139.864C218.563 136.937 218.462 135.238 218.462 135.238V135.232Z" fill="#EAE2D6"/>
</g>
<path d="M181.529 96.3853L192.403 140.688L237.711 134.358L235.815 89.3585L181.529 96.3853Z" fill="#BC9146"/>
<path d="M181.529 96.3853L161.805 91.3417L162.527 89.9604L182.024 95.663L181.529 96.3853Z" fill="#BC9146"/>
<path d="M235.815 89.3585L239.626 65.8198L238.186 65.3763L234.617 88.972L235.815 89.3585Z" fill="#BC9146"/>
<path d="M211.208 138.064L206.853 114.747L208.07 115.59L208.805 114.475L209.744 115.787L210.562 114.234L211.779 115.071L212.99 113.411L214.138 114.741L215.45 113.822L217.213 137.222L211.208 138.064Z" fill="#EDCC98"/>
<path d="M242.333 100.909C242.333 100.909 240.285 101.606 236.792 105.085C235.187 110.61 233.254 115.768 233.254 115.768L238.015 120.399C238.015 120.399 246.188 112.048 247.893 103.032C247.893 103.032 246.67 99.2873 239.499 95.1371" fill="#FFC3A9"/>
<path d="M233.805 115.115C233.805 115.115 228.67 112.314 227.833 113.848C226.996 115.381 232.062 116.674 232.062 116.674C232.062 116.674 223.287 120.754 224.472 122.129C225.664 123.504 232.277 119.157 232.277 119.157C232.277 119.157 226.273 125.006 227.269 126.159C228.264 127.312 233.419 120.653 233.419 120.653C233.419 120.653 230.432 127.578 231.314 128.592C232.195 129.612 234.959 121.711 234.959 121.711C234.959 121.711 234.338 128.326 235.39 128.643C236.443 128.959 238.288 119.202 238.288 119.202" fill="#FFC3A9"/>
<path d="M83.4258 211.431L88.5044 256.759L134.25 256.303L138.162 211.431H83.4258Z" fill="#BC9146"/>
<path d="M107.5 256.569L106.175 232.891L107.272 233.886L108.147 232.872L108.907 234.298L109.916 232.853L111.019 233.848L112.433 232.352L113.396 233.822L114.823 233.081L113.555 256.512L107.5 256.569Z" fill="#EDCC98"/>
<path d="M83.4258 211.431L83.7365 210.797H108.432V211.431H83.4258Z" fill="#BC9146"/>
<path d="M138.162 211.431L137.921 210.797L108.768 210.518V211.431H138.162Z" fill="#BC9146"/>
<path d="M104.938 210.518L105.725 227.423L106.403 226.859L107.36 229.001L107.982 224.774L109.618 227.195L111.418 226.067L112.382 227.309L113.111 226.409L114.354 228.437V210.125L108.432 209.897V210.518H104.938Z" fill="#EDCC98"/>
<path style="mix-blend-mode:multiply" d="M88.5044 256.759L134.25 256.303L134.833 249.637L88.3269 255.163L88.5044 256.759Z" fill="url(#paint23_linear_274_308)"/>
<path d="M302.122 246.273C302.122 246.273 298.172 251.887 299.884 246.729L302.122 246.273Z" fill="white"/>
<path d="M298.781 78.3146C298.781 78.3146 293.943 78.9799 291.052 81.394C288.167 83.8081 276.761 100.979 276.044 106.238C275.322 111.497 283.786 119.481 299.497 93.5657" fill="#FFD261"/>
<path d="M343.334 78.3146C343.334 78.3146 348.172 78.9799 351.063 81.394C353.948 83.8081 365.354 100.979 366.07 106.238C366.793 111.497 358.329 119.481 342.618 93.5657" fill="#FFD261"/>
<path d="M299.985 104.648L298.901 79.8923C301.051 77.7444 316.445 76.0273 321.359 75.0896V74.7284C321.359 74.7284 321.707 74.7918 322.329 74.9058C322.944 74.7918 323.299 74.7284 323.299 74.7284V75.0896C328.206 76.0336 343.778 77.7444 345.927 79.8923L345.547 104.648C345.547 104.648 350.435 136.918 343.791 143.298C343.791 143.298 333.963 144.356 322.392 144.369H322.278C310.707 144.363 300.873 143.298 300.873 143.298C294.691 138.768 299.998 104.648 299.998 104.648H299.985Z" fill="#FFD1B8"/>
<path d="M298.286 133.135L347.164 131.088C347.855 148.513 339.435 249.327 339.435 249.327H333.76C333.76 249.327 327.16 160.995 322.741 153.087C322.196 153.125 321.783 153.075 321.485 152.999C319.292 156.648 317.941 179.921 315.17 202.433C312.362 225.294 305.571 247.388 305.571 247.388L299.897 246.742C299.897 246.742 302.097 226.751 301.044 202.813C299.814 174.909 297.925 142.519 298.299 133.141L298.286 133.135Z" fill="white"/>
<path d="M347.379 141.207C347.379 141.207 346.048 180.675 342.244 247.591H330.356C330.356 247.591 325.734 157.599 322.563 156.832C321.061 156.471 319.412 176.69 318.093 198.137C314.036 226.606 309.065 245.652 309.065 245.652L298.166 245.006C298.166 245.006 299.688 224.825 300.144 198.321C298.565 172.894 297.678 145.877 297.862 139.528" fill="#4760CA"/>
<path d="M322.506 149.812C322.506 149.812 322.544 149.812 322.563 149.805L324.326 149.425L324.389 149.33C324.795 148.677 324.954 142.785 324.985 141.613C324.985 141.461 324.871 141.34 324.725 141.34C324.579 141.34 324.453 141.454 324.453 141.6C324.377 144.781 324.186 148.266 323.977 148.956L322.455 149.286C322.31 149.317 322.221 149.457 322.246 149.603C322.272 149.729 322.386 149.812 322.506 149.812Z" fill="#587DF4"/>
<path d="M322.31 147.841C322.31 147.841 322.329 147.841 322.335 147.841C322.481 147.828 322.589 147.695 322.576 147.55L321.993 141.682C321.98 141.537 321.847 141.423 321.701 141.442C321.555 141.454 321.448 141.587 321.46 141.733L322.044 147.6C322.056 147.74 322.177 147.841 322.31 147.841Z" fill="#587DF4"/>
<path d="M317.497 75.3367C317.497 77.567 319.716 79.3728 322.455 79.3728C325.188 79.3728 327.407 77.567 327.407 75.3367V68.4493C327.407 66.219 325.188 64.4132 322.455 64.4132C319.716 64.4132 317.497 66.219 317.497 68.4493V75.3367Z" fill="#FFD1B8"/>
<path style="mix-blend-mode:multiply" d="M326.799 66.5104C327.185 67.087 327.407 67.746 327.407 68.4429V72.1179C325.619 73.5879 321.466 76.2364 317.497 73.1634V68.4429C317.497 67.3848 317.998 66.428 318.816 65.7057L326.799 66.5041V66.5104Z" fill="url(#paint24_linear_274_308)"/>
<path style="mix-blend-mode:multiply" d="M326.799 68.0945C327.185 68.671 327.407 69.33 327.407 70.027V73.7019C325.619 75.1719 321.466 77.8204 317.497 74.7474V70.027C317.497 68.9688 317.998 68.0121 318.816 67.2898L326.799 68.0881V68.0945Z" fill="url(#paint25_linear_274_308)"/>
<path d="M331.3 58.6093C331.3 58.6093 332.163 56.0431 334.128 56.8795C336.094 57.7159 336.303 63.5515 331.852 63.8112" fill="#FFD1B8"/>
<path style="mix-blend-mode:multiply" d="M331.3 58.6093C331.3 58.6093 332.163 56.0431 334.128 56.8795C336.094 57.7159 336.303 63.5515 331.852 63.8112" fill="url(#paint26_linear_274_308)"/>
<path style="mix-blend-mode:multiply" d="M331.991 59.0972C331.991 59.0972 332.587 57.3357 333.938 57.906C335.288 58.4826 335.434 62.4933 332.372 62.6707" fill="url(#paint27_linear_274_308)"/>
<path d="M313.002 60.5355C313.002 60.5355 311.62 58.2101 309.876 59.433C308.126 60.6558 309.141 66.4091 313.547 65.7374" fill="#FFD1B8"/>
<path style="mix-blend-mode:multiply" d="M313.002 60.5355C313.002 60.5355 311.62 58.2101 309.876 59.433C308.126 60.6558 309.141 66.4091 313.547 65.7374" fill="url(#paint28_linear_274_308)"/>
<path style="mix-blend-mode:multiply" d="M312.457 61.1247C312.457 61.1247 311.493 59.49 310.27 60.3517C309.046 61.2071 309.75 65.2432 312.844 64.768" fill="url(#paint29_linear_274_308)"/>
<path d="M312.47 64.7363C313.338 72.9923 320.363 74.3926 323.939 74.0124C327.445 73.6449 334.179 71.6427 333.221 62.5503L332.239 53.2172C331.636 47.4893 326.501 43.3392 320.769 43.9411C315.037 44.543 310.884 49.6753 311.487 55.4032L312.47 64.7426V64.7363Z" fill="#FFD1B8"/>
<path style="mix-blend-mode:multiply" d="M323.096 81.2799C323.096 81.2799 324.091 83.3012 324.713 80.754L323.096 81.2799Z" fill="url(#paint30_linear_274_308)"/>
<path d="M339.429 249.327C339.429 249.327 344.564 253.521 351.494 255.01L350.594 256.759H333.164L333.729 249.086L339.422 249.321L339.429 249.327Z" fill="#587DF4"/>
<path d="M305.02 142.506V139.769L342.161 141.03L342.199 142.506C320.173 145.104 305.02 142.506 305.02 142.506Z" fill="#587DF4"/>
<path d="M334.464 76.8827C334.464 76.8827 334.477 91.8676 323.907 92.8117C313.338 93.7621 311.265 76.6736 311.265 76.6736L305.07 77.7951V141.638C305.07 141.638 320.217 144.236 342.25 141.638L340.696 77.8394L334.464 76.8763V76.8827Z" fill="white"/>
<path style="mix-blend-mode:multiply" d="M330.165 76.173C330.165 76.173 324.947 81.1026 314.644 77.2882L308.608 78.7328L311.087 150.287C311.087 150.287 304.29 150.414 298.115 148.582L297.918 145.737L304.557 78.6948L307.765 76.9714L316.591 75.5521C316.591 75.5521 327.547 75.2543 330.165 76.1667V76.173Z" fill="url(#paint31_linear_274_308)"/>
<path style="mix-blend-mode:multiply" d="M337.843 77.4339L337.114 147.993L347.176 146.758L347.259 144.686L337.843 77.4339Z" fill="url(#paint32_linear_274_308)"/>
<path d="M329.214 76.0273L337.844 77.4339C337.844 77.4339 338.896 112.574 339.194 145.573C339.194 145.573 345.946 144.92 349.611 144.369C349.611 144.369 348.292 114.285 346.384 105.218C346.384 105.218 347.874 80.0507 347.278 79.3728C346.676 78.7011 330.203 75.5584 330.203 75.5584L329.214 76.0273Z" fill="#FFD261"/>
<path d="M316.375 75.8879L307.702 77.2818C307.702 77.2818 307.112 123.567 309.065 146.593C309.065 146.593 303.866 146.739 296.872 145.566C296.872 145.566 295.947 118.055 297.64 103.868C297.64 103.868 295.902 79.7149 297.075 78.8342C298.248 77.9535 315.83 75.5457 315.83 75.5457L316.375 75.8816V75.8879Z" fill="#FFD261"/>
<path d="M305.07 92.8117C305.07 93.2236 305.368 93.5594 305.73 93.5594C306.091 93.5594 306.389 93.2236 306.389 92.8117C306.389 92.3999 306.091 92.0641 305.73 92.0641C305.368 92.0641 305.07 92.3999 305.07 92.8117Z" fill="white"/>
<path d="M305.07 102.696C305.07 103.108 305.368 103.444 305.73 103.444C306.091 103.444 306.389 103.108 306.389 102.696C306.389 102.284 306.091 101.948 305.73 101.948C305.368 101.948 305.07 102.284 305.07 102.696Z" fill="white"/>
<path d="M305.178 113.651C305.178 114.063 305.476 114.399 305.838 114.399C306.199 114.399 306.497 114.063 306.497 113.651C306.497 113.239 306.199 112.904 305.838 112.904C305.476 112.904 305.178 113.239 305.178 113.651Z" fill="white"/>
<path d="M305.73 124.695C305.73 125.107 306.028 125.443 306.389 125.443C306.751 125.443 307.049 125.107 307.049 124.695C307.049 124.283 306.751 123.948 306.389 123.948C306.028 123.948 305.73 124.283 305.73 124.695Z" fill="white"/>
<path d="M305.73 136.335C305.73 136.746 306.028 137.082 306.389 137.082C306.751 137.082 307.049 136.746 307.049 136.335C307.049 135.923 306.751 135.587 306.389 135.587C306.028 135.587 305.73 135.923 305.73 136.335Z" fill="white"/>
<path d="M312.172 61.9167C312.172 61.9167 314.327 64.2357 317.212 65.9592C317.212 65.9592 320.991 63.0952 325.93 63.2346C326.9 63.1142 327.579 62.5757 327.579 62.5757C327.579 62.5757 330.971 62.3032 333.298 63.8049C333.298 63.8049 337.33 71.0027 331.706 74.7284C326.082 78.454 308.78 80.7794 312.172 61.9167Z" fill="#D86525"/>
<path style="mix-blend-mode:multiply" d="M336.937 105.63C336.937 105.63 324.992 102.449 309.128 106.238C309.128 106.238 324.383 101.258 336.937 105.63Z" fill="url(#paint33_linear_274_308)"/>
<path d="M297.208 97.1837L297.449 86.7861L296.619 98.0644L297.208 97.1837Z" fill="#EFB229"/>
<path d="M347.519 100.903L347.164 90.0112L346.688 99.7688L347.519 100.903Z" fill="#EFB229"/>
<path d="M323.717 61.4225C323.774 61.7837 323.616 62.1131 323.368 62.1512C323.121 62.1892 322.874 61.9294 322.817 61.5619C322.76 61.2007 322.918 60.8713 323.166 60.8333C323.413 60.7952 323.66 61.055 323.711 61.4225H323.717Z" fill="#54443E"/>
<path d="M329.557 60.2947C329.607 60.6305 329.468 60.9219 329.24 60.96C329.011 60.998 328.789 60.7572 328.739 60.4214C328.688 60.0919 328.827 59.7941 329.056 59.7561C329.284 59.7244 329.506 59.9589 329.557 60.2947Z" fill="#54443E"/>
<path d="M321.739 59.0718C321.853 59.0718 321.961 59.0021 322.005 58.8817C322.088 58.6599 322.398 58.0453 322.848 57.8933C323.07 57.8172 323.311 57.8679 323.571 58.039C323.704 58.1277 323.882 58.0834 323.964 57.9503C324.047 57.8172 324.009 57.6335 323.876 57.5511C323.457 57.285 323.051 57.2153 322.658 57.3484C321.866 57.6208 321.479 58.6409 321.466 58.679C321.409 58.831 321.485 58.9958 321.631 59.0528C321.663 59.0655 321.695 59.0718 321.733 59.0718H321.739Z" fill="#D86525"/>
<path d="M329.88 57.7919C329.943 57.7919 330.007 57.7729 330.057 57.7285C330.178 57.6272 330.197 57.4434 330.102 57.323C329.709 56.8161 329.284 56.5754 328.872 56.588C328.339 56.6134 328.029 57.0696 328.016 57.0886C327.927 57.2216 327.965 57.4054 328.098 57.4878C328.225 57.5765 328.403 57.5385 328.491 57.4117C328.498 57.4054 328.656 57.1773 328.897 57.1646C329.132 57.1646 329.379 57.3357 329.652 57.6778C329.709 57.7475 329.791 57.7856 329.874 57.7856L329.88 57.7919Z" fill="#D86525"/>
<path d="M326.146 63.6212C326.146 63.6212 326.184 63.6212 326.209 63.6148C326.336 63.5768 327.458 63.2283 327.8 62.6707L327.864 62.563L327.8 62.449C327.8 62.449 327.16 61.2261 327.033 60.3961C327.014 60.2757 326.906 60.1933 326.786 60.2123C326.672 60.2313 326.589 60.339 326.608 60.4594C326.723 61.2071 327.192 62.1829 327.363 62.525C327.071 62.8355 326.355 63.1079 326.082 63.1903C325.968 63.2283 325.905 63.3424 325.936 63.4628C325.962 63.5578 326.051 63.6212 326.146 63.6212Z" fill="#F78A63"/>
<path d="M331.3 49.5929C331.3 49.5929 329.5 44.4987 325.004 43.2441C320.509 41.9896 314.999 44.2452 313.053 46.4185C311.106 48.5855 311.138 53.8635 311.55 55.9988L319.159 53.8508C319.159 53.8508 324.763 48.7756 331.3 49.5929Z" fill="#4760CA"/>
<path d="M324.681 43.3899C321.891 42.6105 318.708 43.1871 316.236 44.2516C318.753 43.0921 322.088 42.4268 325.004 43.2378C329.5 44.4924 331.3 49.5866 331.3 49.5866C331.167 49.5676 331.04 49.5676 330.907 49.5613C330.552 48.6742 328.688 44.5114 324.675 43.3899H324.681Z" fill="#C3D1FC"/>
<path d="M323.508 51.0503C320.87 52.2985 319.158 53.8508 319.158 53.8508L318.93 53.9142C319.33 53.572 321.048 52.1591 323.508 51.0503Z" fill="#C3D1FC"/>
<path style="mix-blend-mode:multiply" opacity="0.5" d="M313.053 46.4185C313.668 45.7342 314.638 45.0373 315.823 44.448C310.491 47.5527 314.283 57.0316 319.051 52.2731C324.199 47.1282 330.837 48.5538 330.837 48.5538C331.002 48.8896 331.129 49.1621 331.205 49.3458L331.167 49.5866C324.687 48.8579 319.158 53.8572 319.158 53.8572L311.55 56.0051C311.138 53.8635 311.113 48.5918 313.053 46.4249V46.4185Z" fill="url(#paint34_linear_274_308)"/>
<path d="M337.641 53.2045L332.194 52.8751C332.194 52.8751 330.628 49.669 326.9 49.9034C326.9 49.9034 332.822 48.1103 337.641 53.2109V53.2045Z" fill="#587DF4"/>
<path d="M338.129 52.7547L337.64 53.1982C337.64 53.1982 333.348 49.7197 329.259 49.7197C325.169 49.7197 319.336 53.9712 319.336 53.9712C319.336 53.9712 315.76 54.7062 311.55 55.9988C311.55 55.9988 315.405 54.7379 319.133 53.7241C319.133 53.7241 324.275 49.4726 329.259 49.2698C334.242 49.067 338.129 52.7483 338.129 52.7483V52.7547Z" fill="#7994FE"/>
<path d="M312.172 61.9167C312.172 61.9167 313.579 60.6875 314.676 56.3979C314.676 56.3979 318.575 58.869 321.219 54.25C321.219 54.25 332.682 58.134 333.418 54.9786C334.153 51.8233 330.761 49.3458 327.674 49.8971C327.674 49.8971 323.907 50.6511 319.336 53.9712C319.336 53.9712 313.776 55.1941 311.55 55.9988C311.55 55.9988 311.506 59.0655 312.172 61.9167Z" fill="#D86525"/>
<g style="mix-blend-mode:multiply" opacity="0.6">
<path d="M316.007 54.7506C317.789 54.3134 319.33 53.9712 319.33 53.9712C323.907 50.6511 327.667 49.8971 327.667 49.8971C328.922 49.6753 330.222 49.9541 331.281 50.575C329.233 50.575 324.465 50.9742 321.599 54.3767C321.359 54.3007 321.213 54.25 321.213 54.25C321.105 54.4464 320.984 54.6238 320.87 54.7949L311.544 55.9988C311.544 55.9988 313.655 55.3715 316.001 54.7506H316.007Z" fill="#F78A63"/>
</g>
<g style="mix-blend-mode:multiply" opacity="0.6">
<path d="M312.171 61.9167C312.171 61.9167 312.286 62.0371 312.482 62.2336C312.419 62.7531 312.374 63.2727 312.374 63.8113C312.374 70.7493 317.916 76.3695 324.744 76.3695C328.485 76.3695 331.833 74.6777 334.103 72.0102C333.646 73.005 332.892 73.9427 331.712 74.7284C326.088 78.4541 308.786 80.7794 312.178 61.9167H312.171Z" fill="#F78A63"/>
</g>
<path d="M337.007 248.731C337.007 248.731 334.794 255.853 334.413 248.731H337.007Z" fill="white"/>
<path d="M296.625 126.476C297.602 126.507 298.381 126.621 298.641 126.805C299.434 127.369 300.283 128.788 300.283 128.788L298.641 128.864C297.075 130.436 297.449 132.71 297.449 132.71L299.06 132.818C299.06 132.818 300.03 134.58 299.06 135.264C298.502 135.657 297.633 136.037 296.67 136.297C296.631 133.395 296.606 130.017 296.625 126.476Z" fill="#EFB229"/>
<path d="M305.781 246.659L301.146 246.875C301.146 246.875 299.269 250.67 299.884 246.729L298.445 247.591L301.9 256.759H311.024L311.994 255.182C311.994 255.182 309.642 254.13 308.754 253.319C307.86 252.508 305.768 246.659 305.768 246.659H305.781Z" fill="#587DF4"/>
<path d="M317.257 188.012L330.578 186.295L329.614 182.829L317.257 185.421V188.012Z" fill="#99928C"/>
<path d="M327.56 242.902L303.828 132.717L297.424 131.741L298.565 129.688H307.492L330.578 241.394" fill="#B2AAA1"/>
<path d="M367.237 244.34L358.627 131.963L352.407 130.132L353.821 128.25L362.659 129.454L370.439 243.257" fill="#B2AAA1"/>
<path d="M377.724 96.3093L384.597 156.889L324.047 169.124L310.498 104.077L377.724 96.3093Z" fill="#BC9146"/>
<path d="M359.502 161.958L356.972 127.698L355.653 129.206L354.316 127.996L353.523 130.03L351.938 128.262L350.619 129.77L348.476 127.996L347.417 130.125L345.388 129.359L351.437 163.586L359.502 161.958Z" fill="#EDCC98"/>
<path d="M354.981 97.4434L356.681 120.279L355.679 119.633L354.74 122.661L353.219 117.085L351.418 120.608L348.806 119.385L347.722 121.21L346.593 120.12L345.255 123.041L342.275 98.4445L350.188 97.1773L350.29 98.0073L354.981 97.4434Z" fill="#EDCC98"/>
<path d="M384.597 156.889L368.385 171.316L320.934 181.302L324.047 169.124L384.597 156.889Z" fill="#A0742D"/>
<path d="M359.502 161.958L350.657 175.042L345.205 176.195L351.443 163.586L359.502 161.958Z" fill="#CEA974"/>
<path d="M310.498 104.077L304.753 124.708L320.934 181.302L324.047 169.124L310.498 104.077Z" fill="#AA7D35"/>
<g style="mix-blend-mode:multiply" opacity="0.4">
<path d="M364.092 161.831L364.13 159.886L372.145 159.74L372.126 160.583L376.855 160.678L376.754 162.154L378.618 162.205L368.385 171.316L347.107 175.79L345.205 176.195L323.318 180.802L323.292 180.624L331.877 161.008L364.092 161.831Z" fill="#AA7D35"/>
</g>
<path d="M401.247 164.112L399.541 225.06L337.875 228.684L333.595 162.376L401.247 164.112Z" fill="#BC9146"/>
<path d="M373.983 226.561L376.291 192.289L374.776 193.594L373.622 192.207L372.55 194.107L371.225 192.137L369.71 193.442L367.839 191.389L366.489 193.347L364.587 192.302L365.773 227.043L373.983 226.561Z" fill="#EDCC98"/>
<path d="M378.574 162.047L377.046 184.895L376.139 184.115L374.788 186.986L374.066 181.251L371.789 184.483L369.374 182.912L368.042 184.565L367.079 183.323L365.348 186.035L365.842 161.261L373.856 161.115L373.844 161.952L378.574 162.047Z" fill="#EDCC98"/>
<path d="M399.541 225.06L381.459 237.073L333.076 240.304L337.875 228.684L399.541 225.06Z" fill="#A0742D"/>
<path d="M373.983 226.561L363.389 238.277L357.828 238.65L365.773 227.043L373.983 226.561Z" fill="#CEA974"/>
<path d="M333.596 162.376L325.011 181.999L333.076 240.304L337.875 228.684L333.596 162.376Z" fill="#AA7D35"/>
<path d="M376.767 256.848C381.471 256.861 385.301 251.335 385.32 244.505C385.332 237.681 381.528 232.137 376.824 232.131H373.901L373.425 256.823L376.767 256.848Z" fill="#282828"/>
<path d="M365.348 244.467C365.335 251.291 369.139 256.835 373.844 256.848C378.555 256.861 382.378 251.335 382.397 244.505C382.409 237.681 378.605 232.137 373.901 232.131C369.196 232.118 365.367 237.643 365.348 244.467Z" fill="#210F00"/>
<path d="M367.237 244.651C367.224 249.872 370.135 254.104 373.73 254.111C377.325 254.123 380.254 249.897 380.266 244.676C380.279 239.455 377.369 235.223 373.774 235.216C370.179 235.21 367.25 239.43 367.237 244.651Z" fill="#DBDAD9"/>
<path d="M367.358 244.473C367.345 249.688 370.255 253.927 373.85 253.933C377.445 253.94 380.374 249.72 380.387 244.499C380.4 239.278 377.49 235.045 373.895 235.039C370.3 235.033 367.37 239.252 367.358 244.473Z" fill="#848281"/>
<path d="M368.271 244.473C368.264 248.959 370.762 252.603 373.856 252.609C376.95 252.615 379.467 248.985 379.474 244.499C379.487 240.013 376.982 236.376 373.894 236.37C370.8 236.363 368.283 239.994 368.271 244.48V244.473Z" fill="#B2AAA1"/>
<path d="M379.347 244.676C379.354 240.19 376.855 236.547 373.768 236.541C372.252 236.541 370.877 237.409 369.868 238.828C370.889 237.307 372.316 236.363 373.895 236.363C376.989 236.369 379.487 240.013 379.474 244.492C379.474 246.78 378.808 248.845 377.756 250.315C378.739 248.858 379.347 246.868 379.354 244.67L379.347 244.676Z" fill="#5E5B5A"/>
<path d="M373.425 245.132C373.425 245.392 373.571 245.601 373.749 245.601C373.926 245.601 374.072 245.392 374.078 245.132C374.078 244.873 373.933 244.664 373.755 244.664C373.577 244.664 373.432 244.873 373.432 245.132H373.425Z" fill="#B2AAA1"/>
<g style="mix-blend-mode:multiply">
<path d="M385.301 243.954L382.327 243.308L369.887 247.68H365.551L365.367 246.957L384.597 240.057C384.597 240.057 385.294 241.844 385.301 243.954Z" fill="#D8D5D2"/>
</g>
<path d="M322.855 244.448L345.61 230.407L404.1 228.792L405 230.23L370.268 246.951H322.855V244.448Z" fill="#B2AAA1"/>
<path d="M345.61 230.407L404.1 228.792L404.784 229.888L345.788 231.396L324.294 245.525V246.951H322.855V244.448L345.61 230.407Z" fill="#D8D5D2"/>
<path d="M324.954 256.81C329.658 256.823 333.488 251.297 333.507 244.467C333.519 237.643 329.715 232.099 325.011 232.093H322.088L321.612 256.785L324.954 256.81Z" fill="#282828"/>
<path d="M313.535 244.429C313.522 251.253 317.326 256.797 322.031 256.804C326.735 256.816 330.565 251.291 330.584 244.461C330.596 237.637 326.792 232.093 322.088 232.086C317.383 232.074 313.554 237.599 313.535 244.429Z" fill="#210F00"/>
<path d="M315.418 244.606C315.405 249.821 318.315 254.06 321.91 254.066C325.505 254.079 328.434 249.853 328.447 244.638C328.46 239.424 325.55 235.185 321.955 235.178C318.353 235.178 315.43 239.392 315.418 244.613V244.606Z" fill="#DBDAD9"/>
<path d="M315.544 244.435C315.532 249.656 318.442 253.889 322.037 253.895C325.632 253.895 328.561 249.682 328.574 244.461C328.586 239.246 325.676 235.007 322.081 235.001C318.486 234.995 315.557 239.214 315.544 244.429V244.435Z" fill="#848281"/>
<path d="M316.458 244.435C316.451 248.921 318.949 252.558 322.037 252.571C325.131 252.577 327.648 248.947 327.655 244.461C327.667 239.975 325.163 236.332 322.075 236.325C318.981 236.319 316.464 239.949 316.458 244.435Z" fill="#B2AAA1"/>
<path d="M327.534 244.638C327.547 240.152 325.042 236.509 321.948 236.503C320.433 236.503 319.057 237.371 318.049 238.79C319.07 237.269 320.49 236.325 322.069 236.325C325.163 236.332 327.661 239.968 327.648 244.461C327.648 246.748 326.983 248.814 325.93 250.284C326.906 248.826 327.521 246.837 327.521 244.638H327.534Z" fill="#5E5B5A"/>
<path d="M321.606 245.094C321.606 245.354 321.752 245.57 321.929 245.57C322.107 245.57 322.253 245.361 322.259 245.101C322.259 244.841 322.113 244.632 321.936 244.632C321.758 244.632 321.606 244.841 321.606 245.101V245.094Z" fill="#B2AAA1"/>
<path d="M301.773 129.688L301.241 128.693L290.412 129.187C290.412 129.187 289.264 129.758 289.803 132.197L300.639 133.033L301.33 132.33L300.271 132.14C300.271 132.14 300.1 130.993 300.702 129.682H301.792L301.773 129.688Z" fill="#DF4200"/>
<path d="M290.405 129.187L290.963 129.162C290.336 131.19 298.654 132.26 298.654 132.26C298.895 130.455 299.326 129.384 299.681 128.769L301.241 128.7L301.773 129.694H300.683C300.081 131.006 300.252 132.153 300.252 132.153L301.311 132.343L300.62 133.046L289.784 132.21C289.251 129.77 290.393 129.2 290.393 129.2L290.405 129.187Z" fill="#BA3506"/>
<path d="M368.632 97.3547C368.632 97.3547 369.285 95.6376 370.312 95.7453C371.339 95.8531 371.827 100.928 370.528 100.903C369.234 100.871 369.234 97.2597 369.234 97.2597L368.632 97.3547Z" fill="#FFD1B8"/>
<path d="M370.211 97.4308C370.211 97.4308 370.42 95.606 371.441 95.4539C372.462 95.3018 374.192 100.105 372.924 100.396C371.663 100.688 370.769 97.1837 370.769 97.1837L370.211 97.4245V97.4308Z" fill="#FFD1B8"/>
<path d="M372.373 96.9682C372.373 96.9682 372.95 95.2258 373.983 95.2892C375.017 95.3525 375.72 100.402 374.427 100.434C373.134 100.459 372.975 96.8479 372.975 96.8479L372.379 96.9682H372.373Z" fill="#FFD1B8"/>
<path d="M374.858 96.6388C374.858 96.6388 375.429 95.1941 376.297 95.2955C377.166 95.3969 377.527 99.6991 376.431 99.6611C375.334 99.6231 375.365 96.5627 375.365 96.5627L374.858 96.6388Z" fill="#FFD1B8"/>
<path d="M299.066 128.795C299.066 128.795 298.216 127.375 297.424 126.811C296.631 126.248 291.09 126.368 289.429 127.299C287.768 128.231 288.173 132.077 290.722 134.744C292.301 136.392 296.276 136.366 297.842 135.27C298.812 134.592 297.842 132.824 297.842 132.824L296.232 132.717C296.232 132.717 295.858 130.442 297.424 128.871L299.066 128.795Z" fill="#FFD1B8"/>
<path d="M296.619 126.577C296.619 126.577 291.654 106.656 286.468 105.034C281.282 103.412 277.046 103.393 276.044 106.238C275.043 109.077 280.349 120.38 288.516 128.693C288.516 128.693 290.24 126.425 296.619 126.577Z" fill="#FFD261"/>
<path d="M288.427 107.188C288.427 107.188 286.709 106.118 283.685 106.979L288.427 107.188Z" fill="#EFB229"/>
</g>
<defs>
<linearGradient id="paint0_linear_274_308" x1="48.2942" y1="62.0815" x2="51.578" y2="60.8255" gradientUnits="userSpaceOnUse">
<stop stop-color="white" stop-opacity="0"/>
<stop offset="1" stop-color="#EFBBAB"/>
</linearGradient>
<linearGradient id="paint1_linear_274_308" x1="48.5162" y1="61.9104" x2="50.8173" y2="61.0287" gradientUnits="userSpaceOnUse">
<stop stop-color="white" stop-opacity="0"/>
<stop offset="1" stop-color="#EFBBAB"/>
</linearGradient>
<linearGradient id="paint2_linear_274_308" x1="48.2942" y1="62.0815" x2="51.578" y2="60.8255" gradientUnits="userSpaceOnUse">
<stop stop-color="white" stop-opacity="0"/>
<stop offset="1" stop-color="#EFBBAB"/>
</linearGradient>
<linearGradient id="paint3_linear_274_308" x1="48.5162" y1="61.9104" x2="50.8173" y2="61.0287" gradientUnits="userSpaceOnUse">
<stop stop-color="white" stop-opacity="0"/>
<stop offset="1" stop-color="#EFBBAB"/>
</linearGradient>
<linearGradient id="paint4_linear_274_308" x1="71.2462" y1="62.0815" x2="67.9625" y2="60.8255" gradientUnits="userSpaceOnUse">
<stop stop-color="white" stop-opacity="0"/>
<stop offset="1" stop-color="#EFBBAB"/>
</linearGradient>
<linearGradient id="paint5_linear_274_308" x1="71.0179" y1="61.9041" x2="68.7548" y2="61.0414" gradientUnits="userSpaceOnUse">
<stop stop-color="white" stop-opacity="0"/>
<stop offset="1" stop-color="#EFBBAB"/>
</linearGradient>
<linearGradient id="paint6_linear_274_308" x1="57.196" y1="82.9274" x2="57.196" y2="60.3137" gradientUnits="userSpaceOnUse">
<stop stop-color="white" stop-opacity="0"/>
<stop offset="1" stop-color="#EFBBAB"/>
</linearGradient>
<linearGradient id="paint7_linear_274_308" x1="56.4414" y1="64.3308" x2="57.404" y2="60.8266" gradientUnits="userSpaceOnUse">
<stop stop-color="white" stop-opacity="0"/>
<stop offset="1" stop-color="#EFBBAB"/>
</linearGradient>
<linearGradient id="paint8_linear_274_308" x1="57.196" y1="82.9274" x2="57.196" y2="60.3137" gradientUnits="userSpaceOnUse">
<stop stop-color="white" stop-opacity="0"/>
<stop offset="1" stop-color="#EFBBAB"/>
</linearGradient>
<linearGradient id="paint9_linear_274_308" x1="31.9552" y1="71.9342" x2="31.9552" y2="88.5412" gradientUnits="userSpaceOnUse">
<stop stop-color="white" stop-opacity="0"/>
<stop offset="1" stop-color="#EFBBAB"/>
</linearGradient>
<linearGradient id="paint10_linear_274_308" x1="313.085" y1="195.178" x2="247.701" y2="227.666" gradientUnits="userSpaceOnUse">
<stop stop-color="white" stop-opacity="0"/>
<stop offset="1" stop-color="#EAC6A9"/>
</linearGradient>
<linearGradient id="paint11_linear_274_308" x1="96.1761" y1="184.033" x2="104.959" y2="216.825" gradientUnits="userSpaceOnUse">
<stop stop-color="white" stop-opacity="0"/>
<stop offset="1" stop-color="#EAC6A9"/>
</linearGradient>
<linearGradient id="paint12_linear_274_308" x1="155.826" y1="90.4863" x2="172.759" y2="103.302" gradientUnits="userSpaceOnUse">
<stop stop-color="white" stop-opacity="0"/>
<stop offset="1" stop-color="#EFBBAB"/>
</linearGradient>
<linearGradient id="paint13_linear_274_308" x1="216.788" y1="213.078" x2="117.691" y2="119.29" gradientUnits="userSpaceOnUse">
<stop stop-color="white" stop-opacity="0"/>
<stop offset="1" stop-color="#EFBBAB"/>
</linearGradient>
<linearGradient id="paint14_linear_274_308" x1="217.86" y1="77.9218" x2="144.331" y2="121.988" gradientUnits="userSpaceOnUse">
<stop stop-color="white" stop-opacity="0"/>
<stop offset="1" stop-color="#EFBBAB"/>
</linearGradient>
<linearGradient id="paint15_linear_274_308" x1="195.136" y1="87.8125" x2="195.136" y2="66.7829" gradientUnits="userSpaceOnUse">
<stop stop-color="white" stop-opacity="0"/>
<stop offset="1" stop-color="#EFBBAB"/>
</linearGradient>
<linearGradient id="paint16_linear_274_308" x1="195.136" y1="87.8125" x2="195.136" y2="66.7829" gradientUnits="userSpaceOnUse">
<stop stop-color="white" stop-opacity="0"/>
<stop offset="1" stop-color="#EFBBAB"/>
</linearGradient>
<linearGradient id="paint17_linear_274_308" x1="183.028" y1="63.3772" x2="186.778" y2="62.8477" gradientUnits="userSpaceOnUse">
<stop stop-color="white" stop-opacity="0"/>
<stop offset="1" stop-color="#EFBBAB"/>
</linearGradient>
<linearGradient id="paint18_linear_274_308" x1="183.313" y1="63.2407" x2="185.892" y2="62.8799" gradientUnits="userSpaceOnUse">
<stop stop-color="white" stop-opacity="0"/>
<stop offset="1" stop-color="#EFBBAB"/>
</linearGradient>
<linearGradient id="paint19_linear_274_308" x1="207" y1="68.545" x2="203.831" y2="66.4225" gradientUnits="userSpaceOnUse">
<stop stop-color="white" stop-opacity="0"/>
<stop offset="1" stop-color="#EFBBAB"/>
</linearGradient>
<linearGradient id="paint20_linear_274_308" x1="206.806" y1="68.3123" x2="204.584" y2="66.8288" gradientUnits="userSpaceOnUse">
<stop stop-color="white" stop-opacity="0"/>
<stop offset="1" stop-color="#EFBBAB"/>
</linearGradient>
<linearGradient id="paint21_linear_274_308" x1="195.648" y1="86.5472" x2="192.337" y2="90.9378" gradientUnits="userSpaceOnUse">
<stop stop-color="white" stop-opacity="0"/>
<stop offset="1" stop-color="#EFBBAB"/>
</linearGradient>
<linearGradient id="paint22_linear_274_308" x1="257.784" y1="85.3921" x2="232.058" y2="108.428" gradientUnits="userSpaceOnUse">
<stop stop-color="white" stop-opacity="0"/>
<stop offset="1" stop-color="#EFBBAB"/>
</linearGradient>
<linearGradient id="paint23_linear_274_308" x1="111.501" y1="247.369" x2="111.665" y2="257.849" gradientUnits="userSpaceOnUse">
<stop stop-color="white" stop-opacity="0"/>
<stop offset="1" stop-color="#EAC6A9"/>
</linearGradient>
<linearGradient id="paint24_linear_274_308" x1="322.449" y1="81.8185" x2="322.449" y2="60.979" gradientUnits="userSpaceOnUse">
<stop stop-color="white" stop-opacity="0"/>
<stop offset="1" stop-color="#EFBBAB"/>
</linearGradient>
<linearGradient id="paint25_linear_274_308" x1="322.449" y1="83.4026" x2="322.449" y2="62.5693" gradientUnits="userSpaceOnUse">
<stop stop-color="white" stop-opacity="0"/>
<stop offset="1" stop-color="#EFBBAB"/>
</linearGradient>
<linearGradient id="paint26_linear_274_308" x1="334.349" y1="60.7004" x2="330.702" y2="59.7259" gradientUnits="userSpaceOnUse">
<stop stop-color="white" stop-opacity="0"/>
<stop offset="1" stop-color="#EFBBAB"/>
</linearGradient>
<linearGradient id="paint27_linear_274_308" x1="334.082" y1="60.531" x2="331.577" y2="59.8636" gradientUnits="userSpaceOnUse">
<stop stop-color="white" stop-opacity="0"/>
<stop offset="1" stop-color="#EFBBAB"/>
</linearGradient>
<linearGradient id="paint28_linear_274_308" x1="310.468" y1="63.2057" x2="313.832" y2="61.4929" gradientUnits="userSpaceOnUse">
<stop stop-color="white" stop-opacity="0"/>
<stop offset="1" stop-color="#EFBBAB"/>
</linearGradient>
<linearGradient id="paint29_linear_274_308" x1="310.683" y1="62.9984" x2="313.042" y2="61.7995" gradientUnits="userSpaceOnUse">
<stop stop-color="white" stop-opacity="0"/>
<stop offset="1" stop-color="#EFBBAB"/>
</linearGradient>
<linearGradient id="paint30_linear_274_308" x1="326.52" y1="77.8204" x2="325.05" y2="83.1017" gradientUnits="userSpaceOnUse">
<stop stop-color="white" stop-opacity="0"/>
<stop offset="1" stop-color="#EFBBAB"/>
</linearGradient>
<linearGradient id="paint31_linear_274_308" x1="389.929" y1="176.157" x2="300.751" y2="101.01" gradientUnits="userSpaceOnUse">
<stop stop-color="white" stop-opacity="0"/>
<stop offset="1" stop-color="#EFBBAB"/>
</linearGradient>
<linearGradient id="paint32_linear_274_308" x1="262.533" y1="103.925" x2="374.476" y2="117.065" gradientUnits="userSpaceOnUse">
<stop stop-color="white" stop-opacity="0"/>
<stop offset="1" stop-color="#EFBBAB"/>
</linearGradient>
<linearGradient id="paint33_linear_274_308" x1="319.821" y1="125.695" x2="324.948" y2="93.9535" gradientUnits="userSpaceOnUse">
<stop stop-color="white" stop-opacity="0"/>
<stop offset="1" stop-color="#EFBBAB"/>
</linearGradient>
<linearGradient id="paint34_linear_274_308" x1="334.02" y1="20.8649" x2="317.028" y2="59.2512" gradientUnits="userSpaceOnUse">
<stop stop-color="white" stop-opacity="0"/>
<stop offset="1" stop-color="#BAC4E2"/>
</linearGradient>
<clipPath id="clip0_274_308">
<rect width="405" height="257" fill="white"/>
</clipPath>
</defs>
</svg>
