<svg width="438" height="370" viewBox="0 0 438 370" fill="none" xmlns="http://www.w3.org/2000/svg">
<path d="M1.12598 316.604C0.822863 303.112 -0.611374 286.315 10.1602 275.78C26.0773 260.203 49.7865 271.418 69.2227 269.895C81.3915 268.942 93.0946 260.196 96.5028 248.308C100.702 233.67 89.6347 221.08 83.8608 208.652C78.7522 197.659 78.4713 184.765 83.0919 173.609C87.8826 162.039 99.9035 149.013 113.285 146.056C129.438 142.492 146.213 154.114 163.128 150.004C170.41 148.229 176.687 144.126 180.14 137.739C182.712 132.977 183.94 127.692 185.625 122.583C193.913 97.543 217.533 78.957 245.523 77.057C265.159 75.7263 281.519 84.0582 286.539 102.385C288.447 109.342 290.08 116.816 295.411 121.955C308.008 134.101 327.755 126.058 343.162 127.189C355.789 128.113 367.803 134.907 374.619 144.991C380.822 154.158 381.872 164.191 378.922 174.607C375.654 186.148 362.79 203.617 368.697 215.742C371.3 221.094 377.465 224.015 383.402 225.826C398.676 230.476 418.607 229.996 430.687 241.314C438.953 249.062 438.177 258.148 437.26 268.232C436.89 272.276 435.796 317.048 436.55 317.055C399.681 316.774 362.798 316.922 325.929 316.893C275.864 316.848 225.791 316.804 175.726 316.76C132.159 316.723 88.5849 316.686 45.0181 316.641C42.7337 316.641 1.12598 316.723 1.11858 316.604H1.12598Z" fill="#D3D5FC"/>
<path d="M307.646 139.284C306.9 137.458 305.11 136.164 303.011 136.164C301.074 136.164 299.403 137.265 298.568 138.87C297.814 137.288 296.202 136.193 294.339 136.193C293.577 136.193 292.86 136.378 292.224 136.704C291.049 133.968 288.328 132.053 285.164 132.053C284.085 132.053 283.057 132.275 282.126 132.682C281.704 126.849 276.855 122.25 270.918 122.25C264.981 122.25 259.755 127.204 259.673 133.347C258.01 131.61 255.674 130.516 253.079 130.516C249.264 130.516 245.996 132.859 244.636 136.193C243.601 135.306 242.255 134.767 240.792 134.767C238.004 134.767 235.676 136.696 235.047 139.284C234.936 139.735 234.877 140.2 234.877 140.681C234.877 141.753 235.166 142.751 235.661 143.616H307.38C307.787 142.891 308.023 142.056 308.023 141.161C308.023 140.496 307.89 139.86 307.654 139.276L307.646 139.284Z" fill="white"/>
<mask id="mask0_307_312" style="mask-type:luminance" maskUnits="userSpaceOnUse" x="0" y="77" width="437" height="241">
<path d="M0.231444 317.026C-0.0716682 303.533 -1.50591 286.744 9.26566 276.202C25.1827 260.625 48.892 271.84 68.3282 270.317C79.1737 269.467 89.8565 264.321 95.7635 255.708C108.073 237.766 90.2853 224.82 82.9662 209.073C77.8577 198.08 77.5768 185.187 82.1974 174.031C86.988 162.461 99.009 149.434 112.39 146.477C128.544 142.914 145.319 154.535 162.234 150.425C169.516 148.658 175.792 144.547 179.245 138.16C181.818 133.399 183.045 128.113 184.731 123.004C193.018 97.9643 216.639 79.3784 244.628 77.4784C264.264 76.1477 280.625 84.4796 285.645 102.807C287.552 109.764 289.186 117.238 294.516 122.376C307.114 134.523 326.861 126.479 342.268 127.61C354.895 128.534 366.908 135.328 373.725 145.412C379.927 154.58 380.977 164.612 378.027 175.029C374.76 186.569 361.896 204.039 367.803 216.163C370.405 221.516 376.571 224.436 382.508 226.247C397.781 230.897 417.713 230.417 429.793 241.736C438.058 249.483 437.282 258.569 436.365 268.653C435.996 272.697 434.902 317.469 435.656 317.477C398.787 317.196 361.903 317.344 325.034 317.314C274.969 317.27 224.897 317.225 174.831 317.181C131.265 317.144 87.6904 317.107 44.1235 317.063C41.8391 317.063 0.231444 317.144 0.224051 317.026H0.231444Z" fill="white"/>
</mask>
<g mask="url(#mask0_307_312)">
<path d="M398.439 254.245V269.762L376.312 255.109L376.467 224.251L357.623 224.103L357.8 189.608L353.113 189.571V105.941H331.422V189.401L327.378 189.364V162.106H293.954V287.099H290.036V180.581H278.954V132.955H273.165V180.581H262.083V287.099H256.139V224.044H228.497V115.826L183.962 146.07V224.044H170.093V141.383H136.669V189.549H103.245V275.928L79.2402 275.078V290.182L55.6418 275.078V317.048H79.2402H79.462H103.245V317.27H136.669H153.377H170.093H256.139H350.023L357.157 317.329L375.994 317.477L376.002 317.27H376.32V317.048H398.439H401.855H425.291V254.917L398.439 254.245Z" fill="#9FA5FB"/>
</g>
<path d="M211.412 108.795C210.222 105.875 207.353 103.812 204.004 103.812C200.906 103.812 198.23 105.572 196.899 108.144C195.694 105.616 193.122 103.864 190.135 103.864C188.915 103.864 187.769 104.16 186.756 104.677C184.878 100.301 180.531 97.2398 175.467 97.2398C173.745 97.2398 172.103 97.5947 170.617 98.2379C169.945 88.9153 162.182 81.5593 152.689 81.5593C143.197 81.5593 134.843 89.4846 134.71 99.3099C132.056 96.5301 128.315 94.7854 124.167 94.7854C118.061 94.7854 112.841 98.541 110.668 103.857C109.012 102.437 106.868 101.572 104.517 101.572C100.059 101.572 96.3328 104.655 95.3273 108.795C95.1499 109.512 95.0464 110.259 95.0464 111.035C95.0464 112.743 95.5047 114.347 96.3032 115.73H210.99C211.641 114.569 212.018 113.238 212.018 111.811C212.018 110.747 211.804 109.727 211.427 108.795H211.412Z" fill="white"/>
<path d="M411.717 89.8839C410.771 87.5625 408.494 85.9212 405.832 85.9212C403.378 85.9212 401.249 87.3185 400.191 89.359C399.23 87.3555 397.19 85.9656 394.817 85.9656C393.848 85.9656 392.939 86.2022 392.133 86.6088C390.64 83.1341 387.187 80.7018 383.165 80.7018C381.798 80.7018 380.497 80.9827 379.314 81.4928C378.781 74.0925 372.616 68.2446 365.082 68.2446C357.549 68.2446 350.91 74.5361 350.806 82.3356C348.699 80.1251 345.727 78.7427 342.43 78.7427C337.58 78.7427 333.44 81.722 331.71 85.9508C330.394 84.8271 328.694 84.1395 326.824 84.1395C323.29 84.1395 320.325 86.5866 319.527 89.8765C319.386 90.4457 319.305 91.0446 319.305 91.6582C319.305 93.0185 319.667 94.2901 320.303 95.3843H411.37C411.887 94.4601 412.19 93.4029 412.19 92.2718C412.19 91.4216 412.02 90.6158 411.717 89.8765V89.8839Z" fill="#9FA5FB"/>
<path d="M390.64 101.513C389.693 99.1916 387.416 97.5504 384.755 97.5504C382.3 97.5504 380.171 98.9477 379.114 100.988C378.153 98.9846 376.113 97.5947 373.739 97.5947C372.771 97.5947 371.862 97.8313 371.056 98.2379C369.562 94.7632 366.11 92.3309 362.088 92.3309C360.72 92.3309 359.419 92.6193 358.236 93.122C357.704 85.7216 351.538 79.8738 344.005 79.8738C336.471 79.8738 329.833 86.1652 329.729 93.9648C327.622 91.7543 324.65 90.3718 321.353 90.3718C316.503 90.3718 312.363 93.3512 310.633 97.58C309.317 96.4562 307.617 95.7687 305.746 95.7687C302.212 95.7687 299.248 98.2158 298.449 101.506C298.309 102.075 298.228 102.674 298.228 103.287C298.228 104.648 298.59 105.919 299.226 107.013H390.292C390.81 106.089 391.113 105.032 391.113 103.901C391.113 103.051 390.943 102.245 390.64 101.506V101.513Z" fill="white"/>
<path d="M308.378 347.189C339.364 347.189 364.483 342.611 364.483 336.964C364.483 331.318 339.364 326.74 308.378 326.74C277.392 326.74 252.273 331.318 252.273 336.964C252.273 342.611 277.392 347.189 308.378 347.189Z" fill="#BDC3F9"/>
<path d="M181.3 347.189C212.286 347.189 237.405 342.611 237.405 336.964C237.405 331.318 212.286 326.74 181.3 326.74C150.314 326.74 125.195 331.318 125.195 336.964C125.195 342.611 150.314 347.189 181.3 347.189Z" fill="#BDC3F9"/>
<path d="M352.122 208.083C352.61 209.502 356.846 223.002 347.317 242.504C347.31 242.519 346.178 242.563 346.178 242.578C346.178 242.578 340.915 279.58 340.885 280.105L337.965 325.919C337.965 326.03 331.023 325.919 331.023 325.919C330.927 325.919 314.98 242.948 316.192 205.828C316.192 205.709 316.296 205.628 316.407 205.635L351.938 207.949C352.019 207.949 352.085 208.001 352.115 208.083H352.122Z" fill="#1A2460"/>
<path d="M337.218 325.919H328.628L307.38 333.164V336.92H337.203L337.218 325.919Z" fill="#090D2D"/>
<path d="M352.226 206.486C352.81 207.868 359.264 214.27 351.036 234.35C351.036 234.365 345.698 278.56 345.698 279.085L341.587 328.499C341.587 328.61 334.815 328.499 334.815 328.499C334.719 328.499 323.793 244.352 316.229 206.36H352.048C352.13 206.36 352.204 206.404 352.233 206.478L352.226 206.486Z" fill="#2B337C"/>
<path d="M341.58 328.499L331.2 327.501L311.224 334.746L311.742 339.5H341.558L341.58 328.499Z" fill="#121B3F"/>
<path d="M322.876 126.05L336.154 113.312L337.218 114.894L342.445 133.421L324.31 139.927L325.907 131.417L322.876 126.05Z" fill="#EBAEA3"/>
<path d="M322.876 126.05L325.611 133.887C325.611 133.887 335.459 132.386 335.096 122.627L322.876 126.05Z" fill="#E48C87"/>
<path d="M317.398 100.47L318.425 111.937L311.683 117.09L316.555 119.197L317.161 124.217L316.666 126.612C316.407 127.137 316.34 127.706 316.437 128.246C316.621 129.259 317.464 130.02 318.462 130.272C320.525 130.789 322.395 130.294 324.384 129.732C326.025 129.273 327.622 128.66 329.116 127.832C331.378 126.582 333.374 124.897 335.104 122.982L337.802 112.61L328.798 101.321L317.405 100.47H317.398Z" fill="#EBAEA3"/>
<path d="M338.608 93.8241C336.168 84.265 319.608 88.6121 319.608 88.6121C319.608 88.6121 310.766 88.3311 307.69 85.4405C307.69 85.4405 307.653 85.8989 307.772 86.4311C306.271 85.7584 305.317 85.2113 305.317 85.2113C301.591 94.0829 312.067 98.3856 312.067 98.3856C310.441 98.1268 308.881 97.0031 308.881 97.0031C313.716 103.953 328.805 101.328 328.805 101.328C328.99 106.599 335.348 113.09 335.348 113.09L337.225 114.901L337.506 121.526L339.754 122.302C340.545 122.575 341.395 122.139 341.646 121.348L346.319 106.392C348.832 96.0124 338.615 93.8315 338.615 93.8315L338.608 93.8241Z" fill="#313362"/>
<path d="M320.015 112.366C319.985 112.743 320.273 113.075 320.65 113.105C321.027 113.135 321.36 112.846 321.39 112.469C321.419 112.092 321.131 111.759 320.754 111.73C320.377 111.7 320.044 111.989 320.015 112.366Z" fill="#191D45"/>
<path d="M326.225 109.867L323.711 109.32L319.283 108.839L319.371 107.605L324.303 108.418L326.225 109.867Z" fill="#191D45"/>
<path d="M323.408 117.164C323.29 118.724 324.458 120.077 326.018 120.195C327.578 120.313 328.93 119.145 329.049 117.585C329.167 116.025 327.999 114.672 326.439 114.554C324.879 114.436 323.526 115.604 323.408 117.164Z" fill="#E48C87"/>
<path d="M336.087 113.807L335.858 113.726V113.578L335.991 112.41C335.362 112.831 334.69 113.186 334.083 113.637C333.499 114.066 332.975 114.584 332.413 115.042C330.187 116.861 327.223 119.101 324.569 120.165C323.94 120.417 323.297 120.661 322.639 120.845C320.695 121.393 318.684 120.653 316.673 120.187L317.154 124.231L316.658 126.627C316.399 127.152 316.333 127.721 316.429 128.261C316.614 129.273 317.457 130.035 318.455 130.286C320.517 130.804 322.388 130.308 324.377 129.747C326.018 129.288 327.615 128.675 329.108 127.847C331.37 126.597 335.762 123.145 337.492 121.23L337.203 114.894L337.366 114.258L336.08 113.815L336.087 113.807Z" fill="#313362"/>
<path d="M316.215 232.058L312.015 171.961C315.653 153.338 319.941 137.361 337.152 133.207C342.09 132.016 346.903 134.863 348.855 139.313C353.039 148.865 352.344 165.381 352.344 178.57L358.539 229.478C349.025 231.592 334.675 237.011 316.215 232.058Z" fill="#272D64"/>
<path d="M320.976 232.997C333.292 235.252 344.263 233.041 352.307 231.023C352.004 232.125 351.42 233.189 351.028 234.357C343.258 236.265 333.056 238.253 321.5 236.242C320.207 236.021 318.883 235.74 317.545 235.414C317.442 234.335 317.353 233.263 317.257 232.198C318.514 232.516 319.756 232.782 320.976 233.004V232.997Z" fill="#1F2951"/>
<path d="M335.429 214.418C339.739 214.418 343.228 210.929 343.228 206.619V200.845H327.622V206.619C327.622 210.929 331.111 214.418 335.421 214.418H335.429Z" fill="#181F40"/>
<path d="M327.622 201.592H343.228V200.083H327.622V201.592Z" fill="#C7CAF6"/>
<path d="M332.346 137.08L312.015 169.373C312.015 169.373 314.943 152.805 323.526 140.274L332.353 137.073L332.346 137.08Z" fill="#C7CAF6"/>
<path d="M325.249 136.289C325.389 136.504 326.313 134.641 326.313 134.641L327.26 141.161L320.909 144.422L325.249 136.289Z" fill="#DB2F53"/>
<path d="M323.061 143.313C323.061 143.313 319.505 163.318 312.282 174.851C312.282 174.851 309.849 164.671 320.909 144.422L323.061 143.313Z" fill="#DB2F53"/>
<path d="M341.292 129.325C341.04 129.473 325.278 134.789 325.278 134.789L323.016 140.459L342.445 133.414L341.292 129.318V129.325Z" fill="white"/>
<path d="M262.453 183.693C262.527 183.383 262.8 183.153 263.103 183.057C263.503 182.924 263.961 182.939 264.36 183.057C266.009 183.59 267.805 183.878 269.528 183.708C270.238 183.641 270.94 183.479 271.583 183.176C272.086 182.939 272.722 182.621 273.054 182.148C273.439 181.601 272.759 181.083 272.352 180.825C271.628 180.359 270.881 179.915 270.082 179.59C269.631 179.413 269.092 179.383 268.707 179.073C268.264 178.718 268.293 177.919 268.685 177.542C269.225 177.025 270.467 177.564 271.117 177.712C272.219 177.956 273.328 178.178 274.437 178.363C277.823 178.939 281.187 179.169 284.447 178.917V184.573C281.379 185.327 277.697 186.236 275.642 187.057C273.335 187.981 270.726 188.669 268.234 188.21C267.428 187.929 266.637 187.567 265.876 187.175C264.7 186.562 263.303 185.756 262.645 184.529C262.512 184.277 262.394 183.981 262.46 183.693H262.453Z" fill="#EBAEA3"/>
<path d="M311.69 168.752L332.309 139.195C335.865 135.484 341.78 134.744 345.787 137.968C350.304 141.605 350.659 148.236 346.733 152.325L326.011 174.6C322.114 178.666 317.058 181.424 311.535 182.518L282.902 186.458C282.843 186.473 282.695 178.858 282.695 178.858C282.695 178.821 311.676 168.767 311.683 168.759L311.69 168.752Z" fill="#181F40"/>
<path d="M282.303 186.502L284.44 186.244L284.203 178.311L282.237 178.947L282.303 186.502Z" fill="white"/>
<path d="M286.014 179.775C286.272 179.775 286.48 179.566 286.48 179.309C286.48 179.052 286.272 178.843 286.014 178.843C285.757 178.843 285.549 179.052 285.549 179.309C285.549 179.566 285.757 179.775 286.014 179.775Z" fill="white"/>
<path d="M326.01 174.607L346.733 152.332C348.1 150.905 348.936 149.175 349.269 147.364C349.83 150.351 348.995 153.552 346.733 155.91L326.01 178.185C322.484 181.867 318.004 184.477 313.08 185.741L312.806 182.229C317.834 180.987 322.41 178.348 326.003 174.6L326.01 174.607Z" fill="#1C234F"/>
<path d="M339.17 110.081C338.194 109.142 336.641 109.165 335.702 110.14C334.763 111.116 334.216 113.083 335.192 114.022C336.168 114.961 338.29 114.524 339.229 113.549C340.168 112.573 340.146 111.02 339.17 110.081Z" fill="#EBAEA3"/>
<path d="M316.887 121.917L317.02 123.012C317.02 123.012 318.654 123.063 318.787 121.917H316.887Z" fill="#FFE6E3"/>
<path d="M188.471 176.648C188.471 176.648 216.165 185.246 216.742 185.46C219.034 185.571 221.363 185.482 223.721 185.216C224.845 185.091 225.961 184.935 227.07 184.758C227.728 184.654 229 184.181 229.51 184.728C229.879 185.128 229.857 185.926 229.399 186.259C228.992 186.554 228.453 186.54 227.994 186.695C227.181 186.968 226.412 187.375 225.658 187.796C225.237 188.033 224.527 188.506 224.874 189.075C225.178 189.571 225.791 189.918 226.279 190.184C226.907 190.524 227.602 190.724 228.297 190.835C230.005 191.108 231.816 190.924 233.495 190.487C233.901 190.384 234.36 190.399 234.744 190.554C235.04 190.672 235.299 190.909 235.358 191.227C235.409 191.515 235.276 191.803 235.128 192.047C234.404 193.238 232.962 193.955 231.75 194.502C230.966 194.857 230.16 195.167 229.332 195.404C226.819 195.722 224.253 194.879 222.006 193.822C220.52 193.127 218.147 192.328 215.781 191.589L189.329 190.28C185.618 190.022 182.076 188.602 179.26 186.177C176.783 184.048 174.691 181.475 173.101 178.577L169.523 171.813L184.405 165.433L188.449 176.655L188.471 176.648Z" fill="#E2A39A"/>
<path d="M163.55 138.056C168.252 135.986 173.774 138.241 176.243 142.751L184.42 165.433L169.538 171.813L158.899 151.682C156.171 146.706 158.241 140.4 163.55 138.064V138.056Z" fill="#374FB2"/>
<path d="M184.819 166.475L169.945 172.855L169.346 171.724L184.45 165.433L184.819 166.475Z" fill="#DD8F85"/>
<path d="M143.833 208.378C143.345 209.798 139.109 223.297 148.638 242.8C148.646 242.815 149.777 242.859 149.777 242.874C149.777 242.874 155.041 279.876 155.07 280.401L157.99 326.215C157.99 326.326 164.932 326.215 164.932 326.215C165.028 326.215 180.975 243.244 179.763 206.124C179.763 206.005 179.659 205.924 179.548 205.931L144.018 208.245C143.936 208.245 143.87 208.297 143.84 208.378H143.833Z" fill="#212447"/>
<path d="M181.012 217.117L180.864 219.268C162.404 224.229 149.392 219.401 139.877 217.287L140.092 215.165C149.74 217.405 162.781 221.893 181.012 217.124V217.117Z" fill="#EFB000"/>
<path d="M154.589 320.863C154.589 320.863 152.549 324.219 152.993 333.519H190.578C190.578 333.519 191.54 328.263 188.76 326.814C188.76 326.814 185.913 324.906 176.798 324.041C176.798 324.041 173.589 323.679 171.017 319.975C171.017 319.975 169.235 317.528 167.912 317.905C167.912 317.905 166.921 318.157 166.522 320.308C166.522 320.308 165.598 325.003 161.531 324.736C161.531 324.736 157.598 325.165 156.704 320.84L154.589 320.87V320.863Z" fill="white"/>
<path d="M161.546 327.738C168.237 328.174 169.76 320.449 169.76 320.449C169.863 319.872 169.996 319.377 170.144 318.955C169.508 318.327 168.636 317.669 167.904 317.876C167.904 317.876 166.913 318.127 166.514 320.278C166.514 320.278 165.59 324.973 161.524 324.707C161.524 324.707 157.591 325.136 156.696 320.811L154.582 320.84C154.582 320.84 154.271 321.35 153.917 322.533C155.824 328.359 161.539 327.738 161.539 327.738H161.546Z" fill="#4760CA"/>
<path d="M152.993 333.505H190.734V335.405C190.734 335.996 190.253 336.484 189.654 336.484H154.064C153.473 336.484 152.985 336.003 152.985 335.405V333.505H152.993Z" fill="#4760CA"/>
<path d="M155.077 328.403C154.301 328.403 153.577 328.633 152.97 329.032C152.911 330.34 152.911 331.834 152.993 333.519H158.737C158.87 333.127 158.944 332.706 158.944 332.27C158.944 330.133 157.214 328.403 155.077 328.403Z" fill="#EFB000"/>
<path d="M172.872 327.464C173.39 327.671 173.981 327.42 174.188 326.903L175.482 323.672C174.972 323.472 174.351 323.162 173.685 322.696L172.303 326.148C172.096 326.666 172.347 327.257 172.865 327.464H172.872Z" fill="#EFB000"/>
<path d="M176.51 327.464C177.027 327.671 177.619 327.42 177.826 326.903L178.875 324.271C178.217 324.189 177.522 324.108 176.791 324.042L175.948 326.149C175.741 326.666 175.992 327.257 176.51 327.464Z" fill="#EFB000"/>
<path d="M180.147 327.465C180.665 327.672 181.256 327.42 181.463 326.903L182.306 324.803C181.677 324.685 180.997 324.566 180.258 324.456L179.585 326.149C179.378 326.666 179.63 327.258 180.147 327.465Z" fill="#EFB000"/>
<path d="M190.231 328.359H169.494C166.463 328.359 163.949 330.577 163.483 333.475H190.623C190.623 333.475 191.17 330.451 190.231 328.359Z" fill="#EFB000"/>
<path opacity="0.2" d="M167.978 319.739C168.555 320.315 168.961 320.862 168.961 320.862C171.896 325.076 175.541 325.49 175.541 325.49C185.913 326.481 189.159 328.647 189.159 328.647C189.846 329.01 190.334 329.579 190.675 330.244C190.675 330.192 190.667 330.148 190.66 330.096V330.074C190.638 329.934 190.615 329.801 190.586 329.66V329.645C190.556 329.505 190.527 329.372 190.49 329.231V329.217C190.453 329.083 190.416 328.95 190.364 328.817V328.803C190.32 328.669 190.268 328.544 190.209 328.418C190.209 328.418 190.209 328.418 190.209 328.411C189.906 327.745 189.455 327.169 188.782 326.821C188.782 326.821 185.936 324.914 176.82 324.049C176.82 324.049 173.612 323.687 171.039 319.983C171.039 319.983 170.684 319.502 170.181 318.992C169.723 318.541 169.146 318.075 168.584 317.927C168.547 317.92 168.51 317.905 168.466 317.905C168.451 317.905 168.444 317.905 168.429 317.905C168.399 317.905 168.37 317.898 168.34 317.891C168.318 317.891 168.296 317.891 168.274 317.891C168.252 317.891 168.237 317.891 168.215 317.891C168.178 317.891 168.133 317.891 168.096 317.898C168.096 317.898 168.096 317.898 168.089 317.898C168.037 317.898 167.993 317.913 167.948 317.927C167.948 317.927 167.438 318.061 167.002 318.926C167.364 319.162 167.712 319.465 168.015 319.761L167.978 319.739Z" fill="white"/>
<path d="M143.736 206.781C143.152 208.164 136.698 214.566 144.927 234.646C144.927 234.66 150.264 278.856 150.264 279.38L154.375 328.795C154.375 328.906 161.147 328.795 161.147 328.795C161.243 328.795 172.17 244.648 179.733 206.656H143.914C143.832 206.656 143.759 206.7 143.729 206.774L143.736 206.781Z" fill="#313362"/>
<path d="M150.96 323.568C150.96 323.568 148.919 326.925 149.363 336.225H186.949C186.949 336.225 187.91 330.969 185.13 329.52C185.13 329.52 182.284 327.612 173.168 326.747C173.168 326.747 169.959 326.385 167.387 322.681C167.387 322.681 165.605 320.234 164.282 320.611C164.282 320.611 163.291 320.862 162.892 323.014C162.892 323.014 161.968 327.708 157.902 327.442C157.902 327.442 153.968 327.871 153.074 323.546L150.96 323.576V323.568Z" fill="white"/>
<path d="M157.924 330.436C164.614 330.873 166.137 323.147 166.137 323.147C166.241 322.57 166.374 322.075 166.522 321.653C165.886 321.025 165.014 320.367 164.282 320.574C164.282 320.574 163.291 320.825 162.892 322.977C162.892 322.977 161.968 327.671 157.902 327.405C157.902 327.405 153.969 327.834 153.074 323.509L150.96 323.539C150.96 323.539 150.649 324.049 150.294 325.232C152.202 331.057 157.916 330.436 157.916 330.436H157.924Z" fill="#4760CA"/>
<path d="M149.363 336.203H187.104V338.103C187.104 338.694 186.623 339.182 186.024 339.182H150.435C149.843 339.182 149.355 338.702 149.355 338.103V336.203H149.363Z" fill="#4760CA"/>
<path d="M151.455 331.102C150.678 331.102 149.954 331.331 149.348 331.73C149.288 333.039 149.288 334.532 149.37 336.218H155.114C155.247 335.826 155.321 335.404 155.321 334.968C155.321 332.832 153.591 331.102 151.455 331.102Z" fill="#EFB000"/>
<path d="M169.242 330.163C169.76 330.37 170.351 330.118 170.558 329.601L171.852 326.37C171.342 326.171 170.721 325.86 170.055 325.394L168.673 328.847C168.466 329.364 168.717 329.956 169.235 330.163H169.242Z" fill="#EFB000"/>
<path d="M172.887 330.163C173.405 330.37 173.996 330.118 174.203 329.601L175.253 326.969C174.595 326.888 173.9 326.806 173.168 326.74L172.325 328.847C172.118 329.364 172.37 329.956 172.887 330.163Z" fill="#EFB000"/>
<path d="M176.524 330.163C177.042 330.37 177.633 330.119 177.84 329.601L178.683 327.501C178.055 327.383 177.374 327.265 176.635 327.154L175.962 328.847C175.755 329.364 176.007 329.956 176.524 330.163Z" fill="#EFB000"/>
<path d="M186.608 331.057H165.871C162.84 331.057 160.326 333.275 159.861 336.173H187C187 336.173 187.547 333.149 186.608 331.057Z" fill="#EFB000"/>
<path opacity="0.2" d="M164.355 322.437C164.932 323.014 165.339 323.561 165.339 323.561C168.274 327.775 171.918 328.189 171.918 328.189C182.291 329.18 185.536 331.346 185.536 331.346C186.224 331.708 186.712 332.277 187.052 332.943C187.052 332.891 187.044 332.846 187.037 332.795C187.037 332.795 187.037 332.78 187.037 332.772C187.015 332.632 186.993 332.499 186.971 332.358V332.344C186.941 332.203 186.911 332.07 186.874 331.93V331.915C186.837 331.782 186.801 331.649 186.749 331.516V331.501C186.704 331.368 186.653 331.242 186.594 331.116C186.594 331.116 186.594 331.116 186.594 331.109C186.29 330.444 185.839 329.867 185.167 329.52C185.167 329.52 182.32 327.612 173.205 326.747C173.205 326.747 169.996 326.385 167.424 322.681C167.424 322.681 167.069 322.201 166.566 321.69C166.108 321.239 165.531 320.774 164.969 320.626C164.932 320.618 164.895 320.604 164.851 320.604C164.836 320.604 164.829 320.604 164.814 320.604C164.784 320.604 164.755 320.596 164.725 320.589C164.703 320.589 164.681 320.589 164.659 320.589C164.636 320.589 164.622 320.589 164.599 320.589C164.562 320.589 164.518 320.589 164.481 320.596C164.481 320.596 164.481 320.596 164.474 320.596C164.422 320.596 164.378 320.611 164.333 320.626C164.333 320.626 163.823 320.759 163.387 321.624C163.749 321.86 164.097 322.164 164.4 322.459L164.355 322.437Z" fill="white"/>
<path d="M173.079 126.338L159.801 113.608L158.737 115.19L153.51 133.717L169.087 139.831L170.048 131.713L173.079 126.338Z" fill="#EBAEA3"/>
<path d="M172.532 126.117L169.797 133.953C169.797 133.953 159.949 132.453 160.312 122.694L172.532 126.117Z" fill="#E48C87"/>
<path d="M178.557 100.766L177.53 112.233L184.272 117.386L179.4 119.493L178.794 124.512L179.289 126.908C179.548 127.433 179.615 128.002 179.519 128.542C179.334 129.554 178.491 130.316 177.493 130.567C175.43 131.085 173.56 130.59 171.571 130.028C169.93 129.569 168.333 128.956 166.84 128.128C164.577 126.878 162.581 125.193 160.851 123.278L158.153 112.906L167.157 101.616L178.55 100.766H178.557Z" fill="#EBAEA3"/>
<path d="M157.768 94.6966C158.515 91.902 160.607 90.8448 163.054 89.9946C169.908 87.6141 177.131 91.4511 178.41 98.3931L178.897 101.04C180.524 100.781 167.512 101.942 167.512 101.942C167.291 107.08 160.903 113.438 160.903 113.438L159.018 115.212L158.707 121.378L156.445 122.435C155.654 122.709 154.804 122.287 154.56 121.518L149.984 106.984C147.536 96.8923 157.761 94.7114 157.761 94.7114L157.768 94.6966Z" fill="#313362"/>
<path d="M175.94 112.063C175.97 112.44 175.682 112.772 175.305 112.802C174.928 112.832 174.595 112.543 174.565 112.166C174.536 111.789 174.824 111.456 175.201 111.427C175.578 111.397 175.911 111.686 175.94 112.063Z" fill="#313362"/>
<path d="M169.73 109.571L172.244 109.017L176.672 108.536L176.584 107.309L171.652 108.115L169.73 109.571Z" fill="#313362"/>
<path d="M173.198 115.279C173.316 116.839 172.148 118.192 170.588 118.31C169.028 118.428 167.675 117.26 167.557 115.7C167.439 114.14 168.607 112.787 170.167 112.669C171.726 112.551 173.079 113.719 173.198 115.279Z" fill="#E48C87"/>
<path d="M155.831 110.969C156.807 110.03 158.36 110.052 159.299 111.028C160.238 112.004 160.785 113.97 159.809 114.909C158.833 115.848 156.711 115.412 155.772 114.436C154.833 113.46 154.856 111.907 155.831 110.969Z" fill="#EBAEA3"/>
<path d="M178.853 123.034C178.853 123.034 178.905 123.034 178.934 123.034V122.435C178.934 122.435 178.875 122.435 178.853 122.435C173.116 122.435 171.689 117.785 171.674 117.733L171.105 117.903C171.12 117.955 172.673 123.034 178.853 123.034Z" fill="#E48C87"/>
<path d="M180.894 219.261L183.355 182.791C183.999 173.254 182.875 163.658 179.777 154.624C176.155 144.067 170.425 136.038 158.951 133.273C154.013 132.083 149.2 134.929 147.248 139.38C143.064 148.932 143.759 165.447 143.759 178.636L139.914 217.287C149.429 219.401 162.441 224.229 180.901 219.268L180.894 219.261Z" fill="#4760CA"/>
<path d="M170.07 137.487V141.036L153.658 133.207L154.404 130.819L170.07 137.487Z" fill="#ECB42A"/>
<path d="M153.052 133.687C153.37 133.561 153.695 133.451 154.028 133.354L170.078 141.006V138.825C170.144 138.884 170.211 138.944 170.277 139.003V141.901L153.052 133.687Z" fill="#374FB2"/>
<path d="M160.319 89.0557C160.319 89.8763 160.984 90.5417 161.805 90.5417C162.626 90.5417 163.291 89.8763 163.291 89.0557C163.291 88.2351 162.626 87.8285 161.805 87.8285C160.984 87.8285 160.319 88.2277 160.319 89.0557Z" fill="#ECB42A"/>
<path d="M149.318 107.154L179.378 101.284C179.445 101.276 178.336 94.8445 178.336 94.8445C177.619 90.6157 173.612 87.7694 169.375 88.4865L159.765 90.113C152.579 91.3328 147.744 98.1418 148.963 105.32C148.963 105.32 149.244 107.169 149.304 107.154H149.318Z" fill="#4760CA"/>
<path d="M159.779 90.1056L169.39 88.4791C170.544 88.2869 171.675 88.3608 172.739 88.6492L164.149 90.1056C156.963 91.3254 152.128 98.1344 153.348 105.313C153.348 105.313 153.429 105.845 153.51 106.333L149.326 107.154C149.259 107.161 148.986 105.32 148.986 105.32C147.766 98.1344 152.601 91.3254 159.787 90.113L159.779 90.1056Z" fill="#374FB3"/>
<path d="M149.318 107.109L187.067 99.6425C187.392 101.047 186.475 102.437 185.056 102.696L149.976 109.379L149.318 107.102V107.109Z" fill="#ECB42A"/>
<g style="mix-blend-mode:overlay">
<path d="M163.187 106.592L166.174 106.03L178.299 103.716L178.166 105.128L165.346 107.575L161.886 108.233L150.767 110.348L150.361 109.039L163.187 106.592Z" fill="#444443"/>
</g>
<g style="mix-blend-mode:overlay" opacity="0.48">
<path d="M142.472 217.886C151.048 219.993 162.241 223.253 177.234 220.133C178.01 219.971 178.794 219.793 179.592 219.594C179.556 220.385 179.519 221.19 179.467 222.004C178.565 222.225 177.678 222.418 176.805 222.595C162.056 225.567 151.004 222.358 142.517 220.274C141.97 220.141 141.437 220.008 140.912 219.889C140.831 219.039 140.787 218.233 140.772 217.479C141.326 217.605 141.896 217.745 142.472 217.886Z" fill="#444443"/>
</g>
<path d="M198.541 192.905H245.338V162.091H198.541V192.905Z" fill="#D7803D"/>
<path d="M196.544 162.254H247.334V154.55H196.544V162.254Z" fill="#D7803D"/>
<path d="M245.331 162.254H198.533V164.523H245.331V162.254Z" fill="#F6A654"/>
<path d="M218.783 161.063H224.86V154.55H218.783V161.063Z" fill="white"/>
<path d="M177.456 178.282C177.456 178.282 205.15 186.88 205.727 187.094C208.018 187.205 210.347 187.116 212.705 186.85C213.829 186.724 214.946 186.569 216.054 186.392C216.712 186.288 217.984 185.815 218.494 186.362C218.864 186.761 218.842 187.56 218.383 187.893C217.977 188.188 217.437 188.173 216.979 188.329C216.165 188.602 215.397 189.009 214.642 189.43C214.221 189.667 213.511 190.14 213.859 190.709C214.162 191.205 214.776 191.552 215.263 191.818C215.892 192.158 216.587 192.358 217.282 192.469C218.99 192.742 220.801 192.558 222.479 192.121C222.886 192.018 223.344 192.033 223.728 192.188C224.024 192.306 224.283 192.543 224.342 192.861C224.394 193.149 224.261 193.437 224.113 193.681C223.388 194.872 221.947 195.589 220.734 196.136C219.951 196.491 219.145 196.801 218.317 197.038C215.803 197.356 213.238 196.513 210.99 195.456C209.504 194.761 207.131 193.962 204.765 193.223L178.313 191.914C174.602 191.656 171.061 190.236 168.244 187.811C165.767 185.682 163.675 183.109 162.086 180.211L158.508 173.447L173.39 167.067L177.434 178.289L177.456 178.282Z" fill="#EBAEA3"/>
<path d="M152.534 139.69C157.236 137.62 162.759 139.875 165.228 144.385L173.405 167.066L158.522 173.447L147.884 153.315C145.156 148.34 147.226 142.034 152.534 139.698V139.69Z" fill="#374FB2"/>
<path d="M173.412 167.059L158.53 173.439L157.554 171.598L172.806 165.381L173.412 167.059Z" fill="#ECB42A"/>
<path d="M173.804 168.101L158.929 174.482L158.33 173.358L173.434 167.059L173.804 168.101Z" fill="#DD8F85"/>
<path d="M184.45 165.433C184.376 165.292 183.999 164.235 183.999 164.235L182.402 164.752L182.609 166.246L184.45 165.433Z" fill="#ECB42A"/>
</svg>
