<svg width="306" height="320" viewBox="0 0 306 320" fill="none" xmlns="http://www.w3.org/2000/svg">
<path d="M174.697 210.914L104.069 205.538V6.65864L174.697 1.42432V210.914Z" fill="#97A6B7"/>
<path d="M110.911 79.1802V163.7H109.528V185.331H174.697V79.1802H110.911Z" fill="#D8DEE8"/>
<mask id="mask0_307_637" style="mask-type:luminance" maskUnits="userSpaceOnUse" x="109" y="10" width="66" height="192">
<path d="M109.528 196.846V15.3627L174.697 10.9795V201.36L109.528 196.846Z" fill="white"/>
</mask>
<g mask="url(#mask0_307_637)">
<path d="M195.838 -13.0703C195.838 -13.0703 195.906 32.681 206.159 53.6833C216.412 74.6857 220.269 95.1332 212.554 107.105C204.839 119.078 174.697 100.809 174.697 100.809C174.697 100.809 160.475 110.849 154.046 132.334C147.617 153.819 105.826 171.722 96.8242 165.666C87.8228 159.61 91.6803 -2.53309 91.6803 -2.53309L195.838 -13.0703Z" fill="white"/>
<path d="M94.8957 177.994C94.8957 177.994 120.219 189.811 139.383 178.892C158.547 167.973 174.697 148.35 174.697 148.35C174.697 148.35 194.187 160.301 204.657 159.633C215.126 158.966 222.871 125.352 222.871 125.352C222.871 125.352 240.201 116.734 247.916 99.2482C255.631 81.7621 279.314 62.7188 292.279 58.7295C305.244 54.7403 312.853 62.1877 312.853 62.1877L309.638 214.602L109.527 225.088L94.8948 177.994H94.8957Z" fill="white"/>
</g>
<path d="M222.87 199.487H305.244V13.1284H222.87L222.87 199.487Z" fill="#97A6B7"/>
<path d="M298.566 190.973V21.5122H222.871L200.156 85.5032L222.871 190.973H298.566Z" fill="#D8DEE8"/>
<mask id="mask1_307_637" style="mask-type:luminance" maskUnits="userSpaceOnUse" x="222" y="21" width="77" height="170">
<path d="M298.566 190.973V21.5122L222.871 21.5122V190.973H298.566Z" fill="white"/>
</mask>
<g mask="url(#mask1_307_637)">
<path d="M94.8957 177.994C94.8957 177.994 120.219 189.811 139.383 178.892C158.547 167.973 174.697 148.35 174.697 148.35C174.697 148.35 194.187 160.3 204.657 159.633C215.126 158.966 222.871 125.352 222.871 125.352C222.871 125.352 240.201 116.734 247.916 99.248C255.631 81.7619 279.314 62.7185 292.279 58.7293C305.244 54.74 312.853 62.1875 312.853 62.1875L309.638 214.602L109.527 225.088L94.8948 177.994H94.8957Z" fill="white"/>
<path d="M208.941 -7.38086C208.941 -7.38086 202.114 23.9679 208.941 32.2771C215.769 40.5862 220.971 64.3688 222.871 70.813C224.77 77.2581 239.558 91.3643 247.274 78.5207C254.989 65.6772 266.562 56.3085 272.348 51.986C278.134 47.6635 314.782 43.224 316.711 39.9751C318.64 36.7262 319.925 -0.138276 319.925 -0.138276L208.941 -7.38086Z" fill="white"/>
</g>
<path d="M222.871 199.487L174.698 210.914V1.42432L222.871 13.1283V21.5122L213.853 39.423L211.099 187.43L222.871 190.973V199.487Z" fill="#97A6B7"/>
<path d="M222.871 162.585V23.6893L205.908 17.8781L197.495 16.0185L196.043 15.8479V100.589H174.698V162.585H222.871Z" fill="#97A6B7"/>
<mask id="mask2_307_637" style="mask-type:luminance" maskUnits="userSpaceOnUse" x="174" y="10" width="49" height="192">
<path d="M174.698 201.36V10.9795L222.871 21.5123V190.987L174.698 201.36Z" fill="white"/>
</mask>
<g mask="url(#mask2_307_637)">
<path d="M195.838 -13.0703C195.838 -13.0703 195.907 32.681 206.159 53.6833C216.412 74.6857 220.27 95.1332 212.555 107.105C204.84 119.078 174.697 100.809 174.697 100.809C174.697 100.809 160.476 110.849 154.046 132.334C147.617 153.819 105.826 171.722 96.8245 165.666C87.8231 159.61 91.6805 -2.53309 91.6805 -2.53309L195.838 -13.0703Z" fill="#D8DEE8"/>
<path d="M94.8957 177.994C94.8957 177.994 120.219 189.811 139.383 178.892C158.547 167.973 174.697 148.35 174.697 148.35C174.697 148.35 194.187 160.301 204.657 159.633C215.126 158.966 222.871 125.352 222.871 125.352C222.871 125.352 240.201 116.734 247.916 99.2482C255.631 81.7621 279.314 62.7188 292.279 58.7295C305.244 54.7403 312.853 62.1877 312.853 62.1877L309.638 214.602L109.527 225.088L94.8948 177.994H94.8957Z" fill="#D8DEE8"/>
<path d="M208.941 -7.38062C208.941 -7.38062 202.114 23.9682 208.941 32.2773C215.769 40.5864 220.971 64.3691 222.871 70.8133C224.77 77.2583 239.558 91.3645 247.274 78.521C254.989 65.6774 266.562 56.3088 272.348 51.9862C278.134 47.6637 314.782 43.2243 316.711 39.9753C318.64 36.7264 319.925 -0.138031 319.925 -0.138031L208.941 -7.38062Z" fill="#D8DEE8"/>
</g>
<path opacity="0.53" d="M261.361 21.5122H260.076V199.487H261.361V21.5122Z" fill="url(#paint0_linear_307_637)"/>
<path opacity="0.53" d="M142.756 13.1707H141.47V199.486H142.756V13.1707Z" fill="url(#paint1_linear_307_637)"/>
<path opacity="0.53" d="M298.566 81.0736H222.796L222.723 81.056L174.649 69.6228L109.582 75.1218L109.474 73.8398L174.746 68.3232L174.846 68.347L222.947 79.7872H298.566V81.0736Z" fill="url(#paint2_linear_307_637)"/>
<path d="M123.812 113.599C123.392 113.599 122.977 113.407 122.708 113.043C122.257 112.434 122.385 111.574 122.994 111.122C122.996 111.12 123.522 110.73 124.448 110.031C125.053 109.573 125.914 109.694 126.371 110.3C126.828 110.905 126.706 111.766 126.102 112.224C125.162 112.933 124.629 113.329 124.629 113.329C124.383 113.511 124.097 113.599 123.813 113.599H123.812Z" fill="url(#paint3_linear_307_637)"/>
<path opacity="0.75" d="M251.79 119.43C251.547 119.43 251.289 119.42 251.024 119.4C250.268 119.344 249.701 118.686 249.758 117.928C249.814 117.171 250.47 116.603 251.229 116.661C251.793 116.703 252.273 116.685 252.629 116.607C253.178 116.486 253.725 116.337 254.253 116.161C254.972 115.923 255.75 116.312 255.988 117.033C256.227 117.753 255.836 118.53 255.117 118.768C254.498 118.973 253.859 119.149 253.216 119.29C252.793 119.383 252.312 119.429 251.789 119.429L251.79 119.43ZM247.559 118.721C247.439 118.721 247.317 118.705 247.195 118.671C246.124 118.378 244.924 117.993 243.628 117.526C242.914 117.269 242.544 116.482 242.801 115.769C243.058 115.055 243.844 114.685 244.557 114.942C245.786 115.384 246.918 115.747 247.92 116.022C248.651 116.223 249.082 116.978 248.882 117.71C248.715 118.32 248.162 118.721 247.558 118.721H247.559ZM257.99 117.344C257.518 117.344 257.059 117.1 256.803 116.662C256.421 116.007 256.642 115.166 257.297 114.783C258.244 114.23 259.161 113.566 260.022 112.809C260.592 112.309 261.459 112.365 261.959 112.935C262.46 113.505 262.403 114.373 261.834 114.874C260.841 115.746 259.78 116.515 258.681 117.156C258.464 117.284 258.225 117.344 257.99 117.344ZM240.696 116.293C240.522 116.293 240.345 116.26 240.175 116.19C239.11 115.752 237.971 115.263 236.791 114.738C236.098 114.429 235.787 113.617 236.096 112.924C236.405 112.231 237.217 111.92 237.908 112.228C239.064 112.743 240.177 113.222 241.217 113.649C241.918 113.937 242.253 114.739 241.965 115.441C241.747 115.972 241.235 116.293 240.695 116.293H240.696ZM234.041 113.335C233.845 113.335 233.645 113.293 233.456 113.203C232.395 112.702 231.286 112.166 230.157 111.609C229.477 111.274 229.198 110.45 229.533 109.77C229.867 109.089 230.691 108.81 231.371 109.145C232.486 109.694 233.582 110.223 234.629 110.718C235.314 111.042 235.608 111.861 235.284 112.547C235.049 113.043 234.556 113.334 234.041 113.334V113.335ZM263.441 112.594C263.136 112.594 262.829 112.493 262.575 112.285C261.987 111.806 261.899 110.941 262.378 110.353C263.082 109.487 263.745 108.539 264.347 107.535C264.737 106.884 265.58 106.674 266.23 107.063C266.88 107.454 267.091 108.297 266.701 108.948C266.032 110.063 265.293 111.119 264.507 112.087C264.235 112.42 263.84 112.593 263.442 112.593L263.441 112.594ZM128.167 110.3C127.755 110.3 127.347 110.115 127.077 109.763C126.616 109.161 126.729 108.299 127.33 107.837C128.192 107.175 129.157 106.429 130.2 105.616C130.798 105.15 131.66 105.256 132.127 105.855C132.593 106.454 132.486 107.317 131.888 107.783C130.839 108.602 129.869 109.352 129.001 110.018C128.752 110.209 128.458 110.302 128.167 110.302V110.3ZM227.508 110.118C227.298 110.118 227.085 110.07 226.885 109.968C225.829 109.429 224.737 108.863 223.638 108.286C222.967 107.934 222.708 107.104 223.06 106.432C223.412 105.76 224.241 105.501 224.913 105.853C226.003 106.425 227.086 106.986 228.133 107.521C228.809 107.865 229.077 108.693 228.732 109.368C228.49 109.844 228.008 110.118 227.508 110.118ZM221.059 106.736C220.84 106.736 220.618 106.683 220.411 106.573C219.338 105.996 218.266 105.414 217.2 104.829C216.535 104.464 216.292 103.63 216.656 102.964C217.021 102.299 217.855 102.056 218.52 102.42C219.58 103.001 220.644 103.58 221.71 104.152C222.377 104.511 222.628 105.343 222.269 106.012C222.022 106.473 221.548 106.735 221.058 106.735L221.059 106.736ZM133.905 105.824C133.5 105.824 133.099 105.645 132.828 105.302C132.358 104.707 132.458 103.843 133.052 103.373C133.965 102.65 134.914 101.893 135.887 101.11C136.477 100.634 137.341 100.728 137.817 101.319C138.292 101.91 138.198 102.775 137.607 103.25C136.629 104.038 135.674 104.799 134.756 105.526C134.504 105.726 134.203 105.823 133.905 105.823L133.905 105.824ZM214.674 103.234C214.447 103.234 214.218 103.178 214.006 103.06C212.933 102.46 211.871 101.862 210.824 101.267C210.165 100.893 209.934 100.054 210.308 99.3943C210.683 98.7348 211.52 98.5035 212.18 98.8781C213.22 99.4699 214.277 100.065 215.343 100.661C216.005 101.031 216.242 101.868 215.873 102.53C215.622 102.98 215.154 103.234 214.673 103.234H214.674ZM139.572 101.259C139.175 101.259 138.781 101.088 138.51 100.756C138.029 100.169 138.115 99.3037 138.701 98.8236C139.623 98.0674 140.556 97.2954 141.491 96.5138C142.073 96.0266 142.939 96.104 143.424 96.6861C143.911 97.2682 143.834 98.1343 143.252 98.6205C142.31 99.4092 141.37 100.186 140.441 100.949C140.186 101.158 139.878 101.26 139.572 101.26V101.259ZM208.341 99.6361C208.108 99.6361 207.873 99.5771 207.657 99.4523C206.579 98.8306 205.525 98.2169 204.5 97.6164C203.846 97.233 203.627 96.3915 204.01 95.7374C204.394 95.0823 205.235 94.8634 205.888 95.2467C206.907 95.8446 207.955 96.4548 209.027 97.073C209.685 97.4519 209.91 98.2916 209.531 98.9493C209.277 99.3899 208.815 99.6369 208.34 99.6369L208.341 99.6361ZM145.149 96.5885C144.763 96.5885 144.378 96.4258 144.106 96.1084C143.613 95.5325 143.68 94.6655 144.256 94.1714C145.195 93.366 146.114 92.5676 146.987 91.7973C147.555 91.2953 148.422 91.3498 148.924 91.9195C149.426 92.4884 149.371 93.3563 148.802 93.8583C147.92 94.6365 146.991 95.4437 146.042 96.2579C145.783 96.4795 145.466 96.5885 145.149 96.5885ZM202.057 95.9528C201.818 95.9528 201.576 95.8903 201.356 95.7593C200.263 95.1087 199.216 94.48 198.225 93.8794C197.576 93.4873 197.368 92.6423 197.76 91.9934C198.153 91.3436 198.997 91.1361 199.645 91.5291C200.63 92.1262 201.673 92.7513 202.76 93.3985C203.411 93.7862 203.625 94.6295 203.238 95.281C202.981 95.7127 202.525 95.9528 202.057 95.9528ZM195.823 92.1798C195.577 92.1798 195.328 92.1139 195.104 91.9758C193.978 91.2812 192.933 90.6288 191.999 90.037C191.358 89.6308 191.169 88.7823 191.574 88.1413C191.98 87.5003 192.828 87.3095 193.468 87.7157C194.393 88.3022 195.428 88.9485 196.544 89.6369C197.19 90.0353 197.391 90.8811 196.994 91.5265C196.734 91.9477 196.284 92.1798 195.824 92.1798H195.823ZM150.601 91.7709C150.229 91.7709 149.858 91.6206 149.588 91.3243C149.076 90.7642 149.115 89.8955 149.674 89.3837C150.603 88.5335 151.489 87.7043 152.305 86.92C152.852 86.3942 153.721 86.4126 154.247 86.9596C154.771 87.5065 154.754 88.3761 154.207 88.9019C153.375 89.7011 152.472 90.5452 151.527 91.4113C151.263 91.6522 150.932 91.7709 150.601 91.7709ZM189.679 88.26C189.416 88.26 189.149 88.1844 188.914 88.0261C188.156 87.5153 187.379 86.9815 186.585 86.4373L185.902 85.9686C185.276 85.5395 185.117 84.6849 185.545 84.0588C185.974 83.4328 186.828 83.2736 187.453 83.7018L188.138 84.1714C188.924 84.7113 189.695 85.2406 190.446 85.747C191.075 86.1708 191.242 87.0246 190.818 87.6533C190.553 88.0472 190.119 88.26 189.678 88.26H189.679ZM155.84 86.723C155.494 86.723 155.149 86.5938 154.883 86.3335C154.34 85.8042 154.327 84.9346 154.856 84.3912C155.759 83.4636 156.572 82.5834 157.275 81.7754C157.773 81.203 158.64 81.1432 159.212 81.6417C159.784 82.1394 159.844 83.0072 159.346 83.5796C158.609 84.4255 157.761 85.3434 156.824 86.3071C156.555 86.5841 156.197 86.723 155.84 86.723ZM183.663 84.1731C183.404 84.1731 183.142 84.1002 182.909 83.9463C181.8 83.2147 180.81 82.5896 179.884 82.0339C179.234 81.6435 179.023 80.8002 179.412 80.1496C179.803 79.4989 180.644 79.287 181.296 79.6774C182.255 80.2533 183.277 80.8987 184.419 81.6523C185.052 82.0699 185.228 82.9211 184.81 83.555C184.547 83.956 184.109 84.1731 183.663 84.1731ZM160.655 81.2724C160.312 81.2724 159.969 81.1449 159.703 80.8882C159.157 80.3624 159.141 79.4928 159.666 78.9459C160.653 77.9206 161.733 77.0906 162.875 76.4795C163.544 76.1225 164.375 76.3749 164.733 77.044C165.09 77.7131 164.837 78.5449 164.169 78.9028C163.28 79.3776 162.43 80.0335 161.643 80.8512C161.374 81.1309 161.014 81.2724 160.655 81.2724ZM177.412 80.4652C177.203 80.4652 176.993 80.4178 176.795 80.3175C175.681 79.7548 174.61 79.2852 173.616 78.9221C172.903 78.6618 172.537 77.8731 172.797 77.1609C173.057 76.4487 173.844 76.0812 174.557 76.3414C175.653 76.7415 176.821 77.2541 178.031 77.8652C178.708 78.2073 178.98 79.0329 178.638 79.7099C178.397 80.1891 177.913 80.4652 177.412 80.4652ZM170.584 78.0604C170.51 78.0604 170.437 78.0543 170.362 78.042C169.22 77.8555 168.139 77.8265 167.141 77.9558C166.388 78.0543 165.7 77.5223 165.604 76.7696C165.506 76.017 166.037 75.3285 166.789 75.2318C168.052 75.0683 169.4 75.1017 170.805 75.3312C171.553 75.4534 172.06 76.1594 171.938 76.9077C171.828 77.5812 171.246 78.0604 170.585 78.0604H170.584Z" fill="#2E2E2E"/>
<path d="M267.112 106.534C266.929 106.534 266.743 106.497 266.565 106.419C265.869 106.115 265.551 105.307 265.855 104.611C266.268 103.662 266.459 103.052 266.461 103.046C266.687 102.322 267.456 101.917 268.178 102.142C268.901 102.366 269.306 103.134 269.083 103.857C269.073 103.887 268.851 104.606 268.37 105.708C268.145 106.225 267.641 106.533 267.111 106.533L267.112 106.534Z" fill="url(#paint4_linear_307_637)"/>
<path d="M160.891 37.1045C160.891 52.9596 138.693 81.8921 128.647 94.1738C126.147 97.2301 121.474 97.2301 118.974 94.1738C108.928 81.8921 86.73 52.9596 86.73 37.1045C86.73 16.6121 103.331 0 123.81 0C144.289 0 160.891 16.6121 160.891 37.1045Z" fill="#4760CA"/>
<path d="M138.434 51.7374C146.51 43.656 146.51 30.5535 138.434 22.4721C130.358 14.3907 117.264 14.3907 109.188 22.4721C101.111 30.5535 101.111 43.656 109.188 51.7374C117.264 59.8188 130.358 59.8188 138.434 51.7374Z" fill="white"/>
<g style="mix-blend-mode:multiply" opacity="0.3">
<path d="M123.647 78.9396C125.999 63.4371 136.23 58.4744 134.474 43.8363C132.449 26.9542 117.511 22.4585 117.15 7.43344C117.092 5.01456 117.421 2.68184 118.041 0.448486C100.303 3.22172 86.7307 18.5765 86.7307 37.1054C86.7307 52.9605 108.928 81.893 118.975 94.1747C120.446 95.9737 122.67 96.7123 124.761 96.394C122.963 89.6043 122.909 83.8055 123.647 78.9404V78.9396Z" fill="url(#paint5_linear_307_637)"/>
</g>
<path d="M123.811 119.809C127.997 119.809 131.39 116.414 131.39 112.225C131.39 108.037 127.997 104.642 123.811 104.642C119.625 104.642 116.232 108.037 116.232 112.225C116.232 116.414 119.625 119.809 123.811 119.809Z" fill="#4760CA"/>
<path d="M287.22 62.8875C287.22 71.2037 275.577 86.3782 270.308 92.8198C268.997 94.4227 266.546 94.4227 265.234 92.8198C259.966 86.3782 248.323 71.2037 248.323 62.8875C248.323 52.1401 257.03 43.4265 267.771 43.4265C278.512 43.4265 287.22 52.1392 287.22 62.8875Z" fill="#F20C1E"/>
<path d="M278.378 65.1373C279.622 59.2734 275.879 53.5112 270.019 52.2669C264.159 51.0227 258.401 54.7676 257.157 60.6314C255.914 66.4952 259.656 72.2574 265.516 73.5017C271.376 74.746 277.135 71.0011 278.378 65.1373Z" fill="white"/>
<g style="mix-blend-mode:multiply" opacity="0.3">
<path d="M267.686 84.8288C268.92 76.6981 274.286 74.0955 273.365 66.4176C272.303 57.5633 264.468 55.2051 264.279 47.3251C264.249 46.0563 264.422 44.8332 264.747 43.6611C255.443 45.1155 248.325 53.1687 248.325 62.8865C248.325 71.2026 259.967 86.3772 265.236 92.8187C266.008 93.7622 267.175 94.1499 268.271 93.9829C267.328 90.4218 267.299 87.3804 267.687 84.8288H267.686Z" fill="url(#paint6_linear_307_637)"/>
</g>
<path d="M270.219 105.429C271.949 104.077 272.257 101.578 270.906 99.8461C269.555 98.1144 267.057 97.8066 265.326 99.1585C263.596 100.51 263.288 103.01 264.639 104.742C265.99 106.474 268.488 106.781 270.219 105.429Z" fill="#F20C1E"/>
<path d="M305.065 312.503C305.065 316.466 301.853 319.677 297.89 319.677H7.17444C3.21121 319.677 0 316.466 0 312.503C0 308.539 3.21121 305.328 7.17444 305.328H297.896C301.859 305.328 305.07 308.539 305.07 312.503H305.065Z" fill="#8DB8D4"/>
<path d="M32.6884 270.197C32.7324 270.933 32.1725 272.76 31.4369 272.81H11.5384C10.8028 272.854 10.1716 272.288 10.1277 271.553L10.1167 271.421C10.0728 270.686 10.6327 270.054 11.3682 270.01L31.2667 268.814C32.0023 268.77 32.6335 269.33 32.6775 270.065L32.6884 270.197Z" fill="#0F1111"/>
<path d="M7.48184 276.773H19.5966C20.3322 276.773 20.9305 277.372 20.9305 278.107V281.796C20.9305 282.531 20.3322 283.13 19.5966 283.13H7.48184C6.74628 283.13 6.14795 282.531 6.14795 281.796V278.107C6.14795 277.372 6.74628 276.773 7.48184 276.773Z" fill="#0F1111"/>
<path d="M28.4069 277.668C28.4069 278.162 28.0062 278.557 27.5122 278.557H8.37668C7.88265 278.557 7.48193 278.156 7.48193 277.668C7.48193 277.174 7.88265 276.773 8.37668 276.773H27.5122C28.0062 276.773 28.4069 277.174 28.4069 277.668Z" fill="#0F1111"/>
<path d="M129.552 261.184H120.154C112.321 261.184 105.964 271.74 105.964 284.755C105.964 297.77 112.315 308.325 120.154 308.325H129.552C137.39 308.325 143.741 297.77 143.741 284.755C143.741 271.74 137.39 261.184 129.552 261.184Z" fill="#0F1111"/>
<path d="M220.931 261.184H211.534C203.695 261.184 197.344 271.74 197.344 284.755C197.344 297.77 203.695 308.325 211.534 308.325H220.931C228.77 308.325 235.121 297.77 235.121 284.755C235.121 271.74 228.77 261.184 220.931 261.184Z" fill="#0F1111"/>
<path d="M267.041 261.184H257.643C249.805 261.184 243.454 271.74 243.454 284.755C243.454 297.77 249.805 308.325 257.643 308.325H267.041C274.88 308.325 281.231 297.77 281.231 284.755C281.231 271.74 274.88 261.184 267.041 261.184Z" fill="#0F1111"/>
<path d="M105.602 261.184H96.2046C88.3714 261.184 82.0149 271.74 82.0149 284.755C82.0149 297.77 88.3659 308.325 96.2046 308.325H105.602C113.441 308.325 119.792 297.77 119.792 284.755C119.792 271.74 113.441 261.184 105.602 261.184Z" fill="#0F1111"/>
<path d="M213.91 281.313C213.91 282.048 213.312 282.647 212.576 282.647L28.308 281.982C27.5724 281.982 26.9741 281.384 26.9741 280.648V264.505C26.9741 263.769 27.5724 263.171 28.308 263.171L213.246 246.368C213.982 246.368 214.58 246.966 214.58 247.702L213.916 281.313H213.91Z" fill="#242829"/>
<path opacity="0.8" d="M213.91 271.037C213.91 271.772 213.312 272.371 212.576 272.371L28.308 271.701C27.5724 271.701 26.9741 271.103 26.9741 270.367V280.643C26.9741 281.379 27.5724 281.977 28.308 281.977L212.576 282.641C213.312 282.641 213.91 282.043 213.91 281.307L214.574 247.697C214.574 247.45 214.503 247.219 214.382 247.021L213.905 271.037H213.91Z" fill="#0F1111"/>
<path d="M288.29 187.315H296.716C296.963 187.315 297.16 187.513 297.16 187.76V209.755C297.16 210.002 296.963 210.2 296.716 210.2H288.29C288.043 210.2 287.845 210.002 287.845 209.755V187.76C287.845 187.513 288.043 187.315 288.29 187.315Z" fill="#242829"/>
<path d="M151.481 259.971L8.57983 270.817V196.301L151.481 157.937V259.971Z" fill="#D8D8D8"/>
<path d="M239.628 259.971H151.481V157.937L239.628 161.548V259.971Z" fill="#BBC1C1"/>
<path d="M235.302 254.97H155.802V162.937L235.302 166.198V254.97Z" fill="#A8AAA9"/>
<path d="M11.7415 198.354V266.953L13.0479 266.816V197.997L11.7415 198.354Z" fill="#A8AAA9"/>
<path d="M15.2109 197.415V266.591L16.5174 266.453V197.064L15.2109 197.415Z" fill="#A8AAA9"/>
<path d="M19.5361 196.246V266.141L20.8426 266.003V195.895L19.5361 196.246Z" fill="#A8AAA9"/>
<path d="M23.8618 195.077V265.685L25.1683 265.548V194.726L23.8618 195.077Z" fill="#A8AAA9"/>
<path d="M28.1875 193.907V265.235L29.4939 265.097V193.556L28.1875 193.907Z" fill="#A8AAA9"/>
<path d="M32.5129 192.738V264.779L33.8194 264.642V192.387L32.5129 192.738Z" fill="#A8AAA9"/>
<path d="M36.8384 191.569V264.329L38.1393 264.192V191.218L36.8384 191.569Z" fill="#A8AAA9"/>
<path d="M41.1641 190.4V263.873L42.465 263.736V190.049L41.1641 190.4Z" fill="#A8AAA9"/>
<path d="M45.4897 189.236V263.423L46.7907 263.286V188.879L45.4897 189.236Z" fill="#A8AAA9"/>
<path d="M49.8096 188.067V262.968L51.116 262.83V187.71L49.8096 188.067Z" fill="#A8AAA9"/>
<path d="M54.135 186.898V262.517L55.4414 262.38V186.541L54.135 186.898Z" fill="#A8AAA9"/>
<path d="M58.4604 185.729V262.062L59.7669 261.93V185.372L58.4604 185.729Z" fill="#A8AAA9"/>
<path d="M62.6982 184.581L62.7696 261.612L64.076 261.48L64.0047 184.23L62.6982 184.581Z" fill="#A8AAA9"/>
<path d="M67.0239 183.412L67.0953 261.162L68.4017 261.025L68.3304 183.061L67.0239 183.412Z" fill="#A8AAA9"/>
<path d="M71.3491 182.243L71.4205 260.706L72.7269 260.574L72.6556 181.892L71.3491 182.243Z" fill="#A8AAA9"/>
<path d="M75.6748 181.074L75.7462 260.256L77.0526 260.119L76.9812 180.722L75.6748 181.074Z" fill="#A8AAA9"/>
<path d="M80.0005 179.905L80.0718 259.8L81.3783 259.669L81.3069 179.553L80.0005 179.905Z" fill="#A8AAA9"/>
<path d="M84.3259 178.735L84.3973 259.35L85.7037 259.213L85.6324 178.384L84.3259 178.735Z" fill="#A8AAA9"/>
<path d="M88.6514 177.571L88.7227 258.9L90.0292 258.763L89.9523 177.215L88.6514 177.571Z" fill="#A8AAA9"/>
<path d="M92.9771 176.402L93.0484 258.444L94.3548 258.307L94.278 176.045L92.9771 176.402Z" fill="#A8AAA9"/>
<path d="M97.3025 175.233L97.3739 257.994L98.6803 257.857L98.6034 174.876L97.3025 175.233Z" fill="#A8AAA9"/>
<path d="M101.628 174.064L101.699 257.539L103.006 257.402L102.929 173.713L101.628 174.064Z" fill="#A8AAA9"/>
<path d="M105.948 172.895L106.025 257.089L107.331 256.951L107.254 172.543L105.948 172.895Z" fill="#A8AAA9"/>
<path d="M110.274 171.725L110.351 256.633L111.657 256.496L111.58 171.374L110.274 171.725Z" fill="#A8AAA9"/>
<path d="M114.599 170.556L114.676 256.183L115.982 256.046L115.906 170.205L114.599 170.556Z" fill="#A8AAA9"/>
<path d="M118.925 169.387L119.001 255.727L120.308 255.59L120.231 169.036L118.925 169.387Z" fill="#A8AAA9"/>
<path d="M123.25 168.218L123.327 255.277L124.633 255.14L124.556 167.867L123.25 168.218Z" fill="#A8AAA9"/>
<path d="M127.576 167.049L127.653 254.822L128.959 254.685L128.882 166.698L127.576 167.049Z" fill="#A8AAA9"/>
<path d="M131.901 165.879L131.978 254.371L133.284 254.234L133.208 165.528L131.901 165.879Z" fill="#A8AAA9"/>
<path d="M136.227 164.71L136.303 253.916L137.61 253.784L137.528 164.359L136.227 164.71Z" fill="#A8AAA9"/>
<path d="M140.552 163.541L140.629 253.466L141.936 253.329L141.853 163.19L140.552 163.541Z" fill="#A8AAA9"/>
<path d="M146.179 162.021L144.878 162.377L144.955 253.016L146.261 252.878L146.179 162.021Z" fill="#A8AAA9"/>
<path d="M160.961 163.19H159.935V254.965H160.961V163.19Z" fill="#D9D8D3"/>
<path d="M164.386 163.289V254.97H165.413V163.332L164.386 163.289Z" fill="#D9D8D3"/>
<path d="M168.833 163.475V254.97H169.864V163.514L168.833 163.475Z" fill="#D9D8D3"/>
<path d="M173.284 163.656V254.97H174.311V163.7L173.284 163.656Z" fill="#D9D8D3"/>
<path d="M177.73 163.838V254.97H178.762V163.882L177.73 163.838Z" fill="#D9D8D3"/>
<path d="M182.182 164.019V254.97H183.209V164.062L182.182 164.019Z" fill="#D9D8D3"/>
<path d="M186.628 164.205V254.97H187.655V164.244L186.628 164.205Z" fill="#D9D8D3"/>
<path d="M191.075 164.386V254.97H192.107V164.43L191.075 164.386Z" fill="#D9D8D3"/>
<path d="M195.527 164.568V254.97H196.553V164.612L195.527 164.568Z" fill="#D9D8D3"/>
<path d="M199.979 164.749V254.97H201.005V164.793L199.979 164.749Z" fill="#D9D8D3"/>
<path d="M204.425 164.935V254.97H205.451V164.974L204.425 164.935Z" fill="#D9D8D3"/>
<path d="M208.871 165.116V254.97H209.903V165.155L208.871 165.116Z" fill="#D9D8D3"/>
<path d="M213.323 165.298V254.97H214.349V165.342L213.323 165.298Z" fill="#D9D8D3"/>
<path d="M217.769 165.479V254.97H218.801V165.523L217.769 165.479Z" fill="#D9D8D3"/>
<path d="M222.221 165.66V254.97H223.247V165.704L222.221 165.66Z" fill="#D9D8D3"/>
<path d="M226.667 165.847V254.97H227.699V165.885L226.667 165.847Z" fill="#D9D8D3"/>
<path d="M231.119 166.028V254.97H232.145V166.072L231.119 166.028Z" fill="#D9D8D3"/>
<path d="M181.315 162.728C177.725 163.958 174.135 192.969 174.135 248.41C174.135 248.41 192.481 237.014 209.728 270.817L295.755 276.872V228.248C295.755 207.79 280.308 168.135 274.407 164.803C264.922 159.44 210.754 152.65 181.315 162.728Z" fill="#4760CA"/>
<path d="M181.315 162.729C177.725 163.958 174.135 192.969 174.135 248.41C174.135 248.41 192.481 237.014 209.728 270.817L223.089 276.872C221.936 231.042 209.464 166.236 206.308 162.729C202.839 158.875 181.315 162.729 181.315 162.729Z" fill="#374FB7"/>
<path d="M228.424 252.604C228.111 252.604 227.787 252.5 227.513 252.297C227.178 252.05 226.958 251.687 226.898 251.276L223.736 230.279C223.676 229.868 223.774 229.456 224.021 229.121C224.268 228.786 224.631 228.567 225.042 228.506C225.163 228.49 225.278 228.572 225.295 228.693C225.311 228.814 225.229 228.929 225.108 228.945C224.812 228.989 224.554 229.143 224.378 229.385C224.203 229.626 224.131 229.917 224.175 230.208L227.337 251.204C227.381 251.501 227.535 251.759 227.776 251.934C228.018 252.11 228.303 252.181 228.605 252.137L233.084 252.148C233.205 252.148 233.304 252.247 233.304 252.373C233.304 252.494 233.205 252.593 233.079 252.593L228.632 252.577C228.561 252.588 228.49 252.593 228.418 252.593L228.424 252.604Z" fill="white"/>
<path d="M233.864 260.19C233.743 260.19 233.644 260.091 233.644 259.971C233.425 241.532 227.03 220.602 226.964 220.393C226.925 220.278 226.991 220.152 227.112 220.113C227.227 220.075 227.354 220.141 227.392 220.261C227.458 220.47 233.869 241.461 234.089 259.965C234.089 260.086 233.99 260.19 233.869 260.19H233.864Z" fill="white"/>
<path d="M291.764 252.95C291.687 252.95 291.605 252.95 291.528 252.933L287.115 252.95C286.994 252.95 286.895 252.851 286.89 252.73C286.89 252.61 286.988 252.505 287.109 252.505L291.556 252.489C291.885 252.533 292.176 252.461 292.417 252.286C292.659 252.11 292.813 251.852 292.856 251.556L294.086 230.576C294.135 230.263 294.059 229.967 293.883 229.73C293.707 229.489 293.449 229.335 293.153 229.291C293.032 229.275 292.95 229.16 292.966 229.039C292.983 228.918 293.098 228.836 293.219 228.852C293.63 228.913 293.993 229.132 294.24 229.467C294.487 229.802 294.586 230.214 294.525 230.625L293.296 251.605C293.23 252.039 293.016 252.401 292.681 252.643C292.412 252.846 292.088 252.95 291.759 252.95H291.764Z" fill="white"/>
<path d="M286.341 260.531C286.341 260.531 286.324 260.531 286.313 260.531C286.193 260.514 286.105 260.404 286.116 260.284C288.943 235.9 287.631 220.234 287.62 220.08C287.609 219.96 287.702 219.85 287.823 219.839C287.949 219.822 288.053 219.916 288.064 220.042C288.081 220.196 289.393 235.906 286.56 260.333C286.544 260.448 286.451 260.531 286.341 260.531Z" fill="white"/>
<path d="M261.37 231.509C247.658 231.509 229.505 228.693 229.324 228.666C229.203 228.649 229.121 228.534 229.138 228.413C229.16 228.292 229.275 228.21 229.39 228.226C229.571 228.254 247.691 231.064 261.365 231.064C275.039 231.064 287.949 227.441 288.081 227.403C288.202 227.37 288.323 227.436 288.356 227.557C288.388 227.672 288.323 227.798 288.202 227.831C288.076 227.87 275.094 231.509 261.365 231.509H261.37Z" fill="white"/>
<path d="M200.791 238.069C200.742 238.069 200.692 238.052 200.654 238.019C191.465 230.691 178.417 227.864 178.291 227.837C178.17 227.809 178.093 227.694 178.121 227.573C178.148 227.452 178.269 227.376 178.384 227.403C178.516 227.43 191.663 230.279 200.934 237.673C201.033 237.75 201.049 237.887 200.967 237.986C200.923 238.041 200.857 238.069 200.791 238.069Z" fill="white"/>
<path d="M209.777 218.258H209.332V260.531H209.777V218.258Z" fill="white"/>
<path d="M178.335 211.336H177.89V243.519H178.335V211.336Z" fill="white"/>
<path d="M284.343 237.849H237.536C236.799 237.849 236.202 238.446 236.202 239.183V242.185C236.202 242.922 236.799 243.519 237.536 243.519H284.343C285.079 243.519 285.677 242.922 285.677 242.185V239.183C285.677 238.446 285.079 237.849 284.343 237.849Z" fill="#242829"/>
<path d="M281.949 237.849H239.924V243.519H281.949V237.849Z" fill="#414141"/>
<path d="M284.343 247.032H237.536C236.799 247.032 236.202 247.63 236.202 248.366V251.369C236.202 252.106 236.799 252.703 237.536 252.703H284.343C285.079 252.703 285.677 252.106 285.677 251.369V248.366C285.677 247.63 285.079 247.032 284.343 247.032Z" fill="#242829"/>
<path d="M281.949 247.032H239.924V252.703H281.949V247.032Z" fill="#414141"/>
<path d="M194.896 257.484H184.225C175.327 257.484 168.119 269.467 168.119 284.244C168.119 299.021 175.332 311.004 184.225 311.004H194.896C203.794 311.004 211.001 299.021 211.001 284.244C211.001 269.467 203.788 257.484 194.896 257.484Z" fill="#242829"/>
<path d="M200.336 284.244C200.336 299.021 193.123 311.004 184.23 311.004C175.338 311.004 168.125 299.021 168.125 284.244C168.125 269.467 175.338 257.484 184.23 257.484C193.123 257.484 200.336 269.467 200.336 284.244Z" fill="#414141"/>
<path d="M196.46 284.244C196.46 295.464 190.982 304.56 184.23 304.56C177.478 304.56 172 295.464 172 284.244C172 273.024 177.473 263.928 184.23 263.928C190.987 263.928 196.46 273.024 196.46 284.244Z" fill="#BEBEBE"/>
<path d="M191.542 284.244C191.542 292.544 187.88 299.268 183.363 299.268C178.845 299.268 175.184 292.538 175.184 284.244C175.184 275.95 178.845 269.22 183.363 269.22C187.88 269.22 191.542 275.944 191.542 284.244Z" fill="#91908E"/>
<path d="M153.007 263.863H143.61C135.777 263.863 129.42 274.418 129.42 287.433C129.42 300.448 135.771 311.004 143.61 311.004H153.007C160.846 311.004 167.197 300.448 167.197 287.433C167.197 274.418 160.846 263.863 153.007 263.863Z" fill="#242829"/>
<path d="M143.61 311.004C151.447 311.004 157.8 300.451 157.8 287.433C157.8 274.416 151.447 263.863 143.61 263.863C135.773 263.863 129.42 274.416 129.42 287.433C129.42 300.451 135.773 311.004 143.61 311.004Z" fill="#414141"/>
<path d="M143.61 305.334C149.561 305.334 154.385 297.32 154.385 287.433C154.385 277.547 149.561 269.533 143.61 269.533C137.659 269.533 132.834 277.547 132.834 287.433C132.834 297.32 137.659 305.334 143.61 305.334Z" fill="#BEBEBE"/>
<path d="M150.054 287.433C150.054 294.745 146.826 300.668 142.847 300.668C138.867 300.668 135.645 294.739 135.645 287.433C135.645 280.127 138.872 274.199 142.847 274.199C146.821 274.199 150.054 280.122 150.054 287.433Z" fill="#91908E"/>
<path d="M48.2396 263.863H38.842C31.0089 263.863 24.6523 274.418 24.6523 287.433C24.6523 300.448 31.0034 311.004 38.842 311.004H48.2396C56.0783 311.004 62.4293 300.448 62.4293 287.433C62.4293 274.418 56.0783 263.863 48.2396 263.863Z" fill="#242829"/>
<path d="M53.0317 287.433C53.0317 300.454 46.6807 311.004 38.842 311.004C31.0034 311.004 24.6523 300.448 24.6523 287.433C24.6523 274.418 31.0034 263.863 38.842 263.863C46.6807 263.863 53.0317 274.418 53.0317 287.433Z" fill="#414141"/>
<path d="M49.6174 287.433C49.6174 297.32 44.7924 305.334 38.842 305.334C32.8917 305.334 28.0667 297.32 28.0667 287.433C28.0667 277.547 32.8917 269.533 38.842 269.533C44.7924 269.533 49.6174 277.547 49.6174 287.433Z" fill="#BEBEBE"/>
<path d="M45.2865 287.433C45.2865 294.745 42.0588 300.668 38.0791 300.668C34.0994 300.668 30.8772 294.739 30.8772 287.433C30.8772 280.127 34.1049 274.199 38.0791 274.199C42.0533 274.199 45.2865 280.122 45.2865 287.433Z" fill="#91908E"/>
<path d="M73.6822 263.863H64.2847C56.4515 263.863 50.095 274.418 50.095 287.433C50.095 300.448 56.446 311.004 64.2847 311.004H73.6822C81.5209 311.004 87.8719 300.448 87.8719 287.433C87.8719 274.418 81.5209 263.863 73.6822 263.863Z" fill="#242829"/>
<path d="M78.4744 287.433C78.4744 300.454 72.1233 311.004 64.2847 311.004C56.446 311.004 50.095 300.448 50.095 287.433C50.095 274.418 56.446 263.863 64.2847 263.863C72.1233 263.863 78.4744 274.418 78.4744 287.433Z" fill="#414141"/>
<path d="M75.06 287.433C75.06 297.32 70.235 305.334 64.2847 305.334C58.3343 305.334 53.5093 297.32 53.5093 287.433C53.5093 277.547 58.3343 269.533 64.2847 269.533C70.235 269.533 75.06 277.547 75.06 287.433Z" fill="#BEBEBE"/>
<path d="M70.7291 287.433C70.7291 294.745 67.5014 300.668 63.5217 300.668C59.542 300.668 56.3198 294.739 56.3198 287.433C56.3198 280.127 59.5475 274.199 63.5217 274.199C67.4959 274.199 70.7291 280.122 70.7291 287.433Z" fill="#91908E"/>
<path d="M177.22 190.982V213.63C177.22 214.349 189.368 214.47 209.821 221.535C212.417 222.43 209.892 194.917 206.791 187.32C205.923 185.201 177.22 189.829 177.22 190.982Z" fill="#80B5D4"/>
<path d="M191.223 213.504L189.999 189.714C197.091 188.61 205.111 187.76 207.186 188.402C207.054 188.007 206.923 187.644 206.791 187.315C205.923 185.196 177.22 189.824 177.22 190.976V213.625C177.22 213.625 177.231 213.663 177.248 213.68C177.248 213.68 177.259 213.691 177.264 213.696C177.281 213.713 177.303 213.729 177.33 213.74C177.33 213.74 177.335 213.74 177.341 213.746C177.374 213.762 177.418 213.779 177.467 213.795C177.484 213.795 177.5 213.806 177.517 213.812C177.555 213.823 177.604 213.839 177.648 213.85C177.67 213.85 177.687 213.861 177.709 213.866C177.775 213.883 177.84 213.899 177.917 213.916C177.956 213.921 177.994 213.932 178.033 213.938C178.055 213.938 178.077 213.949 178.098 213.954C179.218 214.168 181.387 214.437 184.493 214.97C184.719 215.008 184.949 215.047 185.185 215.091C185.229 215.096 185.273 215.107 185.317 215.112C186.052 215.244 186.832 215.387 187.661 215.546C187.941 215.601 188.226 215.656 188.517 215.716C188.534 215.716 188.545 215.716 188.555 215.722C189.428 215.897 190.345 216.084 191.306 216.298C196.306 217.391 202.526 219.021 209.804 221.535C210.359 221.727 210.683 220.613 210.814 218.67C203.047 216.166 196.455 214.569 191.207 213.51L191.223 213.504ZM178.109 211.336V192.393C178.109 192.019 181.101 191.284 185.185 190.532L184.581 212.307C181.43 211.808 179.24 211.544 178.109 211.336Z" fill="#242829"/>
<path d="M195.395 187.315H203.821C204.068 187.315 204.266 187.513 204.266 187.76V209.755C204.266 210.002 204.068 210.2 203.821 210.2H195.395C195.148 210.2 194.95 210.002 194.95 209.755V187.76C194.95 187.513 195.148 187.315 195.395 187.315Z" fill="#414141"/>
<path d="M213.092 216.875L204.266 209.107V187.76C204.266 187.721 204.255 187.688 204.244 187.65L211.017 183.407C211.226 183.275 211.286 183 211.16 182.792C211.028 182.583 210.754 182.523 210.545 182.649L203.107 187.309H202.372V207.504C202.372 207.751 202.174 207.949 201.927 207.949H194.95V209.75C194.95 209.997 195.148 210.194 195.395 210.194H203.821C203.914 210.194 203.997 210.161 204.068 210.112L212.505 217.533C212.587 217.61 212.692 217.643 212.801 217.643C212.922 217.643 213.048 217.594 213.136 217.489C213.295 217.303 213.279 217.023 213.098 216.864L213.092 216.875Z" fill="#242829"/>
<path d="M212.165 173.745C211.292 175.063 218.851 216.951 219.861 218.944C220.876 220.937 274.874 224.17 292.972 218.944C294.866 218.395 284.063 180.431 279.606 174.964C275.149 169.497 214.02 170.951 212.165 173.751V173.745Z" fill="#80B5D4"/>
<path d="M254.723 171.374L217.346 207.307C218.527 213.531 219.531 218.307 219.861 218.944C219.948 219.114 220.431 219.295 221.238 219.476L270.241 172.368C265.926 171.852 260.508 171.533 254.723 171.374Z" fill="#5A98C1"/>
<path d="M286.912 193.051L257.05 221.76C259.69 221.776 262.347 221.771 264.971 221.727L288.707 198.908C288.136 196.96 287.532 194.989 286.912 193.051Z" fill="#5A98C1"/>
<path d="M282.004 179.438L238.573 221.189C240.961 221.321 243.492 221.436 246.104 221.529L284.161 184.938C283.415 182.885 282.685 181.013 281.999 179.438H282.004Z" fill="#5A98C1"/>
<path d="M279.606 174.964C275.148 169.497 214.02 170.951 212.165 173.751C211.885 174.168 212.461 178.691 213.405 184.729L284.255 185.202C282.493 180.327 280.813 176.452 279.606 174.964Z" fill="#242829"/>
<path d="M218.746 214.377C219.273 216.897 219.674 218.582 219.86 218.944C220.876 220.937 274.874 224.17 292.972 218.944C293.317 218.845 293.235 217.484 292.851 215.299L218.746 214.377Z" fill="#242829"/>
<path d="M228.512 270.109C226.503 270 207.724 270.109 207.724 270.109C207.724 270.109 203.739 261.025 194.901 256.732C183.231 251.062 176.485 258.851 176.485 258.851C176.485 258.851 170.864 255.782 170.694 252.198C170.524 248.613 174.536 239.112 176.485 238.722C180.756 237.871 201.565 243.327 205.32 250.491C209.069 257.654 210.606 264.477 210.606 264.477H228.517V270.104L228.512 270.109Z" fill="#414141"/>
<path d="M196.246 251.484C206.725 256.221 209.003 267.573 209.003 267.573H228.512V264.483H210.6C210.6 264.483 209.063 257.66 205.314 250.496C201.559 243.333 180.755 237.876 176.479 238.727C174.525 239.117 170.512 248.624 170.688 252.203C170.71 252.604 170.798 252.999 170.94 253.383C172.675 252.181 183.17 245.567 196.246 251.484Z" fill="#91908E"/>
<path d="M209.816 258.758H298.593C299.373 258.758 300.004 259.389 300.004 260.168V280.572C300.004 281.346 299.373 281.977 298.599 281.977H209.821C209.047 281.977 208.416 281.346 208.416 280.572V260.163C208.416 259.389 209.047 258.758 209.821 258.758H209.816Z" fill="#414141"/>
<path d="M214.179 261.568H299.998V260.163C299.998 259.383 299.367 258.758 298.593 258.758H209.815C209.036 258.758 208.405 259.389 208.405 260.163V280.572C208.405 281.351 209.036 281.977 209.815 281.977H212.768V262.979C212.768 262.199 213.4 261.568 214.174 261.568H214.179Z" fill="#666666"/>
<path d="M286.555 262.979C285.776 262.979 285.15 263.61 285.15 264.384V271.278C285.15 272.052 285.781 272.684 286.555 272.684H299.998V262.594L286.555 262.973V262.979Z" fill="#242829"/>
<path d="M240.467 271.278C240.467 272.052 239.836 272.684 239.062 272.684H214.179C213.4 272.684 212.774 272.052 212.774 271.278V263.681C212.774 262.907 213.405 262.276 214.179 262.276L239.062 262.979C239.842 262.979 240.467 263.61 240.467 264.384V271.278Z" fill="#242829"/>
<path d="M233.32 264.395L212.769 263.813V271.278C212.769 272.052 213.4 272.684 214.174 272.684H235.862C235.818 272.448 234.967 267.633 234.726 265.8C234.621 265.026 234.094 264.389 233.315 264.389L233.32 264.395Z" fill="#91908E"/>
<path d="M292.291 264.395C291.512 264.395 290.985 265.031 290.886 265.805C290.645 267.639 289.794 272.453 289.75 272.689H299.998V264.181L292.291 264.4V264.395Z" fill="#91908E"/>
<path d="M243.997 263.292H278.826C278.826 263.292 277.948 271.696 275.796 271.734C273.178 271.778 251.287 272.288 248.569 272.288C244.441 272.288 243.997 263.292 243.997 263.292Z" fill="#91908E"/>
<path d="M251.375 266.14C251.051 265.191 250.562 264.109 249.832 263.292H243.953C243.953 263.292 244.398 272.288 248.526 272.288C249.02 272.288 250.139 272.272 251.666 272.244C252.05 270.159 252.116 268.182 251.375 266.14Z" fill="#242829"/>
<path d="M271.372 263.292C270.971 264.269 270.845 265.41 270.686 266.426C270.4 268.248 270.241 270.049 270.422 271.844C273.063 271.783 275.072 271.74 275.758 271.729C277.915 271.696 278.788 263.286 278.788 263.286H271.372V263.292Z" fill="#242829"/>
<path d="M269.862 271.202L252.873 271.619V264.439H269.862V271.202Z" fill="#BEBEBE"/>
<path d="M262.232 280.577H281.702C281.702 280.577 280.061 278.113 278.656 278.113H242.987C241.581 278.113 239.94 280.577 239.94 280.577H262.238H262.232Z" fill="#242829"/>
<defs>
<linearGradient id="paint0_linear_307_637" x1="260.076" y1="110.499" x2="261.361" y2="110.499" gradientUnits="userSpaceOnUse">
<stop stop-color="#311944"/>
<stop offset="1" stop-color="#A03976"/>
</linearGradient>
<linearGradient id="paint1_linear_307_637" x1="141.47" y1="106.329" x2="142.756" y2="106.329" gradientUnits="userSpaceOnUse">
<stop stop-color="#311944"/>
<stop offset="1" stop-color="#A03976"/>
</linearGradient>
<linearGradient id="paint2_linear_307_637" x1="109.474" y1="74.698" x2="298.566" y2="74.698" gradientUnits="userSpaceOnUse">
<stop stop-color="#311944"/>
<stop offset="1" stop-color="#A03976"/>
</linearGradient>
<linearGradient id="paint3_linear_307_637" x1="122.438" y1="111.677" x2="269.15" y2="111.677" gradientUnits="userSpaceOnUse">
<stop stop-color="#AA80F9"/>
<stop offset="1" stop-color="#6165D7"/>
</linearGradient>
<linearGradient id="paint4_linear_307_637" x1="122.416" y1="104.307" x2="269.144" y2="104.307" gradientUnits="userSpaceOnUse">
<stop stop-color="#AA80F9"/>
<stop offset="1" stop-color="#6165D7"/>
</linearGradient>
<linearGradient id="paint5_linear_307_637" x1="105.656" y1="28.8279" x2="143.041" y2="125.059" gradientUnits="userSpaceOnUse">
<stop stop-color="#AA80F9"/>
<stop offset="1" stop-color="#6165D7"/>
</linearGradient>
<linearGradient id="paint6_linear_307_637" x1="258.25" y1="58.5464" x2="277.858" y2="109.018" gradientUnits="userSpaceOnUse">
<stop stop-color="#FF9085"/>
<stop offset="1" stop-color="#FB6FBB"/>
</linearGradient>
</defs>
</svg>
